<?xml version="1.0" encoding="utf-8" standalone="no"?>
<!DOCTYPE svg PUBLIC "-//W3C//DTD SVG 1.1//EN"
  "http://www.w3.org/Graphics/SVG/1.1/DTD/svg11.dtd">
<!-- Created with matplotlib (http://matplotlib.org/) -->
<svg height="280pt" version="1.1" viewBox="0 0 627 280" width="627pt" xmlns="http://www.w3.org/2000/svg" xmlns:xlink="http://www.w3.org/1999/xlink">
 <defs>
  <style type="text/css">
*{stroke-linecap:butt;stroke-linejoin:round;}
  </style>
 </defs>
 <g id="figure_1">
  <g id="patch_1">
   <path d="
M0 280.074
L627.784 280.074
L627.784 0
L0 0
z
" style="fill:none;"/>
  </g>
  <g id="axes_1">
   <g id="patch_2">
    <path d="
M62.5844 244.518
L620.584 244.518
L620.584 21.3181
L62.5844 21.3181
z
" style="fill:#ffffff;"/>
   </g>
   <g id="line2d_1">
    <defs>
     <path d="
M-3 3
L3 3
L3 -3
L-3 -3
z
" id="m8a286e445b" style="stroke:#000000;stroke-linejoin:miter;stroke-width:0.5;"/>
    </defs>
    <g clip-path="url(#p3f5ec94d22)">
     <use style="fill:#0000ff;stroke:#000000;stroke-linejoin:miter;stroke-width:0.5;" x="1773.784375" xlink:href="#m8a286e445b" y="67.1043177039"/>
     <use style="fill:#0000ff;stroke:#000000;stroke-linejoin:miter;stroke-width:0.5;" x="1773.784375" xlink:href="#m8a286e445b" y="66.7021924203"/>
     <use style="fill:#0000ff;stroke:#000000;stroke-linejoin:miter;stroke-width:0.5;" x="1770.064375" xlink:href="#m8a286e445b" y="66.633204075"/>
     <use style="fill:#0000ff;stroke:#000000;stroke-linejoin:miter;stroke-width:0.5;" x="1736.584375" xlink:href="#m8a286e445b" y="66.8830714628"/>
     <use style="fill:#0000ff;stroke:#000000;stroke-linejoin:miter;stroke-width:0.5;" x="1699.384375" xlink:href="#m8a286e445b" y="66.6795165513"/>
     <use style="fill:#0000ff;stroke:#000000;stroke-linejoin:miter;stroke-width:0.5;" x="1641.724375" xlink:href="#m8a286e445b" y="66.3908634097"/>
     <use style="fill:#0000ff;stroke:#000000;stroke-linejoin:miter;stroke-width:0.5;" x="1572.904375" xlink:href="#m8a286e445b" y="65.9551410791"/>
     <use style="fill:#0000ff;stroke:#000000;stroke-linejoin:miter;stroke-width:0.5;" x="1513.384375" xlink:href="#m8a286e445b" y="65.3867964911"/>
     <use style="fill:#0000ff;stroke:#000000;stroke-linejoin:miter;stroke-width:0.5;" x="1438.984375" xlink:href="#m8a286e445b" y="64.9543100297"/>
     <use style="fill:#0000ff;stroke:#000000;stroke-linejoin:miter;stroke-width:0.5;" x="1364.584375" xlink:href="#m8a286e445b" y="64.8139765"/>
     <use style="fill:#0000ff;stroke:#000000;stroke-linejoin:miter;stroke-width:0.5;" x="1290.184375" xlink:href="#m8a286e445b" y="65.1418302705"/>
     <use style="fill:#0000ff;stroke:#000000;stroke-linejoin:miter;stroke-width:0.5;" x="1258.564375" xlink:href="#m8a286e445b" y="65.4412747907"/>
     <use style="fill:#0000ff;stroke:#000000;stroke-linejoin:miter;stroke-width:0.5;" x="1215.784375" xlink:href="#m8a286e445b" y="65.5604734157"/>
     <use style="fill:#0000ff;stroke:#000000;stroke-linejoin:miter;stroke-width:0.5;" x="1178.584375" xlink:href="#m8a286e445b" y="65.6694516713"/>
     <use style="fill:#0000ff;stroke:#000000;stroke-linejoin:miter;stroke-width:0.5;" x="1141.384375" xlink:href="#m8a286e445b" y="65.7518386988"/>
     <use style="fill:#0000ff;stroke:#000000;stroke-linejoin:miter;stroke-width:0.5;" x="1104.184375" xlink:href="#m8a286e445b" y="65.9136809992"/>
     <use style="fill:#0000ff;stroke:#000000;stroke-linejoin:miter;stroke-width:0.5;" x="1066.984375" xlink:href="#m8a286e445b" y="65.9726203686"/>
     <use style="fill:#0000ff;stroke:#000000;stroke-linejoin:miter;stroke-width:0.5;" x="1029.784375" xlink:href="#m8a286e445b" y="66.0690829312"/>
     <use style="fill:#0000ff;stroke:#000000;stroke-linejoin:miter;stroke-width:0.5;" x="992.584375" xlink:href="#m8a286e445b" y="66.1552817956"/>
     <use style="fill:#0000ff;stroke:#000000;stroke-linejoin:miter;stroke-width:0.5;" x="955.384375" xlink:href="#m8a286e445b" y="66.2389982238"/>
     <use style="fill:#0000ff;stroke:#000000;stroke-linejoin:miter;stroke-width:0.5;" x="918.184375" xlink:href="#m8a286e445b" y="66.3203388679"/>
     <use style="fill:#0000ff;stroke:#000000;stroke-linejoin:miter;stroke-width:0.5;" x="880.984375" xlink:href="#m8a286e445b" y="66.3459686777"/>
     <use style="fill:#0000ff;stroke:#000000;stroke-linejoin:miter;stroke-width:0.5;" x="843.784375" xlink:href="#m8a286e445b" y="66.4920824626"/>
     <use style="fill:#0000ff;stroke:#000000;stroke-linejoin:miter;stroke-width:0.5;" x="806.584375" xlink:href="#m8a286e445b" y="66.5396353328"/>
     <use style="fill:#0000ff;stroke:#000000;stroke-linejoin:miter;stroke-width:0.5;" x="769.384375" xlink:href="#m8a286e445b" y="66.5868845986"/>
     <use style="fill:#0000ff;stroke:#000000;stroke-linejoin:miter;stroke-width:0.5;" x="732.184375" xlink:href="#m8a286e445b" y="66.7563845546"/>
     <use style="fill:#0000ff;stroke:#000000;stroke-linejoin:miter;stroke-width:0.5;" x="694.984375" xlink:href="#m8a286e445b" y="66.8270280524"/>
     <use style="fill:#0000ff;stroke:#000000;stroke-linejoin:miter;stroke-width:0.5;" x="657.784375" xlink:href="#m8a286e445b" y="66.9430340796"/>
     <use style="fill:#0000ff;stroke:#000000;stroke-linejoin:miter;stroke-width:0.5;" x="620.584375" xlink:href="#m8a286e445b" y="67.0949998093"/>
     <use style="fill:#0000ff;stroke:#000000;stroke-linejoin:miter;stroke-width:0.5;" x="583.384375" xlink:href="#m8a286e445b" y="67.2858184919"/>
     <use style="fill:#0000ff;stroke:#000000;stroke-linejoin:miter;stroke-width:0.5;" x="546.184375" xlink:href="#m8a286e445b" y="67.6593209103"/>
     <use style="fill:#0000ff;stroke:#000000;stroke-linejoin:miter;stroke-width:0.5;" x="508.984375" xlink:href="#m8a286e445b" y="68.440113095"/>
     <use style="fill:#0000ff;stroke:#000000;stroke-linejoin:miter;stroke-width:0.5;" x="471.784375" xlink:href="#m8a286e445b" y="69.5755316907"/>
     <use style="fill:#0000ff;stroke:#000000;stroke-linejoin:miter;stroke-width:0.5;" x="434.584375" xlink:href="#m8a286e445b" y="73.1901511494"/>
     <use style="fill:#0000ff;stroke:#000000;stroke-linejoin:miter;stroke-width:0.5;" x="397.384375" xlink:href="#m8a286e445b" y="101.685143472"/>
     <use style="fill:#0000ff;stroke:#000000;stroke-linejoin:miter;stroke-width:0.5;" x="360.184375" xlink:href="#m8a286e445b" y="212.373386964"/>
     <use style="fill:#0000ff;stroke:#000000;stroke-linejoin:miter;stroke-width:0.5;" x="322.984375" xlink:href="#m8a286e445b" y="228.02490398"/>
     <use style="fill:#0000ff;stroke:#000000;stroke-linejoin:miter;stroke-width:0.5;" x="285.784375" xlink:href="#m8a286e445b" y="136.690137135"/>
     <use style="fill:#0000ff;stroke:#000000;stroke-linejoin:miter;stroke-width:0.5;" x="248.584375" xlink:href="#m8a286e445b" y="102.282664126"/>
     <use style="fill:#0000ff;stroke:#000000;stroke-linejoin:miter;stroke-width:0.5;" x="211.384375" xlink:href="#m8a286e445b" y="83.967945433"/>
     <use style="fill:#0000ff;stroke:#000000;stroke-linejoin:miter;stroke-width:0.5;" x="174.184375" xlink:href="#m8a286e445b" y="76.0156729953"/>
     <use style="fill:#0000ff;stroke:#000000;stroke-linejoin:miter;stroke-width:0.5;" x="136.984375" xlink:href="#m8a286e445b" y="72.2119934918"/>
     <use style="fill:#0000ff;stroke:#000000;stroke-linejoin:miter;stroke-width:0.5;" x="99.784375" xlink:href="#m8a286e445b" y="70.1790514461"/>
     <use style="fill:#0000ff;stroke:#000000;stroke-linejoin:miter;stroke-width:0.5;" x="62.584375" xlink:href="#m8a286e445b" y="69.4905960399"/>
     <use style="fill:#0000ff;stroke:#000000;stroke-linejoin:miter;stroke-width:0.5;" x="25.384375" xlink:href="#m8a286e445b" y="68.8999301448"/>
     <use style="fill:#0000ff;stroke:#000000;stroke-linejoin:miter;stroke-width:0.5;" x="-1.0" xlink:href="#m8a286e445b" y="68.6733943687"/>
    </g>
   </g>
   <g id="line2d_2">
    <defs>
     <path d="
M-1.9984e-16 4.24264
L2.54558 0
L2.44249e-16 -4.24264
L-2.54558 -8.88178e-16
z
" id="m811eccb2e0" style="stroke:#000000;stroke-linejoin:miter;stroke-width:0.5;"/>
    </defs>
    <g clip-path="url(#p3f5ec94d22)">
     <use style="fill:#0000ff;stroke:#000000;stroke-linejoin:miter;stroke-width:0.5;" x="1922.230975" xlink:href="#m811eccb2e0" y="68.41519988"/>
     <use style="fill:#0000ff;stroke:#000000;stroke-linejoin:miter;stroke-width:0.5;" x="1711.898455" xlink:href="#m811eccb2e0" y="68.346360536"/>
     <use style="fill:#0000ff;stroke:#000000;stroke-linejoin:miter;stroke-width:0.5;" x="1520.578855" xlink:href="#m811eccb2e0" y="68.357641064"/>
     <use style="fill:#0000ff;stroke:#000000;stroke-linejoin:miter;stroke-width:0.5;" x="1328.957935" xlink:href="#m811eccb2e0" y="69.413769896"/>
     <use style="fill:#0000ff;stroke:#000000;stroke-linejoin:miter;stroke-width:0.5;" x="1168.376695" xlink:href="#m811eccb2e0" y="68.346445352"/>
     <use style="fill:#0000ff;stroke:#000000;stroke-linejoin:miter;stroke-width:0.5;" x="1121.419135" xlink:href="#m811eccb2e0" y="65.940010088"/>
     <use style="fill:#0000ff;stroke:#000000;stroke-linejoin:miter;stroke-width:0.5;" x="1089.918175" xlink:href="#m811eccb2e0" y="65.80228676"/>
     <use style="fill:#0000ff;stroke:#000000;stroke-linejoin:miter;stroke-width:0.5;" x="1053.506815" xlink:href="#m811eccb2e0" y="66.200738936"/>
     <use style="fill:#0000ff;stroke:#000000;stroke-linejoin:miter;stroke-width:0.5;" x="1018.814095" xlink:href="#m811eccb2e0" y="66.526164536"/>
     <use style="fill:#0000ff;stroke:#000000;stroke-linejoin:miter;stroke-width:0.5;" x="984.166015" xlink:href="#m811eccb2e0" y="66.153228584"/>
     <use style="fill:#0000ff;stroke:#000000;stroke-linejoin:miter;stroke-width:0.5;" x="951.080335" xlink:href="#m811eccb2e0" y="66.114048056"/>
     <use style="fill:#0000ff;stroke:#000000;stroke-linejoin:miter;stroke-width:0.5;" x="914.159335" xlink:href="#m811eccb2e0" y="66.650620856"/>
     <use style="fill:#0000ff;stroke:#000000;stroke-linejoin:miter;stroke-width:0.5;" x="877.751695" xlink:href="#m811eccb2e0" y="66.762078008"/>
     <use style="fill:#0000ff;stroke:#000000;stroke-linejoin:miter;stroke-width:0.5;" x="840.161095" xlink:href="#m811eccb2e0" y="66.820426952"/>
     <use style="fill:#0000ff;stroke:#000000;stroke-linejoin:miter;stroke-width:0.5;" x="803.098735" xlink:href="#m811eccb2e0" y="66.879878504"/>
     <use style="fill:#0000ff;stroke:#000000;stroke-linejoin:miter;stroke-width:0.5;" x="765.924775" xlink:href="#m811eccb2e0" y="67.00852652"/>
     <use style="fill:#0000ff;stroke:#000000;stroke-linejoin:miter;stroke-width:0.5;" x="728.858695" xlink:href="#m811eccb2e0" y="67.102926728"/>
     <use style="fill:#0000ff;stroke:#000000;stroke-linejoin:miter;stroke-width:0.5;" x="691.286695" xlink:href="#m811eccb2e0" y="67.758706184"/>
     <use style="fill:#0000ff;stroke:#000000;stroke-linejoin:miter;stroke-width:0.5;" x="627.365935" xlink:href="#m811eccb2e0" y="67.117823096"/>
     <use style="fill:#0000ff;stroke:#000000;stroke-linejoin:miter;stroke-width:0.5;" x="622.031455" xlink:href="#m811eccb2e0" y="66.925938056"/>
     <use style="fill:#0000ff;stroke:#000000;stroke-linejoin:miter;stroke-width:0.5;" x="586.170655" xlink:href="#m811eccb2e0" y="68.063374184"/>
     <use style="fill:#0000ff;stroke:#000000;stroke-linejoin:miter;stroke-width:0.5;" x="562.094815" xlink:href="#m811eccb2e0" y="67.63618724"/>
     <use style="fill:#0000ff;stroke:#000000;stroke-linejoin:miter;stroke-width:0.5;" x="542.073775" xlink:href="#m811eccb2e0" y="67.327648952"/>
     <use style="fill:#0000ff;stroke:#000000;stroke-linejoin:miter;stroke-width:0.5;" x="523.853215" xlink:href="#m811eccb2e0" y="67.76977244"/>
     <use style="fill:#0000ff;stroke:#000000;stroke-linejoin:miter;stroke-width:0.5;" x="505.409455" xlink:href="#m811eccb2e0" y="68.479320776"/>
     <use style="fill:#0000ff;stroke:#000000;stroke-linejoin:miter;stroke-width:0.5;" x="486.842935" xlink:href="#m811eccb2e0" y="70.141259048"/>
     <use style="fill:#0000ff;stroke:#000000;stroke-linejoin:miter;stroke-width:0.5;" x="468.261535" xlink:href="#m811eccb2e0" y="74.364095912"/>
     <use style="fill:#0000ff;stroke:#000000;stroke-linejoin:miter;stroke-width:0.5;" x="450.238135" xlink:href="#m811eccb2e0" y="86.383710536"/>
     <use style="fill:#0000ff;stroke:#000000;stroke-linejoin:miter;stroke-width:0.5;" x="431.325655" xlink:href="#m811eccb2e0" y="112.405277192"/>
     <use style="fill:#0000ff;stroke:#000000;stroke-linejoin:miter;stroke-width:0.5;" x="412.971175" xlink:href="#m811eccb2e0" y="129.12365804"/>
     <use style="fill:#0000ff;stroke:#000000;stroke-linejoin:miter;stroke-width:0.5;" x="393.359335" xlink:href="#m811eccb2e0" y="116.984698376"/>
     <use style="fill:#0000ff;stroke:#000000;stroke-linejoin:miter;stroke-width:0.5;" x="375.633535" xlink:href="#m811eccb2e0" y="103.05269276"/>
     <use style="fill:#0000ff;stroke:#000000;stroke-linejoin:miter;stroke-width:0.5;" x="357.133975" xlink:href="#m811eccb2e0" y="91.789636856"/>
     <use style="fill:#0000ff;stroke:#000000;stroke-linejoin:miter;stroke-width:0.5;" x="338.135935" xlink:href="#m811eccb2e0" y="80.427498008"/>
     <use style="fill:#0000ff;stroke:#000000;stroke-linejoin:miter;stroke-width:0.5;" x="319.699615" xlink:href="#m811eccb2e0" y="75.418604312"/>
     <use style="fill:#0000ff;stroke:#000000;stroke-linejoin:miter;stroke-width:0.5;" x="300.961975" xlink:href="#m811eccb2e0" y="73.180033304"/>
     <use style="fill:#0000ff;stroke:#000000;stroke-linejoin:miter;stroke-width:0.5;" x="282.674455" xlink:href="#m811eccb2e0" y="72.066323336"/>
     <use style="fill:#0000ff;stroke:#000000;stroke-linejoin:miter;stroke-width:0.5;" x="263.631775" xlink:href="#m811eccb2e0" y="69.822123224"/>
     <use style="fill:#0000ff;stroke:#000000;stroke-linejoin:miter;stroke-width:0.5;" x="245.318215" xlink:href="#m811eccb2e0" y="68.909311112"/>
     <use style="fill:#0000ff;stroke:#000000;stroke-linejoin:miter;stroke-width:0.5;" x="227.075335" xlink:href="#m811eccb2e0" y="68.370925928"/>
     <use style="fill:#0000ff;stroke:#000000;stroke-linejoin:miter;stroke-width:0.5;" x="208.002895" xlink:href="#m811eccb2e0" y="67.961550344"/>
     <use style="fill:#0000ff;stroke:#000000;stroke-linejoin:miter;stroke-width:0.5;" x="189.737695" xlink:href="#m811eccb2e0" y="67.603608968"/>
     <use style="fill:#0000ff;stroke:#000000;stroke-linejoin:miter;stroke-width:0.5;" x="170.456935" xlink:href="#m811eccb2e0" y="67.359370136"/>
     <use style="fill:#0000ff;stroke:#000000;stroke-linejoin:miter;stroke-width:0.5;" x="152.801815" xlink:href="#m811eccb2e0" y="67.162382744"/>
     <use style="fill:#0000ff;stroke:#000000;stroke-linejoin:miter;stroke-width:0.5;" x="133.777735" xlink:href="#m811eccb2e0" y="67.074183032"/>
     <use style="fill:#0000ff;stroke:#000000;stroke-linejoin:miter;stroke-width:0.5;" x="114.932215" xlink:href="#m811eccb2e0" y="66.979140008"/>
     <use style="fill:#0000ff;stroke:#000000;stroke-linejoin:miter;stroke-width:0.5;" x="96.432655" xlink:href="#m811eccb2e0" y="66.832921688"/>
     <use style="fill:#0000ff;stroke:#000000;stroke-linejoin:miter;stroke-width:0.5;" x="78.011215" xlink:href="#m811eccb2e0" y="66.755163272"/>
     <use style="fill:#0000ff;stroke:#000000;stroke-linejoin:miter;stroke-width:0.5;" x="58.875535" xlink:href="#m811eccb2e0" y="68.91088244"/>
     <use style="fill:#0000ff;stroke:#000000;stroke-linejoin:miter;stroke-width:0.5;" x="-1.0" xlink:href="#m811eccb2e0" y="69.3153922963"/>
    </g>
   </g>
   <g id="line2d_3">
    <defs>
     <path d="
M-3 3
L3 3
L3 -3
L-3 -3
z
" id="mc5b8a5ec96" style="stroke:#000000;stroke-linejoin:miter;stroke-width:0.5;"/>
    </defs>
    <g clip-path="url(#p3f5ec94d22)">
     <use style="fill:#ff0000;stroke:#000000;stroke-linejoin:miter;stroke-width:0.5;" x="-4475.815625" xlink:href="#mc5b8a5ec96" y="66.1112177693"/>
     <use style="fill:#ff0000;stroke:#000000;stroke-linejoin:miter;stroke-width:0.5;" x="-1.0" xlink:href="#mc5b8a5ec96" y="68.0050798673"/>
     <use style="fill:#ff0000;stroke:#000000;stroke-linejoin:miter;stroke-width:0.5;" x="62.584375" xlink:href="#mc5b8a5ec96" y="68.8886713496"/>
     <use style="fill:#ff0000;stroke:#000000;stroke-linejoin:miter;stroke-width:0.5;" x="136.984375" xlink:href="#mc5b8a5ec96" y="68.4137143106"/>
     <use style="fill:#ff0000;stroke:#000000;stroke-linejoin:miter;stroke-width:0.5;" x="174.184375" xlink:href="#mc5b8a5ec96" y="68.2133064934"/>
     <use style="fill:#ff0000;stroke:#000000;stroke-linejoin:miter;stroke-width:0.5;" x="211.384375" xlink:href="#mc5b8a5ec96" y="69.4824404162"/>
     <use style="fill:#ff0000;stroke:#000000;stroke-linejoin:miter;stroke-width:0.5;" x="248.584375" xlink:href="#mc5b8a5ec96" y="72.4006887984"/>
     <use style="fill:#ff0000;stroke:#000000;stroke-linejoin:miter;stroke-width:0.5;" x="285.784375" xlink:href="#mc5b8a5ec96" y="80.5608407475"/>
     <use style="fill:#ff0000;stroke:#000000;stroke-linejoin:miter;stroke-width:0.5;" x="322.984375" xlink:href="#mc5b8a5ec96" y="100.974225962"/>
     <use style="fill:#ff0000;stroke:#000000;stroke-linejoin:miter;stroke-width:0.5;" x="360.184375" xlink:href="#mc5b8a5ec96" y="107.20618476"/>
     <use style="fill:#ff0000;stroke:#000000;stroke-linejoin:miter;stroke-width:0.5;" x="397.384375" xlink:href="#mc5b8a5ec96" y="86.0581761314"/>
     <use style="fill:#ff0000;stroke:#000000;stroke-linejoin:miter;stroke-width:0.5;" x="434.584375" xlink:href="#mc5b8a5ec96" y="70.9398467917"/>
     <use style="fill:#ff0000;stroke:#000000;stroke-linejoin:miter;stroke-width:0.5;" x="471.784375" xlink:href="#mc5b8a5ec96" y="68.1082667427"/>
     <use style="fill:#ff0000;stroke:#000000;stroke-linejoin:miter;stroke-width:0.5;" x="508.984375" xlink:href="#mc5b8a5ec96" y="67.1092246234"/>
     <use style="fill:#ff0000;stroke:#000000;stroke-linejoin:miter;stroke-width:0.5;" x="546.184375" xlink:href="#mc5b8a5ec96" y="66.9573419401"/>
     <use style="fill:#ff0000;stroke:#000000;stroke-linejoin:miter;stroke-width:0.5;" x="583.384375" xlink:href="#mc5b8a5ec96" y="66.5786204264"/>
     <use style="fill:#ff0000;stroke:#000000;stroke-linejoin:miter;stroke-width:0.5;" x="620.584375" xlink:href="#mc5b8a5ec96" y="66.923053192"/>
     <use style="fill:#ff0000;stroke:#000000;stroke-linejoin:miter;stroke-width:0.5;" x="694.984375" xlink:href="#mc5b8a5ec96" y="67.5068365609"/>
     <use style="fill:#ff0000;stroke:#000000;stroke-linejoin:miter;stroke-width:0.5;" x="769.384375" xlink:href="#mc5b8a5ec96" y="67.23925138"/>
     <use style="fill:#ff0000;stroke:#000000;stroke-linejoin:miter;stroke-width:0.5;" x="843.784375" xlink:href="#mc5b8a5ec96" y="66.9651547718"/>
     <use style="fill:#ff0000;stroke:#000000;stroke-linejoin:miter;stroke-width:0.5;" x="918.184375" xlink:href="#mc5b8a5ec96" y="66.7846239218"/>
     <use style="fill:#ff0000;stroke:#000000;stroke-linejoin:miter;stroke-width:0.5;" x="992.584375" xlink:href="#mc5b8a5ec96" y="66.4384743718"/>
     <use style="fill:#ff0000;stroke:#000000;stroke-linejoin:miter;stroke-width:0.5;" x="1122.784375" xlink:href="#mc5b8a5ec96" y="64.9310735941"/>
     <use style="fill:#ff0000;stroke:#000000;stroke-linejoin:miter;stroke-width:0.5;" x="1401.784375" xlink:href="#mc5b8a5ec96" y="66.5472413117"/>
     <use style="fill:#ff0000;stroke:#000000;stroke-linejoin:miter;stroke-width:0.5;" x="1773.784375" xlink:href="#mc5b8a5ec96" y="69.34926966"/>
    </g>
   </g>
   <g id="line2d_4">
    <defs>
     <path d="
M-1.9984e-16 4.24264
L2.54558 0
L2.44249e-16 -4.24264
L-2.54558 -8.88178e-16
z
" id="m07e8cbd9dd" style="stroke:#000000;stroke-linejoin:miter;stroke-width:0.5;"/>
    </defs>
    <g clip-path="url(#p3f5ec94d22)">
     <use style="fill:#ff0000;stroke:#000000;stroke-linejoin:miter;stroke-width:0.5;" x="-8493.529457" xlink:href="#m07e8cbd9dd" y="65.95718756"/>
     <use style="fill:#ff0000;stroke:#000000;stroke-linejoin:miter;stroke-width:0.5;" x="-1.0" xlink:href="#m07e8cbd9dd" y="67.5496510826"/>
     <use style="fill:#ff0000;stroke:#000000;stroke-linejoin:miter;stroke-width:0.5;" x="78.186055" xlink:href="#m07e8cbd9dd" y="67.216767656"/>
     <use style="fill:#ff0000;stroke:#000000;stroke-linejoin:miter;stroke-width:0.5;" x="84.766735" xlink:href="#m07e8cbd9dd" y="66.22589804"/>
     <use style="fill:#ff0000;stroke:#000000;stroke-linejoin:miter;stroke-width:0.5;" x="102.589255" xlink:href="#m07e8cbd9dd" y="66.2419238"/>
     <use style="fill:#ff0000;stroke:#000000;stroke-linejoin:miter;stroke-width:0.5;" x="120.668455" xlink:href="#m07e8cbd9dd" y="66.29339372"/>
     <use style="fill:#ff0000;stroke:#000000;stroke-linejoin:miter;stroke-width:0.5;" x="139.000615" xlink:href="#m07e8cbd9dd" y="66.324079256"/>
     <use style="fill:#ff0000;stroke:#000000;stroke-linejoin:miter;stroke-width:0.5;" x="157.775455" xlink:href="#m07e8cbd9dd" y="66.357791384"/>
     <use style="fill:#ff0000;stroke:#000000;stroke-linejoin:miter;stroke-width:0.5;" x="176.267575" xlink:href="#m07e8cbd9dd" y="66.399802088"/>
     <use style="fill:#ff0000;stroke:#000000;stroke-linejoin:miter;stroke-width:0.5;" x="194.841535" xlink:href="#m07e8cbd9dd" y="66.452160344"/>
     <use style="fill:#ff0000;stroke:#000000;stroke-linejoin:miter;stroke-width:0.5;" x="213.311335" xlink:href="#m07e8cbd9dd" y="66.514107272"/>
     <use style="fill:#ff0000;stroke:#000000;stroke-linejoin:miter;stroke-width:0.5;" x="232.045255" xlink:href="#m07e8cbd9dd" y="66.608422664"/>
     <use style="fill:#ff0000;stroke:#000000;stroke-linejoin:miter;stroke-width:0.5;" x="250.489015" xlink:href="#m07e8cbd9dd" y="66.756274808"/>
     <use style="fill:#ff0000;stroke:#000000;stroke-linejoin:miter;stroke-width:0.5;" x="269.010895" xlink:href="#m07e8cbd9dd" y="66.954543368"/>
     <use style="fill:#ff0000;stroke:#000000;stroke-linejoin:miter;stroke-width:0.5;" x="287.614615" xlink:href="#m07e8cbd9dd" y="67.282410776"/>
     <use style="fill:#ff0000;stroke:#000000;stroke-linejoin:miter;stroke-width:0.5;" x="306.478735" xlink:href="#m07e8cbd9dd" y="67.818193448"/>
     <use style="fill:#ff0000;stroke:#000000;stroke-linejoin:miter;stroke-width:0.5;" x="325.056415" xlink:href="#m07e8cbd9dd" y="68.650425896"/>
     <use style="fill:#ff0000;stroke:#000000;stroke-linejoin:miter;stroke-width:0.5;" x="343.515055" xlink:href="#m07e8cbd9dd" y="69.877231304"/>
     <use style="fill:#ff0000;stroke:#000000;stroke-linejoin:miter;stroke-width:0.5;" x="362.059255" xlink:href="#m07e8cbd9dd" y="74.315505272"/>
     <use style="fill:#ff0000;stroke:#000000;stroke-linejoin:miter;stroke-width:0.5;" x="379.918975" xlink:href="#m07e8cbd9dd" y="76.073464184"/>
     <use style="fill:#ff0000;stroke:#000000;stroke-linejoin:miter;stroke-width:0.5;" x="399.184855" xlink:href="#m07e8cbd9dd" y="79.211397272"/>
     <use style="fill:#ff0000;stroke:#000000;stroke-linejoin:miter;stroke-width:0.5;" x="417.769975" xlink:href="#m07e8cbd9dd" y="82.87543508"/>
     <use style="fill:#ff0000;stroke:#000000;stroke-linejoin:miter;stroke-width:0.5;" x="436.433215" xlink:href="#m07e8cbd9dd" y="76.571601944"/>
     <use style="fill:#ff0000;stroke:#000000;stroke-linejoin:miter;stroke-width:0.5;" x="454.981135" xlink:href="#m07e8cbd9dd" y="70.325519576"/>
     <use style="fill:#ff0000;stroke:#000000;stroke-linejoin:miter;stroke-width:0.5;" x="473.023135" xlink:href="#m07e8cbd9dd" y="68.230671512"/>
     <use style="fill:#ff0000;stroke:#000000;stroke-linejoin:miter;stroke-width:0.5;" x="492.110455" xlink:href="#m07e8cbd9dd" y="67.344964808"/>
     <use style="fill:#ff0000;stroke:#000000;stroke-linejoin:miter;stroke-width:0.5;" x="510.892735" xlink:href="#m07e8cbd9dd" y="67.050568472"/>
     <use style="fill:#ff0000;stroke:#000000;stroke-linejoin:miter;stroke-width:0.5;" x="529.552255" xlink:href="#m07e8cbd9dd" y="66.789888728"/>
     <use style="fill:#ff0000;stroke:#000000;stroke-linejoin:miter;stroke-width:0.5;" x="548.100175" xlink:href="#m07e8cbd9dd" y="66.670628504"/>
     <use style="fill:#ff0000;stroke:#000000;stroke-linejoin:miter;stroke-width:0.5;" x="567.157735" xlink:href="#m07e8cbd9dd" y="66.569264456"/>
     <use style="fill:#ff0000;stroke:#000000;stroke-linejoin:miter;stroke-width:0.5;" x="584.872375" xlink:href="#m07e8cbd9dd" y="66.455249432"/>
     <use style="fill:#ff0000;stroke:#000000;stroke-linejoin:miter;stroke-width:0.5;" x="603.662095" xlink:href="#m07e8cbd9dd" y="66.407520344"/>
     <use style="fill:#ff0000;stroke:#000000;stroke-linejoin:miter;stroke-width:0.5;" x="622.332775" xlink:href="#m07e8cbd9dd" y="66.521401448"/>
     <use style="fill:#ff0000;stroke:#000000;stroke-linejoin:miter;stroke-width:0.5;" x="664.182775" xlink:href="#m07e8cbd9dd" y="66.536958488"/>
     <use style="fill:#ff0000;stroke:#000000;stroke-linejoin:miter;stroke-width:0.5;" x="696.193375" xlink:href="#m07e8cbd9dd" y="66.523079912"/>
     <use style="fill:#ff0000;stroke:#000000;stroke-linejoin:miter;stroke-width:0.5;" x="733.601695" xlink:href="#m07e8cbd9dd" y="66.655687496"/>
     <use style="fill:#ff0000;stroke:#000000;stroke-linejoin:miter;stroke-width:0.5;" x="770.500375" xlink:href="#m07e8cbd9dd" y="66.60156596"/>
     <use style="fill:#ff0000;stroke:#000000;stroke-linejoin:miter;stroke-width:0.5;" x="808.131895" xlink:href="#m07e8cbd9dd" y="66.487425944"/>
     <use style="fill:#ff0000;stroke:#000000;stroke-linejoin:miter;stroke-width:0.5;" x="845.026855" xlink:href="#m07e8cbd9dd" y="66.390159848"/>
     <use style="fill:#ff0000;stroke:#000000;stroke-linejoin:miter;stroke-width:0.5;" x="882.658375" xlink:href="#m07e8cbd9dd" y="66.328150424"/>
     <use style="fill:#ff0000;stroke:#000000;stroke-linejoin:miter;stroke-width:0.5;" x="919.538455" xlink:href="#m07e8cbd9dd" y="66.277113512"/>
     <use style="fill:#ff0000;stroke:#000000;stroke-linejoin:miter;stroke-width:0.5;" x="956.284615" xlink:href="#m07e8cbd9dd" y="66.223344632"/>
     <use style="fill:#ff0000;stroke:#000000;stroke-linejoin:miter;stroke-width:0.5;" x="993.774775" xlink:href="#m07e8cbd9dd" y="66.25926644"/>
     <use style="fill:#ff0000;stroke:#000000;stroke-linejoin:miter;stroke-width:0.5;" x="1031.142175" xlink:href="#m07e8cbd9dd" y="66.285005864"/>
     <use style="fill:#ff0000;stroke:#000000;stroke-linejoin:miter;stroke-width:0.5;" x="1068.375655" xlink:href="#m07e8cbd9dd" y="66.288130664"/>
     <use style="fill:#ff0000;stroke:#000000;stroke-linejoin:miter;stroke-width:0.5;" x="1105.910455" xlink:href="#m07e8cbd9dd" y="66.24696812"/>
     <use style="fill:#ff0000;stroke:#000000;stroke-linejoin:miter;stroke-width:0.5;" x="1143.084415" xlink:href="#m07e8cbd9dd" y="66.203118248"/>
     <use style="fill:#ff0000;stroke:#000000;stroke-linejoin:miter;stroke-width:0.5;" x="1179.648295" xlink:href="#m07e8cbd9dd" y="66.646697"/>
     <use style="fill:#ff0000;stroke:#000000;stroke-linejoin:miter;stroke-width:0.5;" x="1378.813375" xlink:href="#m07e8cbd9dd" y="66.753132152"/>
     <use style="fill:#ff0000;stroke:#000000;stroke-linejoin:miter;stroke-width:0.5;" x="1570.441735" xlink:href="#m07e8cbd9dd" y="66.535860344"/>
     <use style="fill:#ff0000;stroke:#000000;stroke-linejoin:miter;stroke-width:0.5;" x="1758.915535" xlink:href="#m07e8cbd9dd" y="66.914255768"/>
     <use style="fill:#ff0000;stroke:#000000;stroke-linejoin:miter;stroke-width:0.5;" x="1941.455935" xlink:href="#m07e8cbd9dd" y="67.218919304"/>
    </g>
   </g>
   <g id="line2d_5">
    <path clip-path="url(#p3f5ec94d22)" d="
M62.5844 68.4116
L68.2207 67.6708
L73.8571 67.0569
L79.4935 66.6881
L85.1298 66.6033
L90.7662 66.6933
L96.4026 66.8323
L102.039 66.9199
L107.675 66.958
L113.312 66.9745
L118.948 66.9951
L124.584 67.0249
L130.221 67.0565
L135.857 67.083
L141.493 67.1036
L147.13 67.1269
L152.766 67.1621
L158.403 67.2154
L164.039 67.281
L169.675 67.35
L175.312 67.4155
L180.948 67.4813
L186.584 67.5554
L192.221 67.6458
L197.857 67.7529
L203.493 67.8686
L209.13 67.9843
L214.766 68.0965
L220.403 68.2134
L226.039 68.3445
L231.675 68.4976
L237.312 68.6664
L242.948 68.8387
L248.584 69.0054
L254.221 69.2049
L259.857 69.5144
L265.493 70.0109
L271.13 70.689
L276.766 71.4142
L282.403 72.0411
L288.039 72.464
L293.675 72.7624
L299.312 73.0693
L304.948 73.509
L310.584 74.1173
L316.221 74.8789
L321.857 75.7802
L327.493 76.9063
L333.13 78.4763
L338.766 80.7187
L344.403 83.7303
L350.039 87.2298
L355.675 90.8682
L361.312 94.3354
L366.948 97.6686
L372.584 101.088
L378.221 104.813
L383.857 108.967
L389.493 113.566
L395.13 118.617
L400.766 123.683
L406.403 127.611
L412.039 129.177
L417.675 127.37
L423.312 122.564
L428.948 115.695
L434.584 107.695
L440.221 99.4102
L445.857 91.6135
L451.493 85.0742
L457.13 80.2191
L462.766 76.7585
L468.403 74.3122
L474.039 72.5428
L479.675 71.2697
L485.312 70.3493
L490.948 69.6452
L496.584 69.0937
L502.221 68.6707
L507.857 68.3524
L513.493 68.1117
L519.13 67.9182
L524.766 67.7409
L530.403 67.5655
L536.039 67.418
L541.675 67.3307
L547.312 67.3288
L552.948 67.4033
L558.584 67.5345
L564.221 67.7025
L569.857 67.8788
L575.493 68.0233
L581.13 68.0948
L586.766 68.0523
L592.403 67.8772
L598.039 67.6165
L603.675 67.3292
L609.312 67.0744
L614.948 66.9109
L620.584 66.8979" style="fill:none;stroke:#0000ff;stroke-linecap:square;"/>
   </g>
   <g id="line2d_6">
    <path clip-path="url(#p3f5ec94d22)" d="
M62.5844 68.1705
L68.2207 68.7175
L73.8571 69.7583
L79.4935 71.0929
L85.1298 72.5211
L90.7662 73.8431
L96.4026 74.8588
L102.039 75.3718
L107.675 75.3309
L113.312 74.8729
L118.948 74.1473
L124.584 73.3037
L130.221 72.4914
L135.857 71.8601
L141.493 71.5437
L147.13 71.561
L152.766 71.8794
L158.403 72.4659
L164.039 73.2877
L169.675 74.3118
L175.312 75.5054
L180.948 76.8359
L186.584 78.2713
L192.221 79.78
L197.857 81.3301
L203.493 82.8899
L209.13 84.4276
L214.766 85.9157
L220.403 87.3908
L226.039 88.9387
L231.675 90.6462
L237.312 92.6007
L242.948 94.8889
L248.584 97.5981
L254.221 100.846
L259.857 104.87
L265.493 109.941
L271.13 116.327
L276.766 124.298
L282.403 134.122
L288.039 146.058
L293.675 159.891
L299.312 174.798
L304.948 189.916
L310.584 204.381
L316.221 217.329
L321.857 227.895
L327.493 235.289
L333.13 239.267
L338.766 239.828
L344.403 236.972
L350.039 230.7
L355.675 221.012
L361.312 207.91
L366.948 191.711
L372.584 173.434
L378.221 154.194
L383.857 135.104
L389.493 117.279
L395.13 101.833
L400.766 89.8175
L406.403 81.3588
L412.039 75.8684
L417.675 72.7398
L423.312 71.3666
L428.948 71.1422
L434.584 71.4602
L440.221 71.8156
L445.857 72.1098
L451.493 72.3455
L457.13 72.5256
L462.766 72.6529
L468.403 72.7302
L474.039 72.7601
L479.675 72.7331
L485.312 72.6239
L490.948 72.4063
L496.584 72.054
L502.221 71.5408
L507.857 70.8404
L513.493 69.9377
L519.13 68.8981
L524.766 67.8236
L530.403 66.8164
L536.039 65.9785
L541.675 65.412
L547.312 65.2188
L552.948 65.443
L558.584 66
L564.221 66.7876
L569.857 67.7038
L575.493 68.6466
L581.13 69.5139
L586.766 70.2067
L592.403 70.6722
L598.039 70.8932
L603.675 70.8533
L609.312 70.5362
L614.948 69.9255
L620.584 69.005" style="fill:none;stroke:#0000ff;stroke-linecap:square;"/>
   </g>
   <g id="line2d_7">
    <path clip-path="url(#p3f5ec94d22)" d="
M62.5844 69.499
L68.2207 68.7489
L73.8571 67.9155
L79.4935 66.9968
L85.1298 66.1882
L90.7662 65.904
L96.4026 66.0041
L102.039 66.224
L107.675 66.3394
L113.312 66.3441
L118.948 66.3043
L124.584 66.2817
L130.221 66.2894
L135.857 66.3115
L141.493 66.332
L147.13 66.344
L152.766 66.3514
L158.403 66.3587
L164.039 66.3693
L169.675 66.3825
L175.312 66.3972
L180.948 66.4125
L186.584 66.4282
L192.221 66.4444
L197.857 66.4613
L203.493 66.4791
L209.13 66.4985
L214.766 66.5199
L220.403 66.5441
L226.039 66.5724
L231.675 66.606
L237.312 66.6459
L242.948 66.6909
L248.584 66.7394
L254.221 66.79
L259.857 66.8449
L265.493 66.9085
L271.13 66.9851
L276.766 67.0763
L282.403 67.1792
L288.039 67.2911
L293.675 67.4133
L299.312 67.5619
L304.948 67.7554
L310.584 68.0079
L316.221 68.2883
L321.857 68.5408
L327.493 68.7133
L333.13 68.8757
L338.766 69.2434
L344.403 70.0399
L350.039 71.339
L355.675 72.8366
L361.312 74.1703
L366.948 75.0435
L372.584 75.5534
L378.221 75.9431
L383.857 76.4454
L389.493 77.1877
L395.13 78.2344
L400.766 79.6468
L406.403 81.2664
L412.039 82.5418
L417.675 82.8811
L423.312 81.8722
L428.948 79.8604
L434.584 77.3899
L440.221 74.9811
L445.857 72.8814
L451.493 71.1648
L457.13 69.9003
L462.766 69.0708
L468.403 68.5413
L474.039 68.1688
L479.675 67.8515
L485.312 67.5849
L490.948 67.379
L496.584 67.2403
L502.221 67.152
L507.857 67.0863
L513.493 67.0162
L519.13 66.9334
L524.766 66.8504
L530.403 66.7808
L536.039 66.7326
L541.675 66.6999
L547.312 66.6741
L552.948 66.648
L558.584 66.6191
L564.221 66.5872
L569.857 66.5521
L575.493 66.5149
L581.13 66.4781
L586.766 66.4445
L592.403 66.4177
L598.039 66.4035
L603.675 66.4076
L609.312 66.4328
L614.948 66.4709
L620.584 66.5105" style="fill:none;stroke:#ff0000;stroke-linecap:square;"/>
   </g>
   <g id="line2d_8">
    <path clip-path="url(#p3f5ec94d22)" d="
M62.5844 68.8887
L68.2207 68.9132
L73.8571 68.9241
L79.4935 68.9222
L85.1298 68.9086
L90.7662 68.8843
L96.4026 68.8503
L102.039 68.8078
L107.675 68.7576
L113.312 68.7008
L118.948 68.6385
L124.584 68.5717
L130.221 68.5013
L135.857 68.4285
L141.493 68.3547
L147.13 68.2849
L152.766 68.2256
L158.403 68.1836
L164.039 68.1653
L169.675 68.1774
L175.312 68.2264
L180.948 68.3167
L186.584 68.4478
L192.221 68.6187
L197.857 68.8283
L203.493 69.0755
L209.13 69.359
L214.766 69.6781
L220.403 70.033
L226.039 70.4253
L231.675 70.8567
L237.312 71.3287
L242.948 71.8428
L248.584 72.4007
L254.221 73.0153
L259.857 73.745
L265.493 74.6596
L271.13 75.8287
L276.766 77.3223
L282.403 79.21
L288.039 81.5594
L293.675 84.3536
L299.312 87.4654
L304.948 90.7607
L310.584 94.1052
L316.221 97.3645
L321.857 100.404
L327.493 103.095
L333.13 105.337
L338.766 107.047
L344.403 108.141
L350.039 108.534
L355.675 108.142
L361.312 106.881
L366.948 104.746
L372.584 101.909
L378.221 98.5672
L383.857 94.9151
L389.493 91.1491
L395.13 87.465
L400.766 84.0516
L406.403 80.9911
L412.039 78.2834
L417.675 75.9266
L423.312 73.9184
L428.948 72.2569
L434.584 70.9398
L440.221 69.9561
L445.857 69.2579
L451.493 68.7881
L457.13 68.4899
L462.766 68.3062
L468.403 68.18
L474.039 68.0552
L479.675 67.904
L485.312 67.7357
L490.948 67.5622
L496.584 67.3953
L502.221 67.2467
L507.857 67.1282
L513.493 67.0499
L519.13 67.0072
L524.766 66.9893
L530.403 66.9855
L536.039 66.9849
L541.675 66.9767
L547.312 66.95
L552.948 66.8998
L558.584 66.8334
L564.221 66.7599
L569.857 66.6883
L575.493 66.6277
L581.13 66.5872
L586.766 66.5753
L592.403 66.5927
L598.039 66.6338
L603.675 66.6931
L609.312 66.7648
L614.948 66.8434
L620.584 66.9231" style="fill:none;stroke:#ff0000;stroke-linecap:square;"/>
   </g>
   <g id="patch_3">
    <path d="
M62.5844 21.3181
L620.584 21.3181" style="fill:none;stroke:#000000;stroke-linecap:square;stroke-linejoin:miter;"/>
   </g>
   <g id="patch_4">
    <path d="
M620.584 244.518
L620.584 21.3181" style="fill:none;stroke:#000000;stroke-linecap:square;stroke-linejoin:miter;"/>
   </g>
   <g id="patch_5">
    <path d="
M62.5844 244.518
L620.584 244.518" style="fill:none;stroke:#000000;stroke-linecap:square;stroke-linejoin:miter;"/>
   </g>
   <g id="patch_6">
    <path d="
M62.5844 244.518
L62.5844 21.3181" style="fill:none;stroke:#000000;stroke-linecap:square;stroke-linejoin:miter;"/>
   </g>
   <g id="matplotlib.axis_1">
    <g id="xtick_1">
     <g id="line2d_9">
      <defs>
       <path d="
M0 0
L0 -4" id="m93b0483c22" style="stroke:#000000;stroke-width:0.5;"/>
      </defs>
      <g>
       <use style="stroke:#000000;stroke-width:0.5;" x="62.584375" xlink:href="#m93b0483c22" y="244.518125"/>
      </g>
     </g>
     <g id="line2d_10">
      <defs>
       <path d="
M0 0
L0 4" id="m741efc42ff" style="stroke:#000000;stroke-width:0.5;"/>
      </defs>
      <g>
       <use style="stroke:#000000;stroke-width:0.5;" x="62.584375" xlink:href="#m741efc42ff" y="21.318125"/>
      </g>
     </g>
     <g id="text_1">
      <!-- 250 -->
      <defs>
       <path d="
M19.1875 8.29688
L53.6094 8.29688
L53.6094 0
L7.32812 0
L7.32812 8.29688
Q12.9375 14.1094 22.625 23.8906
Q32.3281 33.6875 34.8125 36.5312
Q39.5469 41.8438 41.4219 45.5312
Q43.3125 49.2188 43.3125 52.7812
Q43.3125 58.5938 39.2344 62.25
Q35.1562 65.9219 28.6094 65.9219
Q23.9688 65.9219 18.8125 64.3125
Q13.6719 62.7031 7.8125 59.4219
L7.8125 69.3906
Q13.7656 71.7812 18.9375 73
Q24.125 74.2188 28.4219 74.2188
Q39.75 74.2188 46.4844 68.5469
Q53.2188 62.8906 53.2188 53.4219
Q53.2188 48.9219 51.5312 44.8906
Q49.8594 40.875 45.4062 35.4062
Q44.1875 33.9844 37.6406 27.2188
Q31.1094 20.4531 19.1875 8.29688" id="BitstreamVeraSans-Roman-32"/>
       <path d="
M31.7812 66.4062
Q24.1719 66.4062 20.3281 58.9062
Q16.5 51.4219 16.5 36.375
Q16.5 21.3906 20.3281 13.8906
Q24.1719 6.39062 31.7812 6.39062
Q39.4531 6.39062 43.2812 13.8906
Q47.125 21.3906 47.125 36.375
Q47.125 51.4219 43.2812 58.9062
Q39.4531 66.4062 31.7812 66.4062
M31.7812 74.2188
Q44.0469 74.2188 50.5156 64.5156
Q56.9844 54.8281 56.9844 36.375
Q56.9844 17.9688 50.5156 8.26562
Q44.0469 -1.42188 31.7812 -1.42188
Q19.5312 -1.42188 13.0625 8.26562
Q6.59375 17.9688 6.59375 36.375
Q6.59375 54.8281 13.0625 64.5156
Q19.5312 74.2188 31.7812 74.2188" id="BitstreamVeraSans-Roman-30"/>
       <path d="
M10.7969 72.9062
L49.5156 72.9062
L49.5156 64.5938
L19.8281 64.5938
L19.8281 46.7344
Q21.9688 47.4688 24.1094 47.8281
Q26.2656 48.1875 28.4219 48.1875
Q40.625 48.1875 47.75 41.5
Q54.8906 34.8125 54.8906 23.3906
Q54.8906 11.625 47.5625 5.09375
Q40.2344 -1.42188 26.9062 -1.42188
Q22.3125 -1.42188 17.5469 -0.640625
Q12.7969 0.140625 7.71875 1.70312
L7.71875 11.625
Q12.1094 9.23438 16.7969 8.0625
Q21.4844 6.89062 26.7031 6.89062
Q35.1562 6.89062 40.0781 11.3281
Q45.0156 15.7656 45.0156 23.3906
Q45.0156 31 40.0781 35.4375
Q35.1562 39.8906 26.7031 39.8906
Q22.75 39.8906 18.8125 39.0156
Q14.8906 38.1406 10.7969 36.2812
z
" id="BitstreamVeraSans-Roman-35"/>
      </defs>
      <g transform="translate(53.7390625 256.1165625)scale(0.1 -0.1)">
       <use xlink:href="#BitstreamVeraSans-Roman-32"/>
       <use x="63.623046875" xlink:href="#BitstreamVeraSans-Roman-35"/>
       <use x="127.24609375" xlink:href="#BitstreamVeraSans-Roman-30"/>
      </g>
     </g>
    </g>
    <g id="xtick_2">
     <g id="line2d_11">
      <g>
       <use style="stroke:#000000;stroke-width:0.5;" x="136.984375" xlink:href="#m93b0483c22" y="244.518125"/>
      </g>
     </g>
     <g id="line2d_12">
      <g>
       <use style="stroke:#000000;stroke-width:0.5;" x="136.984375" xlink:href="#m741efc42ff" y="21.318125"/>
      </g>
     </g>
     <g id="text_2">
      <!-- 252 -->
      <g transform="translate(128.3078125 256.1165625)scale(0.1 -0.1)">
       <use xlink:href="#BitstreamVeraSans-Roman-32"/>
       <use x="63.623046875" xlink:href="#BitstreamVeraSans-Roman-35"/>
       <use x="127.24609375" xlink:href="#BitstreamVeraSans-Roman-32"/>
      </g>
     </g>
    </g>
    <g id="xtick_3">
     <g id="line2d_13">
      <g>
       <use style="stroke:#000000;stroke-width:0.5;" x="211.384375" xlink:href="#m93b0483c22" y="244.518125"/>
      </g>
     </g>
     <g id="line2d_14">
      <g>
       <use style="stroke:#000000;stroke-width:0.5;" x="211.384375" xlink:href="#m741efc42ff" y="21.318125"/>
      </g>
     </g>
     <g id="text_3">
      <!-- 254 -->
      <defs>
       <path d="
M37.7969 64.3125
L12.8906 25.3906
L37.7969 25.3906
z

M35.2031 72.9062
L47.6094 72.9062
L47.6094 25.3906
L58.0156 25.3906
L58.0156 17.1875
L47.6094 17.1875
L47.6094 0
L37.7969 0
L37.7969 17.1875
L4.89062 17.1875
L4.89062 26.7031
z
" id="BitstreamVeraSans-Roman-34"/>
      </defs>
      <g transform="translate(202.4875 256.1165625)scale(0.1 -0.1)">
       <use xlink:href="#BitstreamVeraSans-Roman-32"/>
       <use x="63.623046875" xlink:href="#BitstreamVeraSans-Roman-35"/>
       <use x="127.24609375" xlink:href="#BitstreamVeraSans-Roman-34"/>
      </g>
     </g>
    </g>
    <g id="xtick_4">
     <g id="line2d_15">
      <g>
       <use style="stroke:#000000;stroke-width:0.5;" x="285.784375" xlink:href="#m93b0483c22" y="244.518125"/>
      </g>
     </g>
     <g id="line2d_16">
      <g>
       <use style="stroke:#000000;stroke-width:0.5;" x="285.784375" xlink:href="#m741efc42ff" y="21.318125"/>
      </g>
     </g>
     <g id="text_4">
      <!-- 256 -->
      <defs>
       <path d="
M33.0156 40.375
Q26.375 40.375 22.4844 35.8281
Q18.6094 31.2969 18.6094 23.3906
Q18.6094 15.5312 22.4844 10.9531
Q26.375 6.39062 33.0156 6.39062
Q39.6562 6.39062 43.5312 10.9531
Q47.4062 15.5312 47.4062 23.3906
Q47.4062 31.2969 43.5312 35.8281
Q39.6562 40.375 33.0156 40.375
M52.5938 71.2969
L52.5938 62.3125
Q48.875 64.0625 45.0938 64.9844
Q41.3125 65.9219 37.5938 65.9219
Q27.8281 65.9219 22.6719 59.3281
Q17.5312 52.7344 16.7969 39.4062
Q19.6719 43.6562 24.0156 45.9219
Q28.375 48.1875 33.5938 48.1875
Q44.5781 48.1875 50.9531 41.5156
Q57.3281 34.8594 57.3281 23.3906
Q57.3281 12.1562 50.6875 5.35938
Q44.0469 -1.42188 33.0156 -1.42188
Q20.3594 -1.42188 13.6719 8.26562
Q6.98438 17.9688 6.98438 36.375
Q6.98438 53.6562 15.1875 63.9375
Q23.3906 74.2188 37.2031 74.2188
Q40.9219 74.2188 44.7031 73.4844
Q48.4844 72.75 52.5938 71.2969" id="BitstreamVeraSans-Roman-36"/>
      </defs>
      <g transform="translate(276.921875 256.1165625)scale(0.1 -0.1)">
       <use xlink:href="#BitstreamVeraSans-Roman-32"/>
       <use x="63.623046875" xlink:href="#BitstreamVeraSans-Roman-35"/>
       <use x="127.24609375" xlink:href="#BitstreamVeraSans-Roman-36"/>
      </g>
     </g>
    </g>
    <g id="xtick_5">
     <g id="line2d_17">
      <g>
       <use style="stroke:#000000;stroke-width:0.5;" x="360.184375" xlink:href="#m93b0483c22" y="244.518125"/>
      </g>
     </g>
     <g id="line2d_18">
      <g>
       <use style="stroke:#000000;stroke-width:0.5;" x="360.184375" xlink:href="#m741efc42ff" y="21.318125"/>
      </g>
     </g>
     <g id="text_5">
      <!-- 258 -->
      <defs>
       <path d="
M31.7812 34.625
Q24.75 34.625 20.7188 30.8594
Q16.7031 27.0938 16.7031 20.5156
Q16.7031 13.9219 20.7188 10.1562
Q24.75 6.39062 31.7812 6.39062
Q38.8125 6.39062 42.8594 10.1719
Q46.9219 13.9688 46.9219 20.5156
Q46.9219 27.0938 42.8906 30.8594
Q38.875 34.625 31.7812 34.625
M21.9219 38.8125
Q15.5781 40.375 12.0312 44.7188
Q8.5 49.0781 8.5 55.3281
Q8.5 64.0625 14.7188 69.1406
Q20.9531 74.2188 31.7812 74.2188
Q42.6719 74.2188 48.875 69.1406
Q55.0781 64.0625 55.0781 55.3281
Q55.0781 49.0781 51.5312 44.7188
Q48 40.375 41.7031 38.8125
Q48.8281 37.1562 52.7969 32.3125
Q56.7812 27.4844 56.7812 20.5156
Q56.7812 9.90625 50.3125 4.23438
Q43.8438 -1.42188 31.7812 -1.42188
Q19.7344 -1.42188 13.25 4.23438
Q6.78125 9.90625 6.78125 20.5156
Q6.78125 27.4844 10.7812 32.3125
Q14.7969 37.1562 21.9219 38.8125
M18.3125 54.3906
Q18.3125 48.7344 21.8438 45.5625
Q25.3906 42.3906 31.7812 42.3906
Q38.1406 42.3906 41.7188 45.5625
Q45.3125 48.7344 45.3125 54.3906
Q45.3125 60.0625 41.7188 63.2344
Q38.1406 66.4062 31.7812 66.4062
Q25.3906 66.4062 21.8438 63.2344
Q18.3125 60.0625 18.3125 54.3906" id="BitstreamVeraSans-Roman-38"/>
      </defs>
      <g transform="translate(351.34921875 256.1165625)scale(0.1 -0.1)">
       <use xlink:href="#BitstreamVeraSans-Roman-32"/>
       <use x="63.623046875" xlink:href="#BitstreamVeraSans-Roman-35"/>
       <use x="127.24609375" xlink:href="#BitstreamVeraSans-Roman-38"/>
      </g>
     </g>
    </g>
    <g id="xtick_6">
     <g id="line2d_19">
      <g>
       <use style="stroke:#000000;stroke-width:0.5;" x="434.584375" xlink:href="#m93b0483c22" y="244.518125"/>
      </g>
     </g>
     <g id="line2d_20">
      <g>
       <use style="stroke:#000000;stroke-width:0.5;" x="434.584375" xlink:href="#m741efc42ff" y="21.318125"/>
      </g>
     </g>
     <g id="text_6">
      <!-- 260 -->
      <g transform="translate(425.7390625 256.1165625)scale(0.1 -0.1)">
       <use xlink:href="#BitstreamVeraSans-Roman-32"/>
       <use x="63.623046875" xlink:href="#BitstreamVeraSans-Roman-36"/>
       <use x="127.24609375" xlink:href="#BitstreamVeraSans-Roman-30"/>
      </g>
     </g>
    </g>
    <g id="xtick_7">
     <g id="line2d_21">
      <g>
       <use style="stroke:#000000;stroke-width:0.5;" x="508.984375" xlink:href="#m93b0483c22" y="244.518125"/>
      </g>
     </g>
     <g id="line2d_22">
      <g>
       <use style="stroke:#000000;stroke-width:0.5;" x="508.984375" xlink:href="#m741efc42ff" y="21.318125"/>
      </g>
     </g>
     <g id="text_7">
      <!-- 262 -->
      <g transform="translate(500.3078125 256.1165625)scale(0.1 -0.1)">
       <use xlink:href="#BitstreamVeraSans-Roman-32"/>
       <use x="63.623046875" xlink:href="#BitstreamVeraSans-Roman-36"/>
       <use x="127.24609375" xlink:href="#BitstreamVeraSans-Roman-32"/>
      </g>
     </g>
    </g>
    <g id="xtick_8">
     <g id="line2d_23">
      <g>
       <use style="stroke:#000000;stroke-width:0.5;" x="583.384375" xlink:href="#m93b0483c22" y="244.518125"/>
      </g>
     </g>
     <g id="line2d_24">
      <g>
       <use style="stroke:#000000;stroke-width:0.5;" x="583.384375" xlink:href="#m741efc42ff" y="21.318125"/>
      </g>
     </g>
     <g id="text_8">
      <!-- 264 -->
      <g transform="translate(574.4875 256.1165625)scale(0.1 -0.1)">
       <use xlink:href="#BitstreamVeraSans-Roman-32"/>
       <use x="63.623046875" xlink:href="#BitstreamVeraSans-Roman-36"/>
       <use x="127.24609375" xlink:href="#BitstreamVeraSans-Roman-34"/>
      </g>
     </g>
    </g>
    <g id="text_9">
     <!-- Temperature (K) -->
     <defs>
      <path id="BitstreamVeraSans-Roman-20"/>
      <path d="
M9.8125 72.9062
L19.6719 72.9062
L19.6719 42.0938
L52.3906 72.9062
L65.0938 72.9062
L28.9062 38.9219
L67.6719 0
L54.6875 0
L19.6719 35.1094
L19.6719 0
L9.8125 0
z
" id="BitstreamVeraSans-Roman-4b"/>
      <path d="
M41.1094 46.2969
Q39.5938 47.1719 37.8125 47.5781
Q36.0312 48 33.8906 48
Q26.2656 48 22.1875 43.0469
Q18.1094 38.0938 18.1094 28.8125
L18.1094 0
L9.07812 0
L9.07812 54.6875
L18.1094 54.6875
L18.1094 46.1875
Q20.9531 51.1719 25.4844 53.5781
Q30.0312 56 36.5312 56
Q37.4531 56 38.5781 55.875
Q39.7031 55.7656 41.0625 55.5156
z
" id="BitstreamVeraSans-Roman-72"/>
      <path d="
M52 44.1875
Q55.375 50.25 60.0625 53.125
Q64.75 56 71.0938 56
Q79.6406 56 84.2812 50.0156
Q88.9219 44.0469 88.9219 33.0156
L88.9219 0
L79.8906 0
L79.8906 32.7188
Q79.8906 40.5781 77.0938 44.375
Q74.3125 48.1875 68.6094 48.1875
Q61.625 48.1875 57.5625 43.5469
Q53.5156 38.9219 53.5156 30.9062
L53.5156 0
L44.4844 0
L44.4844 32.7188
Q44.4844 40.625 41.7031 44.4062
Q38.9219 48.1875 33.1094 48.1875
Q26.2188 48.1875 22.1562 43.5312
Q18.1094 38.875 18.1094 30.9062
L18.1094 0
L9.07812 0
L9.07812 54.6875
L18.1094 54.6875
L18.1094 46.1875
Q21.1875 51.2188 25.4844 53.6094
Q29.7812 56 35.6875 56
Q41.6562 56 45.8281 52.9688
Q50 49.9531 52 44.1875" id="BitstreamVeraSans-Roman-6d"/>
      <path d="
M8.01562 75.875
L15.8281 75.875
Q23.1406 64.3594 26.7812 53.3125
Q30.4219 42.2812 30.4219 31.3906
Q30.4219 20.4531 26.7812 9.375
Q23.1406 -1.70312 15.8281 -13.1875
L8.01562 -13.1875
Q14.5 -2 17.7031 9.0625
Q20.9062 20.125 20.9062 31.3906
Q20.9062 42.6719 17.7031 53.6562
Q14.5 64.6562 8.01562 75.875" id="BitstreamVeraSans-Roman-29"/>
      <path d="
M-0.296875 72.9062
L61.375 72.9062
L61.375 64.5938
L35.5 64.5938
L35.5 0
L25.5938 0
L25.5938 64.5938
L-0.296875 64.5938
z
" id="BitstreamVeraSans-Roman-54"/>
      <path d="
M31 75.875
Q24.4688 64.6562 21.2812 53.6562
Q18.1094 42.6719 18.1094 31.3906
Q18.1094 20.125 21.3125 9.0625
Q24.5156 -2 31 -13.1875
L23.1875 -13.1875
Q15.875 -1.70312 12.2344 9.375
Q8.59375 20.4531 8.59375 31.3906
Q8.59375 42.2812 12.2031 53.3125
Q15.8281 64.3594 23.1875 75.875
z
" id="BitstreamVeraSans-Roman-28"/>
      <path d="
M56.2031 29.5938
L56.2031 25.2031
L14.8906 25.2031
Q15.4844 15.9219 20.4844 11.0625
Q25.4844 6.20312 34.4219 6.20312
Q39.5938 6.20312 44.4531 7.46875
Q49.3125 8.73438 54.1094 11.2812
L54.1094 2.78125
Q49.2656 0.734375 44.1875 -0.34375
Q39.1094 -1.42188 33.8906 -1.42188
Q20.7969 -1.42188 13.1562 6.1875
Q5.51562 13.8125 5.51562 26.8125
Q5.51562 40.2344 12.7656 48.1094
Q20.0156 56 32.3281 56
Q43.3594 56 49.7812 48.8906
Q56.2031 41.7969 56.2031 29.5938
M47.2188 32.2344
Q47.125 39.5938 43.0938 43.9844
Q39.0625 48.3906 32.4219 48.3906
Q24.9062 48.3906 20.3906 44.1406
Q15.875 39.8906 15.1875 32.1719
z
" id="BitstreamVeraSans-Roman-65"/>
      <path d="
M18.3125 70.2188
L18.3125 54.6875
L36.8125 54.6875
L36.8125 47.7031
L18.3125 47.7031
L18.3125 18.0156
Q18.3125 11.3281 20.1406 9.42188
Q21.9688 7.51562 27.5938 7.51562
L36.8125 7.51562
L36.8125 0
L27.5938 0
Q17.1875 0 13.2344 3.875
Q9.28125 7.76562 9.28125 18.0156
L9.28125 47.7031
L2.6875 47.7031
L2.6875 54.6875
L9.28125 54.6875
L9.28125 70.2188
z
" id="BitstreamVeraSans-Roman-74"/>
      <path d="
M8.5 21.5781
L8.5 54.6875
L17.4844 54.6875
L17.4844 21.9219
Q17.4844 14.1562 20.5 10.2656
Q23.5312 6.39062 29.5938 6.39062
Q36.8594 6.39062 41.0781 11.0312
Q45.3125 15.6719 45.3125 23.6875
L45.3125 54.6875
L54.2969 54.6875
L54.2969 0
L45.3125 0
L45.3125 8.40625
Q42.0469 3.42188 37.7188 1
Q33.4062 -1.42188 27.6875 -1.42188
Q18.2656 -1.42188 13.375 4.4375
Q8.5 10.2969 8.5 21.5781" id="BitstreamVeraSans-Roman-75"/>
      <path d="
M34.2812 27.4844
Q23.3906 27.4844 19.1875 25
Q14.9844 22.5156 14.9844 16.5
Q14.9844 11.7188 18.1406 8.90625
Q21.2969 6.10938 26.7031 6.10938
Q34.1875 6.10938 38.7031 11.4062
Q43.2188 16.7031 43.2188 25.4844
L43.2188 27.4844
z

M52.2031 31.2031
L52.2031 0
L43.2188 0
L43.2188 8.29688
Q40.1406 3.32812 35.5469 0.953125
Q30.9531 -1.42188 24.3125 -1.42188
Q15.9219 -1.42188 10.9531 3.29688
Q6 8.01562 6 15.9219
Q6 25.1406 12.1719 29.8281
Q18.3594 34.5156 30.6094 34.5156
L43.2188 34.5156
L43.2188 35.4062
Q43.2188 41.6094 39.1406 45
Q35.0625 48.3906 27.6875 48.3906
Q23 48.3906 18.5469 47.2656
Q14.1094 46.1406 10.0156 43.8906
L10.0156 52.2031
Q14.9375 54.1094 19.5781 55.0469
Q24.2188 56 28.6094 56
Q40.4844 56 46.3438 49.8438
Q52.2031 43.7031 52.2031 31.2031" id="BitstreamVeraSans-Roman-61"/>
      <path d="
M18.1094 8.20312
L18.1094 -20.7969
L9.07812 -20.7969
L9.07812 54.6875
L18.1094 54.6875
L18.1094 46.3906
Q20.9531 51.2656 25.2656 53.625
Q29.5938 56 35.5938 56
Q45.5625 56 51.7812 48.0938
Q58.0156 40.1875 58.0156 27.2969
Q58.0156 14.4062 51.7812 6.48438
Q45.5625 -1.42188 35.5938 -1.42188
Q29.5938 -1.42188 25.2656 0.953125
Q20.9531 3.32812 18.1094 8.20312
M48.6875 27.2969
Q48.6875 37.2031 44.6094 42.8438
Q40.5312 48.4844 33.4062 48.4844
Q26.2656 48.4844 22.1875 42.8438
Q18.1094 37.2031 18.1094 27.2969
Q18.1094 17.3906 22.1875 11.75
Q26.2656 6.10938 33.4062 6.10938
Q40.5312 6.10938 44.6094 11.75
Q48.6875 17.3906 48.6875 27.2969" id="BitstreamVeraSans-Roman-70"/>
     </defs>
     <g transform="translate(301.56015625 270.7946875)scale(0.1 -0.1)">
      <use xlink:href="#BitstreamVeraSans-Roman-54"/>
      <use x="44.083984375" xlink:href="#BitstreamVeraSans-Roman-65"/>
      <use x="105.607421875" xlink:href="#BitstreamVeraSans-Roman-6d"/>
      <use x="203.01953125" xlink:href="#BitstreamVeraSans-Roman-70"/>
      <use x="266.49609375" xlink:href="#BitstreamVeraSans-Roman-65"/>
      <use x="328.01953125" xlink:href="#BitstreamVeraSans-Roman-72"/>
      <use x="369.1328125" xlink:href="#BitstreamVeraSans-Roman-61"/>
      <use x="430.412109375" xlink:href="#BitstreamVeraSans-Roman-74"/>
      <use x="469.62109375" xlink:href="#BitstreamVeraSans-Roman-75"/>
      <use x="533.0" xlink:href="#BitstreamVeraSans-Roman-72"/>
      <use x="571.86328125" xlink:href="#BitstreamVeraSans-Roman-65"/>
      <use x="633.38671875" xlink:href="#BitstreamVeraSans-Roman-20"/>
      <use x="665.173828125" xlink:href="#BitstreamVeraSans-Roman-28"/>
      <use x="704.1875" xlink:href="#BitstreamVeraSans-Roman-4b"/>
      <use x="769.763671875" xlink:href="#BitstreamVeraSans-Roman-29"/>
     </g>
    </g>
   </g>
   <g id="matplotlib.axis_2">
    <g id="ytick_1">
     <g id="line2d_25">
      <defs>
       <path d="
M0 0
L4 0" id="m728421d6d4" style="stroke:#000000;stroke-width:0.5;"/>
      </defs>
      <g>
       <use style="stroke:#000000;stroke-width:0.5;" x="62.584375" xlink:href="#m728421d6d4" y="244.518125"/>
      </g>
     </g>
     <g id="line2d_26">
      <defs>
       <path d="
M0 0
L-4 0" id="mcb0005524f" style="stroke:#000000;stroke-width:0.5;"/>
      </defs>
      <g>
       <use style="stroke:#000000;stroke-width:0.5;" x="620.584375" xlink:href="#mcb0005524f" y="244.518125"/>
      </g>
     </g>
     <g id="text_10">
      <!-- 0.020 -->
      <defs>
       <path d="
M10.5938 35.5
L73.1875 35.5
L73.1875 27.2031
L10.5938 27.2031
z
" id="BitstreamVeraSans-Roman-2212"/>
       <path d="
M10.6875 12.4062
L21 12.4062
L21 0
L10.6875 0
z
" id="BitstreamVeraSans-Roman-2e"/>
      </defs>
      <g transform="translate(23.3 247.2775)scale(0.1 -0.1)">
       <use xlink:href="#BitstreamVeraSans-Roman-2212"/>
       <use x="83.7890625" xlink:href="#BitstreamVeraSans-Roman-30"/>
       <use x="147.412109375" xlink:href="#BitstreamVeraSans-Roman-2e"/>
       <use x="179.19921875" xlink:href="#BitstreamVeraSans-Roman-30"/>
       <use x="242.822265625" xlink:href="#BitstreamVeraSans-Roman-32"/>
       <use x="306.4453125" xlink:href="#BitstreamVeraSans-Roman-30"/>
      </g>
     </g>
    </g>
    <g id="ytick_2">
     <g id="line2d_27">
      <g>
       <use style="stroke:#000000;stroke-width:0.5;" x="62.584375" xlink:href="#m728421d6d4" y="199.878125"/>
      </g>
     </g>
     <g id="line2d_28">
      <g>
       <use style="stroke:#000000;stroke-width:0.5;" x="620.584375" xlink:href="#mcb0005524f" y="199.878125"/>
      </g>
     </g>
     <g id="text_11">
      <!-- 0.015 -->
      <defs>
       <path d="
M12.4062 8.29688
L28.5156 8.29688
L28.5156 63.9219
L10.9844 60.4062
L10.9844 69.3906
L28.4219 72.9062
L38.2812 72.9062
L38.2812 8.29688
L54.3906 8.29688
L54.3906 0
L12.4062 0
z
" id="BitstreamVeraSans-Roman-31"/>
      </defs>
      <g transform="translate(23.509375 202.6375)scale(0.1 -0.1)">
       <use xlink:href="#BitstreamVeraSans-Roman-2212"/>
       <use x="83.7890625" xlink:href="#BitstreamVeraSans-Roman-30"/>
       <use x="147.412109375" xlink:href="#BitstreamVeraSans-Roman-2e"/>
       <use x="179.19921875" xlink:href="#BitstreamVeraSans-Roman-30"/>
       <use x="242.822265625" xlink:href="#BitstreamVeraSans-Roman-31"/>
       <use x="306.4453125" xlink:href="#BitstreamVeraSans-Roman-35"/>
      </g>
     </g>
    </g>
    <g id="ytick_3">
     <g id="line2d_29">
      <g>
       <use style="stroke:#000000;stroke-width:0.5;" x="62.584375" xlink:href="#m728421d6d4" y="155.238125"/>
      </g>
     </g>
     <g id="line2d_30">
      <g>
       <use style="stroke:#000000;stroke-width:0.5;" x="620.584375" xlink:href="#mcb0005524f" y="155.238125"/>
      </g>
     </g>
     <g id="text_12">
      <!-- 0.010 -->
      <g transform="translate(23.3 157.9975)scale(0.1 -0.1)">
       <use xlink:href="#BitstreamVeraSans-Roman-2212"/>
       <use x="83.7890625" xlink:href="#BitstreamVeraSans-Roman-30"/>
       <use x="147.412109375" xlink:href="#BitstreamVeraSans-Roman-2e"/>
       <use x="179.19921875" xlink:href="#BitstreamVeraSans-Roman-30"/>
       <use x="242.822265625" xlink:href="#BitstreamVeraSans-Roman-31"/>
       <use x="306.4453125" xlink:href="#BitstreamVeraSans-Roman-30"/>
      </g>
     </g>
    </g>
    <g id="ytick_4">
     <g id="line2d_31">
      <g>
       <use style="stroke:#000000;stroke-width:0.5;" x="62.584375" xlink:href="#m728421d6d4" y="110.598125"/>
      </g>
     </g>
     <g id="line2d_32">
      <g>
       <use style="stroke:#000000;stroke-width:0.5;" x="620.584375" xlink:href="#mcb0005524f" y="110.598125"/>
      </g>
     </g>
     <g id="text_13">
      <!-- 0.005 -->
      <g transform="translate(23.509375 113.3575)scale(0.1 -0.1)">
       <use xlink:href="#BitstreamVeraSans-Roman-2212"/>
       <use x="83.7890625" xlink:href="#BitstreamVeraSans-Roman-30"/>
       <use x="147.412109375" xlink:href="#BitstreamVeraSans-Roman-2e"/>
       <use x="179.19921875" xlink:href="#BitstreamVeraSans-Roman-30"/>
       <use x="242.822265625" xlink:href="#BitstreamVeraSans-Roman-30"/>
       <use x="306.4453125" xlink:href="#BitstreamVeraSans-Roman-35"/>
      </g>
     </g>
    </g>
    <g id="ytick_5">
     <g id="line2d_33">
      <g>
       <use style="stroke:#000000;stroke-width:0.5;" x="62.584375" xlink:href="#m728421d6d4" y="65.958125"/>
      </g>
     </g>
     <g id="line2d_34">
      <g>
       <use style="stroke:#000000;stroke-width:0.5;" x="620.584375" xlink:href="#mcb0005524f" y="65.958125"/>
      </g>
     </g>
     <g id="text_14">
      <!-- 0.000 -->
      <g transform="translate(31.2796875 68.7175)scale(0.1 -0.1)">
       <use xlink:href="#BitstreamVeraSans-Roman-30"/>
       <use x="63.623046875" xlink:href="#BitstreamVeraSans-Roman-2e"/>
       <use x="95.41015625" xlink:href="#BitstreamVeraSans-Roman-30"/>
       <use x="159.033203125" xlink:href="#BitstreamVeraSans-Roman-30"/>
       <use x="222.65625" xlink:href="#BitstreamVeraSans-Roman-30"/>
      </g>
     </g>
    </g>
    <g id="ytick_6">
     <g id="line2d_35">
      <g>
       <use style="stroke:#000000;stroke-width:0.5;" x="62.584375" xlink:href="#m728421d6d4" y="21.318125"/>
      </g>
     </g>
     <g id="line2d_36">
      <g>
       <use style="stroke:#000000;stroke-width:0.5;" x="620.584375" xlink:href="#mcb0005524f" y="21.318125"/>
      </g>
     </g>
     <g id="text_15">
      <!-- 0.005 -->
      <g transform="translate(31.4890625 24.0775)scale(0.1 -0.1)">
       <use xlink:href="#BitstreamVeraSans-Roman-30"/>
       <use x="63.623046875" xlink:href="#BitstreamVeraSans-Roman-2e"/>
       <use x="95.41015625" xlink:href="#BitstreamVeraSans-Roman-30"/>
       <use x="159.033203125" xlink:href="#BitstreamVeraSans-Roman-30"/>
       <use x="222.65625" xlink:href="#BitstreamVeraSans-Roman-35"/>
      </g>
     </g>
    </g>
    <g id="text_16">
     <!-- gradient of magnetization (Am$^2$/kg) -->
     <defs>
      <path d="
M4.98438 0
L4.98438 2.6875
Q4.98438 2.9375 5.17188 3.21875
L20.7031 20.4062
Q24.2188 24.2188 26.4062 26.7969
Q28.6094 29.3906 30.75 32.7656
Q32.9062 36.1406 34.1562 39.625
Q35.4062 43.1094 35.4062 47.0156
Q35.4062 51.125 33.8906 54.8594
Q32.375 58.5938 29.375 60.8438
Q26.375 63.0938 22.125 63.0938
Q17.7812 63.0938 14.3125 60.4688
Q10.8438 57.8594 9.42188 53.7188
Q9.8125 53.8125 10.5 53.8125
Q12.75 53.8125 14.3281 52.2969
Q15.9219 50.7812 15.9219 48.3906
Q15.9219 46.0938 14.3281 44.5
Q12.75 42.9219 10.5 42.9219
Q8.15625 42.9219 6.5625 44.5469
Q4.98438 46.1875 4.98438 48.3906
Q4.98438 52.1562 6.39062 55.4375
Q7.8125 58.7344 10.4688 61.2969
Q13.1406 63.875 16.4844 65.2344
Q19.8281 66.6094 23.5781 66.6094
Q29.2969 66.6094 34.2188 64.1875
Q39.1562 61.7656 42.0312 57.3438
Q44.9219 52.9375 44.9219 47.0156
Q44.9219 42.6719 43.0156 38.7656
Q41.1094 34.8594 38.125 31.6562
Q35.1562 28.4688 30.5156 24.4062
Q25.875 20.3594 24.4219 19
L13.0938 8.10938
L22.7031 8.10938
Q29.7812 8.10938 34.5469 8.21875
Q39.3125 8.34375 39.5938 8.59375
Q40.7656 9.85938 42 17.8281
L44.9219 17.8281
L42.0938 0
z
" id="Cmr10-32"/>
      <path d="
M54.8906 33.0156
L54.8906 0
L45.9062 0
L45.9062 32.7188
Q45.9062 40.4844 42.875 44.3281
Q39.8438 48.1875 33.7969 48.1875
Q26.5156 48.1875 22.3125 43.5469
Q18.1094 38.9219 18.1094 30.9062
L18.1094 0
L9.07812 0
L9.07812 54.6875
L18.1094 54.6875
L18.1094 46.1875
Q21.3438 51.125 25.7031 53.5625
Q30.0781 56 35.7969 56
Q45.2188 56 50.0469 50.1719
Q54.8906 44.3438 54.8906 33.0156" id="BitstreamVeraSans-Roman-6e"/>
      <path d="
M30.6094 48.3906
Q23.3906 48.3906 19.1875 42.75
Q14.9844 37.1094 14.9844 27.2969
Q14.9844 17.4844 19.1562 11.8438
Q23.3438 6.20312 30.6094 6.20312
Q37.7969 6.20312 41.9844 11.8594
Q46.1875 17.5312 46.1875 27.2969
Q46.1875 37.0156 41.9844 42.7031
Q37.7969 48.3906 30.6094 48.3906
M30.6094 56
Q42.3281 56 49.0156 48.375
Q55.7188 40.7656 55.7188 27.2969
Q55.7188 13.875 49.0156 6.21875
Q42.3281 -1.42188 30.6094 -1.42188
Q18.8438 -1.42188 12.1719 6.21875
Q5.51562 13.875 5.51562 27.2969
Q5.51562 40.7656 12.1719 48.375
Q18.8438 56 30.6094 56" id="BitstreamVeraSans-Roman-6f"/>
      <path d="
M9.07812 75.9844
L18.1094 75.9844
L18.1094 31.1094
L44.9219 54.6875
L56.3906 54.6875
L27.3906 29.1094
L57.625 0
L45.9062 0
L18.1094 26.7031
L18.1094 0
L9.07812 0
z
" id="BitstreamVeraSans-Roman-6b"/>
      <path d="
M5.51562 54.6875
L48.1875 54.6875
L48.1875 46.4844
L14.4062 7.17188
L48.1875 7.17188
L48.1875 0
L4.29688 0
L4.29688 8.20312
L38.0938 47.5156
L5.51562 47.5156
z
" id="BitstreamVeraSans-Roman-7a"/>
      <path d="
M9.42188 54.6875
L18.4062 54.6875
L18.4062 0
L9.42188 0
z

M9.42188 75.9844
L18.4062 75.9844
L18.4062 64.5938
L9.42188 64.5938
z
" id="BitstreamVeraSans-Roman-69"/>
      <path d="
M34.1875 63.1875
L20.7969 26.9062
L47.6094 26.9062
z

M28.6094 72.9062
L39.7969 72.9062
L67.5781 0
L57.3281 0
L50.6875 18.7031
L17.8281 18.7031
L11.1875 0
L0.78125 0
z
" id="BitstreamVeraSans-Roman-41"/>
      <path d="
M25.3906 72.9062
L33.6875 72.9062
L8.29688 -9.28125
L0 -9.28125
z
" id="BitstreamVeraSans-Roman-2f"/>
      <path d="
M45.4062 46.3906
L45.4062 75.9844
L54.3906 75.9844
L54.3906 0
L45.4062 0
L45.4062 8.20312
Q42.5781 3.32812 38.25 0.953125
Q33.9375 -1.42188 27.875 -1.42188
Q17.9688 -1.42188 11.7344 6.48438
Q5.51562 14.4062 5.51562 27.2969
Q5.51562 40.1875 11.7344 48.0938
Q17.9688 56 27.875 56
Q33.9375 56 38.25 53.625
Q42.5781 51.2656 45.4062 46.3906
M14.7969 27.2969
Q14.7969 17.3906 18.875 11.75
Q22.9531 6.10938 30.0781 6.10938
Q37.2031 6.10938 41.2969 11.75
Q45.4062 17.3906 45.4062 27.2969
Q45.4062 37.2031 41.2969 42.8438
Q37.2031 48.4844 30.0781 48.4844
Q22.9531 48.4844 18.875 42.8438
Q14.7969 37.2031 14.7969 27.2969" id="BitstreamVeraSans-Roman-64"/>
      <path d="
M45.4062 27.9844
Q45.4062 37.75 41.375 43.1094
Q37.3594 48.4844 30.0781 48.4844
Q22.8594 48.4844 18.8281 43.1094
Q14.7969 37.75 14.7969 27.9844
Q14.7969 18.2656 18.8281 12.8906
Q22.8594 7.51562 30.0781 7.51562
Q37.3594 7.51562 41.375 12.8906
Q45.4062 18.2656 45.4062 27.9844
M54.3906 6.78125
Q54.3906 -7.17188 48.1875 -13.9844
Q42 -20.7969 29.2031 -20.7969
Q24.4688 -20.7969 20.2656 -20.0938
Q16.0625 -19.3906 12.1094 -17.9219
L12.1094 -9.1875
Q16.0625 -11.3281 19.9219 -12.3438
Q23.7812 -13.375 27.7812 -13.375
Q36.625 -13.375 41.0156 -8.76562
Q45.4062 -4.15625 45.4062 5.17188
L45.4062 9.625
Q42.625 4.78125 38.2812 2.39062
Q33.9375 0 27.875 0
Q17.8281 0 11.6719 7.65625
Q5.51562 15.3281 5.51562 27.9844
Q5.51562 40.6719 11.6719 48.3281
Q17.8281 56 27.875 56
Q33.9375 56 38.2812 53.6094
Q42.625 51.2188 45.4062 46.3906
L45.4062 54.6875
L54.3906 54.6875
z
" id="BitstreamVeraSans-Roman-67"/>
      <path d="
M37.1094 75.9844
L37.1094 68.5
L28.5156 68.5
Q23.6875 68.5 21.7969 66.5469
Q19.9219 64.5938 19.9219 59.5156
L19.9219 54.6875
L34.7188 54.6875
L34.7188 47.7031
L19.9219 47.7031
L19.9219 0
L10.8906 0
L10.8906 47.7031
L2.29688 47.7031
L2.29688 54.6875
L10.8906 54.6875
L10.8906 58.5
Q10.8906 67.625 15.1406 71.7969
Q19.3906 75.9844 28.6094 75.9844
z
" id="BitstreamVeraSans-Roman-66"/>
     </defs>
     <g transform="translate(16.2 222.868125)rotate(-90.0)scale(0.1 -0.1)">
      <use transform="translate(0.0 0.8578125)" xlink:href="#BitstreamVeraSans-Roman-67"/>
      <use transform="translate(63.4765625 0.8578125)" xlink:href="#BitstreamVeraSans-Roman-72"/>
      <use transform="translate(104.58984375 0.8578125)" xlink:href="#BitstreamVeraSans-Roman-61"/>
      <use transform="translate(165.869140625 0.8578125)" xlink:href="#BitstreamVeraSans-Roman-64"/>
      <use transform="translate(229.345703125 0.8578125)" xlink:href="#BitstreamVeraSans-Roman-69"/>
      <use transform="translate(257.12890625 0.8578125)" xlink:href="#BitstreamVeraSans-Roman-65"/>
      <use transform="translate(318.65234375 0.8578125)" xlink:href="#BitstreamVeraSans-Roman-6e"/>
      <use transform="translate(382.03125 0.8578125)" xlink:href="#BitstreamVeraSans-Roman-74"/>
      <use transform="translate(421.240234375 0.8578125)" xlink:href="#BitstreamVeraSans-Roman-20"/>
      <use transform="translate(453.02734375 0.8578125)" xlink:href="#BitstreamVeraSans-Roman-6f"/>
      <use transform="translate(514.208984375 0.8578125)" xlink:href="#BitstreamVeraSans-Roman-66"/>
      <use transform="translate(549.4140625 0.8578125)" xlink:href="#BitstreamVeraSans-Roman-20"/>
      <use transform="translate(581.201171875 0.8578125)" xlink:href="#BitstreamVeraSans-Roman-6d"/>
      <use transform="translate(678.61328125 0.8578125)" xlink:href="#BitstreamVeraSans-Roman-61"/>
      <use transform="translate(739.892578125 0.8578125)" xlink:href="#BitstreamVeraSans-Roman-67"/>
      <use transform="translate(803.369140625 0.8578125)" xlink:href="#BitstreamVeraSans-Roman-6e"/>
      <use transform="translate(866.748046875 0.8578125)" xlink:href="#BitstreamVeraSans-Roman-65"/>
      <use transform="translate(928.271484375 0.8578125)" xlink:href="#BitstreamVeraSans-Roman-74"/>
      <use transform="translate(967.48046875 0.8578125)" xlink:href="#BitstreamVeraSans-Roman-69"/>
      <use transform="translate(995.263671875 0.8578125)" xlink:href="#BitstreamVeraSans-Roman-7a"/>
      <use transform="translate(1047.75390625 0.8578125)" xlink:href="#BitstreamVeraSans-Roman-61"/>
      <use transform="translate(1109.03320312 0.8578125)" xlink:href="#BitstreamVeraSans-Roman-74"/>
      <use transform="translate(1148.2421875 0.8578125)" xlink:href="#BitstreamVeraSans-Roman-69"/>
      <use transform="translate(1176.02539062 0.8578125)" xlink:href="#BitstreamVeraSans-Roman-6f"/>
      <use transform="translate(1237.20703125 0.8578125)" xlink:href="#BitstreamVeraSans-Roman-6e"/>
      <use transform="translate(1300.5859375 0.8578125)" xlink:href="#BitstreamVeraSans-Roman-20"/>
      <use transform="translate(1332.37304688 0.8578125)" xlink:href="#BitstreamVeraSans-Roman-28"/>
      <use transform="translate(1371.38671875 0.8578125)" xlink:href="#BitstreamVeraSans-Roman-41"/>
      <use transform="translate(1439.79492188 0.8578125)" xlink:href="#BitstreamVeraSans-Roman-6d"/>
      <use transform="translate(1537.20703125 43.3734375)scale(0.7)" xlink:href="#Cmr10-32"/>
      <use transform="translate(1604.21328125 0.8578125)" xlink:href="#BitstreamVeraSans-Roman-2f"/>
      <use transform="translate(1637.9046875 0.8578125)" xlink:href="#BitstreamVeraSans-Roman-6b"/>
      <use transform="translate(1695.81484375 0.8578125)" xlink:href="#BitstreamVeraSans-Roman-67"/>
      <use transform="translate(1759.29140625 0.8578125)" xlink:href="#BitstreamVeraSans-Roman-29"/>
     </g>
    </g>
   </g>
   <g id="text_17">
    <!-- MPMS thermal single axis thermal cycling -->
    <defs>
     <path d="
M9.8125 72.9062
L24.5156 72.9062
L43.1094 23.2969
L61.8125 72.9062
L76.5156 72.9062
L76.5156 0
L66.8906 0
L66.8906 64.0156
L48.0938 14.0156
L38.1875 14.0156
L19.3906 64.0156
L19.3906 0
L9.8125 0
z
" id="BitstreamVeraSans-Roman-4d"/>
     <path d="
M9.42188 75.9844
L18.4062 75.9844
L18.4062 0
L9.42188 0
z
" id="BitstreamVeraSans-Roman-6c"/>
     <path d="
M19.6719 64.7969
L19.6719 37.4062
L32.0781 37.4062
Q38.9688 37.4062 42.7188 40.9688
Q46.4844 44.5312 46.4844 51.125
Q46.4844 57.6719 42.7188 61.2344
Q38.9688 64.7969 32.0781 64.7969
z

M9.8125 72.9062
L32.0781 72.9062
Q44.3438 72.9062 50.6094 67.3594
Q56.8906 61.8125 56.8906 51.125
Q56.8906 40.3281 50.6094 34.8125
Q44.3438 29.2969 32.0781 29.2969
L19.6719 29.2969
L19.6719 0
L9.8125 0
z
" id="BitstreamVeraSans-Roman-50"/>
     <path d="
M53.5156 70.5156
L53.5156 60.8906
Q47.9062 63.5781 42.9219 64.8906
Q37.9375 66.2188 33.2969 66.2188
Q25.25 66.2188 20.875 63.0938
Q16.5 59.9688 16.5 54.2031
Q16.5 49.3594 19.4062 46.8906
Q22.3125 44.4375 30.4219 42.9219
L36.375 41.7031
Q47.4062 39.5938 52.6562 34.2969
Q57.9062 29 57.9062 20.125
Q57.9062 9.51562 50.7969 4.04688
Q43.7031 -1.42188 29.9844 -1.42188
Q24.8125 -1.42188 18.9688 -0.25
Q13.1406 0.921875 6.89062 3.21875
L6.89062 13.375
Q12.8906 10.0156 18.6562 8.29688
Q24.4219 6.59375 29.9844 6.59375
Q38.4219 6.59375 43.0156 9.90625
Q47.6094 13.2344 47.6094 19.3906
Q47.6094 24.75 44.3125 27.7812
Q41.0156 30.8125 33.5 32.3281
L27.4844 33.5
Q16.4531 35.6875 11.5156 40.375
Q6.59375 45.0625 6.59375 53.4219
Q6.59375 63.0938 13.4062 68.6562
Q20.2188 74.2188 32.1719 74.2188
Q37.3125 74.2188 42.625 73.2812
Q47.9531 72.3594 53.5156 70.5156" id="BitstreamVeraSans-Roman-53"/>
     <path d="
M54.8906 33.0156
L54.8906 0
L45.9062 0
L45.9062 32.7188
Q45.9062 40.4844 42.875 44.3281
Q39.8438 48.1875 33.7969 48.1875
Q26.5156 48.1875 22.3125 43.5469
Q18.1094 38.9219 18.1094 30.9062
L18.1094 0
L9.07812 0
L9.07812 75.9844
L18.1094 75.9844
L18.1094 46.1875
Q21.3438 51.125 25.7031 53.5625
Q30.0781 56 35.7969 56
Q45.2188 56 50.0469 50.1719
Q54.8906 44.3438 54.8906 33.0156" id="BitstreamVeraSans-Roman-68"/>
     <path d="
M54.8906 54.6875
L35.1094 28.0781
L55.9062 0
L45.3125 0
L29.3906 21.4844
L13.4844 0
L2.875 0
L24.125 28.6094
L4.6875 54.6875
L15.2812 54.6875
L29.7812 35.2031
L44.2812 54.6875
z
" id="BitstreamVeraSans-Roman-78"/>
     <path d="
M32.1719 -5.07812
Q28.375 -14.8438 24.75 -17.8125
Q21.1406 -20.7969 15.0938 -20.7969
L7.90625 -20.7969
L7.90625 -13.2812
L13.1875 -13.2812
Q16.8906 -13.2812 18.9375 -11.5156
Q21 -9.76562 23.4844 -3.21875
L25.0938 0.875
L2.98438 54.6875
L12.5 54.6875
L29.5938 11.9219
L46.6875 54.6875
L56.2031 54.6875
z
" id="BitstreamVeraSans-Roman-79"/>
     <path d="
M44.2812 53.0781
L44.2812 44.5781
Q40.4844 46.5312 36.375 47.5
Q32.2812 48.4844 27.875 48.4844
Q21.1875 48.4844 17.8438 46.4375
Q14.5 44.3906 14.5 40.2812
Q14.5 37.1562 16.8906 35.375
Q19.2812 33.5938 26.5156 31.9844
L29.5938 31.2969
Q39.1562 29.25 43.1875 25.5156
Q47.2188 21.7812 47.2188 15.0938
Q47.2188 7.46875 41.1875 3.01562
Q35.1562 -1.42188 24.6094 -1.42188
Q20.2188 -1.42188 15.4531 -0.5625
Q10.6875 0.296875 5.42188 2
L5.42188 11.2812
Q10.4062 8.6875 15.2344 7.39062
Q20.0625 6.10938 24.8125 6.10938
Q31.1562 6.10938 34.5625 8.28125
Q37.9844 10.4531 37.9844 14.4062
Q37.9844 18.0625 35.5156 20.0156
Q33.0625 21.9688 24.7031 23.7812
L21.5781 24.5156
Q13.2344 26.2656 9.51562 29.9062
Q5.8125 33.5469 5.8125 39.8906
Q5.8125 47.6094 11.2812 51.7969
Q16.75 56 26.8125 56
Q31.7812 56 36.1719 55.2656
Q40.5781 54.5469 44.2812 53.0781" id="BitstreamVeraSans-Roman-73"/>
     <path d="
M48.7812 52.5938
L48.7812 44.1875
Q44.9688 46.2969 41.1406 47.3438
Q37.3125 48.3906 33.4062 48.3906
Q24.6562 48.3906 19.8125 42.8438
Q14.9844 37.3125 14.9844 27.2969
Q14.9844 17.2812 19.8125 11.7344
Q24.6562 6.20312 33.4062 6.20312
Q37.3125 6.20312 41.1406 7.25
Q44.9688 8.29688 48.7812 10.4062
L48.7812 2.09375
Q45.0156 0.34375 40.9844 -0.53125
Q36.9688 -1.42188 32.4219 -1.42188
Q20.0625 -1.42188 12.7812 6.34375
Q5.51562 14.1094 5.51562 27.2969
Q5.51562 40.6719 12.8594 48.3281
Q20.2188 56 33.0156 56
Q37.1562 56 41.1094 55.1406
Q45.0625 54.2969 48.7812 52.5938" id="BitstreamVeraSans-Roman-63"/>
    </defs>
    <g transform="translate(217.144375 16.318125)scale(0.12 -0.12)">
     <use xlink:href="#BitstreamVeraSans-Roman-4d"/>
     <use x="86.279296875" xlink:href="#BitstreamVeraSans-Roman-50"/>
     <use x="146.58203125" xlink:href="#BitstreamVeraSans-Roman-4d"/>
     <use x="232.861328125" xlink:href="#BitstreamVeraSans-Roman-53"/>
     <use x="296.337890625" xlink:href="#BitstreamVeraSans-Roman-20"/>
     <use x="328.125" xlink:href="#BitstreamVeraSans-Roman-74"/>
     <use x="367.333984375" xlink:href="#BitstreamVeraSans-Roman-68"/>
     <use x="430.712890625" xlink:href="#BitstreamVeraSans-Roman-65"/>
     <use x="492.236328125" xlink:href="#BitstreamVeraSans-Roman-72"/>
     <use x="531.599609375" xlink:href="#BitstreamVeraSans-Roman-6d"/>
     <use x="629.01171875" xlink:href="#BitstreamVeraSans-Roman-61"/>
     <use x="690.291015625" xlink:href="#BitstreamVeraSans-Roman-6c"/>
     <use x="718.07421875" xlink:href="#BitstreamVeraSans-Roman-20"/>
     <use x="749.861328125" xlink:href="#BitstreamVeraSans-Roman-73"/>
     <use x="801.9609375" xlink:href="#BitstreamVeraSans-Roman-69"/>
     <use x="829.744140625" xlink:href="#BitstreamVeraSans-Roman-6e"/>
     <use x="893.123046875" xlink:href="#BitstreamVeraSans-Roman-67"/>
     <use x="956.599609375" xlink:href="#BitstreamVeraSans-Roman-6c"/>
     <use x="984.3828125" xlink:href="#BitstreamVeraSans-Roman-65"/>
     <use x="1045.90625" xlink:href="#BitstreamVeraSans-Roman-20"/>
     <use x="1077.69335938" xlink:href="#BitstreamVeraSans-Roman-61"/>
     <use x="1138.97265625" xlink:href="#BitstreamVeraSans-Roman-78"/>
     <use x="1198.15234375" xlink:href="#BitstreamVeraSans-Roman-69"/>
     <use x="1225.93554688" xlink:href="#BitstreamVeraSans-Roman-73"/>
     <use x="1278.03515625" xlink:href="#BitstreamVeraSans-Roman-20"/>
     <use x="1309.82226562" xlink:href="#BitstreamVeraSans-Roman-74"/>
     <use x="1349.03125" xlink:href="#BitstreamVeraSans-Roman-68"/>
     <use x="1412.41015625" xlink:href="#BitstreamVeraSans-Roman-65"/>
     <use x="1473.93359375" xlink:href="#BitstreamVeraSans-Roman-72"/>
     <use x="1513.296875" xlink:href="#BitstreamVeraSans-Roman-6d"/>
     <use x="1610.70898438" xlink:href="#BitstreamVeraSans-Roman-61"/>
     <use x="1671.98828125" xlink:href="#BitstreamVeraSans-Roman-6c"/>
     <use x="1699.77148438" xlink:href="#BitstreamVeraSans-Roman-20"/>
     <use x="1731.55859375" xlink:href="#BitstreamVeraSans-Roman-63"/>
     <use x="1786.5390625" xlink:href="#BitstreamVeraSans-Roman-79"/>
     <use x="1845.71875" xlink:href="#BitstreamVeraSans-Roman-63"/>
     <use x="1900.69921875" xlink:href="#BitstreamVeraSans-Roman-6c"/>
     <use x="1928.48242188" xlink:href="#BitstreamVeraSans-Roman-69"/>
     <use x="1956.265625" xlink:href="#BitstreamVeraSans-Roman-6e"/>
     <use x="2019.64453125" xlink:href="#BitstreamVeraSans-Roman-67"/>
    </g>
   </g>
   <g id="legend_1">
    <g id="patch_7">
     <path d="
M407.839 238.518
L614.584 238.518
L614.584 164.463
L407.839 164.463
z
" style="fill:#ffffff;stroke:#000000;stroke-linejoin:miter;"/>
    </g>
    <g id="line2d_37"/>
    <g id="line2d_38">
     <g>
      <use style="fill:#0000ff;stroke:#000000;stroke-linejoin:miter;stroke-width:0.5;" x="416.239375" xlink:href="#m8a286e445b" y="174.18125"/>
      <use style="fill:#0000ff;stroke:#000000;stroke-linejoin:miter;stroke-width:0.5;" x="433.039375" xlink:href="#m8a286e445b" y="174.18125"/>
     </g>
    </g>
    <g id="text_18">
     <!-- LTI gradient on cooling -->
     <defs>
      <path d="
M9.8125 72.9062
L19.6719 72.9062
L19.6719 8.29688
L55.1719 8.29688
L55.1719 0
L9.8125 0
z
" id="BitstreamVeraSans-Roman-4c"/>
      <path d="
M9.8125 72.9062
L19.6719 72.9062
L19.6719 0
L9.8125 0
z
" id="BitstreamVeraSans-Roman-49"/>
     </defs>
     <g transform="translate(446.239375 178.38125)scale(0.12 -0.12)">
      <use xlink:href="#BitstreamVeraSans-Roman-4c"/>
      <use x="41.962890625" xlink:href="#BitstreamVeraSans-Roman-54"/>
      <use x="103.046875" xlink:href="#BitstreamVeraSans-Roman-49"/>
      <use x="132.5390625" xlink:href="#BitstreamVeraSans-Roman-20"/>
      <use x="164.326171875" xlink:href="#BitstreamVeraSans-Roman-67"/>
      <use x="227.802734375" xlink:href="#BitstreamVeraSans-Roman-72"/>
      <use x="268.916015625" xlink:href="#BitstreamVeraSans-Roman-61"/>
      <use x="330.1953125" xlink:href="#BitstreamVeraSans-Roman-64"/>
      <use x="393.671875" xlink:href="#BitstreamVeraSans-Roman-69"/>
      <use x="421.455078125" xlink:href="#BitstreamVeraSans-Roman-65"/>
      <use x="482.978515625" xlink:href="#BitstreamVeraSans-Roman-6e"/>
      <use x="546.357421875" xlink:href="#BitstreamVeraSans-Roman-74"/>
      <use x="585.56640625" xlink:href="#BitstreamVeraSans-Roman-20"/>
      <use x="617.353515625" xlink:href="#BitstreamVeraSans-Roman-6f"/>
      <use x="678.53515625" xlink:href="#BitstreamVeraSans-Roman-6e"/>
      <use x="741.9140625" xlink:href="#BitstreamVeraSans-Roman-20"/>
      <use x="773.701171875" xlink:href="#BitstreamVeraSans-Roman-63"/>
      <use x="828.681640625" xlink:href="#BitstreamVeraSans-Roman-6f"/>
      <use x="889.86328125" xlink:href="#BitstreamVeraSans-Roman-6f"/>
      <use x="951.044921875" xlink:href="#BitstreamVeraSans-Roman-6c"/>
      <use x="978.828125" xlink:href="#BitstreamVeraSans-Roman-69"/>
      <use x="1006.61132812" xlink:href="#BitstreamVeraSans-Roman-6e"/>
      <use x="1069.99023438" xlink:href="#BitstreamVeraSans-Roman-67"/>
     </g>
    </g>
    <g id="line2d_39"/>
    <g id="line2d_40">
     <g>
      <use style="fill:#0000ff;stroke:#000000;stroke-linejoin:miter;stroke-width:0.5;" x="416.239375" xlink:href="#m811eccb2e0" y="191.795"/>
      <use style="fill:#0000ff;stroke:#000000;stroke-linejoin:miter;stroke-width:0.5;" x="433.039375" xlink:href="#m811eccb2e0" y="191.795"/>
     </g>
    </g>
    <g id="text_19">
     <!-- MPMS gradient on cooling -->
     <g transform="translate(446.239375 195.995)scale(0.12 -0.12)">
      <use xlink:href="#BitstreamVeraSans-Roman-4d"/>
      <use x="86.279296875" xlink:href="#BitstreamVeraSans-Roman-50"/>
      <use x="146.58203125" xlink:href="#BitstreamVeraSans-Roman-4d"/>
      <use x="232.861328125" xlink:href="#BitstreamVeraSans-Roman-53"/>
      <use x="296.337890625" xlink:href="#BitstreamVeraSans-Roman-20"/>
      <use x="328.125" xlink:href="#BitstreamVeraSans-Roman-67"/>
      <use x="391.6015625" xlink:href="#BitstreamVeraSans-Roman-72"/>
      <use x="432.71484375" xlink:href="#BitstreamVeraSans-Roman-61"/>
      <use x="493.994140625" xlink:href="#BitstreamVeraSans-Roman-64"/>
      <use x="557.470703125" xlink:href="#BitstreamVeraSans-Roman-69"/>
      <use x="585.25390625" xlink:href="#BitstreamVeraSans-Roman-65"/>
      <use x="646.77734375" xlink:href="#BitstreamVeraSans-Roman-6e"/>
      <use x="710.15625" xlink:href="#BitstreamVeraSans-Roman-74"/>
      <use x="749.365234375" xlink:href="#BitstreamVeraSans-Roman-20"/>
      <use x="781.15234375" xlink:href="#BitstreamVeraSans-Roman-6f"/>
      <use x="842.333984375" xlink:href="#BitstreamVeraSans-Roman-6e"/>
      <use x="905.712890625" xlink:href="#BitstreamVeraSans-Roman-20"/>
      <use x="937.5" xlink:href="#BitstreamVeraSans-Roman-63"/>
      <use x="992.48046875" xlink:href="#BitstreamVeraSans-Roman-6f"/>
      <use x="1053.66210938" xlink:href="#BitstreamVeraSans-Roman-6f"/>
      <use x="1114.84375" xlink:href="#BitstreamVeraSans-Roman-6c"/>
      <use x="1142.62695312" xlink:href="#BitstreamVeraSans-Roman-69"/>
      <use x="1170.41015625" xlink:href="#BitstreamVeraSans-Roman-6e"/>
      <use x="1233.7890625" xlink:href="#BitstreamVeraSans-Roman-67"/>
     </g>
    </g>
    <g id="line2d_41"/>
    <g id="line2d_42">
     <g>
      <use style="fill:#ff0000;stroke:#000000;stroke-linejoin:miter;stroke-width:0.5;" x="416.239375" xlink:href="#mc5b8a5ec96" y="209.40875"/>
      <use style="fill:#ff0000;stroke:#000000;stroke-linejoin:miter;stroke-width:0.5;" x="433.039375" xlink:href="#mc5b8a5ec96" y="209.40875"/>
     </g>
    </g>
    <g id="text_20">
     <!-- LTI gradient on warming -->
     <defs>
      <path d="
M4.20312 54.6875
L13.1875 54.6875
L24.4219 12.0156
L35.5938 54.6875
L46.1875 54.6875
L57.4219 12.0156
L68.6094 54.6875
L77.5938 54.6875
L63.2812 0
L52.6875 0
L40.9219 44.8281
L29.1094 0
L18.5 0
z
" id="BitstreamVeraSans-Roman-77"/>
     </defs>
     <g transform="translate(446.239375 213.60875)scale(0.12 -0.12)">
      <use xlink:href="#BitstreamVeraSans-Roman-4c"/>
      <use x="41.962890625" xlink:href="#BitstreamVeraSans-Roman-54"/>
      <use x="103.046875" xlink:href="#BitstreamVeraSans-Roman-49"/>
      <use x="132.5390625" xlink:href="#BitstreamVeraSans-Roman-20"/>
      <use x="164.326171875" xlink:href="#BitstreamVeraSans-Roman-67"/>
      <use x="227.802734375" xlink:href="#BitstreamVeraSans-Roman-72"/>
      <use x="268.916015625" xlink:href="#BitstreamVeraSans-Roman-61"/>
      <use x="330.1953125" xlink:href="#BitstreamVeraSans-Roman-64"/>
      <use x="393.671875" xlink:href="#BitstreamVeraSans-Roman-69"/>
      <use x="421.455078125" xlink:href="#BitstreamVeraSans-Roman-65"/>
      <use x="482.978515625" xlink:href="#BitstreamVeraSans-Roman-6e"/>
      <use x="546.357421875" xlink:href="#BitstreamVeraSans-Roman-74"/>
      <use x="585.56640625" xlink:href="#BitstreamVeraSans-Roman-20"/>
      <use x="617.353515625" xlink:href="#BitstreamVeraSans-Roman-6f"/>
      <use x="678.53515625" xlink:href="#BitstreamVeraSans-Roman-6e"/>
      <use x="741.9140625" xlink:href="#BitstreamVeraSans-Roman-20"/>
      <use x="773.701171875" xlink:href="#BitstreamVeraSans-Roman-77"/>
      <use x="855.48828125" xlink:href="#BitstreamVeraSans-Roman-61"/>
      <use x="916.767578125" xlink:href="#BitstreamVeraSans-Roman-72"/>
      <use x="956.130859375" xlink:href="#BitstreamVeraSans-Roman-6d"/>
      <use x="1053.54296875" xlink:href="#BitstreamVeraSans-Roman-69"/>
      <use x="1081.32617188" xlink:href="#BitstreamVeraSans-Roman-6e"/>
      <use x="1144.70507812" xlink:href="#BitstreamVeraSans-Roman-67"/>
     </g>
    </g>
    <g id="line2d_43"/>
    <g id="line2d_44">
     <g>
      <use style="fill:#ff0000;stroke:#000000;stroke-linejoin:miter;stroke-width:0.5;" x="416.239375" xlink:href="#m07e8cbd9dd" y="227.0225"/>
      <use style="fill:#ff0000;stroke:#000000;stroke-linejoin:miter;stroke-width:0.5;" x="433.039375" xlink:href="#m07e8cbd9dd" y="227.0225"/>
     </g>
    </g>
    <g id="text_21">
     <!-- MPMS gradient on warming -->
     <g transform="translate(446.239375 231.2225)scale(0.12 -0.12)">
      <use xlink:href="#BitstreamVeraSans-Roman-4d"/>
      <use x="86.279296875" xlink:href="#BitstreamVeraSans-Roman-50"/>
      <use x="146.58203125" xlink:href="#BitstreamVeraSans-Roman-4d"/>
      <use x="232.861328125" xlink:href="#BitstreamVeraSans-Roman-53"/>
      <use x="296.337890625" xlink:href="#BitstreamVeraSans-Roman-20"/>
      <use x="328.125" xlink:href="#BitstreamVeraSans-Roman-67"/>
      <use x="391.6015625" xlink:href="#BitstreamVeraSans-Roman-72"/>
      <use x="432.71484375" xlink:href="#BitstreamVeraSans-Roman-61"/>
      <use x="493.994140625" xlink:href="#BitstreamVeraSans-Roman-64"/>
      <use x="557.470703125" xlink:href="#BitstreamVeraSans-Roman-69"/>
      <use x="585.25390625" xlink:href="#BitstreamVeraSans-Roman-65"/>
      <use x="646.77734375" xlink:href="#BitstreamVeraSans-Roman-6e"/>
      <use x="710.15625" xlink:href="#BitstreamVeraSans-Roman-74"/>
      <use x="749.365234375" xlink:href="#BitstreamVeraSans-Roman-20"/>
      <use x="781.15234375" xlink:href="#BitstreamVeraSans-Roman-6f"/>
      <use x="842.333984375" xlink:href="#BitstreamVeraSans-Roman-6e"/>
      <use x="905.712890625" xlink:href="#BitstreamVeraSans-Roman-20"/>
      <use x="937.5" xlink:href="#BitstreamVeraSans-Roman-77"/>
      <use x="1019.28710938" xlink:href="#BitstreamVeraSans-Roman-61"/>
      <use x="1080.56640625" xlink:href="#BitstreamVeraSans-Roman-72"/>
      <use x="1119.9296875" xlink:href="#BitstreamVeraSans-Roman-6d"/>
      <use x="1217.34179688" xlink:href="#BitstreamVeraSans-Roman-69"/>
      <use x="1245.125" xlink:href="#BitstreamVeraSans-Roman-6e"/>
      <use x="1308.50390625" xlink:href="#BitstreamVeraSans-Roman-67"/>
     </g>
    </g>
   </g>
  </g>
 </g>
 <defs>
  <clipPath id="p3f5ec94d22">
   <rect height="223.2" width="558.0" x="62.584375" y="21.318125"/>
  </clipPath>
 </defs>
</svg>
