<?xml version="1.0" encoding="utf-8" standalone="no"?>
<!DOCTYPE svg PUBLIC "-//W3C//DTD SVG 1.1//EN"
  "http://www.w3.org/Graphics/SVG/1.1/DTD/svg11.dtd">
<!-- Created with matplotlib (http://matplotlib.org/) -->
<svg height="435pt" version="1.1" viewBox="0 0 543 435" width="543pt" xmlns="http://www.w3.org/2000/svg" xmlns:xlink="http://www.w3.org/1999/xlink">
 <defs>
  <style type="text/css">
*{stroke-linecap:butt;stroke-linejoin:round;}
  </style>
 </defs>
 <g id="figure_1">
  <g id="patch_1">
   <path d="
M0 435.096
L543.716 435.096
L543.716 0
L0 0
z
" style="fill:none;"/>
  </g>
  <g id="axes_1">
   <g id="PathCollection_1">
    <defs>
     <path d="
M0 2.23607
C0.593012 2.23607 1.16182 2.00046 1.58114 1.58114
C2.00046 1.16182 2.23607 0.593012 2.23607 0
C2.23607 -0.593012 2.00046 -1.16182 1.58114 -1.58114
C1.16182 -2.00046 0.593012 -2.23607 0 -2.23607
C-0.593012 -2.23607 -1.16182 -2.00046 -1.58114 -1.58114
C-2.00046 -1.16182 -2.23607 -0.593012 -2.23607 0
C-2.23607 0.593012 -2.00046 1.16182 -1.58114 1.58114
C-1.16182 2.00046 -0.593012 2.23607 0 2.23607
z
" id="C0_0_919e3f95db"/>
    </defs>
    <g clip-path="url(#pbc2e2e3be9)">
     <use style="fill:none;stroke:#ff0000;" x="263.138367167" xlink:href="#C0_0_919e3f95db" y="217.127515116"/>
    </g>
   </g>
   <g id="PathCollection_2">
    <defs>
     <path d="
M0 2.23607
C0.593012 2.23607 1.16182 2.00046 1.58114 1.58114
C2.00046 1.16182 2.23607 0.593012 2.23607 0
C2.23607 -0.593012 2.00046 -1.16182 1.58114 -1.58114
C1.16182 -2.00046 0.593012 -2.23607 0 -2.23607
C-0.593012 -2.23607 -1.16182 -2.00046 -1.58114 -1.58114
C-2.00046 -1.16182 -2.23607 -0.593012 -2.23607 0
C-2.23607 0.593012 -2.00046 1.16182 -1.58114 1.58114
C-1.16182 2.00046 -0.593012 2.23607 0 2.23607
z
" id="C1_0_919e3f95db"/>
    </defs>
    <g clip-path="url(#pbc2e2e3be9)">
     <use style="fill:none;stroke:#000000;" x="260.778136572" xlink:href="#C1_0_919e3f95db" y="233.516331902"/>
    </g>
   </g>
   <g id="PathCollection_3">
    <defs>
     <path d="
M0 2.23607
C0.593012 2.23607 1.16182 2.00046 1.58114 1.58114
C2.00046 1.16182 2.23607 0.593012 2.23607 0
C2.23607 -0.593012 2.00046 -1.16182 1.58114 -1.58114
C1.16182 -2.00046 0.593012 -2.23607 0 -2.23607
C-0.593012 -2.23607 -1.16182 -2.00046 -1.58114 -1.58114
C-2.00046 -1.16182 -2.23607 -0.593012 -2.23607 0
C-2.23607 0.593012 -2.00046 1.16182 -1.58114 1.58114
C-1.16182 2.00046 -0.593012 2.23607 0 2.23607
z
" id="C2_0_919e3f95db"/>
    </defs>
    <g clip-path="url(#pbc2e2e3be9)">
     <use style="fill:none;stroke:#0000ff;" x="259.42679368" xlink:href="#C2_0_919e3f95db" y="218.115363525"/>
    </g>
   </g>
   <g id="line2d_1">
    <path clip-path="url(#pbc2e2e3be9)" d="
M271.858 86.8015
L274.144 86.8214
L276.429 86.8812
L280.994 87.1205
L285.548 87.5189
L290.085 88.076
L294.6 88.7911
L299.088 89.6634
L303.542 90.6917
L307.957 91.8749
L312.329 93.2114
L316.651 94.6997
L320.919 96.3379
L325.127 98.1241
L329.27 100.056
L333.343 102.131
L337.341 104.348
L341.26 106.702
L345.094 109.192
L348.838 111.814
L352.489 114.565
L356.042 117.442
L359.492 120.441
L362.835 123.559
L366.068 126.791
L369.185 130.134
L372.184 133.584
L375.061 137.137
L377.812 140.788
L380.434 144.532
L382.924 148.366
L385.279 152.285
L387.495 156.283
L389.57 160.356
L391.502 164.499
L393.288 168.707
L394.927 172.975
L396.415 177.297
L397.751 181.669
L398.935 186.084
L399.963 190.539
L400.835 195.026
L401.55 199.541
L402.107 204.078
L402.506 208.632
L402.745 213.197
L402.825 217.768
L402.745 222.339
L402.506 226.904
L402.107 231.458
L401.55 235.995
L400.835 240.51
L399.963 244.998
L398.935 249.452
L397.751 253.867
L396.415 258.239
L394.927 262.561
L393.288 266.829
L391.502 271.037
L389.57 275.18
L387.495 279.253
L385.279 283.251
L382.924 287.17
L380.434 291.004
L377.812 294.748
L375.061 298.399
L372.184 301.952
L369.185 305.402
L366.068 308.745
L362.835 311.978
L359.492 315.095
L356.042 318.094
L352.489 320.971
L348.838 323.722
L345.094 326.344
L341.26 328.834
L337.341 331.189
L333.343 333.405
L329.27 335.48
L325.127 337.412
L320.919 339.198
L316.651 340.837
L312.329 342.325
L307.957 343.661
L303.542 344.845
L299.088 345.873
L294.6 346.745
L290.085 347.46
L285.548 348.017
L280.994 348.416
L276.429 348.655
L271.858 348.735
L267.287 348.655
L262.722 348.416
L258.168 348.017
L253.631 347.46
L249.116 346.745
L244.629 345.873
L240.174 344.845
L235.759 343.661
L231.387 342.325
L227.065 340.837
L222.797 339.198
L218.589 337.412
L214.446 335.48
L210.373 333.405
L206.375 331.189
L202.456 328.834
L198.622 326.344
L194.878 323.722
L191.227 320.971
L187.674 318.094
L184.224 315.095
L180.881 311.978
L177.649 308.745
L174.531 305.402
L171.532 301.952
L168.655 298.399
L165.904 294.748
L163.282 291.004
L160.792 287.17
L158.438 283.251
L156.221 279.253
L154.146 275.18
L152.214 271.037
L150.428 266.829
L148.79 262.561
L147.301 258.239
L145.965 253.867
L144.782 249.452
L143.753 244.998
L142.881 240.51
L142.166 235.995
L141.609 231.458
L141.21 226.904
L140.971 222.339
L140.891 217.768
L140.971 213.197
L141.21 208.632
L141.609 204.078
L142.166 199.541
L142.881 195.026
L143.753 190.539
L144.782 186.084
L145.965 181.669
L147.301 177.297
L148.79 172.975
L150.428 168.707
L152.214 164.499
L154.146 160.356
L156.221 156.283
L158.438 152.285
L160.792 148.366
L163.282 144.532
L165.904 140.788
L168.655 137.137
L171.532 133.584
L174.531 130.134
L177.649 126.791
L180.881 123.559
L184.224 120.441
L187.674 117.442
L191.227 114.565
L194.878 111.814
L198.622 109.192
L202.456 106.702
L206.375 104.348
L210.373 102.131
L214.446 100.056
L218.589 98.1241
L222.797 96.3379
L227.065 94.6997
L231.387 93.2114
L235.759 91.8749
L240.174 90.6917
L244.629 89.6634
L249.116 88.7911
L253.631 88.076
L258.168 87.5189
L262.722 87.1205
L267.287 86.8812
L271.858 86.8015
L271.858 86.8015" style="fill:none;stroke:#000000;stroke-linecap:square;"/>
   </g>
   <g id="line2d_2">
    <defs>
     <path d="
M-3 0
L3 0
M0 3
L0 -3" id="m9d0eee4805" style="stroke:#000000;stroke-width:0.5;"/>
    </defs>
    <g clip-path="url(#pbc2e2e3be9)">
     <use style="stroke:#000000;stroke-width:0.5;" x="271.858125" xlink:href="#m9d0eee4805" y="98.7143231484"/>
     <use style="stroke:#000000;stroke-width:0.5;" x="271.858125" xlink:href="#m9d0eee4805" y="111.533259282"/>
     <use style="stroke:#000000;stroke-width:0.5;" x="271.858125" xlink:href="#m9d0eee4805" y="125.160706891"/>
     <use style="stroke:#000000;stroke-width:0.5;" x="271.858125" xlink:href="#m9d0eee4805" y="139.492952869"/>
     <use style="stroke:#000000;stroke-width:0.5;" x="271.858125" xlink:href="#m9d0eee4805" y="154.42092017"/>
     <use style="stroke:#000000;stroke-width:0.5;" x="271.858125" xlink:href="#m9d0eee4805" y="169.830997951"/>
     <use style="stroke:#000000;stroke-width:0.5;" x="271.858125" xlink:href="#m9d0eee4805" y="185.605906214"/>
     <use style="stroke:#000000;stroke-width:0.5;" x="271.858125" xlink:href="#m9d0eee4805" y="201.625588381"/>
     <use style="stroke:#000000;stroke-width:0.5;" x="271.858125" xlink:href="#m9d0eee4805" y="217.768125"/>
    </g>
   </g>
   <g id="line2d_3">
    <g clip-path="url(#pbc2e2e3be9)">
     <use style="stroke:#000000;stroke-width:0.5;" x="390.911926852" xlink:href="#m9d0eee4805" y="217.768125"/>
     <use style="stroke:#000000;stroke-width:0.5;" x="378.092990718" xlink:href="#m9d0eee4805" y="217.768125"/>
     <use style="stroke:#000000;stroke-width:0.5;" x="364.465543109" xlink:href="#m9d0eee4805" y="217.768125"/>
     <use style="stroke:#000000;stroke-width:0.5;" x="350.133297131" xlink:href="#m9d0eee4805" y="217.768125"/>
     <use style="stroke:#000000;stroke-width:0.5;" x="335.20532983" xlink:href="#m9d0eee4805" y="217.768125"/>
     <use style="stroke:#000000;stroke-width:0.5;" x="319.795252049" xlink:href="#m9d0eee4805" y="217.768125"/>
     <use style="stroke:#000000;stroke-width:0.5;" x="304.020343786" xlink:href="#m9d0eee4805" y="217.768125"/>
     <use style="stroke:#000000;stroke-width:0.5;" x="288.000661619" xlink:href="#m9d0eee4805" y="217.768125"/>
    </g>
   </g>
   <g id="line2d_4">
    <g clip-path="url(#pbc2e2e3be9)">
     <use style="stroke:#000000;stroke-width:0.5;" x="271.858125" xlink:href="#m9d0eee4805" y="336.821926852"/>
     <use style="stroke:#000000;stroke-width:0.5;" x="271.858125" xlink:href="#m9d0eee4805" y="324.002990718"/>
     <use style="stroke:#000000;stroke-width:0.5;" x="271.858125" xlink:href="#m9d0eee4805" y="310.375543109"/>
     <use style="stroke:#000000;stroke-width:0.5;" x="271.858125" xlink:href="#m9d0eee4805" y="296.043297131"/>
     <use style="stroke:#000000;stroke-width:0.5;" x="271.858125" xlink:href="#m9d0eee4805" y="281.11532983"/>
     <use style="stroke:#000000;stroke-width:0.5;" x="271.858125" xlink:href="#m9d0eee4805" y="265.705252049"/>
     <use style="stroke:#000000;stroke-width:0.5;" x="271.858125" xlink:href="#m9d0eee4805" y="249.930343786"/>
     <use style="stroke:#000000;stroke-width:0.5;" x="271.858125" xlink:href="#m9d0eee4805" y="233.910661619"/>
    </g>
   </g>
   <g id="line2d_5">
    <g clip-path="url(#pbc2e2e3be9)">
     <use style="stroke:#000000;stroke-width:0.5;" x="152.804323148" xlink:href="#m9d0eee4805" y="217.768125"/>
     <use style="stroke:#000000;stroke-width:0.5;" x="165.623259282" xlink:href="#m9d0eee4805" y="217.768125"/>
     <use style="stroke:#000000;stroke-width:0.5;" x="179.250706891" xlink:href="#m9d0eee4805" y="217.768125"/>
     <use style="stroke:#000000;stroke-width:0.5;" x="193.582952869" xlink:href="#m9d0eee4805" y="217.768125"/>
     <use style="stroke:#000000;stroke-width:0.5;" x="208.51092017" xlink:href="#m9d0eee4805" y="217.768125"/>
     <use style="stroke:#000000;stroke-width:0.5;" x="223.920997951" xlink:href="#m9d0eee4805" y="217.768125"/>
     <use style="stroke:#000000;stroke-width:0.5;" x="239.695906214" xlink:href="#m9d0eee4805" y="217.768125"/>
     <use style="stroke:#000000;stroke-width:0.5;" x="255.715588381" xlink:href="#m9d0eee4805" y="217.768125"/>
    </g>
   </g>
   <g id="line2d_6">
    <path clip-path="url(#pbc2e2e3be9)" d="
M271.858 86.8015
L271.858 87.9493
L271.858 89.1071
L271.858 90.2746" style="fill:none;stroke:#000000;stroke-linecap:square;"/>
   </g>
   <g id="line2d_7">
    <path clip-path="url(#pbc2e2e3be9)" d="
M294.6 88.7911
L294.401 89.9216
L294.2 91.0617
L293.997 92.2116" style="fill:none;stroke:#000000;stroke-linecap:square;"/>
   </g>
   <g id="line2d_8">
    <path clip-path="url(#pbc2e2e3be9)" d="
M316.651 94.6997
L316.259 95.7784
L315.863 96.8663
L315.463 97.9634" style="fill:none;stroke:#000000;stroke-linecap:square;"/>
   </g>
   <g id="line2d_9">
    <path clip-path="url(#pbc2e2e3be9)" d="
M337.341 104.348
L336.768 105.342
L336.189 106.344
L335.605 107.356" style="fill:none;stroke:#000000;stroke-linecap:square;"/>
   </g>
   <g id="line2d_10">
    <path clip-path="url(#pbc2e2e3be9)" d="
M356.042 117.442
L355.304 118.321
L354.56 119.208
L353.809 120.102" style="fill:none;stroke:#000000;stroke-linecap:square;"/>
   </g>
   <g id="line2d_11">
    <path clip-path="url(#pbc2e2e3be9)" d="
M372.184 133.584
L371.305 134.322
L370.418 135.066
L369.524 135.817" style="fill:none;stroke:#000000;stroke-linecap:square;"/>
   </g>
   <g id="line2d_12">
    <path clip-path="url(#pbc2e2e3be9)" d="
M385.279 152.285
L384.284 152.859
L383.282 153.438
L382.271 154.021" style="fill:none;stroke:#000000;stroke-linecap:square;"/>
   </g>
   <g id="line2d_13">
    <path clip-path="url(#pbc2e2e3be9)" d="
M394.927 172.975
L393.848 173.367
L392.76 173.763
L391.663 174.163" style="fill:none;stroke:#000000;stroke-linecap:square;"/>
   </g>
   <g id="line2d_14">
    <path clip-path="url(#pbc2e2e3be9)" d="
M400.835 195.026
L399.705 195.225
L398.565 195.426
L397.415 195.629" style="fill:none;stroke:#000000;stroke-linecap:square;"/>
   </g>
   <g id="line2d_15">
    <path clip-path="url(#pbc2e2e3be9)" d="
M402.825 217.768
L401.677 217.768
L400.519 217.768
L399.352 217.768" style="fill:none;stroke:#000000;stroke-linecap:square;"/>
   </g>
   <g id="line2d_16">
    <path clip-path="url(#pbc2e2e3be9)" d="
M400.835 240.51
L399.705 240.311
L398.565 240.11
L397.415 239.907" style="fill:none;stroke:#000000;stroke-linecap:square;"/>
   </g>
   <g id="line2d_17">
    <path clip-path="url(#pbc2e2e3be9)" d="
M394.927 262.561
L393.848 262.169
L392.76 261.773
L391.663 261.373" style="fill:none;stroke:#000000;stroke-linecap:square;"/>
   </g>
   <g id="line2d_18">
    <path clip-path="url(#pbc2e2e3be9)" d="
M385.279 283.251
L384.284 282.678
L383.282 282.099
L382.271 281.515" style="fill:none;stroke:#000000;stroke-linecap:square;"/>
   </g>
   <g id="line2d_19">
    <path clip-path="url(#pbc2e2e3be9)" d="
M372.184 301.952
L371.305 301.214
L370.418 300.47
L369.524 299.719" style="fill:none;stroke:#000000;stroke-linecap:square;"/>
   </g>
   <g id="line2d_20">
    <path clip-path="url(#pbc2e2e3be9)" d="
M356.042 318.094
L355.304 317.215
L354.56 316.328
L353.809 315.434" style="fill:none;stroke:#000000;stroke-linecap:square;"/>
   </g>
   <g id="line2d_21">
    <path clip-path="url(#pbc2e2e3be9)" d="
M337.341 331.189
L336.768 330.194
L336.189 329.192
L335.605 328.181" style="fill:none;stroke:#000000;stroke-linecap:square;"/>
   </g>
   <g id="line2d_22">
    <path clip-path="url(#pbc2e2e3be9)" d="
M316.651 340.837
L316.259 339.758
L315.863 338.67
L315.463 337.573" style="fill:none;stroke:#000000;stroke-linecap:square;"/>
   </g>
   <g id="line2d_23">
    <path clip-path="url(#pbc2e2e3be9)" d="
M294.6 346.745
L294.401 345.615
L294.2 344.475
L293.997 343.325" style="fill:none;stroke:#000000;stroke-linecap:square;"/>
   </g>
   <g id="line2d_24">
    <path clip-path="url(#pbc2e2e3be9)" d="
M271.858 348.735
L271.858 347.587
L271.858 346.429
L271.858 345.262" style="fill:none;stroke:#000000;stroke-linecap:square;"/>
   </g>
   <g id="line2d_25">
    <path clip-path="url(#pbc2e2e3be9)" d="
M249.116 346.745
L249.315 345.615
L249.516 344.475
L249.719 343.325" style="fill:none;stroke:#000000;stroke-linecap:square;"/>
   </g>
   <g id="line2d_26">
    <path clip-path="url(#pbc2e2e3be9)" d="
M227.065 340.837
L227.457 339.758
L227.853 338.67
L228.253 337.573" style="fill:none;stroke:#000000;stroke-linecap:square;"/>
   </g>
   <g id="line2d_27">
    <path clip-path="url(#pbc2e2e3be9)" d="
M206.375 331.189
L206.949 330.194
L207.528 329.192
L208.111 328.181" style="fill:none;stroke:#000000;stroke-linecap:square;"/>
   </g>
   <g id="line2d_28">
    <path clip-path="url(#pbc2e2e3be9)" d="
M187.674 318.094
L188.412 317.215
L189.156 316.328
L189.907 315.434" style="fill:none;stroke:#000000;stroke-linecap:square;"/>
   </g>
   <g id="line2d_29">
    <path clip-path="url(#pbc2e2e3be9)" d="
M171.532 301.952
L172.411 301.214
L173.298 300.47
L174.192 299.719" style="fill:none;stroke:#000000;stroke-linecap:square;"/>
   </g>
   <g id="line2d_30">
    <path clip-path="url(#pbc2e2e3be9)" d="
M158.438 283.251
L159.432 282.678
L160.434 282.099
L161.446 281.515" style="fill:none;stroke:#000000;stroke-linecap:square;"/>
   </g>
   <g id="line2d_31">
    <path clip-path="url(#pbc2e2e3be9)" d="
M148.79 262.561
L149.868 262.169
L150.956 261.773
L152.053 261.373" style="fill:none;stroke:#000000;stroke-linecap:square;"/>
   </g>
   <g id="line2d_32">
    <path clip-path="url(#pbc2e2e3be9)" d="
M142.881 240.51
L144.012 240.311
L145.152 240.11
L146.302 239.907" style="fill:none;stroke:#000000;stroke-linecap:square;"/>
   </g>
   <g id="line2d_33">
    <path clip-path="url(#pbc2e2e3be9)" d="
M140.891 217.768
L142.039 217.768
L143.197 217.768
L144.365 217.768" style="fill:none;stroke:#000000;stroke-linecap:square;"/>
   </g>
   <g id="line2d_34">
    <path clip-path="url(#pbc2e2e3be9)" d="
M142.881 195.026
L144.012 195.225
L145.152 195.426
L146.302 195.629" style="fill:none;stroke:#000000;stroke-linecap:square;"/>
   </g>
   <g id="line2d_35">
    <path clip-path="url(#pbc2e2e3be9)" d="
M148.79 172.975
L149.868 173.367
L150.956 173.763
L152.053 174.163" style="fill:none;stroke:#000000;stroke-linecap:square;"/>
   </g>
   <g id="line2d_36">
    <path clip-path="url(#pbc2e2e3be9)" d="
M158.438 152.285
L159.432 152.859
L160.434 153.438
L161.446 154.021" style="fill:none;stroke:#000000;stroke-linecap:square;"/>
   </g>
   <g id="line2d_37">
    <path clip-path="url(#pbc2e2e3be9)" d="
M171.532 133.584
L172.411 134.322
L173.298 135.066
L174.192 135.817" style="fill:none;stroke:#000000;stroke-linecap:square;"/>
   </g>
   <g id="line2d_38">
    <path clip-path="url(#pbc2e2e3be9)" d="
M187.674 117.442
L188.412 118.321
L189.156 119.208
L189.907 120.102" style="fill:none;stroke:#000000;stroke-linecap:square;"/>
   </g>
   <g id="line2d_39">
    <path clip-path="url(#pbc2e2e3be9)" d="
M206.375 104.348
L206.949 105.342
L207.528 106.344
L208.111 107.356" style="fill:none;stroke:#000000;stroke-linecap:square;"/>
   </g>
   <g id="line2d_40">
    <path clip-path="url(#pbc2e2e3be9)" d="
M227.065 94.6997
L227.457 95.7784
L227.853 96.8663
L228.253 97.9634" style="fill:none;stroke:#000000;stroke-linecap:square;"/>
   </g>
   <g id="line2d_41">
    <path clip-path="url(#pbc2e2e3be9)" d="
M249.116 88.7911
L249.315 89.9216
L249.516 91.0617
L249.719 92.2116" style="fill:none;stroke:#000000;stroke-linecap:square;"/>
   </g>
   <g id="text_1">
    <!-- PW15-4d zARM oriented (red) z&amp;xARM oriented (black) and following lowT-demag (blue) -->
    <defs>
     <path id="BitstreamVeraSans-Roman-20"/>
     <path d="
M24.3125 39.2031
Q19.875 35.25 17.7969 31.3125
Q15.7188 27.3906 15.7188 23.0938
Q15.7188 15.9688 20.8906 11.2344
Q26.0781 6.5 33.8906 6.5
Q38.5312 6.5 42.5781 8.03125
Q46.625 9.57812 50.2031 12.7031
z

M31.2031 44.6719
L56 19.2812
Q58.8906 23.6406 60.5 28.5938
Q62.1094 33.5469 62.4062 39.1094
L71.4844 39.1094
Q70.9062 32.6719 68.3594 26.3594
Q65.8281 20.0625 61.2812 13.9219
L74.9062 0
L62.5938 0
L55.6094 7.17188
Q50.5312 2.82812 44.9688 0.703125
Q39.4062 -1.42188 33.0156 -1.42188
Q21.2344 -1.42188 13.7656 5.29688
Q6.29688 12.0156 6.29688 22.5156
Q6.29688 28.7656 9.5625 34.25
Q12.8438 39.75 19.3906 44.5781
Q17.0469 47.6562 15.8125 50.7031
Q14.5938 53.7656 14.5938 56.6875
Q14.5938 64.5938 20.0156 69.4062
Q25.4375 74.2188 34.4219 74.2188
Q38.4844 74.2188 42.5 73.3438
Q46.5312 72.4688 50.6875 70.7031
L50.6875 61.8125
Q46.4375 64.1094 42.5781 65.2969
Q38.7188 66.5 35.4062 66.5
Q30.2812 66.5 27.0781 63.7812
Q23.875 61.0781 23.875 56.7812
Q23.875 54.2969 25.3125 51.7812
Q26.7656 49.2656 31.2031 44.6719" id="BitstreamVeraSans-Roman-26"/>
     <path d="
M8.01562 75.875
L15.8281 75.875
Q23.1406 64.3594 26.7812 53.3125
Q30.4219 42.2812 30.4219 31.3906
Q30.4219 20.4531 26.7812 9.375
Q23.1406 -1.70312 15.8281 -13.1875
L8.01562 -13.1875
Q14.5 -2 17.7031 9.0625
Q20.9062 20.125 20.9062 31.3906
Q20.9062 42.6719 17.7031 53.6562
Q14.5 64.6562 8.01562 75.875" id="BitstreamVeraSans-Roman-29"/>
     <path d="
M31 75.875
Q24.4688 64.6562 21.2812 53.6562
Q18.1094 42.6719 18.1094 31.3906
Q18.1094 20.125 21.3125 9.0625
Q24.5156 -2 31 -13.1875
L23.1875 -13.1875
Q15.875 -1.70312 12.2344 9.375
Q8.59375 20.4531 8.59375 31.3906
Q8.59375 42.2812 12.2031 53.3125
Q15.8281 64.3594 23.1875 75.875
z
" id="BitstreamVeraSans-Roman-28"/>
     <path d="
M5.51562 54.6875
L48.1875 54.6875
L48.1875 46.4844
L14.4062 7.17188
L48.1875 7.17188
L48.1875 0
L4.29688 0
L4.29688 8.20312
L38.0938 47.5156
L5.51562 47.5156
z
" id="BitstreamVeraSans-Roman-7a"/>
     <path d="
M9.8125 72.9062
L24.5156 72.9062
L43.1094 23.2969
L61.8125 72.9062
L76.5156 72.9062
L76.5156 0
L66.8906 0
L66.8906 64.0156
L48.0938 14.0156
L38.1875 14.0156
L19.3906 64.0156
L19.3906 0
L9.8125 0
z
" id="BitstreamVeraSans-Roman-4d"/>
     <path d="
M9.42188 54.6875
L18.4062 54.6875
L18.4062 0
L9.42188 0
z

M9.42188 75.9844
L18.4062 75.9844
L18.4062 64.5938
L9.42188 64.5938
z
" id="BitstreamVeraSans-Roman-69"/>
     <path d="
M34.1875 63.1875
L20.7969 26.9062
L47.6094 26.9062
z

M28.6094 72.9062
L39.7969 72.9062
L67.5781 0
L57.3281 0
L50.6875 18.7031
L17.8281 18.7031
L11.1875 0
L0.78125 0
z
" id="BitstreamVeraSans-Roman-41"/>
     <path d="
M56.2031 29.5938
L56.2031 25.2031
L14.8906 25.2031
Q15.4844 15.9219 20.4844 11.0625
Q25.4844 6.20312 34.4219 6.20312
Q39.5938 6.20312 44.4531 7.46875
Q49.3125 8.73438 54.1094 11.2812
L54.1094 2.78125
Q49.2656 0.734375 44.1875 -0.34375
Q39.1094 -1.42188 33.8906 -1.42188
Q20.7969 -1.42188 13.1562 6.1875
Q5.51562 13.8125 5.51562 26.8125
Q5.51562 40.2344 12.7656 48.1094
Q20.0156 56 32.3281 56
Q43.3594 56 49.7812 48.8906
Q56.2031 41.7969 56.2031 29.5938
M47.2188 32.2344
Q47.125 39.5938 43.0938 43.9844
Q39.0625 48.3906 32.4219 48.3906
Q24.9062 48.3906 20.3906 44.1406
Q15.875 39.8906 15.1875 32.1719
z
" id="BitstreamVeraSans-Roman-65"/>
     <path d="
M45.4062 46.3906
L45.4062 75.9844
L54.3906 75.9844
L54.3906 0
L45.4062 0
L45.4062 8.20312
Q42.5781 3.32812 38.25 0.953125
Q33.9375 -1.42188 27.875 -1.42188
Q17.9688 -1.42188 11.7344 6.48438
Q5.51562 14.4062 5.51562 27.2969
Q5.51562 40.1875 11.7344 48.0938
Q17.9688 56 27.875 56
Q33.9375 56 38.25 53.625
Q42.5781 51.2656 45.4062 46.3906
M14.7969 27.2969
Q14.7969 17.3906 18.875 11.75
Q22.9531 6.10938 30.0781 6.10938
Q37.2031 6.10938 41.2969 11.75
Q45.4062 17.3906 45.4062 27.2969
Q45.4062 37.2031 41.2969 42.8438
Q37.2031 48.4844 30.0781 48.4844
Q22.9531 48.4844 18.875 42.8438
Q14.7969 37.2031 14.7969 27.2969" id="BitstreamVeraSans-Roman-64"/>
     <path d="
M45.4062 27.9844
Q45.4062 37.75 41.375 43.1094
Q37.3594 48.4844 30.0781 48.4844
Q22.8594 48.4844 18.8281 43.1094
Q14.7969 37.75 14.7969 27.9844
Q14.7969 18.2656 18.8281 12.8906
Q22.8594 7.51562 30.0781 7.51562
Q37.3594 7.51562 41.375 12.8906
Q45.4062 18.2656 45.4062 27.9844
M54.3906 6.78125
Q54.3906 -7.17188 48.1875 -13.9844
Q42 -20.7969 29.2031 -20.7969
Q24.4688 -20.7969 20.2656 -20.0938
Q16.0625 -19.3906 12.1094 -17.9219
L12.1094 -9.1875
Q16.0625 -11.3281 19.9219 -12.3438
Q23.7812 -13.375 27.7812 -13.375
Q36.625 -13.375 41.0156 -8.76562
Q45.4062 -4.15625 45.4062 5.17188
L45.4062 9.625
Q42.625 4.78125 38.2812 2.39062
Q33.9375 0 27.875 0
Q17.8281 0 11.6719 7.65625
Q5.51562 15.3281 5.51562 27.9844
Q5.51562 40.6719 11.6719 48.3281
Q17.8281 56 27.875 56
Q33.9375 56 38.2812 53.6094
Q42.625 51.2188 45.4062 46.3906
L45.4062 54.6875
L54.3906 54.6875
z
" id="BitstreamVeraSans-Roman-67"/>
     <path d="
M37.1094 75.9844
L37.1094 68.5
L28.5156 68.5
Q23.6875 68.5 21.7969 66.5469
Q19.9219 64.5938 19.9219 59.5156
L19.9219 54.6875
L34.7188 54.6875
L34.7188 47.7031
L19.9219 47.7031
L19.9219 0
L10.8906 0
L10.8906 47.7031
L2.29688 47.7031
L2.29688 54.6875
L10.8906 54.6875
L10.8906 58.5
Q10.8906 67.625 15.1406 71.7969
Q19.3906 75.9844 28.6094 75.9844
z
" id="BitstreamVeraSans-Roman-66"/>
     <path d="
M34.2812 27.4844
Q23.3906 27.4844 19.1875 25
Q14.9844 22.5156 14.9844 16.5
Q14.9844 11.7188 18.1406 8.90625
Q21.2969 6.10938 26.7031 6.10938
Q34.1875 6.10938 38.7031 11.4062
Q43.2188 16.7031 43.2188 25.4844
L43.2188 27.4844
z

M52.2031 31.2031
L52.2031 0
L43.2188 0
L43.2188 8.29688
Q40.1406 3.32812 35.5469 0.953125
Q30.9531 -1.42188 24.3125 -1.42188
Q15.9219 -1.42188 10.9531 3.29688
Q6 8.01562 6 15.9219
Q6 25.1406 12.1719 29.8281
Q18.3594 34.5156 30.6094 34.5156
L43.2188 34.5156
L43.2188 35.4062
Q43.2188 41.6094 39.1406 45
Q35.0625 48.3906 27.6875 48.3906
Q23 48.3906 18.5469 47.2656
Q14.1094 46.1406 10.0156 43.8906
L10.0156 52.2031
Q14.9375 54.1094 19.5781 55.0469
Q24.2188 56 28.6094 56
Q40.4844 56 46.3438 49.8438
Q52.2031 43.7031 52.2031 31.2031" id="BitstreamVeraSans-Roman-61"/>
     <path d="
M48.7812 52.5938
L48.7812 44.1875
Q44.9688 46.2969 41.1406 47.3438
Q37.3125 48.3906 33.4062 48.3906
Q24.6562 48.3906 19.8125 42.8438
Q14.9844 37.3125 14.9844 27.2969
Q14.9844 17.2812 19.8125 11.7344
Q24.6562 6.20312 33.4062 6.20312
Q37.3125 6.20312 41.1406 7.25
Q44.9688 8.29688 48.7812 10.4062
L48.7812 2.09375
Q45.0156 0.34375 40.9844 -0.53125
Q36.9688 -1.42188 32.4219 -1.42188
Q20.0625 -1.42188 12.7812 6.34375
Q5.51562 14.1094 5.51562 27.2969
Q5.51562 40.6719 12.8594 48.3281
Q20.2188 56 33.0156 56
Q37.1562 56 41.1094 55.1406
Q45.0625 54.2969 48.7812 52.5938" id="BitstreamVeraSans-Roman-63"/>
     <path d="
M48.6875 27.2969
Q48.6875 37.2031 44.6094 42.8438
Q40.5312 48.4844 33.4062 48.4844
Q26.2656 48.4844 22.1875 42.8438
Q18.1094 37.2031 18.1094 27.2969
Q18.1094 17.3906 22.1875 11.75
Q26.2656 6.10938 33.4062 6.10938
Q40.5312 6.10938 44.6094 11.75
Q48.6875 17.3906 48.6875 27.2969
M18.1094 46.3906
Q20.9531 51.2656 25.2656 53.625
Q29.5938 56 35.5938 56
Q45.5625 56 51.7812 48.0938
Q58.0156 40.1875 58.0156 27.2969
Q58.0156 14.4062 51.7812 6.48438
Q45.5625 -1.42188 35.5938 -1.42188
Q29.5938 -1.42188 25.2656 0.953125
Q20.9531 3.32812 18.1094 8.20312
L18.1094 0
L9.07812 0
L9.07812 75.9844
L18.1094 75.9844
z
" id="BitstreamVeraSans-Roman-62"/>
     <path d="
M12.4062 8.29688
L28.5156 8.29688
L28.5156 63.9219
L10.9844 60.4062
L10.9844 69.3906
L28.4219 72.9062
L38.2812 72.9062
L38.2812 8.29688
L54.3906 8.29688
L54.3906 0
L12.4062 0
z
" id="BitstreamVeraSans-Roman-31"/>
     <path d="
M37.7969 64.3125
L12.8906 25.3906
L37.7969 25.3906
z

M35.2031 72.9062
L47.6094 72.9062
L47.6094 25.3906
L58.0156 25.3906
L58.0156 17.1875
L47.6094 17.1875
L47.6094 0
L37.7969 0
L37.7969 17.1875
L4.89062 17.1875
L4.89062 26.7031
z
" id="BitstreamVeraSans-Roman-34"/>
     <path d="
M10.7969 72.9062
L49.5156 72.9062
L49.5156 64.5938
L19.8281 64.5938
L19.8281 46.7344
Q21.9688 47.4688 24.1094 47.8281
Q26.2656 48.1875 28.4219 48.1875
Q40.625 48.1875 47.75 41.5
Q54.8906 34.8125 54.8906 23.3906
Q54.8906 11.625 47.5625 5.09375
Q40.2344 -1.42188 26.9062 -1.42188
Q22.3125 -1.42188 17.5469 -0.640625
Q12.7969 0.140625 7.71875 1.70312
L7.71875 11.625
Q12.1094 9.23438 16.7969 8.0625
Q21.4844 6.89062 26.7031 6.89062
Q35.1562 6.89062 40.0781 11.3281
Q45.0156 15.7656 45.0156 23.3906
Q45.0156 31 40.0781 35.4375
Q35.1562 39.8906 26.7031 39.8906
Q22.75 39.8906 18.8125 39.0156
Q14.8906 38.1406 10.7969 36.2812
z
" id="BitstreamVeraSans-Roman-35"/>
     <path d="
M54.8906 33.0156
L54.8906 0
L45.9062 0
L45.9062 32.7188
Q45.9062 40.4844 42.875 44.3281
Q39.8438 48.1875 33.7969 48.1875
Q26.5156 48.1875 22.3125 43.5469
Q18.1094 38.9219 18.1094 30.9062
L18.1094 0
L9.07812 0
L9.07812 54.6875
L18.1094 54.6875
L18.1094 46.1875
Q21.3438 51.125 25.7031 53.5625
Q30.0781 56 35.7969 56
Q45.2188 56 50.0469 50.1719
Q54.8906 44.3438 54.8906 33.0156" id="BitstreamVeraSans-Roman-6e"/>
     <path d="
M52 44.1875
Q55.375 50.25 60.0625 53.125
Q64.75 56 71.0938 56
Q79.6406 56 84.2812 50.0156
Q88.9219 44.0469 88.9219 33.0156
L88.9219 0
L79.8906 0
L79.8906 32.7188
Q79.8906 40.5781 77.0938 44.375
Q74.3125 48.1875 68.6094 48.1875
Q61.625 48.1875 57.5625 43.5469
Q53.5156 38.9219 53.5156 30.9062
L53.5156 0
L44.4844 0
L44.4844 32.7188
Q44.4844 40.625 41.7031 44.4062
Q38.9219 48.1875 33.1094 48.1875
Q26.2188 48.1875 22.1562 43.5312
Q18.1094 38.875 18.1094 30.9062
L18.1094 0
L9.07812 0
L9.07812 54.6875
L18.1094 54.6875
L18.1094 46.1875
Q21.1875 51.2188 25.4844 53.6094
Q29.7812 56 35.6875 56
Q41.6562 56 45.8281 52.9688
Q50 49.9531 52 44.1875" id="BitstreamVeraSans-Roman-6d"/>
     <path d="
M30.6094 48.3906
Q23.3906 48.3906 19.1875 42.75
Q14.9844 37.1094 14.9844 27.2969
Q14.9844 17.4844 19.1562 11.8438
Q23.3438 6.20312 30.6094 6.20312
Q37.7969 6.20312 41.9844 11.8594
Q46.1875 17.5312 46.1875 27.2969
Q46.1875 37.0156 41.9844 42.7031
Q37.7969 48.3906 30.6094 48.3906
M30.6094 56
Q42.3281 56 49.0156 48.375
Q55.7188 40.7656 55.7188 27.2969
Q55.7188 13.875 49.0156 6.21875
Q42.3281 -1.42188 30.6094 -1.42188
Q18.8438 -1.42188 12.1719 6.21875
Q5.51562 13.875 5.51562 27.2969
Q5.51562 40.7656 12.1719 48.375
Q18.8438 56 30.6094 56" id="BitstreamVeraSans-Roman-6f"/>
     <path d="
M9.42188 75.9844
L18.4062 75.9844
L18.4062 0
L9.42188 0
z
" id="BitstreamVeraSans-Roman-6c"/>
     <path d="
M9.07812 75.9844
L18.1094 75.9844
L18.1094 31.1094
L44.9219 54.6875
L56.3906 54.6875
L27.3906 29.1094
L57.625 0
L45.9062 0
L18.1094 26.7031
L18.1094 0
L9.07812 0
z
" id="BitstreamVeraSans-Roman-6b"/>
     <path d="
M19.6719 64.7969
L19.6719 37.4062
L32.0781 37.4062
Q38.9688 37.4062 42.7188 40.9688
Q46.4844 44.5312 46.4844 51.125
Q46.4844 57.6719 42.7188 61.2344
Q38.9688 64.7969 32.0781 64.7969
z

M9.8125 72.9062
L32.0781 72.9062
Q44.3438 72.9062 50.6094 67.3594
Q56.8906 61.8125 56.8906 51.125
Q56.8906 40.3281 50.6094 34.8125
Q44.3438 29.2969 32.0781 29.2969
L19.6719 29.2969
L19.6719 0
L9.8125 0
z
" id="BitstreamVeraSans-Roman-50"/>
     <path d="
M44.3906 34.1875
Q47.5625 33.1094 50.5625 29.5938
Q53.5625 26.0781 56.5938 19.9219
L66.6094 0
L56 0
L46.6875 18.7031
Q43.0625 26.0312 39.6719 28.4219
Q36.2812 30.8125 30.4219 30.8125
L19.6719 30.8125
L19.6719 0
L9.8125 0
L9.8125 72.9062
L32.0781 72.9062
Q44.5781 72.9062 50.7344 67.6719
Q56.8906 62.4531 56.8906 51.9062
Q56.8906 45.0156 53.6875 40.4688
Q50.4844 35.9375 44.3906 34.1875
M19.6719 64.7969
L19.6719 38.9219
L32.0781 38.9219
Q39.2031 38.9219 42.8438 42.2188
Q46.4844 45.5156 46.4844 51.9062
Q46.4844 58.2969 42.8438 61.5469
Q39.2031 64.7969 32.0781 64.7969
z
" id="BitstreamVeraSans-Roman-52"/>
     <path d="
M-0.296875 72.9062
L61.375 72.9062
L61.375 64.5938
L35.5 64.5938
L35.5 0
L25.5938 0
L25.5938 64.5938
L-0.296875 64.5938
z
" id="BitstreamVeraSans-Roman-54"/>
     <path d="
M4.89062 31.3906
L31.2031 31.3906
L31.2031 23.3906
L4.89062 23.3906
z
" id="BitstreamVeraSans-Roman-2d"/>
     <path d="
M54.8906 54.6875
L35.1094 28.0781
L55.9062 0
L45.3125 0
L29.3906 21.4844
L13.4844 0
L2.875 0
L24.125 28.6094
L4.6875 54.6875
L15.2812 54.6875
L29.7812 35.2031
L44.2812 54.6875
z
" id="BitstreamVeraSans-Roman-78"/>
     <path d="
M3.32812 72.9062
L13.2812 72.9062
L28.6094 11.2812
L43.8906 72.9062
L54.9844 72.9062
L70.3125 11.2812
L85.5938 72.9062
L95.6094 72.9062
L77.2969 0
L64.8906 0
L49.5156 63.2812
L33.9844 0
L21.5781 0
z
" id="BitstreamVeraSans-Roman-57"/>
     <path d="
M4.20312 54.6875
L13.1875 54.6875
L24.4219 12.0156
L35.5938 54.6875
L46.1875 54.6875
L57.4219 12.0156
L68.6094 54.6875
L77.5938 54.6875
L63.2812 0
L52.6875 0
L40.9219 44.8281
L29.1094 0
L18.5 0
z
" id="BitstreamVeraSans-Roman-77"/>
     <path d="
M18.3125 70.2188
L18.3125 54.6875
L36.8125 54.6875
L36.8125 47.7031
L18.3125 47.7031
L18.3125 18.0156
Q18.3125 11.3281 20.1406 9.42188
Q21.9688 7.51562 27.5938 7.51562
L36.8125 7.51562
L36.8125 0
L27.5938 0
Q17.1875 0 13.2344 3.875
Q9.28125 7.76562 9.28125 18.0156
L9.28125 47.7031
L2.6875 47.7031
L2.6875 54.6875
L9.28125 54.6875
L9.28125 70.2188
z
" id="BitstreamVeraSans-Roman-74"/>
     <path d="
M8.5 21.5781
L8.5 54.6875
L17.4844 54.6875
L17.4844 21.9219
Q17.4844 14.1562 20.5 10.2656
Q23.5312 6.39062 29.5938 6.39062
Q36.8594 6.39062 41.0781 11.0312
Q45.3125 15.6719 45.3125 23.6875
L45.3125 54.6875
L54.2969 54.6875
L54.2969 0
L45.3125 0
L45.3125 8.40625
Q42.0469 3.42188 37.7188 1
Q33.4062 -1.42188 27.6875 -1.42188
Q18.2656 -1.42188 13.375 4.4375
Q8.5 10.2969 8.5 21.5781" id="BitstreamVeraSans-Roman-75"/>
     <path d="
M41.1094 46.2969
Q39.5938 47.1719 37.8125 47.5781
Q36.0312 48 33.8906 48
Q26.2656 48 22.1875 43.0469
Q18.1094 38.0938 18.1094 28.8125
L18.1094 0
L9.07812 0
L9.07812 54.6875
L18.1094 54.6875
L18.1094 46.1875
Q20.9531 51.1719 25.4844 53.5781
Q30.0312 56 36.5312 56
Q37.4531 56 38.5781 55.875
Q39.7031 55.7656 41.0625 55.5156
z
" id="BitstreamVeraSans-Roman-72"/>
    </defs>
    <g transform="translate(7.2 16.318125)scale(0.12 -0.12)">
     <use xlink:href="#BitstreamVeraSans-Roman-50"/>
     <use x="60.302734375" xlink:href="#BitstreamVeraSans-Roman-57"/>
     <use x="159.1796875" xlink:href="#BitstreamVeraSans-Roman-31"/>
     <use x="222.802734375" xlink:href="#BitstreamVeraSans-Roman-35"/>
     <use x="286.42578125" xlink:href="#BitstreamVeraSans-Roman-2d"/>
     <use x="322.509765625" xlink:href="#BitstreamVeraSans-Roman-34"/>
     <use x="386.1328125" xlink:href="#BitstreamVeraSans-Roman-64"/>
     <use x="449.609375" xlink:href="#BitstreamVeraSans-Roman-20"/>
     <use x="481.396484375" xlink:href="#BitstreamVeraSans-Roman-7a"/>
     <use x="533.88671875" xlink:href="#BitstreamVeraSans-Roman-41"/>
     <use x="602.294921875" xlink:href="#BitstreamVeraSans-Roman-52"/>
     <use x="671.77734375" xlink:href="#BitstreamVeraSans-Roman-4d"/>
     <use x="758.056640625" xlink:href="#BitstreamVeraSans-Roman-20"/>
     <use x="789.84375" xlink:href="#BitstreamVeraSans-Roman-6f"/>
     <use x="851.025390625" xlink:href="#BitstreamVeraSans-Roman-72"/>
     <use x="892.138671875" xlink:href="#BitstreamVeraSans-Roman-69"/>
     <use x="919.921875" xlink:href="#BitstreamVeraSans-Roman-65"/>
     <use x="981.4453125" xlink:href="#BitstreamVeraSans-Roman-6e"/>
     <use x="1044.82421875" xlink:href="#BitstreamVeraSans-Roman-74"/>
     <use x="1084.03320312" xlink:href="#BitstreamVeraSans-Roman-65"/>
     <use x="1145.55664062" xlink:href="#BitstreamVeraSans-Roman-64"/>
     <use x="1209.03320312" xlink:href="#BitstreamVeraSans-Roman-20"/>
     <use x="1240.8203125" xlink:href="#BitstreamVeraSans-Roman-28"/>
     <use x="1279.83398438" xlink:href="#BitstreamVeraSans-Roman-72"/>
     <use x="1318.69726562" xlink:href="#BitstreamVeraSans-Roman-65"/>
     <use x="1380.22070312" xlink:href="#BitstreamVeraSans-Roman-64"/>
     <use x="1443.69726562" xlink:href="#BitstreamVeraSans-Roman-29"/>
     <use x="1482.7109375" xlink:href="#BitstreamVeraSans-Roman-20"/>
     <use x="1514.49804688" xlink:href="#BitstreamVeraSans-Roman-7a"/>
     <use x="1566.98828125" xlink:href="#BitstreamVeraSans-Roman-26"/>
     <use x="1644.96679688" xlink:href="#BitstreamVeraSans-Roman-78"/>
     <use x="1704.14648438" xlink:href="#BitstreamVeraSans-Roman-41"/>
     <use x="1772.5546875" xlink:href="#BitstreamVeraSans-Roman-52"/>
     <use x="1842.03710938" xlink:href="#BitstreamVeraSans-Roman-4d"/>
     <use x="1928.31640625" xlink:href="#BitstreamVeraSans-Roman-20"/>
     <use x="1960.10351562" xlink:href="#BitstreamVeraSans-Roman-6f"/>
     <use x="2021.28515625" xlink:href="#BitstreamVeraSans-Roman-72"/>
     <use x="2062.3984375" xlink:href="#BitstreamVeraSans-Roman-69"/>
     <use x="2090.18164062" xlink:href="#BitstreamVeraSans-Roman-65"/>
     <use x="2151.70507812" xlink:href="#BitstreamVeraSans-Roman-6e"/>
     <use x="2215.08398438" xlink:href="#BitstreamVeraSans-Roman-74"/>
     <use x="2254.29296875" xlink:href="#BitstreamVeraSans-Roman-65"/>
     <use x="2315.81640625" xlink:href="#BitstreamVeraSans-Roman-64"/>
     <use x="2379.29296875" xlink:href="#BitstreamVeraSans-Roman-20"/>
     <use x="2411.08007812" xlink:href="#BitstreamVeraSans-Roman-28"/>
     <use x="2450.09375" xlink:href="#BitstreamVeraSans-Roman-62"/>
     <use x="2513.5703125" xlink:href="#BitstreamVeraSans-Roman-6c"/>
     <use x="2541.35351562" xlink:href="#BitstreamVeraSans-Roman-61"/>
     <use x="2602.6328125" xlink:href="#BitstreamVeraSans-Roman-63"/>
     <use x="2657.61328125" xlink:href="#BitstreamVeraSans-Roman-6b"/>
     <use x="2715.5234375" xlink:href="#BitstreamVeraSans-Roman-29"/>
     <use x="2754.53710938" xlink:href="#BitstreamVeraSans-Roman-20"/>
     <use x="2786.32421875" xlink:href="#BitstreamVeraSans-Roman-61"/>
     <use x="2847.60351562" xlink:href="#BitstreamVeraSans-Roman-6e"/>
     <use x="2910.98242188" xlink:href="#BitstreamVeraSans-Roman-64"/>
     <use x="2974.45898438" xlink:href="#BitstreamVeraSans-Roman-20"/>
     <use x="3006.24609375" xlink:href="#BitstreamVeraSans-Roman-66"/>
     <use x="3041.45117188" xlink:href="#BitstreamVeraSans-Roman-6f"/>
     <use x="3102.6328125" xlink:href="#BitstreamVeraSans-Roman-6c"/>
     <use x="3130.41601562" xlink:href="#BitstreamVeraSans-Roman-6c"/>
     <use x="3158.19921875" xlink:href="#BitstreamVeraSans-Roman-6f"/>
     <use x="3219.38085938" xlink:href="#BitstreamVeraSans-Roman-77"/>
     <use x="3301.16796875" xlink:href="#BitstreamVeraSans-Roman-69"/>
     <use x="3328.95117188" xlink:href="#BitstreamVeraSans-Roman-6e"/>
     <use x="3392.33007812" xlink:href="#BitstreamVeraSans-Roman-67"/>
     <use x="3455.80664062" xlink:href="#BitstreamVeraSans-Roman-20"/>
     <use x="3487.59375" xlink:href="#BitstreamVeraSans-Roman-6c"/>
     <use x="3515.37695312" xlink:href="#BitstreamVeraSans-Roman-6f"/>
     <use x="3576.55859375" xlink:href="#BitstreamVeraSans-Roman-77"/>
     <use x="3658.34570312" xlink:href="#BitstreamVeraSans-Roman-54"/>
     <use x="3710.3046875" xlink:href="#BitstreamVeraSans-Roman-2d"/>
     <use x="3746.38867188" xlink:href="#BitstreamVeraSans-Roman-64"/>
     <use x="3809.86523438" xlink:href="#BitstreamVeraSans-Roman-65"/>
     <use x="3871.38867188" xlink:href="#BitstreamVeraSans-Roman-6d"/>
     <use x="3968.80078125" xlink:href="#BitstreamVeraSans-Roman-61"/>
     <use x="4030.08007812" xlink:href="#BitstreamVeraSans-Roman-67"/>
     <use x="4093.55664062" xlink:href="#BitstreamVeraSans-Roman-20"/>
     <use x="4125.34375" xlink:href="#BitstreamVeraSans-Roman-28"/>
     <use x="4164.35742188" xlink:href="#BitstreamVeraSans-Roman-62"/>
     <use x="4227.83398438" xlink:href="#BitstreamVeraSans-Roman-6c"/>
     <use x="4255.6171875" xlink:href="#BitstreamVeraSans-Roman-75"/>
     <use x="4318.99609375" xlink:href="#BitstreamVeraSans-Roman-65"/>
     <use x="4380.51953125" xlink:href="#BitstreamVeraSans-Roman-29"/>
    </g>
   </g>
  </g>
 </g>
 <defs>
  <clipPath id="pbc2e2e3be9">
   <rect height="392.9" width="383.83671875" x="79.939765625" y="21.318125"/>
  </clipPath>
 </defs>
</svg>
