<?xml version="1.0" encoding="utf-8" standalone="no"?>
<!DOCTYPE svg PUBLIC "-//W3C//DTD SVG 1.1//EN"
  "http://www.w3.org/Graphics/SVG/1.1/DTD/svg11.dtd">
<!-- Created with matplotlib (http://matplotlib.org/) -->
<svg height="286pt" version="1.1" viewBox="0 0 394 286" width="394pt" xmlns="http://www.w3.org/2000/svg" xmlns:xlink="http://www.w3.org/1999/xlink">
 <defs>
  <style type="text/css">
*{stroke-linecap:butt;stroke-linejoin:round;}
  </style>
 </defs>
 <g id="figure_1">
  <g id="patch_1">
   <path d="
M0 286.918
L394.56 286.918
L394.56 0
L0 0
z
" style="fill:none;"/>
  </g>
  <g id="axes_1">
   <g id="patch_2">
    <path d="
M52.56 244.518
L387.36 244.518
L387.36 21.3181
L52.56 21.3181
z
" style="fill:#ffffff;"/>
   </g>
   <g id="PathCollection_1">
    <defs>
     <path d="
M0 2.23607
C0.593012 2.23607 1.16182 2.00046 1.58114 1.58114
C2.00046 1.16182 2.23607 0.593012 2.23607 0
C2.23607 -0.593012 2.00046 -1.16182 1.58114 -1.58114
C1.16182 -2.00046 0.593012 -2.23607 0 -2.23607
C-0.593012 -2.23607 -1.16182 -2.00046 -1.58114 -1.58114
C-2.00046 -1.16182 -2.23607 -0.593012 -2.23607 0
C-2.23607 0.593012 -2.00046 1.16182 -1.58114 1.58114
C-1.16182 2.00046 -0.593012 2.23607 0 2.23607
z
" id="mcd54f2a490" style="stroke:#000000;"/>
    </defs>
    <g clip-path="url(#pe37f9763ce)">
     <use style="fill:#ff0000;stroke:#000000;" x="223.343896393" xlink:href="#mcd54f2a490" y="232.193317161"/>
     <use style="fill:#ff0000;stroke:#000000;" x="223.891611866" xlink:href="#mcd54f2a490" y="232.024240286"/>
     <use style="fill:#ff0000;stroke:#000000;" x="223.934869662" xlink:href="#mcd54f2a490" y="232.108883266"/>
     <use style="fill:#ff0000;stroke:#000000;" x="223.968660434" xlink:href="#mcd54f2a490" y="232.043727086"/>
     <use style="fill:#ff0000;stroke:#000000;" x="223.478482377" xlink:href="#mcd54f2a490" y="232.029472598"/>
     <use style="fill:#ff0000;stroke:#000000;" x="223.470379846" xlink:href="#mcd54f2a490" y="231.992833242"/>
     <use style="fill:#ff0000;stroke:#000000;" x="223.9729345" xlink:href="#mcd54f2a490" y="232.101612346"/>
     <use style="fill:#ff0000;stroke:#000000;" x="225.00258807" xlink:href="#mcd54f2a490" y="232.254948965"/>
     <use style="fill:#ff0000;stroke:#000000;" x="224.034961896" xlink:href="#mcd54f2a490" y="232.135542745"/>
     <use style="fill:#ff0000;stroke:#000000;" x="224.552252169" xlink:href="#mcd54f2a490" y="232.221925701"/>
     <use style="fill:#ff0000;stroke:#000000;" x="224.521989262" xlink:href="#mcd54f2a490" y="232.258596534"/>
     <use style="fill:#ff0000;stroke:#000000;" x="224.510912732" xlink:href="#mcd54f2a490" y="232.30959169"/>
     <use style="fill:#ff0000;stroke:#000000;" x="224.505509126" xlink:href="#mcd54f2a490" y="232.253647427"/>
     <use style="fill:#ff0000;stroke:#000000;" x="224.989254792" xlink:href="#mcd54f2a490" y="232.324120847"/>
     <use style="fill:#ff0000;stroke:#000000;" x="224.469383738" xlink:href="#mcd54f2a490" y="232.431915448"/>
     <use style="fill:#ff0000;stroke:#000000;" x="224.521073811" xlink:href="#mcd54f2a490" y="232.357409141"/>
     <use style="fill:#ff0000;stroke:#000000;" x="225.158296631" xlink:href="#mcd54f2a490" y="232.133705904"/>
     <use style="fill:#ff0000;stroke:#000000;" x="224.777956533" xlink:href="#mcd54f2a490" y="231.965049456"/>
     <use style="fill:#ff0000;stroke:#000000;" x="224.820744981" xlink:href="#mcd54f2a490" y="231.852795378"/>
     <use style="fill:#ff0000;stroke:#000000;" x="224.801352421" xlink:href="#mcd54f2a490" y="231.821699922"/>
     <use style="fill:#ff0000;stroke:#000000;" x="224.785649178" xlink:href="#mcd54f2a490" y="231.790816374"/>
     <use style="fill:#ff0000;stroke:#000000;" x="224.288616125" xlink:href="#mcd54f2a490" y="231.578396309"/>
     <use style="fill:#ff0000;stroke:#000000;" x="204.061418967" xlink:href="#mcd54f2a490" y="221.522564279"/>
     <use style="fill:#ff0000;stroke:#000000;" x="187.978054352" xlink:href="#mcd54f2a490" y="219.241009224"/>
     <use style="fill:#ff0000;stroke:#000000;" x="188.94960227" xlink:href="#mcd54f2a490" y="219.353255968"/>
     <use style="fill:#ff0000;stroke:#000000;" x="190.735250752" xlink:href="#mcd54f2a490" y="219.285468458"/>
     <use style="fill:#ff0000;stroke:#000000;" x="191.913215876" xlink:href="#mcd54f2a490" y="219.333976921"/>
     <use style="fill:#ff0000;stroke:#000000;" x="193.098663179" xlink:href="#mcd54f2a490" y="219.855606768"/>
     <use style="fill:#ff0000;stroke:#000000;" x="193.847794077" xlink:href="#mcd54f2a490" y="219.657529271"/>
     <use style="fill:#ff0000;stroke:#000000;" x="194.866254739" xlink:href="#mcd54f2a490" y="220.544924695"/>
     <use style="fill:#ff0000;stroke:#000000;" x="195.245318663" xlink:href="#mcd54f2a490" y="220.696661266"/>
     <use style="fill:#ff0000;stroke:#000000;" x="195.703986025" xlink:href="#mcd54f2a490" y="220.571021472"/>
     <use style="fill:#ff0000;stroke:#000000;" x="196.204226272" xlink:href="#mcd54f2a490" y="220.650561569"/>
     <use style="fill:#ff0000;stroke:#000000;" x="196.352026841" xlink:href="#mcd54f2a490" y="220.560652791"/>
     <use style="fill:#ff0000;stroke:#000000;" x="196.865598439" xlink:href="#mcd54f2a490" y="220.595805211"/>
     <use style="fill:#ff0000;stroke:#000000;" x="197.447162522" xlink:href="#mcd54f2a490" y="220.620669261"/>
     <use style="fill:#ff0000;stroke:#000000;" x="197.838788929" xlink:href="#mcd54f2a490" y="220.803953415"/>
     <use style="fill:#ff0000;stroke:#000000;" x="198.026444909" xlink:href="#mcd54f2a490" y="220.784415704"/>
     <use style="fill:#ff0000;stroke:#000000;" x="198.457933397" xlink:href="#mcd54f2a490" y="220.701516176"/>
     <use style="fill:#ff0000;stroke:#000000;" x="198.782373369" xlink:href="#mcd54f2a490" y="220.752722964"/>
     <use style="fill:#ff0000;stroke:#000000;" x="198.904136013" xlink:href="#mcd54f2a490" y="220.981609493"/>
     <use style="fill:#ff0000;stroke:#000000;" x="199.078809755" xlink:href="#mcd54f2a490" y="220.914217605"/>
     <use style="fill:#ff0000;stroke:#000000;" x="199.335854594" xlink:href="#mcd54f2a490" y="220.921632063"/>
     <use style="fill:#ff0000;stroke:#000000;" x="199.65833279" xlink:href="#mcd54f2a490" y="220.903584711"/>
     <use style="fill:#ff0000;stroke:#000000;" x="199.829162472" xlink:href="#mcd54f2a490" y="220.805675865"/>
     <use style="fill:#ff0000;stroke:#000000;" x="200.065947236" xlink:href="#mcd54f2a490" y="220.96958947"/>
     <use style="fill:#ff0000;stroke:#000000;" x="200.240308342" xlink:href="#mcd54f2a490" y="221.153550238"/>
     <use style="fill:#ff0000;stroke:#000000;" x="200.395014303" xlink:href="#mcd54f2a490" y="221.110332834"/>
     <use style="fill:#ff0000;stroke:#000000;" x="200.641109019" xlink:href="#mcd54f2a490" y="220.890562147"/>
     <use style="fill:#ff0000;stroke:#000000;" x="200.668091245" xlink:href="#mcd54f2a490" y="221.073690675"/>
     <use style="fill:#ff0000;stroke:#000000;" x="200.643369969" xlink:href="#mcd54f2a490" y="221.072990802"/>
     <use style="fill:#ff0000;stroke:#000000;" x="200.240802323" xlink:href="#mcd54f2a490" y="221.035409046"/>
     <use style="fill:#ff0000;stroke:#000000;" x="200.926296879" xlink:href="#mcd54f2a490" y="220.750458296"/>
     <use style="fill:#ff0000;stroke:#000000;" x="200.849643811" xlink:href="#mcd54f2a490" y="221.576078763"/>
     <use style="fill:#ff0000;stroke:#000000;" x="200.513937599" xlink:href="#mcd54f2a490" y="221.574155978"/>
     <use style="fill:#ff0000;stroke:#000000;" x="200.373870095" xlink:href="#mcd54f2a490" y="222.030738805"/>
     <use style="fill:#ff0000;stroke:#000000;" x="200.29519946" xlink:href="#mcd54f2a490" y="221.819757659"/>
     <use style="fill:#ff0000;stroke:#000000;" x="200.130959855" xlink:href="#mcd54f2a490" y="221.843907944"/>
     <use style="fill:#ff0000;stroke:#000000;" x="200.042203159" xlink:href="#mcd54f2a490" y="221.951005212"/>
     <use style="fill:#ff0000;stroke:#000000;" x="199.934922405" xlink:href="#mcd54f2a490" y="222.048653416"/>
     <use style="fill:#ff0000;stroke:#000000;" x="200.614972889" xlink:href="#mcd54f2a490" y="222.094651046"/>
     <use style="fill:#ff0000;stroke:#000000;" x="199.515072383" xlink:href="#mcd54f2a490" y="222.132273789"/>
     <use style="fill:#ff0000;stroke:#000000;" x="199.046222286" xlink:href="#mcd54f2a490" y="222.257056633"/>
     <use style="fill:#ff0000;stroke:#000000;" x="199.632672909" xlink:href="#mcd54f2a490" y="222.193065121"/>
    </g>
   </g>
   <g id="PathCollection_2">
    <defs>
     <path d="
M-2.23607 2.23607
L2.23607 2.23607
L2.23607 -2.23607
L-2.23607 -2.23607
z
" id="m7e89da710e" style="stroke:#000000;"/>
    </defs>
    <g clip-path="url(#pe37f9763ce)">
     <use style="fill:#ffffff;stroke:#000000;" x="223.343896393" xlink:href="#m7e89da710e" y="122.914133403"/>
     <use style="fill:#ffffff;stroke:#000000;" x="223.891611866" xlink:href="#m7e89da710e" y="120.912148928"/>
     <use style="fill:#ffffff;stroke:#000000;" x="223.934869662" xlink:href="#m7e89da710e" y="121.653098925"/>
     <use style="fill:#ffffff;stroke:#000000;" x="223.968660434" xlink:href="#m7e89da710e" y="120.519997162"/>
     <use style="fill:#ffffff;stroke:#000000;" x="223.478482377" xlink:href="#m7e89da710e" y="120.93666023"/>
     <use style="fill:#ffffff;stroke:#000000;" x="223.470379846" xlink:href="#m7e89da710e" y="120.960320876"/>
     <use style="fill:#ffffff;stroke:#000000;" x="223.9729345" xlink:href="#m7e89da710e" y="121.228868823"/>
     <use style="fill:#ffffff;stroke:#000000;" x="225.00258807" xlink:href="#m7e89da710e" y="121.842648164"/>
     <use style="fill:#ffffff;stroke:#000000;" x="224.034961896" xlink:href="#m7e89da710e" y="120.45625562"/>
     <use style="fill:#ffffff;stroke:#000000;" x="224.552252169" xlink:href="#m7e89da710e" y="121.367252014"/>
     <use style="fill:#ffffff;stroke:#000000;" x="224.521989262" xlink:href="#m7e89da710e" y="121.910899067"/>
     <use style="fill:#ffffff;stroke:#000000;" x="224.510912732" xlink:href="#m7e89da710e" y="122.87305918"/>
     <use style="fill:#ffffff;stroke:#000000;" x="224.505509126" xlink:href="#m7e89da710e" y="123.050120442"/>
     <use style="fill:#ffffff;stroke:#000000;" x="224.989254792" xlink:href="#m7e89da710e" y="123.328040197"/>
     <use style="fill:#ffffff;stroke:#000000;" x="224.469383738" xlink:href="#m7e89da710e" y="123.920197356"/>
     <use style="fill:#ffffff;stroke:#000000;" x="224.521073811" xlink:href="#m7e89da710e" y="123.30311845"/>
     <use style="fill:#ffffff;stroke:#000000;" x="225.158296631" xlink:href="#m7e89da710e" y="122.3791751"/>
     <use style="fill:#ffffff;stroke:#000000;" x="224.777956533" xlink:href="#m7e89da710e" y="120.980088081"/>
     <use style="fill:#ffffff;stroke:#000000;" x="224.820744981" xlink:href="#m7e89da710e" y="120.455204562"/>
     <use style="fill:#ffffff;stroke:#000000;" x="224.801352421" xlink:href="#m7e89da710e" y="121.604290713"/>
     <use style="fill:#ffffff;stroke:#000000;" x="224.785649178" xlink:href="#m7e89da710e" y="122.240472048"/>
     <use style="fill:#ffffff;stroke:#000000;" x="224.288616125" xlink:href="#m7e89da710e" y="122.6493986"/>
     <use style="fill:#ffffff;stroke:#000000;" x="204.061418967" xlink:href="#m7e89da710e" y="177.400462195"/>
     <use style="fill:#ffffff;stroke:#000000;" x="187.978054352" xlink:href="#m7e89da710e" y="189.643043565"/>
     <use style="fill:#ffffff;stroke:#000000;" x="188.94960227" xlink:href="#m7e89da710e" y="186.842079731"/>
     <use style="fill:#ffffff;stroke:#000000;" x="190.735250752" xlink:href="#m7e89da710e" y="183.150775808"/>
     <use style="fill:#ffffff;stroke:#000000;" x="191.913215876" xlink:href="#m7e89da710e" y="178.035895661"/>
     <use style="fill:#ffffff;stroke:#000000;" x="193.098663179" xlink:href="#m7e89da710e" y="173.056868903"/>
     <use style="fill:#ffffff;stroke:#000000;" x="193.847794077" xlink:href="#m7e89da710e" y="170.342559066"/>
     <use style="fill:#ffffff;stroke:#000000;" x="194.866254739" xlink:href="#m7e89da710e" y="166.917787945"/>
     <use style="fill:#ffffff;stroke:#000000;" x="195.245318663" xlink:href="#m7e89da710e" y="164.914133783"/>
     <use style="fill:#ffffff;stroke:#000000;" x="195.703986025" xlink:href="#m7e89da710e" y="163.19441478"/>
     <use style="fill:#ffffff;stroke:#000000;" x="196.204226272" xlink:href="#m7e89da710e" y="161.173216368"/>
     <use style="fill:#ffffff;stroke:#000000;" x="196.352026841" xlink:href="#m7e89da710e" y="160.318088751"/>
     <use style="fill:#ffffff;stroke:#000000;" x="196.865598439" xlink:href="#m7e89da710e" y="158.647324636"/>
     <use style="fill:#ffffff;stroke:#000000;" x="197.447162522" xlink:href="#m7e89da710e" y="156.945926392"/>
     <use style="fill:#ffffff;stroke:#000000;" x="197.838788929" xlink:href="#m7e89da710e" y="155.363688071"/>
     <use style="fill:#ffffff;stroke:#000000;" x="198.026444909" xlink:href="#m7e89da710e" y="153.965273884"/>
     <use style="fill:#ffffff;stroke:#000000;" x="198.457933397" xlink:href="#m7e89da710e" y="152.560046484"/>
     <use style="fill:#ffffff;stroke:#000000;" x="198.782373369" xlink:href="#m7e89da710e" y="151.490944268"/>
     <use style="fill:#ffffff;stroke:#000000;" x="198.904136013" xlink:href="#m7e89da710e" y="150.580816429"/>
     <use style="fill:#ffffff;stroke:#000000;" x="199.078809755" xlink:href="#m7e89da710e" y="149.290508661"/>
     <use style="fill:#ffffff;stroke:#000000;" x="199.335854594" xlink:href="#m7e89da710e" y="147.162626031"/>
     <use style="fill:#ffffff;stroke:#000000;" x="199.65833279" xlink:href="#m7e89da710e" y="145.51444111"/>
     <use style="fill:#ffffff;stroke:#000000;" x="199.829162472" xlink:href="#m7e89da710e" y="144.574248803"/>
     <use style="fill:#ffffff;stroke:#000000;" x="200.065947236" xlink:href="#m7e89da710e" y="143.924430994"/>
     <use style="fill:#ffffff;stroke:#000000;" x="200.240308342" xlink:href="#m7e89da710e" y="142.128807593"/>
     <use style="fill:#ffffff;stroke:#000000;" x="200.395014303" xlink:href="#m7e89da710e" y="140.589710727"/>
     <use style="fill:#ffffff;stroke:#000000;" x="200.641109019" xlink:href="#m7e89da710e" y="137.946982093"/>
     <use style="fill:#ffffff;stroke:#000000;" x="200.668091245" xlink:href="#m7e89da710e" y="136.836026749"/>
     <use style="fill:#ffffff;stroke:#000000;" x="200.643369969" xlink:href="#m7e89da710e" y="136.987349708"/>
     <use style="fill:#ffffff;stroke:#000000;" x="200.240802323" xlink:href="#m7e89da710e" y="136.487807758"/>
     <use style="fill:#ffffff;stroke:#000000;" x="200.926296879" xlink:href="#m7e89da710e" y="137.027599443"/>
     <use style="fill:#ffffff;stroke:#000000;" x="200.849643811" xlink:href="#m7e89da710e" y="137.085632683"/>
     <use style="fill:#ffffff;stroke:#000000;" x="200.513937599" xlink:href="#m7e89da710e" y="137.133670441"/>
     <use style="fill:#ffffff;stroke:#000000;" x="200.373870095" xlink:href="#m7e89da710e" y="137.013329051"/>
     <use style="fill:#ffffff;stroke:#000000;" x="200.29519946" xlink:href="#m7e89da710e" y="137.120367935"/>
     <use style="fill:#ffffff;stroke:#000000;" x="200.130959855" xlink:href="#m7e89da710e" y="137.240919062"/>
     <use style="fill:#ffffff;stroke:#000000;" x="200.042203159" xlink:href="#m7e89da710e" y="137.322239742"/>
     <use style="fill:#ffffff;stroke:#000000;" x="199.934922405" xlink:href="#m7e89da710e" y="137.41624831"/>
     <use style="fill:#ffffff;stroke:#000000;" x="200.614972889" xlink:href="#m7e89da710e" y="137.235678147"/>
     <use style="fill:#ffffff;stroke:#000000;" x="199.515072383" xlink:href="#m7e89da710e" y="137.785945782"/>
     <use style="fill:#ffffff;stroke:#000000;" x="199.046222286" xlink:href="#m7e89da710e" y="138.082321162"/>
     <use style="fill:#ffffff;stroke:#000000;" x="199.632672909" xlink:href="#m7e89da710e" y="138.558520548"/>
    </g>
   </g>
   <g id="line2d_1">
    <path clip-path="url(#pe37f9763ce)" d="
M223.344 232.193
L223.892 232.024
L223.935 232.109
L223.969 232.044
L223.478 232.029
L223.47 231.993
L223.973 232.102
L225.003 232.255
L224.035 232.136
L224.552 232.222
L224.522 232.259
L224.511 232.31
L224.506 232.254
L224.989 232.324
L224.469 232.432
L224.521 232.357
L225.158 232.134
L224.778 231.965
L224.821 231.853
L224.801 231.822
L224.786 231.791
L224.289 231.578
L204.061 221.523
L187.978 219.241
L188.95 219.353
L190.735 219.285
L191.913 219.334
L193.099 219.856
L193.848 219.658
L194.866 220.545
L195.245 220.697
L195.704 220.571
L196.204 220.651
L196.352 220.561
L196.866 220.596
L197.447 220.621
L197.839 220.804
L198.026 220.784
L198.458 220.702
L198.782 220.753
L198.904 220.982
L199.079 220.914
L199.336 220.922
L199.658 220.904
L199.829 220.806
L200.066 220.97
L200.24 221.154
L200.395 221.11
L200.641 220.891
L200.668 221.074
L200.643 221.073
L200.241 221.035
L200.926 220.75
L200.85 221.576
L200.514 221.574
L200.374 222.031
L200.295 221.82
L200.131 221.844
L200.042 221.951
L199.935 222.049
L200.615 222.095
L199.515 222.132
L199.046 222.257
L199.633 222.193" style="fill:none;stroke:#ff0000;stroke-linecap:square;"/>
   </g>
   <g id="line2d_2">
    <path clip-path="url(#pe37f9763ce)" d="
M223.344 122.914
L223.892 120.912
L223.935 121.653
L223.969 120.52
L223.478 120.937
L223.47 120.96
L223.973 121.229
L225.003 121.843
L224.035 120.456
L224.552 121.367
L224.522 121.911
L224.511 122.873
L224.506 123.05
L224.989 123.328
L224.469 123.92
L224.521 123.303
L225.158 122.379
L224.778 120.98
L224.821 120.455
L224.801 121.604
L224.786 122.24
L224.289 122.649
L204.061 177.4
L187.978 189.643
L188.95 186.842
L190.735 183.151
L191.913 178.036
L193.099 173.057
L193.848 170.343
L194.866 166.918
L195.245 164.914
L195.704 163.194
L196.204 161.173
L196.352 160.318
L196.866 158.647
L197.447 156.946
L197.839 155.364
L198.026 153.965
L198.458 152.56
L198.782 151.491
L198.904 150.581
L199.079 149.291
L199.336 147.163
L199.658 145.514
L199.829 144.574
L200.066 143.924
L200.24 142.129
L200.395 140.59
L200.641 137.947
L200.668 136.836
L200.643 136.987
L200.241 136.488
L200.926 137.028
L200.85 137.086
L200.514 137.134
L200.374 137.013
L200.295 137.12
L200.131 137.241
L200.042 137.322
L199.935 137.416
L200.615 137.236
L199.515 137.786
L199.046 138.082
L199.633 138.559" style="fill:none;stroke:#0000ff;stroke-linecap:square;"/>
   </g>
   <g id="line2d_3">
    <path clip-path="url(#pe37f9763ce)" d="
M65.4607 224.227
L225.158 224.227" style="fill:none;stroke:#0000ff;stroke-linecap:square;"/>
   </g>
   <g id="line2d_4">
    <path clip-path="url(#pe37f9763ce)" d="
M169.233 120.455
L169.233 280.153" style="fill:none;stroke:#008000;stroke-linecap:square;"/>
   </g>
   <g id="patch_3">
    <path d="
M52.56 21.3181
L387.36 21.3181" style="fill:none;stroke:#000000;stroke-linecap:square;stroke-linejoin:miter;"/>
   </g>
   <g id="patch_4">
    <path d="
M387.36 244.518
L387.36 21.3181" style="fill:none;stroke:#000000;stroke-linecap:square;stroke-linejoin:miter;"/>
   </g>
   <g id="patch_5">
    <path d="
M52.56 244.518
L387.36 244.518" style="fill:none;stroke:#000000;stroke-linecap:square;stroke-linejoin:miter;"/>
   </g>
   <g id="patch_6">
    <path d="
M52.56 244.518
L52.56 21.3181" style="fill:none;stroke:#000000;stroke-linecap:square;stroke-linejoin:miter;"/>
   </g>
   <g id="matplotlib.axis_1">
    <g id="xtick_1">
     <g id="line2d_5">
      <defs>
       <path d="
M0 0
L0 -4" id="m93b0483c22" style="stroke:#000000;stroke-width:0.5;"/>
      </defs>
      <g>
       <use style="stroke:#000000;stroke-width:0.5;" x="67.7781818182" xlink:href="#m93b0483c22" y="244.518125"/>
      </g>
     </g>
     <g id="line2d_6">
      <defs>
       <path d="
M0 0
L0 4" id="m741efc42ff" style="stroke:#000000;stroke-width:0.5;"/>
      </defs>
      <g>
       <use style="stroke:#000000;stroke-width:0.5;" x="67.7781818182" xlink:href="#m741efc42ff" y="21.318125"/>
      </g>
     </g>
     <g id="text_1">
      <!-- −2 -->
      <defs>
       <path d="
M10.5938 35.5
L73.1875 35.5
L73.1875 27.2031
L10.5938 27.2031
z
" id="BitstreamVeraSans-Roman-2212"/>
       <path d="
M19.1875 8.29688
L53.6094 8.29688
L53.6094 0
L7.32812 0
L7.32812 8.29688
Q12.9375 14.1094 22.625 23.8906
Q32.3281 33.6875 34.8125 36.5312
Q39.5469 41.8438 41.4219 45.5312
Q43.3125 49.2188 43.3125 52.7812
Q43.3125 58.5938 39.2344 62.25
Q35.1562 65.9219 28.6094 65.9219
Q23.9688 65.9219 18.8125 64.3125
Q13.6719 62.7031 7.8125 59.4219
L7.8125 69.3906
Q13.7656 71.7812 18.9375 73
Q24.125 74.2188 28.4219 74.2188
Q39.75 74.2188 46.4844 68.5469
Q53.2188 62.8906 53.2188 53.4219
Q53.2188 48.9219 51.5312 44.8906
Q49.8594 40.875 45.4062 35.4062
Q44.1875 33.9844 37.6406 27.2188
Q31.1094 20.4531 19.1875 8.29688" id="BitstreamVeraSans-Roman-32"/>
      </defs>
      <g transform="translate(61.4375568182 256.1165625)scale(0.1 -0.1)">
       <use xlink:href="#BitstreamVeraSans-Roman-2212"/>
       <use x="83.7890625" xlink:href="#BitstreamVeraSans-Roman-32"/>
      </g>
     </g>
    </g>
    <g id="xtick_2">
     <g id="line2d_7">
      <g>
       <use style="stroke:#000000;stroke-width:0.5;" x="118.505454545" xlink:href="#m93b0483c22" y="244.518125"/>
      </g>
     </g>
     <g id="line2d_8">
      <g>
       <use style="stroke:#000000;stroke-width:0.5;" x="118.505454545" xlink:href="#m741efc42ff" y="21.318125"/>
      </g>
     </g>
     <g id="text_2">
      <!-- −1 -->
      <defs>
       <path d="
M12.4062 8.29688
L28.5156 8.29688
L28.5156 63.9219
L10.9844 60.4062
L10.9844 69.3906
L28.4219 72.9062
L38.2812 72.9062
L38.2812 8.29688
L54.3906 8.29688
L54.3906 0
L12.4062 0
z
" id="BitstreamVeraSans-Roman-31"/>
      </defs>
      <g transform="translate(112.125767045 256.1165625)scale(0.1 -0.1)">
       <use xlink:href="#BitstreamVeraSans-Roman-2212"/>
       <use x="83.7890625" xlink:href="#BitstreamVeraSans-Roman-31"/>
      </g>
     </g>
    </g>
    <g id="xtick_3">
     <g id="line2d_9">
      <g>
       <use style="stroke:#000000;stroke-width:0.5;" x="169.232727273" xlink:href="#m93b0483c22" y="244.518125"/>
      </g>
     </g>
     <g id="line2d_10">
      <g>
       <use style="stroke:#000000;stroke-width:0.5;" x="169.232727273" xlink:href="#m741efc42ff" y="21.318125"/>
      </g>
     </g>
     <g id="text_3">
      <!-- 0 -->
      <defs>
       <path d="
M31.7812 66.4062
Q24.1719 66.4062 20.3281 58.9062
Q16.5 51.4219 16.5 36.375
Q16.5 21.3906 20.3281 13.8906
Q24.1719 6.39062 31.7812 6.39062
Q39.4531 6.39062 43.2812 13.8906
Q47.125 21.3906 47.125 36.375
Q47.125 51.4219 43.2812 58.9062
Q39.4531 66.4062 31.7812 66.4062
M31.7812 74.2188
Q44.0469 74.2188 50.5156 64.5156
Q56.9844 54.8281 56.9844 36.375
Q56.9844 17.9688 50.5156 8.26562
Q44.0469 -1.42188 31.7812 -1.42188
Q19.5312 -1.42188 13.0625 8.26562
Q6.59375 17.9688 6.59375 36.375
Q6.59375 54.8281 13.0625 64.5156
Q19.5312 74.2188 31.7812 74.2188" id="BitstreamVeraSans-Roman-30"/>
      </defs>
      <g transform="translate(166.713196023 256.1165625)scale(0.1 -0.1)">
       <use xlink:href="#BitstreamVeraSans-Roman-30"/>
      </g>
     </g>
    </g>
    <g id="xtick_4">
     <g id="line2d_11">
      <g>
       <use style="stroke:#000000;stroke-width:0.5;" x="219.96" xlink:href="#m93b0483c22" y="244.518125"/>
      </g>
     </g>
     <g id="line2d_12">
      <g>
       <use style="stroke:#000000;stroke-width:0.5;" x="219.96" xlink:href="#m741efc42ff" y="21.318125"/>
      </g>
     </g>
     <g id="text_4">
      <!-- 1 -->
      <g transform="translate(217.7896875 256.1165625)scale(0.1 -0.1)">
       <use xlink:href="#BitstreamVeraSans-Roman-31"/>
      </g>
     </g>
    </g>
    <g id="xtick_5">
     <g id="line2d_13">
      <g>
       <use style="stroke:#000000;stroke-width:0.5;" x="270.687272727" xlink:href="#m93b0483c22" y="244.518125"/>
      </g>
     </g>
     <g id="line2d_14">
      <g>
       <use style="stroke:#000000;stroke-width:0.5;" x="270.687272727" xlink:href="#m741efc42ff" y="21.318125"/>
      </g>
     </g>
     <g id="text_5">
      <!-- 2 -->
      <g transform="translate(268.373210227 256.1165625)scale(0.1 -0.1)">
       <use xlink:href="#BitstreamVeraSans-Roman-32"/>
      </g>
     </g>
    </g>
    <g id="xtick_6">
     <g id="line2d_15">
      <g>
       <use style="stroke:#000000;stroke-width:0.5;" x="321.414545455" xlink:href="#m93b0483c22" y="244.518125"/>
      </g>
     </g>
     <g id="line2d_16">
      <g>
       <use style="stroke:#000000;stroke-width:0.5;" x="321.414545455" xlink:href="#m741efc42ff" y="21.318125"/>
      </g>
     </g>
     <g id="text_6">
      <!-- 3 -->
      <defs>
       <path d="
M40.5781 39.3125
Q47.6562 37.7969 51.625 33
Q55.6094 28.2188 55.6094 21.1875
Q55.6094 10.4062 48.1875 4.48438
Q40.7656 -1.42188 27.0938 -1.42188
Q22.5156 -1.42188 17.6562 -0.515625
Q12.7969 0.390625 7.625 2.20312
L7.625 11.7188
Q11.7188 9.32812 16.5938 8.10938
Q21.4844 6.89062 26.8125 6.89062
Q36.0781 6.89062 40.9375 10.5469
Q45.7969 14.2031 45.7969 21.1875
Q45.7969 27.6406 41.2812 31.2656
Q36.7656 34.9062 28.7188 34.9062
L20.2188 34.9062
L20.2188 43.0156
L29.1094 43.0156
Q36.375 43.0156 40.2344 45.9219
Q44.0938 48.8281 44.0938 54.2969
Q44.0938 59.9062 40.1094 62.9062
Q36.1406 65.9219 28.7188 65.9219
Q24.6562 65.9219 20.0156 65.0312
Q15.375 64.1562 9.8125 62.3125
L9.8125 71.0938
Q15.4375 72.6562 20.3438 73.4375
Q25.25 74.2188 29.5938 74.2188
Q40.8281 74.2188 47.3594 69.1094
Q53.9062 64.0156 53.9062 55.3281
Q53.9062 49.2656 50.4375 45.0938
Q46.9688 40.9219 40.5781 39.3125" id="BitstreamVeraSans-Roman-33"/>
      </defs>
      <g transform="translate(319.015326705 256.1165625)scale(0.1 -0.1)">
       <use xlink:href="#BitstreamVeraSans-Roman-33"/>
      </g>
     </g>
    </g>
    <g id="xtick_7">
     <g id="line2d_17">
      <g>
       <use style="stroke:#000000;stroke-width:0.5;" x="372.141818182" xlink:href="#m93b0483c22" y="244.518125"/>
      </g>
     </g>
     <g id="line2d_18">
      <g>
       <use style="stroke:#000000;stroke-width:0.5;" x="372.141818182" xlink:href="#m741efc42ff" y="21.318125"/>
      </g>
     </g>
     <g id="text_7">
      <!-- 4 -->
      <defs>
       <path d="
M37.7969 64.3125
L12.8906 25.3906
L37.7969 25.3906
z

M35.2031 72.9062
L47.6094 72.9062
L47.6094 25.3906
L58.0156 25.3906
L58.0156 17.1875
L47.6094 17.1875
L47.6094 0
L37.7969 0
L37.7969 17.1875
L4.89062 17.1875
L4.89062 26.7031
z
" id="BitstreamVeraSans-Roman-34"/>
      </defs>
      <g transform="translate(369.485568182 256.1165625)scale(0.1 -0.1)">
       <use xlink:href="#BitstreamVeraSans-Roman-34"/>
      </g>
     </g>
    </g>
    <g id="text_8">
     <!-- X: rotated to Dec =    90.0 -->
     <defs>
      <path id="BitstreamVeraSans-Roman-20"/>
      <path d="
M10.9844 1.51562
L10.9844 10.5
Q14.7031 8.73438 18.5 7.8125
Q22.3125 6.89062 25.9844 6.89062
Q35.75 6.89062 40.8906 13.4531
Q46.0469 20.0156 46.7812 33.4062
Q43.9531 29.2031 39.5938 26.9531
Q35.25 24.7031 29.9844 24.7031
Q19.0469 24.7031 12.6719 31.3125
Q6.29688 37.9375 6.29688 49.4219
Q6.29688 60.6406 12.9375 67.4219
Q19.5781 74.2188 30.6094 74.2188
Q43.2656 74.2188 49.9219 64.5156
Q56.5938 54.8281 56.5938 36.375
Q56.5938 19.1406 48.4062 8.85938
Q40.2344 -1.42188 26.4219 -1.42188
Q22.7031 -1.42188 18.8906 -0.6875
Q15.0938 0.046875 10.9844 1.51562
M30.6094 32.4219
Q37.25 32.4219 41.125 36.9531
Q45.0156 41.5 45.0156 49.4219
Q45.0156 57.2812 41.125 61.8438
Q37.25 66.4062 30.6094 66.4062
Q23.9688 66.4062 20.0938 61.8438
Q16.2188 57.2812 16.2188 49.4219
Q16.2188 41.5 20.0938 36.9531
Q23.9688 32.4219 30.6094 32.4219" id="BitstreamVeraSans-Roman-39"/>
      <path d="
M34.2812 27.4844
Q23.3906 27.4844 19.1875 25
Q14.9844 22.5156 14.9844 16.5
Q14.9844 11.7188 18.1406 8.90625
Q21.2969 6.10938 26.7031 6.10938
Q34.1875 6.10938 38.7031 11.4062
Q43.2188 16.7031 43.2188 25.4844
L43.2188 27.4844
z

M52.2031 31.2031
L52.2031 0
L43.2188 0
L43.2188 8.29688
Q40.1406 3.32812 35.5469 0.953125
Q30.9531 -1.42188 24.3125 -1.42188
Q15.9219 -1.42188 10.9531 3.29688
Q6 8.01562 6 15.9219
Q6 25.1406 12.1719 29.8281
Q18.3594 34.5156 30.6094 34.5156
L43.2188 34.5156
L43.2188 35.4062
Q43.2188 41.6094 39.1406 45
Q35.0625 48.3906 27.6875 48.3906
Q23 48.3906 18.5469 47.2656
Q14.1094 46.1406 10.0156 43.8906
L10.0156 52.2031
Q14.9375 54.1094 19.5781 55.0469
Q24.2188 56 28.6094 56
Q40.4844 56 46.3438 49.8438
Q52.2031 43.7031 52.2031 31.2031" id="BitstreamVeraSans-Roman-61"/>
      <path d="
M30.6094 48.3906
Q23.3906 48.3906 19.1875 42.75
Q14.9844 37.1094 14.9844 27.2969
Q14.9844 17.4844 19.1562 11.8438
Q23.3438 6.20312 30.6094 6.20312
Q37.7969 6.20312 41.9844 11.8594
Q46.1875 17.5312 46.1875 27.2969
Q46.1875 37.0156 41.9844 42.7031
Q37.7969 48.3906 30.6094 48.3906
M30.6094 56
Q42.3281 56 49.0156 48.375
Q55.7188 40.7656 55.7188 27.2969
Q55.7188 13.875 49.0156 6.21875
Q42.3281 -1.42188 30.6094 -1.42188
Q18.8438 -1.42188 12.1719 6.21875
Q5.51562 13.875 5.51562 27.2969
Q5.51562 40.7656 12.1719 48.375
Q18.8438 56 30.6094 56" id="BitstreamVeraSans-Roman-6f"/>
      <path d="
M19.6719 64.7969
L19.6719 8.10938
L31.5938 8.10938
Q46.6875 8.10938 53.6875 14.9375
Q60.6875 21.7812 60.6875 36.5312
Q60.6875 51.1719 53.6875 57.9844
Q46.6875 64.7969 31.5938 64.7969
z

M9.8125 72.9062
L30.0781 72.9062
Q51.2656 72.9062 61.1719 64.0938
Q71.0938 55.2812 71.0938 36.5312
Q71.0938 17.6719 61.125 8.82812
Q51.1719 0 30.0781 0
L9.8125 0
z
" id="BitstreamVeraSans-Roman-44"/>
      <path d="
M56.2031 29.5938
L56.2031 25.2031
L14.8906 25.2031
Q15.4844 15.9219 20.4844 11.0625
Q25.4844 6.20312 34.4219 6.20312
Q39.5938 6.20312 44.4531 7.46875
Q49.3125 8.73438 54.1094 11.2812
L54.1094 2.78125
Q49.2656 0.734375 44.1875 -0.34375
Q39.1094 -1.42188 33.8906 -1.42188
Q20.7969 -1.42188 13.1562 6.1875
Q5.51562 13.8125 5.51562 26.8125
Q5.51562 40.2344 12.7656 48.1094
Q20.0156 56 32.3281 56
Q43.3594 56 49.7812 48.8906
Q56.2031 41.7969 56.2031 29.5938
M47.2188 32.2344
Q47.125 39.5938 43.0938 43.9844
Q39.0625 48.3906 32.4219 48.3906
Q24.9062 48.3906 20.3906 44.1406
Q15.875 39.8906 15.1875 32.1719
z
" id="BitstreamVeraSans-Roman-65"/>
      <path d="
M11.7188 12.4062
L22.0156 12.4062
L22.0156 0
L11.7188 0
z

M11.7188 51.7031
L22.0156 51.7031
L22.0156 39.3125
L11.7188 39.3125
z
" id="BitstreamVeraSans-Roman-3a"/>
      <path d="
M10.6875 12.4062
L21 12.4062
L21 0
L10.6875 0
z
" id="BitstreamVeraSans-Roman-2e"/>
      <path d="
M10.5938 45.4062
L73.1875 45.4062
L73.1875 37.2031
L10.5938 37.2031
z

M10.5938 25.4844
L73.1875 25.4844
L73.1875 17.1875
L10.5938 17.1875
z
" id="BitstreamVeraSans-Roman-3d"/>
      <path d="
M6.29688 72.9062
L16.8906 72.9062
L35.0156 45.7969
L53.2188 72.9062
L63.8125 72.9062
L40.375 37.8906
L65.375 0
L54.7812 0
L34.2812 31
L13.625 0
L2.98438 0
L29 38.9219
z
" id="BitstreamVeraSans-Roman-58"/>
      <path d="
M45.4062 46.3906
L45.4062 75.9844
L54.3906 75.9844
L54.3906 0
L45.4062 0
L45.4062 8.20312
Q42.5781 3.32812 38.25 0.953125
Q33.9375 -1.42188 27.875 -1.42188
Q17.9688 -1.42188 11.7344 6.48438
Q5.51562 14.4062 5.51562 27.2969
Q5.51562 40.1875 11.7344 48.0938
Q17.9688 56 27.875 56
Q33.9375 56 38.25 53.625
Q42.5781 51.2656 45.4062 46.3906
M14.7969 27.2969
Q14.7969 17.3906 18.875 11.75
Q22.9531 6.10938 30.0781 6.10938
Q37.2031 6.10938 41.2969 11.75
Q45.4062 17.3906 45.4062 27.2969
Q45.4062 37.2031 41.2969 42.8438
Q37.2031 48.4844 30.0781 48.4844
Q22.9531 48.4844 18.875 42.8438
Q14.7969 37.2031 14.7969 27.2969" id="BitstreamVeraSans-Roman-64"/>
      <path d="
M18.3125 70.2188
L18.3125 54.6875
L36.8125 54.6875
L36.8125 47.7031
L18.3125 47.7031
L18.3125 18.0156
Q18.3125 11.3281 20.1406 9.42188
Q21.9688 7.51562 27.5938 7.51562
L36.8125 7.51562
L36.8125 0
L27.5938 0
Q17.1875 0 13.2344 3.875
Q9.28125 7.76562 9.28125 18.0156
L9.28125 47.7031
L2.6875 47.7031
L2.6875 54.6875
L9.28125 54.6875
L9.28125 70.2188
z
" id="BitstreamVeraSans-Roman-74"/>
      <path d="
M41.1094 46.2969
Q39.5938 47.1719 37.8125 47.5781
Q36.0312 48 33.8906 48
Q26.2656 48 22.1875 43.0469
Q18.1094 38.0938 18.1094 28.8125
L18.1094 0
L9.07812 0
L9.07812 54.6875
L18.1094 54.6875
L18.1094 46.1875
Q20.9531 51.1719 25.4844 53.5781
Q30.0312 56 36.5312 56
Q37.4531 56 38.5781 55.875
Q39.7031 55.7656 41.0625 55.5156
z
" id="BitstreamVeraSans-Roman-72"/>
      <path d="
M48.7812 52.5938
L48.7812 44.1875
Q44.9688 46.2969 41.1406 47.3438
Q37.3125 48.3906 33.4062 48.3906
Q24.6562 48.3906 19.8125 42.8438
Q14.9844 37.3125 14.9844 27.2969
Q14.9844 17.2812 19.8125 11.7344
Q24.6562 6.20312 33.4062 6.20312
Q37.3125 6.20312 41.1406 7.25
Q44.9688 8.29688 48.7812 10.4062
L48.7812 2.09375
Q45.0156 0.34375 40.9844 -0.53125
Q36.9688 -1.42188 32.4219 -1.42188
Q20.0625 -1.42188 12.7812 6.34375
Q5.51562 14.1094 5.51562 27.2969
Q5.51562 40.6719 12.8594 48.3281
Q20.2188 56 33.0156 56
Q37.1562 56 41.1094 55.1406
Q45.0625 54.2969 48.7812 52.5938" id="BitstreamVeraSans-Roman-63"/>
     </defs>
     <g transform="translate(154.2146875 270.7946875)scale(0.1 -0.1)">
      <use xlink:href="#BitstreamVeraSans-Roman-58"/>
      <use x="68.505859375" xlink:href="#BitstreamVeraSans-Roman-3a"/>
      <use x="102.197265625" xlink:href="#BitstreamVeraSans-Roman-20"/>
      <use x="133.984375" xlink:href="#BitstreamVeraSans-Roman-72"/>
      <use x="172.84765625" xlink:href="#BitstreamVeraSans-Roman-6f"/>
      <use x="234.029296875" xlink:href="#BitstreamVeraSans-Roman-74"/>
      <use x="273.23828125" xlink:href="#BitstreamVeraSans-Roman-61"/>
      <use x="334.517578125" xlink:href="#BitstreamVeraSans-Roman-74"/>
      <use x="373.7265625" xlink:href="#BitstreamVeraSans-Roman-65"/>
      <use x="435.25" xlink:href="#BitstreamVeraSans-Roman-64"/>
      <use x="498.7265625" xlink:href="#BitstreamVeraSans-Roman-20"/>
      <use x="530.513671875" xlink:href="#BitstreamVeraSans-Roman-74"/>
      <use x="569.72265625" xlink:href="#BitstreamVeraSans-Roman-6f"/>
      <use x="630.904296875" xlink:href="#BitstreamVeraSans-Roman-20"/>
      <use x="662.69140625" xlink:href="#BitstreamVeraSans-Roman-44"/>
      <use x="739.693359375" xlink:href="#BitstreamVeraSans-Roman-65"/>
      <use x="801.216796875" xlink:href="#BitstreamVeraSans-Roman-63"/>
      <use x="856.197265625" xlink:href="#BitstreamVeraSans-Roman-20"/>
      <use x="887.984375" xlink:href="#BitstreamVeraSans-Roman-3d"/>
      <use x="971.7734375" xlink:href="#BitstreamVeraSans-Roman-20"/>
      <use x="1003.56054688" xlink:href="#BitstreamVeraSans-Roman-20"/>
      <use x="1035.34765625" xlink:href="#BitstreamVeraSans-Roman-20"/>
      <use x="1067.13476562" xlink:href="#BitstreamVeraSans-Roman-20"/>
      <use x="1098.921875" xlink:href="#BitstreamVeraSans-Roman-39"/>
      <use x="1162.54492188" xlink:href="#BitstreamVeraSans-Roman-30"/>
      <use x="1226.16796875" xlink:href="#BitstreamVeraSans-Roman-2e"/>
      <use x="1257.95507812" xlink:href="#BitstreamVeraSans-Roman-30"/>
     </g>
    </g>
    <g id="text_9">
     <!-- 1e−6 -->
     <defs>
      <path d="
M33.0156 40.375
Q26.375 40.375 22.4844 35.8281
Q18.6094 31.2969 18.6094 23.3906
Q18.6094 15.5312 22.4844 10.9531
Q26.375 6.39062 33.0156 6.39062
Q39.6562 6.39062 43.5312 10.9531
Q47.4062 15.5312 47.4062 23.3906
Q47.4062 31.2969 43.5312 35.8281
Q39.6562 40.375 33.0156 40.375
M52.5938 71.2969
L52.5938 62.3125
Q48.875 64.0625 45.0938 64.9844
Q41.3125 65.9219 37.5938 65.9219
Q27.8281 65.9219 22.6719 59.3281
Q17.5312 52.7344 16.7969 39.4062
Q19.6719 43.6562 24.0156 45.9219
Q28.375 48.1875 33.5938 48.1875
Q44.5781 48.1875 50.9531 41.5156
Q57.3281 34.8594 57.3281 23.3906
Q57.3281 12.1562 50.6875 5.35938
Q44.0469 -1.42188 33.0156 -1.42188
Q20.3594 -1.42188 13.6719 8.26562
Q6.98438 17.9688 6.98438 36.375
Q6.98438 53.6562 15.1875 63.9375
Q23.3906 74.2188 37.2031 74.2188
Q40.9219 74.2188 44.7031 73.4844
Q48.4844 72.75 52.5938 71.2969" id="BitstreamVeraSans-Roman-36"/>
     </defs>
     <g transform="translate(361.8303125 268.7946875)scale(0.1 -0.1)">
      <use xlink:href="#BitstreamVeraSans-Roman-31"/>
      <use x="63.623046875" xlink:href="#BitstreamVeraSans-Roman-65"/>
      <use x="125.146484375" xlink:href="#BitstreamVeraSans-Roman-2212"/>
      <use x="208.935546875" xlink:href="#BitstreamVeraSans-Roman-36"/>
     </g>
    </g>
   </g>
   <g id="matplotlib.axis_2">
    <g id="ytick_1">
     <g id="line2d_19">
      <defs>
       <path d="
M0 0
L4 0" id="m728421d6d4" style="stroke:#000000;stroke-width:0.5;"/>
      </defs>
      <g>
       <use style="stroke:#000000;stroke-width:0.5;" x="52.56" xlink:href="#m728421d6d4" y="21.318125"/>
      </g>
     </g>
     <g id="line2d_20">
      <defs>
       <path d="
M0 0
L-4 0" id="mcb0005524f" style="stroke:#000000;stroke-width:0.5;"/>
      </defs>
      <g>
       <use style="stroke:#000000;stroke-width:0.5;" x="387.36" xlink:href="#mcb0005524f" y="21.318125"/>
      </g>
     </g>
     <g id="text_10">
      <!-- −4.0 -->
      <g transform="translate(26.000625 24.0775)scale(0.1 -0.1)">
       <use xlink:href="#BitstreamVeraSans-Roman-2212"/>
       <use x="83.7890625" xlink:href="#BitstreamVeraSans-Roman-34"/>
       <use x="147.412109375" xlink:href="#BitstreamVeraSans-Roman-2e"/>
       <use x="179.19921875" xlink:href="#BitstreamVeraSans-Roman-30"/>
      </g>
     </g>
    </g>
    <g id="ytick_2">
     <g id="line2d_21">
      <g>
       <use style="stroke:#000000;stroke-width:0.5;" x="52.56" xlink:href="#m728421d6d4" y="46.6817613636"/>
      </g>
     </g>
     <g id="line2d_22">
      <g>
       <use style="stroke:#000000;stroke-width:0.5;" x="387.36" xlink:href="#mcb0005524f" y="46.6817613636"/>
      </g>
     </g>
     <g id="text_11">
      <!-- −3.5 -->
      <defs>
       <path d="
M10.7969 72.9062
L49.5156 72.9062
L49.5156 64.5938
L19.8281 64.5938
L19.8281 46.7344
Q21.9688 47.4688 24.1094 47.8281
Q26.2656 48.1875 28.4219 48.1875
Q40.625 48.1875 47.75 41.5
Q54.8906 34.8125 54.8906 23.3906
Q54.8906 11.625 47.5625 5.09375
Q40.2344 -1.42188 26.9062 -1.42188
Q22.3125 -1.42188 17.5469 -0.640625
Q12.7969 0.140625 7.71875 1.70312
L7.71875 11.625
Q12.1094 9.23438 16.7969 8.0625
Q21.4844 6.89062 26.7031 6.89062
Q35.1562 6.89062 40.0781 11.3281
Q45.0156 15.7656 45.0156 23.3906
Q45.0156 31 40.0781 35.4375
Q35.1562 39.8906 26.7031 39.8906
Q22.75 39.8906 18.8125 39.0156
Q14.8906 38.1406 10.7969 36.2812
z
" id="BitstreamVeraSans-Roman-35"/>
      </defs>
      <g transform="translate(26.21 49.4411363636)scale(0.1 -0.1)">
       <use xlink:href="#BitstreamVeraSans-Roman-2212"/>
       <use x="83.7890625" xlink:href="#BitstreamVeraSans-Roman-33"/>
       <use x="147.412109375" xlink:href="#BitstreamVeraSans-Roman-2e"/>
       <use x="179.19921875" xlink:href="#BitstreamVeraSans-Roman-35"/>
      </g>
     </g>
    </g>
    <g id="ytick_3">
     <g id="line2d_23">
      <g>
       <use style="stroke:#000000;stroke-width:0.5;" x="52.56" xlink:href="#m728421d6d4" y="72.0453977273"/>
      </g>
     </g>
     <g id="line2d_24">
      <g>
       <use style="stroke:#000000;stroke-width:0.5;" x="387.36" xlink:href="#mcb0005524f" y="72.0453977273"/>
      </g>
     </g>
     <g id="text_12">
      <!-- −3.0 -->
      <g transform="translate(26.000625 74.8047727273)scale(0.1 -0.1)">
       <use xlink:href="#BitstreamVeraSans-Roman-2212"/>
       <use x="83.7890625" xlink:href="#BitstreamVeraSans-Roman-33"/>
       <use x="147.412109375" xlink:href="#BitstreamVeraSans-Roman-2e"/>
       <use x="179.19921875" xlink:href="#BitstreamVeraSans-Roman-30"/>
      </g>
     </g>
    </g>
    <g id="ytick_4">
     <g id="line2d_25">
      <g>
       <use style="stroke:#000000;stroke-width:0.5;" x="52.56" xlink:href="#m728421d6d4" y="97.4090340909"/>
      </g>
     </g>
     <g id="line2d_26">
      <g>
       <use style="stroke:#000000;stroke-width:0.5;" x="387.36" xlink:href="#mcb0005524f" y="97.4090340909"/>
      </g>
     </g>
     <g id="text_13">
      <!-- −2.5 -->
      <g transform="translate(26.21 100.168409091)scale(0.1 -0.1)">
       <use xlink:href="#BitstreamVeraSans-Roman-2212"/>
       <use x="83.7890625" xlink:href="#BitstreamVeraSans-Roman-32"/>
       <use x="147.412109375" xlink:href="#BitstreamVeraSans-Roman-2e"/>
       <use x="179.19921875" xlink:href="#BitstreamVeraSans-Roman-35"/>
      </g>
     </g>
    </g>
    <g id="ytick_5">
     <g id="line2d_27">
      <g>
       <use style="stroke:#000000;stroke-width:0.5;" x="52.56" xlink:href="#m728421d6d4" y="122.772670455"/>
      </g>
     </g>
     <g id="line2d_28">
      <g>
       <use style="stroke:#000000;stroke-width:0.5;" x="387.36" xlink:href="#mcb0005524f" y="122.772670455"/>
      </g>
     </g>
     <g id="text_14">
      <!-- −2.0 -->
      <g transform="translate(26.000625 125.532045455)scale(0.1 -0.1)">
       <use xlink:href="#BitstreamVeraSans-Roman-2212"/>
       <use x="83.7890625" xlink:href="#BitstreamVeraSans-Roman-32"/>
       <use x="147.412109375" xlink:href="#BitstreamVeraSans-Roman-2e"/>
       <use x="179.19921875" xlink:href="#BitstreamVeraSans-Roman-30"/>
      </g>
     </g>
    </g>
    <g id="ytick_6">
     <g id="line2d_29">
      <g>
       <use style="stroke:#000000;stroke-width:0.5;" x="52.56" xlink:href="#m728421d6d4" y="148.136306818"/>
      </g>
     </g>
     <g id="line2d_30">
      <g>
       <use style="stroke:#000000;stroke-width:0.5;" x="387.36" xlink:href="#mcb0005524f" y="148.136306818"/>
      </g>
     </g>
     <g id="text_15">
      <!-- −1.5 -->
      <g transform="translate(26.21 150.895681818)scale(0.1 -0.1)">
       <use xlink:href="#BitstreamVeraSans-Roman-2212"/>
       <use x="83.7890625" xlink:href="#BitstreamVeraSans-Roman-31"/>
       <use x="147.412109375" xlink:href="#BitstreamVeraSans-Roman-2e"/>
       <use x="179.19921875" xlink:href="#BitstreamVeraSans-Roman-35"/>
      </g>
     </g>
    </g>
    <g id="ytick_7">
     <g id="line2d_31">
      <g>
       <use style="stroke:#000000;stroke-width:0.5;" x="52.56" xlink:href="#m728421d6d4" y="173.499943182"/>
      </g>
     </g>
     <g id="line2d_32">
      <g>
       <use style="stroke:#000000;stroke-width:0.5;" x="387.36" xlink:href="#mcb0005524f" y="173.499943182"/>
      </g>
     </g>
     <g id="text_16">
      <!-- −1.0 -->
      <g transform="translate(26.000625 176.259318182)scale(0.1 -0.1)">
       <use xlink:href="#BitstreamVeraSans-Roman-2212"/>
       <use x="83.7890625" xlink:href="#BitstreamVeraSans-Roman-31"/>
       <use x="147.412109375" xlink:href="#BitstreamVeraSans-Roman-2e"/>
       <use x="179.19921875" xlink:href="#BitstreamVeraSans-Roman-30"/>
      </g>
     </g>
    </g>
    <g id="ytick_8">
     <g id="line2d_33">
      <g>
       <use style="stroke:#000000;stroke-width:0.5;" x="52.56" xlink:href="#m728421d6d4" y="198.863579545"/>
      </g>
     </g>
     <g id="line2d_34">
      <g>
       <use style="stroke:#000000;stroke-width:0.5;" x="387.36" xlink:href="#mcb0005524f" y="198.863579545"/>
      </g>
     </g>
     <g id="text_17">
      <!-- −0.5 -->
      <g transform="translate(26.21 201.622954545)scale(0.1 -0.1)">
       <use xlink:href="#BitstreamVeraSans-Roman-2212"/>
       <use x="83.7890625" xlink:href="#BitstreamVeraSans-Roman-30"/>
       <use x="147.412109375" xlink:href="#BitstreamVeraSans-Roman-2e"/>
       <use x="179.19921875" xlink:href="#BitstreamVeraSans-Roman-35"/>
      </g>
     </g>
    </g>
    <g id="ytick_9">
     <g id="line2d_35">
      <g>
       <use style="stroke:#000000;stroke-width:0.5;" x="52.56" xlink:href="#m728421d6d4" y="224.227215909"/>
      </g>
     </g>
     <g id="line2d_36">
      <g>
       <use style="stroke:#000000;stroke-width:0.5;" x="387.36" xlink:href="#mcb0005524f" y="224.227215909"/>
      </g>
     </g>
     <g id="text_18">
      <!-- 0.0 -->
      <g transform="translate(33.9803125 226.986590909)scale(0.1 -0.1)">
       <use xlink:href="#BitstreamVeraSans-Roman-30"/>
       <use x="63.623046875" xlink:href="#BitstreamVeraSans-Roman-2e"/>
       <use x="95.41015625" xlink:href="#BitstreamVeraSans-Roman-30"/>
      </g>
     </g>
    </g>
    <g id="text_19">
     <!-- Circles: Y; Squares: Z -->
     <defs>
      <path d="
M5.60938 72.9062
L62.8906 72.9062
L62.8906 65.375
L16.7969 8.29688
L64.0156 8.29688
L64.0156 0
L4.5 0
L4.5 7.51562
L50.5938 64.5938
L5.60938 64.5938
z
" id="BitstreamVeraSans-Roman-5a"/>
      <path d="
M9.42188 75.9844
L18.4062 75.9844
L18.4062 0
L9.42188 0
z
" id="BitstreamVeraSans-Roman-6c"/>
      <path d="
M11.7188 51.7031
L22.0156 51.7031
L22.0156 39.3125
L11.7188 39.3125
z

M11.7188 12.4062
L22.0156 12.4062
L22.0156 4
L14.0156 -11.625
L7.71875 -11.625
L11.7188 4
z
" id="BitstreamVeraSans-Roman-3b"/>
      <path d="
M53.5156 70.5156
L53.5156 60.8906
Q47.9062 63.5781 42.9219 64.8906
Q37.9375 66.2188 33.2969 66.2188
Q25.25 66.2188 20.875 63.0938
Q16.5 59.9688 16.5 54.2031
Q16.5 49.3594 19.4062 46.8906
Q22.3125 44.4375 30.4219 42.9219
L36.375 41.7031
Q47.4062 39.5938 52.6562 34.2969
Q57.9062 29 57.9062 20.125
Q57.9062 9.51562 50.7969 4.04688
Q43.7031 -1.42188 29.9844 -1.42188
Q24.8125 -1.42188 18.9688 -0.25
Q13.1406 0.921875 6.89062 3.21875
L6.89062 13.375
Q12.8906 10.0156 18.6562 8.29688
Q24.4219 6.59375 29.9844 6.59375
Q38.4219 6.59375 43.0156 9.90625
Q47.6094 13.2344 47.6094 19.3906
Q47.6094 24.75 44.3125 27.7812
Q41.0156 30.8125 33.5 32.3281
L27.4844 33.5
Q16.4531 35.6875 11.5156 40.375
Q6.59375 45.0625 6.59375 53.4219
Q6.59375 63.0938 13.4062 68.6562
Q20.2188 74.2188 32.1719 74.2188
Q37.3125 74.2188 42.625 73.2812
Q47.9531 72.3594 53.5156 70.5156" id="BitstreamVeraSans-Roman-53"/>
      <path d="
M9.42188 54.6875
L18.4062 54.6875
L18.4062 0
L9.42188 0
z

M9.42188 75.9844
L18.4062 75.9844
L18.4062 64.5938
L9.42188 64.5938
z
" id="BitstreamVeraSans-Roman-69"/>
      <path d="
M-0.203125 72.9062
L10.4062 72.9062
L30.6094 42.9219
L50.6875 72.9062
L61.2812 72.9062
L35.5 34.7188
L35.5 0
L25.5938 0
L25.5938 34.7188
z
" id="BitstreamVeraSans-Roman-59"/>
      <path d="
M64.4062 67.2812
L64.4062 56.8906
Q59.4219 61.5312 53.7812 63.8125
Q48.1406 66.1094 41.7969 66.1094
Q29.2969 66.1094 22.6562 58.4688
Q16.0156 50.8281 16.0156 36.375
Q16.0156 21.9688 22.6562 14.3281
Q29.2969 6.6875 41.7969 6.6875
Q48.1406 6.6875 53.7812 8.98438
Q59.4219 11.2812 64.4062 15.9219
L64.4062 5.60938
Q59.2344 2.09375 53.4375 0.328125
Q47.6562 -1.42188 41.2188 -1.42188
Q24.6562 -1.42188 15.125 8.70312
Q5.60938 18.8438 5.60938 36.375
Q5.60938 53.9531 15.125 64.0781
Q24.6562 74.2188 41.2188 74.2188
Q47.75 74.2188 53.5312 72.4844
Q59.3281 70.75 64.4062 67.2812" id="BitstreamVeraSans-Roman-43"/>
      <path d="
M8.5 21.5781
L8.5 54.6875
L17.4844 54.6875
L17.4844 21.9219
Q17.4844 14.1562 20.5 10.2656
Q23.5312 6.39062 29.5938 6.39062
Q36.8594 6.39062 41.0781 11.0312
Q45.3125 15.6719 45.3125 23.6875
L45.3125 54.6875
L54.2969 54.6875
L54.2969 0
L45.3125 0
L45.3125 8.40625
Q42.0469 3.42188 37.7188 1
Q33.4062 -1.42188 27.6875 -1.42188
Q18.2656 -1.42188 13.375 4.4375
Q8.5 10.2969 8.5 21.5781" id="BitstreamVeraSans-Roman-75"/>
      <path d="
M44.2812 53.0781
L44.2812 44.5781
Q40.4844 46.5312 36.375 47.5
Q32.2812 48.4844 27.875 48.4844
Q21.1875 48.4844 17.8438 46.4375
Q14.5 44.3906 14.5 40.2812
Q14.5 37.1562 16.8906 35.375
Q19.2812 33.5938 26.5156 31.9844
L29.5938 31.2969
Q39.1562 29.25 43.1875 25.5156
Q47.2188 21.7812 47.2188 15.0938
Q47.2188 7.46875 41.1875 3.01562
Q35.1562 -1.42188 24.6094 -1.42188
Q20.2188 -1.42188 15.4531 -0.5625
Q10.6875 0.296875 5.42188 2
L5.42188 11.2812
Q10.4062 8.6875 15.2344 7.39062
Q20.0625 6.10938 24.8125 6.10938
Q31.1562 6.10938 34.5625 8.28125
Q37.9844 10.4531 37.9844 14.4062
Q37.9844 18.0625 35.5156 20.0156
Q33.0625 21.9688 24.7031 23.7812
L21.5781 24.5156
Q13.2344 26.2656 9.51562 29.9062
Q5.8125 33.5469 5.8125 39.8906
Q5.8125 47.6094 11.2812 51.7969
Q16.75 56 26.8125 56
Q31.7812 56 36.1719 55.2656
Q40.5781 54.5469 44.2812 53.0781" id="BitstreamVeraSans-Roman-73"/>
      <path d="
M14.7969 27.2969
Q14.7969 17.3906 18.875 11.75
Q22.9531 6.10938 30.0781 6.10938
Q37.2031 6.10938 41.2969 11.75
Q45.4062 17.3906 45.4062 27.2969
Q45.4062 37.2031 41.2969 42.8438
Q37.2031 48.4844 30.0781 48.4844
Q22.9531 48.4844 18.875 42.8438
Q14.7969 37.2031 14.7969 27.2969
M45.4062 8.20312
Q42.5781 3.32812 38.25 0.953125
Q33.9375 -1.42188 27.875 -1.42188
Q17.9688 -1.42188 11.7344 6.48438
Q5.51562 14.4062 5.51562 27.2969
Q5.51562 40.1875 11.7344 48.0938
Q17.9688 56 27.875 56
Q33.9375 56 38.25 53.625
Q42.5781 51.2656 45.4062 46.3906
L45.4062 54.6875
L54.3906 54.6875
L54.3906 -20.7969
L45.4062 -20.7969
z
" id="BitstreamVeraSans-Roman-71"/>
     </defs>
     <g transform="translate(18.9209375 185.8415625)rotate(-90.0)scale(0.1 -0.1)">
      <use xlink:href="#BitstreamVeraSans-Roman-43"/>
      <use x="69.82421875" xlink:href="#BitstreamVeraSans-Roman-69"/>
      <use x="97.607421875" xlink:href="#BitstreamVeraSans-Roman-72"/>
      <use x="136.470703125" xlink:href="#BitstreamVeraSans-Roman-63"/>
      <use x="191.451171875" xlink:href="#BitstreamVeraSans-Roman-6c"/>
      <use x="219.234375" xlink:href="#BitstreamVeraSans-Roman-65"/>
      <use x="280.7578125" xlink:href="#BitstreamVeraSans-Roman-73"/>
      <use x="332.857421875" xlink:href="#BitstreamVeraSans-Roman-3a"/>
      <use x="366.548828125" xlink:href="#BitstreamVeraSans-Roman-20"/>
      <use x="398.3359375" xlink:href="#BitstreamVeraSans-Roman-59"/>
      <use x="459.419921875" xlink:href="#BitstreamVeraSans-Roman-3b"/>
      <use x="493.111328125" xlink:href="#BitstreamVeraSans-Roman-20"/>
      <use x="524.8984375" xlink:href="#BitstreamVeraSans-Roman-53"/>
      <use x="588.375" xlink:href="#BitstreamVeraSans-Roman-71"/>
      <use x="651.8515625" xlink:href="#BitstreamVeraSans-Roman-75"/>
      <use x="715.23046875" xlink:href="#BitstreamVeraSans-Roman-61"/>
      <use x="776.509765625" xlink:href="#BitstreamVeraSans-Roman-72"/>
      <use x="815.373046875" xlink:href="#BitstreamVeraSans-Roman-65"/>
      <use x="876.896484375" xlink:href="#BitstreamVeraSans-Roman-73"/>
      <use x="928.99609375" xlink:href="#BitstreamVeraSans-Roman-3a"/>
      <use x="962.6875" xlink:href="#BitstreamVeraSans-Roman-20"/>
      <use x="994.474609375" xlink:href="#BitstreamVeraSans-Roman-5a"/>
     </g>
    </g>
    <g id="text_20">
     <!-- 1e−6 -->
     <g transform="translate(52.56 18.318125)scale(0.1 -0.1)">
      <use xlink:href="#BitstreamVeraSans-Roman-31"/>
      <use x="63.623046875" xlink:href="#BitstreamVeraSans-Roman-65"/>
      <use x="125.146484375" xlink:href="#BitstreamVeraSans-Roman-2212"/>
      <use x="208.935546875" xlink:href="#BitstreamVeraSans-Roman-36"/>
     </g>
    </g>
   </g>
   <g id="text_21">
    <!-- series 2 warming: NRM =  2.27e-06 -->
    <defs>
     <path d="
M9.8125 72.9062
L23.0938 72.9062
L55.4219 11.9219
L55.4219 72.9062
L64.9844 72.9062
L64.9844 0
L51.7031 0
L19.3906 60.9844
L19.3906 0
L9.8125 0
z
" id="BitstreamVeraSans-Roman-4e"/>
     <path d="
M9.8125 72.9062
L24.5156 72.9062
L43.1094 23.2969
L61.8125 72.9062
L76.5156 72.9062
L76.5156 0
L66.8906 0
L66.8906 64.0156
L48.0938 14.0156
L38.1875 14.0156
L19.3906 64.0156
L19.3906 0
L9.8125 0
z
" id="BitstreamVeraSans-Roman-4d"/>
     <path d="
M8.20312 72.9062
L55.0781 72.9062
L55.0781 68.7031
L28.6094 0
L18.3125 0
L43.2188 64.5938
L8.20312 64.5938
z
" id="BitstreamVeraSans-Roman-37"/>
     <path d="
M54.8906 33.0156
L54.8906 0
L45.9062 0
L45.9062 32.7188
Q45.9062 40.4844 42.875 44.3281
Q39.8438 48.1875 33.7969 48.1875
Q26.5156 48.1875 22.3125 43.5469
Q18.1094 38.9219 18.1094 30.9062
L18.1094 0
L9.07812 0
L9.07812 54.6875
L18.1094 54.6875
L18.1094 46.1875
Q21.3438 51.125 25.7031 53.5625
Q30.0781 56 35.7969 56
Q45.2188 56 50.0469 50.1719
Q54.8906 44.3438 54.8906 33.0156" id="BitstreamVeraSans-Roman-6e"/>
     <path d="
M52 44.1875
Q55.375 50.25 60.0625 53.125
Q64.75 56 71.0938 56
Q79.6406 56 84.2812 50.0156
Q88.9219 44.0469 88.9219 33.0156
L88.9219 0
L79.8906 0
L79.8906 32.7188
Q79.8906 40.5781 77.0938 44.375
Q74.3125 48.1875 68.6094 48.1875
Q61.625 48.1875 57.5625 43.5469
Q53.5156 38.9219 53.5156 30.9062
L53.5156 0
L44.4844 0
L44.4844 32.7188
Q44.4844 40.625 41.7031 44.4062
Q38.9219 48.1875 33.1094 48.1875
Q26.2188 48.1875 22.1562 43.5312
Q18.1094 38.875 18.1094 30.9062
L18.1094 0
L9.07812 0
L9.07812 54.6875
L18.1094 54.6875
L18.1094 46.1875
Q21.1875 51.2188 25.4844 53.6094
Q29.7812 56 35.6875 56
Q41.6562 56 45.8281 52.9688
Q50 49.9531 52 44.1875" id="BitstreamVeraSans-Roman-6d"/>
     <path d="
M44.3906 34.1875
Q47.5625 33.1094 50.5625 29.5938
Q53.5625 26.0781 56.5938 19.9219
L66.6094 0
L56 0
L46.6875 18.7031
Q43.0625 26.0312 39.6719 28.4219
Q36.2812 30.8125 30.4219 30.8125
L19.6719 30.8125
L19.6719 0
L9.8125 0
L9.8125 72.9062
L32.0781 72.9062
Q44.5781 72.9062 50.7344 67.6719
Q56.8906 62.4531 56.8906 51.9062
Q56.8906 45.0156 53.6875 40.4688
Q50.4844 35.9375 44.3906 34.1875
M19.6719 64.7969
L19.6719 38.9219
L32.0781 38.9219
Q39.2031 38.9219 42.8438 42.2188
Q46.4844 45.5156 46.4844 51.9062
Q46.4844 58.2969 42.8438 61.5469
Q39.2031 64.7969 32.0781 64.7969
z
" id="BitstreamVeraSans-Roman-52"/>
     <path d="
M4.89062 31.3906
L31.2031 31.3906
L31.2031 23.3906
L4.89062 23.3906
z
" id="BitstreamVeraSans-Roman-2d"/>
     <path d="
M4.20312 54.6875
L13.1875 54.6875
L24.4219 12.0156
L35.5938 54.6875
L46.1875 54.6875
L57.4219 12.0156
L68.6094 54.6875
L77.5938 54.6875
L63.2812 0
L52.6875 0
L40.9219 44.8281
L29.1094 0
L18.5 0
z
" id="BitstreamVeraSans-Roman-77"/>
     <path d="
M45.4062 27.9844
Q45.4062 37.75 41.375 43.1094
Q37.3594 48.4844 30.0781 48.4844
Q22.8594 48.4844 18.8281 43.1094
Q14.7969 37.75 14.7969 27.9844
Q14.7969 18.2656 18.8281 12.8906
Q22.8594 7.51562 30.0781 7.51562
Q37.3594 7.51562 41.375 12.8906
Q45.4062 18.2656 45.4062 27.9844
M54.3906 6.78125
Q54.3906 -7.17188 48.1875 -13.9844
Q42 -20.7969 29.2031 -20.7969
Q24.4688 -20.7969 20.2656 -20.0938
Q16.0625 -19.3906 12.1094 -17.9219
L12.1094 -9.1875
Q16.0625 -11.3281 19.9219 -12.3438
Q23.7812 -13.375 27.7812 -13.375
Q36.625 -13.375 41.0156 -8.76562
Q45.4062 -4.15625 45.4062 5.17188
L45.4062 9.625
Q42.625 4.78125 38.2812 2.39062
Q33.9375 0 27.875 0
Q17.8281 0 11.6719 7.65625
Q5.51562 15.3281 5.51562 27.9844
Q5.51562 40.6719 11.6719 48.3281
Q17.8281 56 27.875 56
Q33.9375 56 38.2812 53.6094
Q42.625 51.2188 45.4062 46.3906
L45.4062 54.6875
L54.3906 54.6875
z
" id="BitstreamVeraSans-Roman-67"/>
    </defs>
    <g transform="translate(113.5078125 16.318125)scale(0.12 -0.12)">
     <use xlink:href="#BitstreamVeraSans-Roman-73"/>
     <use x="52.099609375" xlink:href="#BitstreamVeraSans-Roman-65"/>
     <use x="113.623046875" xlink:href="#BitstreamVeraSans-Roman-72"/>
     <use x="154.736328125" xlink:href="#BitstreamVeraSans-Roman-69"/>
     <use x="182.51953125" xlink:href="#BitstreamVeraSans-Roman-65"/>
     <use x="244.04296875" xlink:href="#BitstreamVeraSans-Roman-73"/>
     <use x="296.142578125" xlink:href="#BitstreamVeraSans-Roman-20"/>
     <use x="327.9296875" xlink:href="#BitstreamVeraSans-Roman-32"/>
     <use x="391.552734375" xlink:href="#BitstreamVeraSans-Roman-20"/>
     <use x="423.33984375" xlink:href="#BitstreamVeraSans-Roman-77"/>
     <use x="505.126953125" xlink:href="#BitstreamVeraSans-Roman-61"/>
     <use x="566.40625" xlink:href="#BitstreamVeraSans-Roman-72"/>
     <use x="605.76953125" xlink:href="#BitstreamVeraSans-Roman-6d"/>
     <use x="703.181640625" xlink:href="#BitstreamVeraSans-Roman-69"/>
     <use x="730.96484375" xlink:href="#BitstreamVeraSans-Roman-6e"/>
     <use x="794.34375" xlink:href="#BitstreamVeraSans-Roman-67"/>
     <use x="857.8203125" xlink:href="#BitstreamVeraSans-Roman-3a"/>
     <use x="891.51171875" xlink:href="#BitstreamVeraSans-Roman-20"/>
     <use x="923.298828125" xlink:href="#BitstreamVeraSans-Roman-4e"/>
     <use x="998.103515625" xlink:href="#BitstreamVeraSans-Roman-52"/>
     <use x="1067.5859375" xlink:href="#BitstreamVeraSans-Roman-4d"/>
     <use x="1153.86523438" xlink:href="#BitstreamVeraSans-Roman-20"/>
     <use x="1185.65234375" xlink:href="#BitstreamVeraSans-Roman-3d"/>
     <use x="1269.44140625" xlink:href="#BitstreamVeraSans-Roman-20"/>
     <use x="1301.22851562" xlink:href="#BitstreamVeraSans-Roman-20"/>
     <use x="1333.015625" xlink:href="#BitstreamVeraSans-Roman-32"/>
     <use x="1396.63867188" xlink:href="#BitstreamVeraSans-Roman-2e"/>
     <use x="1428.42578125" xlink:href="#BitstreamVeraSans-Roman-32"/>
     <use x="1492.04882812" xlink:href="#BitstreamVeraSans-Roman-37"/>
     <use x="1555.671875" xlink:href="#BitstreamVeraSans-Roman-65"/>
     <use x="1617.1953125" xlink:href="#BitstreamVeraSans-Roman-2d"/>
     <use x="1653.27929688" xlink:href="#BitstreamVeraSans-Roman-30"/>
     <use x="1716.90234375" xlink:href="#BitstreamVeraSans-Roman-36"/>
    </g>
   </g>
  </g>
  <g id="text_22">
   <!-- pmagpy-2.220 -->
   <defs>
    <path d="
M18.1094 8.20312
L18.1094 -20.7969
L9.07812 -20.7969
L9.07812 54.6875
L18.1094 54.6875
L18.1094 46.3906
Q20.9531 51.2656 25.2656 53.625
Q29.5938 56 35.5938 56
Q45.5625 56 51.7812 48.0938
Q58.0156 40.1875 58.0156 27.2969
Q58.0156 14.4062 51.7812 6.48438
Q45.5625 -1.42188 35.5938 -1.42188
Q29.5938 -1.42188 25.2656 0.953125
Q20.9531 3.32812 18.1094 8.20312
M48.6875 27.2969
Q48.6875 37.2031 44.6094 42.8438
Q40.5312 48.4844 33.4062 48.4844
Q26.2656 48.4844 22.1875 42.8438
Q18.1094 37.2031 18.1094 27.2969
Q18.1094 17.3906 22.1875 11.75
Q26.2656 6.10938 33.4062 6.10938
Q40.5312 6.10938 44.6094 11.75
Q48.6875 17.3906 48.6875 27.2969" id="BitstreamVeraSans-Roman-70"/>
    <path d="
M32.1719 -5.07812
Q28.375 -14.8438 24.75 -17.8125
Q21.1406 -20.7969 15.0938 -20.7969
L7.90625 -20.7969
L7.90625 -13.2812
L13.1875 -13.2812
Q16.8906 -13.2812 18.9375 -11.5156
Q21 -9.76562 23.4844 -3.21875
L25.0938 0.875
L2.98438 54.6875
L12.5 54.6875
L29.5938 11.9219
L46.6875 54.6875
L56.2031 54.6875
z
" id="BitstreamVeraSans-Roman-79"/>
   </defs>
   <g transform="translate(7.2 277.638125)scale(0.1 -0.1)">
    <use xlink:href="#BitstreamVeraSans-Roman-70"/>
    <use x="63.4765625" xlink:href="#BitstreamVeraSans-Roman-6d"/>
    <use x="160.888671875" xlink:href="#BitstreamVeraSans-Roman-61"/>
    <use x="222.16796875" xlink:href="#BitstreamVeraSans-Roman-67"/>
    <use x="285.64453125" xlink:href="#BitstreamVeraSans-Roman-70"/>
    <use x="349.12109375" xlink:href="#BitstreamVeraSans-Roman-79"/>
    <use x="406.55078125" xlink:href="#BitstreamVeraSans-Roman-2d"/>
    <use x="442.634765625" xlink:href="#BitstreamVeraSans-Roman-32"/>
    <use x="506.2578125" xlink:href="#BitstreamVeraSans-Roman-2e"/>
    <use x="538.044921875" xlink:href="#BitstreamVeraSans-Roman-32"/>
    <use x="601.66796875" xlink:href="#BitstreamVeraSans-Roman-32"/>
    <use x="665.291015625" xlink:href="#BitstreamVeraSans-Roman-30"/>
   </g>
  </g>
 </g>
 <defs>
  <clipPath id="pe37f9763ce">
   <rect height="223.2" width="334.8" x="52.56" y="21.318125"/>
  </clipPath>
 </defs>
</svg>
