<?xml version="1.0" encoding="utf-8" standalone="no"?>
<!DOCTYPE svg PUBLIC "-//W3C//DTD SVG 1.1//EN"
  "http://www.w3.org/Graphics/SVG/1.1/DTD/svg11.dtd">
<!-- Created with matplotlib (http://matplotlib.org/) -->
<svg height="291pt" version="1.1" viewBox="0 0 375 291" width="375pt" xmlns="http://www.w3.org/2000/svg" xmlns:xlink="http://www.w3.org/1999/xlink">
 <defs>
  <style type="text/css">
*{stroke-linecap:butt;stroke-linejoin:round;}
  </style>
 </defs>
 <g id="figure_1">
  <g id="patch_1">
   <path d="
M0 291.096
L375.917 291.096
L375.917 0
L0 0
z
" style="fill:none;"/>
  </g>
  <g id="axes_1">
   <g id="PathCollection_1">
    <defs>
     <path d="
M0 2.23607
C0.593012 2.23607 1.16182 2.00046 1.58114 1.58114
C2.00046 1.16182 2.23607 0.593012 2.23607 0
C2.23607 -0.593012 2.00046 -1.16182 1.58114 -1.58114
C1.16182 -2.00046 0.593012 -2.23607 0 -2.23607
C-0.593012 -2.23607 -1.16182 -2.00046 -1.58114 -1.58114
C-2.00046 -1.16182 -2.23607 -0.593012 -2.23607 0
C-2.23607 0.593012 -2.00046 1.16182 -1.58114 1.58114
C-1.16182 2.00046 -0.593012 2.23607 0 2.23607
z
" id="m8d6afaa045" style="stroke:#000000;"/>
    </defs>
    <g clip-path="url(#p0a85901212)">
     <use style="stroke:#000000;" x="235.883750058" xlink:href="#m8d6afaa045" y="205.604699451"/>
    </g>
   </g>
   <g id="PathCollection_2">
    <defs>
     <path d="
M0 2.23607
C0.593012 2.23607 1.16182 2.00046 1.58114 1.58114
C2.00046 1.16182 2.23607 0.593012 2.23607 0
C2.23607 -0.593012 2.00046 -1.16182 1.58114 -1.58114
C1.16182 -2.00046 0.593012 -2.23607 0 -2.23607
C-0.593012 -2.23607 -1.16182 -2.00046 -1.58114 -1.58114
C-2.00046 -1.16182 -2.23607 -0.593012 -2.23607 0
C-2.23607 0.593012 -2.00046 1.16182 -1.58114 1.58114
C-1.16182 2.00046 -0.593012 2.23607 0 2.23607
z
" id="m36ab973de9" style="stroke:#0000ff;"/>
    </defs>
    <g clip-path="url(#p0a85901212)">
     <use style="fill:#0000ff;stroke:#0000ff;" x="235.611162977" xlink:href="#m36ab973de9" y="205.264364119"/>
    </g>
   </g>
   <g id="line2d_1">
    <path clip-path="url(#p0a85901212)" d="
M187.958 60.3014
L192.431 60.4185
L196.892 60.7696
L201.328 61.3536
L205.728 62.169
L210.079 63.2136
L214.369 64.4844
L218.587 65.978
L222.721 67.6904
L226.76 69.6167
L230.692 71.7518
L234.507 74.0897
L238.195 76.6241
L241.744 79.348
L245.147 82.254
L248.393 85.334
L251.473 88.5797
L254.379 91.9822
L257.102 95.532
L259.637 99.2196
L261.975 103.035
L264.11 106.967
L266.036 111.006
L267.749 115.14
L269.242 119.357
L270.513 123.648
L271.558 127.999
L272.373 132.398
L272.957 136.834
L273.308 141.295
L273.425 145.768
L273.308 150.241
L272.957 154.702
L272.373 159.138
L271.558 163.538
L270.513 167.889
L269.242 172.179
L267.749 176.397
L266.036 180.531
L264.11 184.569
L261.975 188.501
L259.637 192.317
L257.102 196.004
L254.379 199.554
L251.473 202.957
L248.393 206.202
L245.147 209.282
L241.744 212.188
L238.195 214.912
L234.507 217.447
L230.692 219.784
L226.76 221.92
L222.721 223.846
L218.587 225.558
L214.369 227.052
L210.079 228.323
L205.728 229.367
L201.328 230.183
L196.892 230.767
L192.431 231.118
L187.958 231.235
L183.485 231.118
L179.025 230.767
L174.588 230.183
L170.189 229.367
L165.838 228.323
L161.548 227.052
L157.33 225.558
L153.196 223.846
L149.157 221.92
L145.225 219.784
L141.41 217.447
L137.722 214.912
L134.172 212.188
L130.77 209.282
L127.524 206.202
L124.444 202.957
L121.538 199.554
L118.814 196.004
L116.28 192.317
L113.942 188.501
L111.807 184.569
L109.881 180.531
L108.168 176.397
L106.675 172.179
L105.404 167.889
L104.359 163.538
L103.544 159.138
L102.96 154.702
L102.609 150.241
L102.492 145.768
L102.609 141.295
L102.96 136.834
L103.544 132.398
L104.359 127.999
L105.404 123.648
L106.675 119.357
L108.168 115.14
L109.881 111.006
L111.807 106.967
L113.942 103.035
L116.28 99.2196
L118.814 95.532
L121.538 91.9822
L124.444 88.5797
L127.524 85.334
L130.77 82.254
L134.172 79.348
L137.722 76.6241
L141.41 74.0897
L145.225 71.7518
L149.157 69.6167
L153.196 67.6904
L157.33 65.978
L161.548 64.4844
L165.838 63.2136
L170.189 62.169
L174.588 61.3536
L179.025 60.7696
L183.485 60.4185
L187.958 60.3014
L187.958 60.3014" style="fill:none;stroke:#000000;stroke-linecap:square;"/>
   </g>
   <g id="line2d_2">
    <defs>
     <path d="
M-3 0
L3 0
M0 3
L0 -3" id="m9d0eee4805" style="stroke:#000000;stroke-width:0.5;"/>
    </defs>
    <g clip-path="url(#p0a85901212)">
     <use style="stroke:#000000;stroke-width:0.5;" x="187.9584375" xlink:href="#m9d0eee4805" y="68.0755272345"/>
     <use style="stroke:#000000;stroke-width:0.5;" x="187.9584375" xlink:href="#m9d0eee4805" y="76.4409589414"/>
     <use style="stroke:#000000;stroke-width:0.5;" x="187.9584375" xlink:href="#m9d0eee4805" y="85.3340122428"/>
     <use style="stroke:#000000;stroke-width:0.5;" x="187.9584375" xlink:href="#m9d0eee4805" y="94.6870056334"/>
     <use style="stroke:#000000;stroke-width:0.5;" x="187.9584375" xlink:href="#m9d0eee4805" y="104.428757186"/>
     <use style="stroke:#000000;stroke-width:0.5;" x="187.9584375" xlink:href="#m9d0eee4805" y="114.485126289"/>
     <use style="stroke:#000000;stroke-width:0.5;" x="187.9584375" xlink:href="#m9d0eee4805" y="124.779577902"/>
     <use style="stroke:#000000;stroke-width:0.5;" x="187.9584375" xlink:href="#m9d0eee4805" y="135.233765031"/>
     <use style="stroke:#000000;stroke-width:0.5;" x="187.9584375" xlink:href="#m9d0eee4805" y="145.768125"/>
    </g>
   </g>
   <g id="line2d_3">
    <g clip-path="url(#p0a85901212)">
     <use style="stroke:#000000;stroke-width:0.5;" x="265.651035265" xlink:href="#m9d0eee4805" y="145.768125"/>
     <use style="stroke:#000000;stroke-width:0.5;" x="257.285603559" xlink:href="#m9d0eee4805" y="145.768125"/>
     <use style="stroke:#000000;stroke-width:0.5;" x="248.392550257" xlink:href="#m9d0eee4805" y="145.768125"/>
     <use style="stroke:#000000;stroke-width:0.5;" x="239.039556867" xlink:href="#m9d0eee4805" y="145.768125"/>
     <use style="stroke:#000000;stroke-width:0.5;" x="229.297805314" xlink:href="#m9d0eee4805" y="145.768125"/>
     <use style="stroke:#000000;stroke-width:0.5;" x="219.241436211" xlink:href="#m9d0eee4805" y="145.768125"/>
     <use style="stroke:#000000;stroke-width:0.5;" x="208.946984598" xlink:href="#m9d0eee4805" y="145.768125"/>
     <use style="stroke:#000000;stroke-width:0.5;" x="198.492797469" xlink:href="#m9d0eee4805" y="145.768125"/>
    </g>
   </g>
   <g id="line2d_4">
    <g clip-path="url(#p0a85901212)">
     <use style="stroke:#000000;stroke-width:0.5;" x="187.9584375" xlink:href="#m9d0eee4805" y="223.460722765"/>
     <use style="stroke:#000000;stroke-width:0.5;" x="187.9584375" xlink:href="#m9d0eee4805" y="215.095291059"/>
     <use style="stroke:#000000;stroke-width:0.5;" x="187.9584375" xlink:href="#m9d0eee4805" y="206.202237757"/>
     <use style="stroke:#000000;stroke-width:0.5;" x="187.9584375" xlink:href="#m9d0eee4805" y="196.849244367"/>
     <use style="stroke:#000000;stroke-width:0.5;" x="187.9584375" xlink:href="#m9d0eee4805" y="187.107492814"/>
     <use style="stroke:#000000;stroke-width:0.5;" x="187.9584375" xlink:href="#m9d0eee4805" y="177.051123711"/>
     <use style="stroke:#000000;stroke-width:0.5;" x="187.9584375" xlink:href="#m9d0eee4805" y="166.756672098"/>
     <use style="stroke:#000000;stroke-width:0.5;" x="187.9584375" xlink:href="#m9d0eee4805" y="156.302484969"/>
    </g>
   </g>
   <g id="line2d_5">
    <g clip-path="url(#p0a85901212)">
     <use style="stroke:#000000;stroke-width:0.5;" x="110.265839735" xlink:href="#m9d0eee4805" y="145.768125"/>
     <use style="stroke:#000000;stroke-width:0.5;" x="118.631271441" xlink:href="#m9d0eee4805" y="145.768125"/>
     <use style="stroke:#000000;stroke-width:0.5;" x="127.524324743" xlink:href="#m9d0eee4805" y="145.768125"/>
     <use style="stroke:#000000;stroke-width:0.5;" x="136.877318133" xlink:href="#m9d0eee4805" y="145.768125"/>
     <use style="stroke:#000000;stroke-width:0.5;" x="146.619069686" xlink:href="#m9d0eee4805" y="145.768125"/>
     <use style="stroke:#000000;stroke-width:0.5;" x="156.675438789" xlink:href="#m9d0eee4805" y="145.768125"/>
     <use style="stroke:#000000;stroke-width:0.5;" x="166.969890402" xlink:href="#m9d0eee4805" y="145.768125"/>
     <use style="stroke:#000000;stroke-width:0.5;" x="177.424077531" xlink:href="#m9d0eee4805" y="145.768125"/>
    </g>
   </g>
   <g id="line2d_6">
    <path clip-path="url(#p0a85901212)" d="
M187.958 60.3014
L187.958 61.0505
L187.958 61.806
L187.958 62.5679" style="fill:none;stroke:#000000;stroke-linecap:square;"/>
   </g>
   <g id="line2d_7">
    <path clip-path="url(#p0a85901212)" d="
M202.8 61.5998
L202.67 62.3375
L202.538 63.0816
L202.406 63.8319" style="fill:none;stroke:#000000;stroke-linecap:square;"/>
   </g>
   <g id="line2d_8">
    <path clip-path="url(#p0a85901212)" d="
M217.19 65.4557
L216.934 66.1596
L216.675 66.8695
L216.415 67.5855" style="fill:none;stroke:#000000;stroke-linecap:square;"/>
   </g>
   <g id="line2d_9">
    <path clip-path="url(#p0a85901212)" d="
M230.692 71.7518
L230.317 72.4005
L229.939 73.0548
L229.559 73.7146" style="fill:none;stroke:#000000;stroke-linecap:square;"/>
   </g>
   <g id="line2d_10">
    <path clip-path="url(#p0a85901212)" d="
M242.895 80.2968
L242.414 80.8706
L241.928 81.4494
L241.438 82.0331" style="fill:none;stroke:#000000;stroke-linecap:square;"/>
   </g>
   <g id="line2d_11">
    <path clip-path="url(#p0a85901212)" d="
M253.43 90.8312
L252.856 91.3127
L252.277 91.7983
L251.693 92.2881" style="fill:none;stroke:#000000;stroke-linecap:square;"/>
   </g>
   <g id="line2d_12">
    <path clip-path="url(#p0a85901212)" d="
M261.975 103.035
L261.326 103.409
L260.672 103.787
L260.012 104.168" style="fill:none;stroke:#000000;stroke-linecap:square;"/>
   </g>
   <g id="line2d_13">
    <path clip-path="url(#p0a85901212)" d="
M268.271 116.537
L267.567 116.793
L266.857 117.051
L266.141 117.312" style="fill:none;stroke:#000000;stroke-linecap:square;"/>
   </g>
   <g id="line2d_14">
    <path clip-path="url(#p0a85901212)" d="
M272.127 130.927
L271.389 131.057
L270.645 131.188
L269.895 131.321" style="fill:none;stroke:#000000;stroke-linecap:square;"/>
   </g>
   <g id="line2d_15">
    <path clip-path="url(#p0a85901212)" d="
M273.425 145.768
L272.676 145.768
L271.921 145.768
L271.159 145.768" style="fill:none;stroke:#000000;stroke-linecap:square;"/>
   </g>
   <g id="line2d_16">
    <path clip-path="url(#p0a85901212)" d="
M272.127 160.609
L271.389 160.479
L270.645 160.348
L269.895 160.216" style="fill:none;stroke:#000000;stroke-linecap:square;"/>
   </g>
   <g id="line2d_17">
    <path clip-path="url(#p0a85901212)" d="
M268.271 174.999
L267.567 174.743
L266.857 174.485
L266.141 174.224" style="fill:none;stroke:#000000;stroke-linecap:square;"/>
   </g>
   <g id="line2d_18">
    <path clip-path="url(#p0a85901212)" d="
M261.975 188.501
L261.326 188.127
L260.672 187.749
L260.012 187.368" style="fill:none;stroke:#000000;stroke-linecap:square;"/>
   </g>
   <g id="line2d_19">
    <path clip-path="url(#p0a85901212)" d="
M253.43 200.705
L252.856 200.224
L252.277 199.738
L251.693 199.248" style="fill:none;stroke:#000000;stroke-linecap:square;"/>
   </g>
   <g id="line2d_20">
    <path clip-path="url(#p0a85901212)" d="
M242.895 211.239
L242.414 210.666
L241.928 210.087
L241.438 209.503" style="fill:none;stroke:#000000;stroke-linecap:square;"/>
   </g>
   <g id="line2d_21">
    <path clip-path="url(#p0a85901212)" d="
M230.692 219.784
L230.317 219.136
L229.939 218.481
L229.559 217.822" style="fill:none;stroke:#000000;stroke-linecap:square;"/>
   </g>
   <g id="line2d_22">
    <path clip-path="url(#p0a85901212)" d="
M217.19 226.081
L216.934 225.377
L216.675 224.667
L216.415 223.951" style="fill:none;stroke:#000000;stroke-linecap:square;"/>
   </g>
   <g id="line2d_23">
    <path clip-path="url(#p0a85901212)" d="
M202.8 229.936
L202.67 229.199
L202.538 228.455
L202.406 227.704" style="fill:none;stroke:#000000;stroke-linecap:square;"/>
   </g>
   <g id="line2d_24">
    <path clip-path="url(#p0a85901212)" d="
M187.958 231.235
L187.958 230.486
L187.958 229.73
L187.958 228.968" style="fill:none;stroke:#000000;stroke-linecap:square;"/>
   </g>
   <g id="line2d_25">
    <path clip-path="url(#p0a85901212)" d="
M173.117 229.936
L173.247 229.199
L173.379 228.455
L173.511 227.704" style="fill:none;stroke:#000000;stroke-linecap:square;"/>
   </g>
   <g id="line2d_26">
    <path clip-path="url(#p0a85901212)" d="
M158.727 226.081
L158.983 225.377
L159.242 224.667
L159.502 223.951" style="fill:none;stroke:#000000;stroke-linecap:square;"/>
   </g>
   <g id="line2d_27">
    <path clip-path="url(#p0a85901212)" d="
M145.225 219.784
L145.6 219.136
L145.977 218.481
L146.358 217.822" style="fill:none;stroke:#000000;stroke-linecap:square;"/>
   </g>
   <g id="line2d_28">
    <path clip-path="url(#p0a85901212)" d="
M133.021 211.239
L133.503 210.666
L133.989 210.087
L134.478 209.503" style="fill:none;stroke:#000000;stroke-linecap:square;"/>
   </g>
   <g id="line2d_29">
    <path clip-path="url(#p0a85901212)" d="
M122.487 200.705
L123.061 200.224
L123.64 199.738
L124.223 199.248" style="fill:none;stroke:#000000;stroke-linecap:square;"/>
   </g>
   <g id="line2d_30">
    <path clip-path="url(#p0a85901212)" d="
M113.942 188.501
L114.591 188.127
L115.245 187.749
L115.905 187.368" style="fill:none;stroke:#000000;stroke-linecap:square;"/>
   </g>
   <g id="line2d_31">
    <path clip-path="url(#p0a85901212)" d="
M107.646 174.999
L108.35 174.743
L109.06 174.485
L109.776 174.224" style="fill:none;stroke:#000000;stroke-linecap:square;"/>
   </g>
   <g id="line2d_32">
    <path clip-path="url(#p0a85901212)" d="
M103.79 160.609
L104.528 160.479
L105.272 160.348
L106.022 160.216" style="fill:none;stroke:#000000;stroke-linecap:square;"/>
   </g>
   <g id="line2d_33">
    <path clip-path="url(#p0a85901212)" d="
M102.492 145.768
L103.241 145.768
L103.996 145.768
L104.758 145.768" style="fill:none;stroke:#000000;stroke-linecap:square;"/>
   </g>
   <g id="line2d_34">
    <path clip-path="url(#p0a85901212)" d="
M103.79 130.927
L104.528 131.057
L105.272 131.188
L106.022 131.321" style="fill:none;stroke:#000000;stroke-linecap:square;"/>
   </g>
   <g id="line2d_35">
    <path clip-path="url(#p0a85901212)" d="
M107.646 116.537
L108.35 116.793
L109.06 117.051
L109.776 117.312" style="fill:none;stroke:#000000;stroke-linecap:square;"/>
   </g>
   <g id="line2d_36">
    <path clip-path="url(#p0a85901212)" d="
M113.942 103.035
L114.591 103.409
L115.245 103.787
L115.905 104.168" style="fill:none;stroke:#000000;stroke-linecap:square;"/>
   </g>
   <g id="line2d_37">
    <path clip-path="url(#p0a85901212)" d="
M122.487 90.8312
L123.061 91.3127
L123.64 91.7983
L124.223 92.2881" style="fill:none;stroke:#000000;stroke-linecap:square;"/>
   </g>
   <g id="line2d_38">
    <path clip-path="url(#p0a85901212)" d="
M133.021 80.2968
L133.503 80.8706
L133.989 81.4494
L134.478 82.0331" style="fill:none;stroke:#000000;stroke-linecap:square;"/>
   </g>
   <g id="line2d_39">
    <path clip-path="url(#p0a85901212)" d="
M145.225 71.7518
L145.6 72.4005
L145.977 73.0548
L146.358 73.7146" style="fill:none;stroke:#000000;stroke-linecap:square;"/>
   </g>
   <g id="line2d_40">
    <path clip-path="url(#p0a85901212)" d="
M158.727 65.4557
L158.983 66.1596
L159.242 66.8695
L159.502 67.5855" style="fill:none;stroke:#000000;stroke-linecap:square;"/>
   </g>
   <g id="line2d_41">
    <path clip-path="url(#p0a85901212)" d="
M173.117 61.5998
L173.247 62.3375
L173.379 63.0816
L173.511 63.8319" style="fill:none;stroke:#000000;stroke-linecap:square;"/>
   </g>
   <g id="text_1">
    <!-- PW10-7d NRM oriented (black) and rotated (corrected; blue) -->
    <defs>
     <path id="BitstreamVeraSans-Roman-20"/>
     <path d="
M8.01562 75.875
L15.8281 75.875
Q23.1406 64.3594 26.7812 53.3125
Q30.4219 42.2812 30.4219 31.3906
Q30.4219 20.4531 26.7812 9.375
Q23.1406 -1.70312 15.8281 -13.1875
L8.01562 -13.1875
Q14.5 -2 17.7031 9.0625
Q20.9062 20.125 20.9062 31.3906
Q20.9062 42.6719 17.7031 53.6562
Q14.5 64.6562 8.01562 75.875" id="BitstreamVeraSans-Roman-29"/>
     <path d="
M31 75.875
Q24.4688 64.6562 21.2812 53.6562
Q18.1094 42.6719 18.1094 31.3906
Q18.1094 20.125 21.3125 9.0625
Q24.5156 -2 31 -13.1875
L23.1875 -13.1875
Q15.875 -1.70312 12.2344 9.375
Q8.59375 20.4531 8.59375 31.3906
Q8.59375 42.2812 12.2031 53.3125
Q15.8281 64.3594 23.1875 75.875
z
" id="BitstreamVeraSans-Roman-28"/>
     <path d="
M9.8125 72.9062
L23.0938 72.9062
L55.4219 11.9219
L55.4219 72.9062
L64.9844 72.9062
L64.9844 0
L51.7031 0
L19.3906 60.9844
L19.3906 0
L9.8125 0
z
" id="BitstreamVeraSans-Roman-4e"/>
     <path d="
M11.7188 51.7031
L22.0156 51.7031
L22.0156 39.3125
L11.7188 39.3125
z

M11.7188 12.4062
L22.0156 12.4062
L22.0156 4
L14.0156 -11.625
L7.71875 -11.625
L11.7188 4
z
" id="BitstreamVeraSans-Roman-3b"/>
     <path d="
M9.8125 72.9062
L24.5156 72.9062
L43.1094 23.2969
L61.8125 72.9062
L76.5156 72.9062
L76.5156 0
L66.8906 0
L66.8906 64.0156
L48.0938 14.0156
L38.1875 14.0156
L19.3906 64.0156
L19.3906 0
L9.8125 0
z
" id="BitstreamVeraSans-Roman-4d"/>
     <path d="
M9.42188 54.6875
L18.4062 54.6875
L18.4062 0
L9.42188 0
z

M9.42188 75.9844
L18.4062 75.9844
L18.4062 64.5938
L9.42188 64.5938
z
" id="BitstreamVeraSans-Roman-69"/>
     <path d="
M56.2031 29.5938
L56.2031 25.2031
L14.8906 25.2031
Q15.4844 15.9219 20.4844 11.0625
Q25.4844 6.20312 34.4219 6.20312
Q39.5938 6.20312 44.4531 7.46875
Q49.3125 8.73438 54.1094 11.2812
L54.1094 2.78125
Q49.2656 0.734375 44.1875 -0.34375
Q39.1094 -1.42188 33.8906 -1.42188
Q20.7969 -1.42188 13.1562 6.1875
Q5.51562 13.8125 5.51562 26.8125
Q5.51562 40.2344 12.7656 48.1094
Q20.0156 56 32.3281 56
Q43.3594 56 49.7812 48.8906
Q56.2031 41.7969 56.2031 29.5938
M47.2188 32.2344
Q47.125 39.5938 43.0938 43.9844
Q39.0625 48.3906 32.4219 48.3906
Q24.9062 48.3906 20.3906 44.1406
Q15.875 39.8906 15.1875 32.1719
z
" id="BitstreamVeraSans-Roman-65"/>
     <path d="
M45.4062 46.3906
L45.4062 75.9844
L54.3906 75.9844
L54.3906 0
L45.4062 0
L45.4062 8.20312
Q42.5781 3.32812 38.25 0.953125
Q33.9375 -1.42188 27.875 -1.42188
Q17.9688 -1.42188 11.7344 6.48438
Q5.51562 14.4062 5.51562 27.2969
Q5.51562 40.1875 11.7344 48.0938
Q17.9688 56 27.875 56
Q33.9375 56 38.25 53.625
Q42.5781 51.2656 45.4062 46.3906
M14.7969 27.2969
Q14.7969 17.3906 18.875 11.75
Q22.9531 6.10938 30.0781 6.10938
Q37.2031 6.10938 41.2969 11.75
Q45.4062 17.3906 45.4062 27.2969
Q45.4062 37.2031 41.2969 42.8438
Q37.2031 48.4844 30.0781 48.4844
Q22.9531 48.4844 18.875 42.8438
Q14.7969 37.2031 14.7969 27.2969" id="BitstreamVeraSans-Roman-64"/>
     <path d="
M34.2812 27.4844
Q23.3906 27.4844 19.1875 25
Q14.9844 22.5156 14.9844 16.5
Q14.9844 11.7188 18.1406 8.90625
Q21.2969 6.10938 26.7031 6.10938
Q34.1875 6.10938 38.7031 11.4062
Q43.2188 16.7031 43.2188 25.4844
L43.2188 27.4844
z

M52.2031 31.2031
L52.2031 0
L43.2188 0
L43.2188 8.29688
Q40.1406 3.32812 35.5469 0.953125
Q30.9531 -1.42188 24.3125 -1.42188
Q15.9219 -1.42188 10.9531 3.29688
Q6 8.01562 6 15.9219
Q6 25.1406 12.1719 29.8281
Q18.3594 34.5156 30.6094 34.5156
L43.2188 34.5156
L43.2188 35.4062
Q43.2188 41.6094 39.1406 45
Q35.0625 48.3906 27.6875 48.3906
Q23 48.3906 18.5469 47.2656
Q14.1094 46.1406 10.0156 43.8906
L10.0156 52.2031
Q14.9375 54.1094 19.5781 55.0469
Q24.2188 56 28.6094 56
Q40.4844 56 46.3438 49.8438
Q52.2031 43.7031 52.2031 31.2031" id="BitstreamVeraSans-Roman-61"/>
     <path d="
M48.7812 52.5938
L48.7812 44.1875
Q44.9688 46.2969 41.1406 47.3438
Q37.3125 48.3906 33.4062 48.3906
Q24.6562 48.3906 19.8125 42.8438
Q14.9844 37.3125 14.9844 27.2969
Q14.9844 17.2812 19.8125 11.7344
Q24.6562 6.20312 33.4062 6.20312
Q37.3125 6.20312 41.1406 7.25
Q44.9688 8.29688 48.7812 10.4062
L48.7812 2.09375
Q45.0156 0.34375 40.9844 -0.53125
Q36.9688 -1.42188 32.4219 -1.42188
Q20.0625 -1.42188 12.7812 6.34375
Q5.51562 14.1094 5.51562 27.2969
Q5.51562 40.6719 12.8594 48.3281
Q20.2188 56 33.0156 56
Q37.1562 56 41.1094 55.1406
Q45.0625 54.2969 48.7812 52.5938" id="BitstreamVeraSans-Roman-63"/>
     <path d="
M48.6875 27.2969
Q48.6875 37.2031 44.6094 42.8438
Q40.5312 48.4844 33.4062 48.4844
Q26.2656 48.4844 22.1875 42.8438
Q18.1094 37.2031 18.1094 27.2969
Q18.1094 17.3906 22.1875 11.75
Q26.2656 6.10938 33.4062 6.10938
Q40.5312 6.10938 44.6094 11.75
Q48.6875 17.3906 48.6875 27.2969
M18.1094 46.3906
Q20.9531 51.2656 25.2656 53.625
Q29.5938 56 35.5938 56
Q45.5625 56 51.7812 48.0938
Q58.0156 40.1875 58.0156 27.2969
Q58.0156 14.4062 51.7812 6.48438
Q45.5625 -1.42188 35.5938 -1.42188
Q29.5938 -1.42188 25.2656 0.953125
Q20.9531 3.32812 18.1094 8.20312
L18.1094 0
L9.07812 0
L9.07812 75.9844
L18.1094 75.9844
z
" id="BitstreamVeraSans-Roman-62"/>
     <path d="
M31.7812 66.4062
Q24.1719 66.4062 20.3281 58.9062
Q16.5 51.4219 16.5 36.375
Q16.5 21.3906 20.3281 13.8906
Q24.1719 6.39062 31.7812 6.39062
Q39.4531 6.39062 43.2812 13.8906
Q47.125 21.3906 47.125 36.375
Q47.125 51.4219 43.2812 58.9062
Q39.4531 66.4062 31.7812 66.4062
M31.7812 74.2188
Q44.0469 74.2188 50.5156 64.5156
Q56.9844 54.8281 56.9844 36.375
Q56.9844 17.9688 50.5156 8.26562
Q44.0469 -1.42188 31.7812 -1.42188
Q19.5312 -1.42188 13.0625 8.26562
Q6.59375 17.9688 6.59375 36.375
Q6.59375 54.8281 13.0625 64.5156
Q19.5312 74.2188 31.7812 74.2188" id="BitstreamVeraSans-Roman-30"/>
     <path d="
M12.4062 8.29688
L28.5156 8.29688
L28.5156 63.9219
L10.9844 60.4062
L10.9844 69.3906
L28.4219 72.9062
L38.2812 72.9062
L38.2812 8.29688
L54.3906 8.29688
L54.3906 0
L12.4062 0
z
" id="BitstreamVeraSans-Roman-31"/>
     <path d="
M8.20312 72.9062
L55.0781 72.9062
L55.0781 68.7031
L28.6094 0
L18.3125 0
L43.2188 64.5938
L8.20312 64.5938
z
" id="BitstreamVeraSans-Roman-37"/>
     <path d="
M54.8906 33.0156
L54.8906 0
L45.9062 0
L45.9062 32.7188
Q45.9062 40.4844 42.875 44.3281
Q39.8438 48.1875 33.7969 48.1875
Q26.5156 48.1875 22.3125 43.5469
Q18.1094 38.9219 18.1094 30.9062
L18.1094 0
L9.07812 0
L9.07812 54.6875
L18.1094 54.6875
L18.1094 46.1875
Q21.3438 51.125 25.7031 53.5625
Q30.0781 56 35.7969 56
Q45.2188 56 50.0469 50.1719
Q54.8906 44.3438 54.8906 33.0156" id="BitstreamVeraSans-Roman-6e"/>
     <path d="
M30.6094 48.3906
Q23.3906 48.3906 19.1875 42.75
Q14.9844 37.1094 14.9844 27.2969
Q14.9844 17.4844 19.1562 11.8438
Q23.3438 6.20312 30.6094 6.20312
Q37.7969 6.20312 41.9844 11.8594
Q46.1875 17.5312 46.1875 27.2969
Q46.1875 37.0156 41.9844 42.7031
Q37.7969 48.3906 30.6094 48.3906
M30.6094 56
Q42.3281 56 49.0156 48.375
Q55.7188 40.7656 55.7188 27.2969
Q55.7188 13.875 49.0156 6.21875
Q42.3281 -1.42188 30.6094 -1.42188
Q18.8438 -1.42188 12.1719 6.21875
Q5.51562 13.875 5.51562 27.2969
Q5.51562 40.7656 12.1719 48.375
Q18.8438 56 30.6094 56" id="BitstreamVeraSans-Roman-6f"/>
     <path d="
M9.42188 75.9844
L18.4062 75.9844
L18.4062 0
L9.42188 0
z
" id="BitstreamVeraSans-Roman-6c"/>
     <path d="
M9.07812 75.9844
L18.1094 75.9844
L18.1094 31.1094
L44.9219 54.6875
L56.3906 54.6875
L27.3906 29.1094
L57.625 0
L45.9062 0
L18.1094 26.7031
L18.1094 0
L9.07812 0
z
" id="BitstreamVeraSans-Roman-6b"/>
     <path d="
M19.6719 64.7969
L19.6719 37.4062
L32.0781 37.4062
Q38.9688 37.4062 42.7188 40.9688
Q46.4844 44.5312 46.4844 51.125
Q46.4844 57.6719 42.7188 61.2344
Q38.9688 64.7969 32.0781 64.7969
z

M9.8125 72.9062
L32.0781 72.9062
Q44.3438 72.9062 50.6094 67.3594
Q56.8906 61.8125 56.8906 51.125
Q56.8906 40.3281 50.6094 34.8125
Q44.3438 29.2969 32.0781 29.2969
L19.6719 29.2969
L19.6719 0
L9.8125 0
z
" id="BitstreamVeraSans-Roman-50"/>
     <path d="
M44.3906 34.1875
Q47.5625 33.1094 50.5625 29.5938
Q53.5625 26.0781 56.5938 19.9219
L66.6094 0
L56 0
L46.6875 18.7031
Q43.0625 26.0312 39.6719 28.4219
Q36.2812 30.8125 30.4219 30.8125
L19.6719 30.8125
L19.6719 0
L9.8125 0
L9.8125 72.9062
L32.0781 72.9062
Q44.5781 72.9062 50.7344 67.6719
Q56.8906 62.4531 56.8906 51.9062
Q56.8906 45.0156 53.6875 40.4688
Q50.4844 35.9375 44.3906 34.1875
M19.6719 64.7969
L19.6719 38.9219
L32.0781 38.9219
Q39.2031 38.9219 42.8438 42.2188
Q46.4844 45.5156 46.4844 51.9062
Q46.4844 58.2969 42.8438 61.5469
Q39.2031 64.7969 32.0781 64.7969
z
" id="BitstreamVeraSans-Roman-52"/>
     <path d="
M4.89062 31.3906
L31.2031 31.3906
L31.2031 23.3906
L4.89062 23.3906
z
" id="BitstreamVeraSans-Roman-2d"/>
     <path d="
M3.32812 72.9062
L13.2812 72.9062
L28.6094 11.2812
L43.8906 72.9062
L54.9844 72.9062
L70.3125 11.2812
L85.5938 72.9062
L95.6094 72.9062
L77.2969 0
L64.8906 0
L49.5156 63.2812
L33.9844 0
L21.5781 0
z
" id="BitstreamVeraSans-Roman-57"/>
     <path d="
M18.3125 70.2188
L18.3125 54.6875
L36.8125 54.6875
L36.8125 47.7031
L18.3125 47.7031
L18.3125 18.0156
Q18.3125 11.3281 20.1406 9.42188
Q21.9688 7.51562 27.5938 7.51562
L36.8125 7.51562
L36.8125 0
L27.5938 0
Q17.1875 0 13.2344 3.875
Q9.28125 7.76562 9.28125 18.0156
L9.28125 47.7031
L2.6875 47.7031
L2.6875 54.6875
L9.28125 54.6875
L9.28125 70.2188
z
" id="BitstreamVeraSans-Roman-74"/>
     <path d="
M8.5 21.5781
L8.5 54.6875
L17.4844 54.6875
L17.4844 21.9219
Q17.4844 14.1562 20.5 10.2656
Q23.5312 6.39062 29.5938 6.39062
Q36.8594 6.39062 41.0781 11.0312
Q45.3125 15.6719 45.3125 23.6875
L45.3125 54.6875
L54.2969 54.6875
L54.2969 0
L45.3125 0
L45.3125 8.40625
Q42.0469 3.42188 37.7188 1
Q33.4062 -1.42188 27.6875 -1.42188
Q18.2656 -1.42188 13.375 4.4375
Q8.5 10.2969 8.5 21.5781" id="BitstreamVeraSans-Roman-75"/>
     <path d="
M41.1094 46.2969
Q39.5938 47.1719 37.8125 47.5781
Q36.0312 48 33.8906 48
Q26.2656 48 22.1875 43.0469
Q18.1094 38.0938 18.1094 28.8125
L18.1094 0
L9.07812 0
L9.07812 54.6875
L18.1094 54.6875
L18.1094 46.1875
Q20.9531 51.1719 25.4844 53.5781
Q30.0312 56 36.5312 56
Q37.4531 56 38.5781 55.875
Q39.7031 55.7656 41.0625 55.5156
z
" id="BitstreamVeraSans-Roman-72"/>
    </defs>
    <g transform="translate(7.2 16.318125)scale(0.12 -0.12)">
     <use xlink:href="#BitstreamVeraSans-Roman-50"/>
     <use x="60.302734375" xlink:href="#BitstreamVeraSans-Roman-57"/>
     <use x="159.1796875" xlink:href="#BitstreamVeraSans-Roman-31"/>
     <use x="222.802734375" xlink:href="#BitstreamVeraSans-Roman-30"/>
     <use x="286.42578125" xlink:href="#BitstreamVeraSans-Roman-2d"/>
     <use x="322.509765625" xlink:href="#BitstreamVeraSans-Roman-37"/>
     <use x="386.1328125" xlink:href="#BitstreamVeraSans-Roman-64"/>
     <use x="449.609375" xlink:href="#BitstreamVeraSans-Roman-20"/>
     <use x="481.396484375" xlink:href="#BitstreamVeraSans-Roman-4e"/>
     <use x="556.201171875" xlink:href="#BitstreamVeraSans-Roman-52"/>
     <use x="625.68359375" xlink:href="#BitstreamVeraSans-Roman-4d"/>
     <use x="711.962890625" xlink:href="#BitstreamVeraSans-Roman-20"/>
     <use x="743.75" xlink:href="#BitstreamVeraSans-Roman-6f"/>
     <use x="804.931640625" xlink:href="#BitstreamVeraSans-Roman-72"/>
     <use x="846.044921875" xlink:href="#BitstreamVeraSans-Roman-69"/>
     <use x="873.828125" xlink:href="#BitstreamVeraSans-Roman-65"/>
     <use x="935.3515625" xlink:href="#BitstreamVeraSans-Roman-6e"/>
     <use x="998.73046875" xlink:href="#BitstreamVeraSans-Roman-74"/>
     <use x="1037.93945312" xlink:href="#BitstreamVeraSans-Roman-65"/>
     <use x="1099.46289062" xlink:href="#BitstreamVeraSans-Roman-64"/>
     <use x="1162.93945312" xlink:href="#BitstreamVeraSans-Roman-20"/>
     <use x="1194.7265625" xlink:href="#BitstreamVeraSans-Roman-28"/>
     <use x="1233.74023438" xlink:href="#BitstreamVeraSans-Roman-62"/>
     <use x="1297.21679688" xlink:href="#BitstreamVeraSans-Roman-6c"/>
     <use x="1325.0" xlink:href="#BitstreamVeraSans-Roman-61"/>
     <use x="1386.27929688" xlink:href="#BitstreamVeraSans-Roman-63"/>
     <use x="1441.25976562" xlink:href="#BitstreamVeraSans-Roman-6b"/>
     <use x="1499.16992188" xlink:href="#BitstreamVeraSans-Roman-29"/>
     <use x="1538.18359375" xlink:href="#BitstreamVeraSans-Roman-20"/>
     <use x="1569.97070312" xlink:href="#BitstreamVeraSans-Roman-61"/>
     <use x="1631.25" xlink:href="#BitstreamVeraSans-Roman-6e"/>
     <use x="1694.62890625" xlink:href="#BitstreamVeraSans-Roman-64"/>
     <use x="1758.10546875" xlink:href="#BitstreamVeraSans-Roman-20"/>
     <use x="1789.89257812" xlink:href="#BitstreamVeraSans-Roman-72"/>
     <use x="1828.75585938" xlink:href="#BitstreamVeraSans-Roman-6f"/>
     <use x="1889.9375" xlink:href="#BitstreamVeraSans-Roman-74"/>
     <use x="1929.14648438" xlink:href="#BitstreamVeraSans-Roman-61"/>
     <use x="1990.42578125" xlink:href="#BitstreamVeraSans-Roman-74"/>
     <use x="2029.63476562" xlink:href="#BitstreamVeraSans-Roman-65"/>
     <use x="2091.15820312" xlink:href="#BitstreamVeraSans-Roman-64"/>
     <use x="2154.63476562" xlink:href="#BitstreamVeraSans-Roman-20"/>
     <use x="2186.421875" xlink:href="#BitstreamVeraSans-Roman-28"/>
     <use x="2225.43554688" xlink:href="#BitstreamVeraSans-Roman-63"/>
     <use x="2280.41601562" xlink:href="#BitstreamVeraSans-Roman-6f"/>
     <use x="2341.59765625" xlink:href="#BitstreamVeraSans-Roman-72"/>
     <use x="2380.9609375" xlink:href="#BitstreamVeraSans-Roman-72"/>
     <use x="2419.82421875" xlink:href="#BitstreamVeraSans-Roman-65"/>
     <use x="2481.34765625" xlink:href="#BitstreamVeraSans-Roman-63"/>
     <use x="2536.328125" xlink:href="#BitstreamVeraSans-Roman-74"/>
     <use x="2575.53710938" xlink:href="#BitstreamVeraSans-Roman-65"/>
     <use x="2637.06054688" xlink:href="#BitstreamVeraSans-Roman-64"/>
     <use x="2700.53710938" xlink:href="#BitstreamVeraSans-Roman-3b"/>
     <use x="2734.22851562" xlink:href="#BitstreamVeraSans-Roman-20"/>
     <use x="2766.015625" xlink:href="#BitstreamVeraSans-Roman-62"/>
     <use x="2829.4921875" xlink:href="#BitstreamVeraSans-Roman-6c"/>
     <use x="2857.27539062" xlink:href="#BitstreamVeraSans-Roman-75"/>
     <use x="2920.65429688" xlink:href="#BitstreamVeraSans-Roman-65"/>
     <use x="2982.17773438" xlink:href="#BitstreamVeraSans-Roman-29"/>
    </g>
   </g>
  </g>
 </g>
 <defs>
  <clipPath id="p0a85901212">
   <rect height="248.9" width="239.646875" x="68.135" y="21.318125"/>
  </clipPath>
 </defs>
</svg>
