<?xml version="1.0" encoding="utf-8" standalone="no"?>
<!DOCTYPE svg PUBLIC "-//W3C//DTD SVG 1.1//EN"
  "http://www.w3.org/Graphics/SVG/1.1/DTD/svg11.dtd">
<!-- Created with matplotlib (http://matplotlib.org/) -->
<svg height="291pt" version="1.1" viewBox="0 0 311 291" width="311pt" xmlns="http://www.w3.org/2000/svg" xmlns:xlink="http://www.w3.org/1999/xlink">
 <defs>
  <style type="text/css">
*{stroke-linecap:butt;stroke-linejoin:round;}
  </style>
 </defs>
 <g id="figure_1">
  <g id="patch_1">
   <path d="
M0 291.096
L311.046 291.096
L311.046 0
L0 0
z
" style="fill:none;"/>
  </g>
  <g id="axes_1">
   <g id="PathCollection_1">
    <defs>
     <path d="
M0 2.23607
C0.593012 2.23607 1.16182 2.00046 1.58114 1.58114
C2.00046 1.16182 2.23607 0.593012 2.23607 0
C2.23607 -0.593012 2.00046 -1.16182 1.58114 -1.58114
C1.16182 -2.00046 0.593012 -2.23607 0 -2.23607
C-0.593012 -2.23607 -1.16182 -2.00046 -1.58114 -1.58114
C-2.00046 -1.16182 -2.23607 -0.593012 -2.23607 0
C-2.23607 0.593012 -2.00046 1.16182 -1.58114 1.58114
C-1.16182 2.00046 -0.593012 2.23607 0 2.23607
z
" id="m8d6afaa045" style="stroke:#000000;"/>
    </defs>
    <g clip-path="url(#pf6dc1569cc)">
     <use style="stroke:#000000;" x="155.911495931" xlink:href="#m8d6afaa045" y="127.391762768"/>
    </g>
   </g>
   <g id="PathCollection_2">
    <defs>
     <path d="
M0 2.23607
C0.593012 2.23607 1.16182 2.00046 1.58114 1.58114
C2.00046 1.16182 2.23607 0.593012 2.23607 0
C2.23607 -0.593012 2.00046 -1.16182 1.58114 -1.58114
C1.16182 -2.00046 0.593012 -2.23607 0 -2.23607
C-0.593012 -2.23607 -1.16182 -2.00046 -1.58114 -1.58114
C-2.00046 -1.16182 -2.23607 -0.593012 -2.23607 0
C-2.23607 0.593012 -2.00046 1.16182 -1.58114 1.58114
C-1.16182 2.00046 -0.593012 2.23607 0 2.23607
z
" id="m36ab973de9" style="stroke:#0000ff;"/>
    </defs>
    <g clip-path="url(#pf6dc1569cc)">
     <use style="fill:#0000ff;stroke:#0000ff;" x="138.499387967" xlink:href="#m36ab973de9" y="151.656111199"/>
    </g>
   </g>
   <g id="line2d_1">
    <path clip-path="url(#pf6dc1569cc)" d="
M155.523 60.3215
L159.995 60.4386
L164.454 60.7896
L168.89 61.3735
L173.288 62.1887
L177.638 63.233
L181.927 64.5035
L186.144 65.9968
L190.277 67.7087
L194.315 69.6346
L198.246 71.7692
L202.06 74.1065
L205.747 76.6403
L209.296 79.3636
L212.698 82.2689
L215.943 85.3482
L219.022 88.5932
L221.927 91.9948
L224.651 95.5439
L227.184 99.2305
L229.522 103.045
L231.656 106.976
L233.582 111.014
L235.294 115.147
L236.787 119.364
L238.058 123.653
L239.102 128.003
L239.917 132.401
L240.501 136.837
L240.852 141.296
L240.969 145.768
L240.852 150.24
L240.501 154.7
L239.917 159.135
L239.102 163.533
L238.058 167.883
L236.787 172.173
L235.294 176.389
L233.582 180.522
L231.656 184.56
L229.522 188.491
L227.184 192.306
L224.651 195.992
L221.927 199.541
L219.022 202.943
L215.943 206.188
L212.698 209.267
L209.296 212.173
L205.747 214.896
L202.06 217.43
L198.246 219.767
L194.315 221.902
L190.277 223.828
L186.144 225.539
L181.927 227.033
L177.638 228.303
L173.288 229.348
L168.89 230.163
L164.454 230.747
L159.995 231.098
L155.523 231.215
L151.051 231.098
L146.591 230.747
L142.156 230.163
L137.757 229.348
L133.408 228.303
L129.118 227.033
L124.901 225.539
L120.769 223.828
L116.731 221.902
L112.799 219.767
L108.985 217.43
L105.299 214.896
L101.749 212.173
L98.3479 209.267
L95.1029 206.188
L92.0236 202.943
L89.1183 199.541
L86.395 195.992
L83.8612 192.306
L81.5239 188.491
L79.3893 184.56
L77.4634 180.522
L75.7515 176.389
L74.2582 172.173
L72.9877 167.883
L71.9434 163.533
L71.1282 159.135
L70.5443 154.7
L70.1933 150.24
L70.0762 145.768
L70.1933 141.296
L70.5443 136.837
L71.1282 132.401
L71.9434 128.003
L72.9877 123.653
L74.2582 119.364
L75.7515 115.147
L77.4634 111.014
L79.3893 106.976
L81.5239 103.045
L83.8612 99.2305
L86.395 95.5439
L89.1183 91.9948
L92.0236 88.5932
L95.1029 85.3482
L98.3479 82.2689
L101.749 79.3636
L105.299 76.6403
L108.985 74.1065
L112.799 71.7692
L116.731 69.6346
L120.769 67.7087
L124.901 65.9968
L129.118 64.5035
L133.408 63.233
L137.757 62.1887
L142.156 61.3735
L146.591 60.7896
L151.051 60.4386
L155.523 60.3215
L155.523 60.3215" style="fill:none;stroke:#000000;stroke-linecap:square;"/>
   </g>
   <g id="line2d_2">
    <defs>
     <path d="
M-3 0
L3 0
M0 3
L0 -3" id="m9d0eee4805" style="stroke:#000000;stroke-width:0.5;"/>
    </defs>
    <g clip-path="url(#pf6dc1569cc)">
     <use style="stroke:#000000;stroke-width:0.5;" x="155.5228125" xlink:href="#m9d0eee4805" y="68.0938004268"/>
     <use style="stroke:#000000;stroke-width:0.5;" x="155.5228125" xlink:href="#m9d0eee4805" y="76.4572645956"/>
     <use style="stroke:#000000;stroke-width:0.5;" x="155.5228125" xlink:href="#m9d0eee4805" y="85.3482262631"/>
     <use style="stroke:#000000;stroke-width:0.5;" x="155.5228125" xlink:href="#m9d0eee4805" y="94.6990198425"/>
     <use style="stroke:#000000;stroke-width:0.5;" x="155.5228125" xlink:href="#m9d0eee4805" y="104.438480149"/>
     <use style="stroke:#000000;stroke-width:0.5;" x="155.5228125" xlink:href="#m9d0eee4805" y="114.492484007"/>
     <use style="stroke:#000000;stroke-width:0.5;" x="155.5228125" xlink:href="#m9d0eee4805" y="124.784514379"/>
     <use style="stroke:#000000;stroke-width:0.5;" x="155.5228125" xlink:href="#m9d0eee4805" y="135.236242698"/>
     <use style="stroke:#000000;stroke-width:0.5;" x="155.5228125" xlink:href="#m9d0eee4805" y="145.768125"/>
    </g>
   </g>
   <g id="line2d_3">
    <g clip-path="url(#pf6dc1569cc)">
     <use style="stroke:#000000;stroke-width:0.5;" x="233.197137073" xlink:href="#m9d0eee4805" y="145.768125"/>
     <use style="stroke:#000000;stroke-width:0.5;" x="224.833672904" xlink:href="#m9d0eee4805" y="145.768125"/>
     <use style="stroke:#000000;stroke-width:0.5;" x="215.942711237" xlink:href="#m9d0eee4805" y="145.768125"/>
     <use style="stroke:#000000;stroke-width:0.5;" x="206.591917657" xlink:href="#m9d0eee4805" y="145.768125"/>
     <use style="stroke:#000000;stroke-width:0.5;" x="196.852457351" xlink:href="#m9d0eee4805" y="145.768125"/>
     <use style="stroke:#000000;stroke-width:0.5;" x="186.798453493" xlink:href="#m9d0eee4805" y="145.768125"/>
     <use style="stroke:#000000;stroke-width:0.5;" x="176.506423121" xlink:href="#m9d0eee4805" y="145.768125"/>
     <use style="stroke:#000000;stroke-width:0.5;" x="166.054694802" xlink:href="#m9d0eee4805" y="145.768125"/>
    </g>
   </g>
   <g id="line2d_4">
    <g clip-path="url(#pf6dc1569cc)">
     <use style="stroke:#000000;stroke-width:0.5;" x="155.5228125" xlink:href="#m9d0eee4805" y="223.442449573"/>
     <use style="stroke:#000000;stroke-width:0.5;" x="155.5228125" xlink:href="#m9d0eee4805" y="215.078985404"/>
     <use style="stroke:#000000;stroke-width:0.5;" x="155.5228125" xlink:href="#m9d0eee4805" y="206.188023737"/>
     <use style="stroke:#000000;stroke-width:0.5;" x="155.5228125" xlink:href="#m9d0eee4805" y="196.837230157"/>
     <use style="stroke:#000000;stroke-width:0.5;" x="155.5228125" xlink:href="#m9d0eee4805" y="187.097769851"/>
     <use style="stroke:#000000;stroke-width:0.5;" x="155.5228125" xlink:href="#m9d0eee4805" y="177.043765993"/>
     <use style="stroke:#000000;stroke-width:0.5;" x="155.5228125" xlink:href="#m9d0eee4805" y="166.751735621"/>
     <use style="stroke:#000000;stroke-width:0.5;" x="155.5228125" xlink:href="#m9d0eee4805" y="156.300007302"/>
    </g>
   </g>
   <g id="line2d_5">
    <g clip-path="url(#pf6dc1569cc)">
     <use style="stroke:#000000;stroke-width:0.5;" x="77.8484879268" xlink:href="#m9d0eee4805" y="145.768125"/>
     <use style="stroke:#000000;stroke-width:0.5;" x="86.2119520956" xlink:href="#m9d0eee4805" y="145.768125"/>
     <use style="stroke:#000000;stroke-width:0.5;" x="95.1029137631" xlink:href="#m9d0eee4805" y="145.768125"/>
     <use style="stroke:#000000;stroke-width:0.5;" x="104.453707343" xlink:href="#m9d0eee4805" y="145.768125"/>
     <use style="stroke:#000000;stroke-width:0.5;" x="114.193167649" xlink:href="#m9d0eee4805" y="145.768125"/>
     <use style="stroke:#000000;stroke-width:0.5;" x="124.247171507" xlink:href="#m9d0eee4805" y="145.768125"/>
     <use style="stroke:#000000;stroke-width:0.5;" x="134.539201879" xlink:href="#m9d0eee4805" y="145.768125"/>
     <use style="stroke:#000000;stroke-width:0.5;" x="144.990930198" xlink:href="#m9d0eee4805" y="145.768125"/>
    </g>
   </g>
   <g id="line2d_6">
    <path clip-path="url(#pf6dc1569cc)" d="
M155.523 60.3215
L155.523 61.0704
L155.523 61.8257
L155.523 62.5875" style="fill:none;stroke:#000000;stroke-linecap:square;"/>
   </g>
   <g id="line2d_7">
    <path clip-path="url(#pf6dc1569cc)" d="
M170.36 61.6196
L170.23 62.3571
L170.099 63.101
L169.967 63.8512" style="fill:none;stroke:#000000;stroke-linecap:square;"/>
   </g>
   <g id="line2d_8">
    <path clip-path="url(#pf6dc1569cc)" d="
M184.747 65.4745
L184.491 66.1783
L184.233 66.8881
L183.972 67.6039" style="fill:none;stroke:#000000;stroke-linecap:square;"/>
   </g>
   <g id="line2d_9">
    <path clip-path="url(#pf6dc1569cc)" d="
M198.246 71.7692
L197.872 72.4177
L197.494 73.0719
L197.113 73.7316" style="fill:none;stroke:#000000;stroke-linecap:square;"/>
   </g>
   <g id="line2d_10">
    <path clip-path="url(#pf6dc1569cc)" d="
M210.447 80.3122
L209.965 80.8859
L209.48 81.4645
L208.99 82.0481" style="fill:none;stroke:#000000;stroke-linecap:square;"/>
   </g>
   <g id="line2d_11">
    <path clip-path="url(#pf6dc1569cc)" d="
M220.979 90.8441
L220.405 91.3255
L219.826 91.811
L219.243 92.3006" style="fill:none;stroke:#000000;stroke-linecap:square;"/>
   </g>
   <g id="line2d_12">
    <path clip-path="url(#pf6dc1569cc)" d="
M229.522 103.045
L228.873 103.419
L228.219 103.797
L227.559 104.178" style="fill:none;stroke:#000000;stroke-linecap:square;"/>
   </g>
   <g id="line2d_13">
    <path clip-path="url(#pf6dc1569cc)" d="
M235.816 116.544
L235.113 116.8
L234.403 117.058
L233.687 117.319" style="fill:none;stroke:#000000;stroke-linecap:square;"/>
   </g>
   <g id="line2d_14">
    <path clip-path="url(#pf6dc1569cc)" d="
M239.671 130.93
L238.934 131.061
L238.19 131.192
L237.44 131.324" style="fill:none;stroke:#000000;stroke-linecap:square;"/>
   </g>
   <g id="line2d_15">
    <path clip-path="url(#pf6dc1569cc)" d="
M240.969 145.768
L240.221 145.768
L239.465 145.768
L238.703 145.768" style="fill:none;stroke:#000000;stroke-linecap:square;"/>
   </g>
   <g id="line2d_16">
    <path clip-path="url(#pf6dc1569cc)" d="
M239.671 160.606
L238.934 160.476
L238.19 160.345
L237.44 160.212" style="fill:none;stroke:#000000;stroke-linecap:square;"/>
   </g>
   <g id="line2d_17">
    <path clip-path="url(#pf6dc1569cc)" d="
M235.816 174.993
L235.113 174.736
L234.403 174.478
L233.687 174.218" style="fill:none;stroke:#000000;stroke-linecap:square;"/>
   </g>
   <g id="line2d_18">
    <path clip-path="url(#pf6dc1569cc)" d="
M229.522 188.491
L228.873 188.117
L228.219 187.739
L227.559 187.358" style="fill:none;stroke:#000000;stroke-linecap:square;"/>
   </g>
   <g id="line2d_19">
    <path clip-path="url(#pf6dc1569cc)" d="
M220.979 200.692
L220.405 200.211
L219.826 199.725
L219.243 199.236" style="fill:none;stroke:#000000;stroke-linecap:square;"/>
   </g>
   <g id="line2d_20">
    <path clip-path="url(#pf6dc1569cc)" d="
M210.447 211.224
L209.965 210.65
L209.48 210.072
L208.99 209.488" style="fill:none;stroke:#000000;stroke-linecap:square;"/>
   </g>
   <g id="line2d_21">
    <path clip-path="url(#pf6dc1569cc)" d="
M198.246 219.767
L197.872 219.119
L197.494 218.464
L197.113 217.805" style="fill:none;stroke:#000000;stroke-linecap:square;"/>
   </g>
   <g id="line2d_22">
    <path clip-path="url(#pf6dc1569cc)" d="
M184.747 226.062
L184.491 225.358
L184.233 224.648
L183.972 223.932" style="fill:none;stroke:#000000;stroke-linecap:square;"/>
   </g>
   <g id="line2d_23">
    <path clip-path="url(#pf6dc1569cc)" d="
M170.36 229.917
L170.23 229.179
L170.099 228.435
L169.967 227.685" style="fill:none;stroke:#000000;stroke-linecap:square;"/>
   </g>
   <g id="line2d_24">
    <path clip-path="url(#pf6dc1569cc)" d="
M155.523 231.215
L155.523 230.466
L155.523 229.711
L155.523 228.949" style="fill:none;stroke:#000000;stroke-linecap:square;"/>
   </g>
   <g id="line2d_25">
    <path clip-path="url(#pf6dc1569cc)" d="
M140.685 229.917
L140.815 229.179
L140.946 228.435
L141.079 227.685" style="fill:none;stroke:#000000;stroke-linecap:square;"/>
   </g>
   <g id="line2d_26">
    <path clip-path="url(#pf6dc1569cc)" d="
M126.298 226.062
L126.554 225.358
L126.813 224.648
L127.073 223.932" style="fill:none;stroke:#000000;stroke-linecap:square;"/>
   </g>
   <g id="line2d_27">
    <path clip-path="url(#pf6dc1569cc)" d="
M112.799 219.767
L113.174 219.119
L113.552 218.464
L113.932 217.805" style="fill:none;stroke:#000000;stroke-linecap:square;"/>
   </g>
   <g id="line2d_28">
    <path clip-path="url(#pf6dc1569cc)" d="
M100.599 211.224
L101.08 210.65
L101.566 210.072
L102.055 209.488" style="fill:none;stroke:#000000;stroke-linecap:square;"/>
   </g>
   <g id="line2d_29">
    <path clip-path="url(#pf6dc1569cc)" d="
M90.0669 200.692
L90.6406 200.211
L91.2192 199.725
L91.8028 199.236" style="fill:none;stroke:#000000;stroke-linecap:square;"/>
   </g>
   <g id="line2d_30">
    <path clip-path="url(#pf6dc1569cc)" d="
M81.5239 188.491
L82.1724 188.117
L82.8266 187.739
L83.4863 187.358" style="fill:none;stroke:#000000;stroke-linecap:square;"/>
   </g>
   <g id="line2d_31">
    <path clip-path="url(#pf6dc1569cc)" d="
M75.2292 174.993
L75.933 174.736
L76.6428 174.478
L77.3586 174.218" style="fill:none;stroke:#000000;stroke-linecap:square;"/>
   </g>
   <g id="line2d_32">
    <path clip-path="url(#pf6dc1569cc)" d="
M71.3743 160.606
L72.1118 160.476
L72.8557 160.345
L73.6059 160.212" style="fill:none;stroke:#000000;stroke-linecap:square;"/>
   </g>
   <g id="line2d_33">
    <path clip-path="url(#pf6dc1569cc)" d="
M70.0762 145.768
L70.8251 145.768
L71.5804 145.768
L72.3422 145.768" style="fill:none;stroke:#000000;stroke-linecap:square;"/>
   </g>
   <g id="line2d_34">
    <path clip-path="url(#pf6dc1569cc)" d="
M71.3743 130.93
L72.1118 131.061
L72.8557 131.192
L73.6059 131.324" style="fill:none;stroke:#000000;stroke-linecap:square;"/>
   </g>
   <g id="line2d_35">
    <path clip-path="url(#pf6dc1569cc)" d="
M75.2292 116.544
L75.933 116.8
L76.6428 117.058
L77.3586 117.319" style="fill:none;stroke:#000000;stroke-linecap:square;"/>
   </g>
   <g id="line2d_36">
    <path clip-path="url(#pf6dc1569cc)" d="
M81.5239 103.045
L82.1724 103.419
L82.8266 103.797
L83.4863 104.178" style="fill:none;stroke:#000000;stroke-linecap:square;"/>
   </g>
   <g id="line2d_37">
    <path clip-path="url(#pf6dc1569cc)" d="
M90.0669 90.8441
L90.6406 91.3255
L91.2192 91.811
L91.8028 92.3006" style="fill:none;stroke:#000000;stroke-linecap:square;"/>
   </g>
   <g id="line2d_38">
    <path clip-path="url(#pf6dc1569cc)" d="
M100.599 80.3122
L101.08 80.8859
L101.566 81.4645
L102.055 82.0481" style="fill:none;stroke:#000000;stroke-linecap:square;"/>
   </g>
   <g id="line2d_39">
    <path clip-path="url(#pf6dc1569cc)" d="
M112.799 71.7692
L113.174 72.4177
L113.552 73.0719
L113.932 73.7316" style="fill:none;stroke:#000000;stroke-linecap:square;"/>
   </g>
   <g id="line2d_40">
    <path clip-path="url(#pf6dc1569cc)" d="
M126.298 65.4745
L126.554 66.1783
L126.813 66.8881
L127.073 67.6039" style="fill:none;stroke:#000000;stroke-linecap:square;"/>
   </g>
   <g id="line2d_41">
    <path clip-path="url(#pf6dc1569cc)" d="
M140.685 61.6196
L140.815 62.3571
L140.946 63.101
L141.079 63.8512" style="fill:none;stroke:#000000;stroke-linecap:square;"/>
   </g>
   <g id="text_1">
    <!-- PW15-4d NRM oriented (black) and rotated (blue) -->
    <defs>
     <path id="BitstreamVeraSans-Roman-20"/>
     <path d="
M8.01562 75.875
L15.8281 75.875
Q23.1406 64.3594 26.7812 53.3125
Q30.4219 42.2812 30.4219 31.3906
Q30.4219 20.4531 26.7812 9.375
Q23.1406 -1.70312 15.8281 -13.1875
L8.01562 -13.1875
Q14.5 -2 17.7031 9.0625
Q20.9062 20.125 20.9062 31.3906
Q20.9062 42.6719 17.7031 53.6562
Q14.5 64.6562 8.01562 75.875" id="BitstreamVeraSans-Roman-29"/>
     <path d="
M31 75.875
Q24.4688 64.6562 21.2812 53.6562
Q18.1094 42.6719 18.1094 31.3906
Q18.1094 20.125 21.3125 9.0625
Q24.5156 -2 31 -13.1875
L23.1875 -13.1875
Q15.875 -1.70312 12.2344 9.375
Q8.59375 20.4531 8.59375 31.3906
Q8.59375 42.2812 12.2031 53.3125
Q15.8281 64.3594 23.1875 75.875
z
" id="BitstreamVeraSans-Roman-28"/>
     <path d="
M9.8125 72.9062
L24.5156 72.9062
L43.1094 23.2969
L61.8125 72.9062
L76.5156 72.9062
L76.5156 0
L66.8906 0
L66.8906 64.0156
L48.0938 14.0156
L38.1875 14.0156
L19.3906 64.0156
L19.3906 0
L9.8125 0
z
" id="BitstreamVeraSans-Roman-4d"/>
     <path d="
M9.42188 54.6875
L18.4062 54.6875
L18.4062 0
L9.42188 0
z

M9.42188 75.9844
L18.4062 75.9844
L18.4062 64.5938
L9.42188 64.5938
z
" id="BitstreamVeraSans-Roman-69"/>
     <path d="
M56.2031 29.5938
L56.2031 25.2031
L14.8906 25.2031
Q15.4844 15.9219 20.4844 11.0625
Q25.4844 6.20312 34.4219 6.20312
Q39.5938 6.20312 44.4531 7.46875
Q49.3125 8.73438 54.1094 11.2812
L54.1094 2.78125
Q49.2656 0.734375 44.1875 -0.34375
Q39.1094 -1.42188 33.8906 -1.42188
Q20.7969 -1.42188 13.1562 6.1875
Q5.51562 13.8125 5.51562 26.8125
Q5.51562 40.2344 12.7656 48.1094
Q20.0156 56 32.3281 56
Q43.3594 56 49.7812 48.8906
Q56.2031 41.7969 56.2031 29.5938
M47.2188 32.2344
Q47.125 39.5938 43.0938 43.9844
Q39.0625 48.3906 32.4219 48.3906
Q24.9062 48.3906 20.3906 44.1406
Q15.875 39.8906 15.1875 32.1719
z
" id="BitstreamVeraSans-Roman-65"/>
     <path d="
M45.4062 46.3906
L45.4062 75.9844
L54.3906 75.9844
L54.3906 0
L45.4062 0
L45.4062 8.20312
Q42.5781 3.32812 38.25 0.953125
Q33.9375 -1.42188 27.875 -1.42188
Q17.9688 -1.42188 11.7344 6.48438
Q5.51562 14.4062 5.51562 27.2969
Q5.51562 40.1875 11.7344 48.0938
Q17.9688 56 27.875 56
Q33.9375 56 38.25 53.625
Q42.5781 51.2656 45.4062 46.3906
M14.7969 27.2969
Q14.7969 17.3906 18.875 11.75
Q22.9531 6.10938 30.0781 6.10938
Q37.2031 6.10938 41.2969 11.75
Q45.4062 17.3906 45.4062 27.2969
Q45.4062 37.2031 41.2969 42.8438
Q37.2031 48.4844 30.0781 48.4844
Q22.9531 48.4844 18.875 42.8438
Q14.7969 37.2031 14.7969 27.2969" id="BitstreamVeraSans-Roman-64"/>
     <path d="
M34.2812 27.4844
Q23.3906 27.4844 19.1875 25
Q14.9844 22.5156 14.9844 16.5
Q14.9844 11.7188 18.1406 8.90625
Q21.2969 6.10938 26.7031 6.10938
Q34.1875 6.10938 38.7031 11.4062
Q43.2188 16.7031 43.2188 25.4844
L43.2188 27.4844
z

M52.2031 31.2031
L52.2031 0
L43.2188 0
L43.2188 8.29688
Q40.1406 3.32812 35.5469 0.953125
Q30.9531 -1.42188 24.3125 -1.42188
Q15.9219 -1.42188 10.9531 3.29688
Q6 8.01562 6 15.9219
Q6 25.1406 12.1719 29.8281
Q18.3594 34.5156 30.6094 34.5156
L43.2188 34.5156
L43.2188 35.4062
Q43.2188 41.6094 39.1406 45
Q35.0625 48.3906 27.6875 48.3906
Q23 48.3906 18.5469 47.2656
Q14.1094 46.1406 10.0156 43.8906
L10.0156 52.2031
Q14.9375 54.1094 19.5781 55.0469
Q24.2188 56 28.6094 56
Q40.4844 56 46.3438 49.8438
Q52.2031 43.7031 52.2031 31.2031" id="BitstreamVeraSans-Roman-61"/>
     <path d="
M48.7812 52.5938
L48.7812 44.1875
Q44.9688 46.2969 41.1406 47.3438
Q37.3125 48.3906 33.4062 48.3906
Q24.6562 48.3906 19.8125 42.8438
Q14.9844 37.3125 14.9844 27.2969
Q14.9844 17.2812 19.8125 11.7344
Q24.6562 6.20312 33.4062 6.20312
Q37.3125 6.20312 41.1406 7.25
Q44.9688 8.29688 48.7812 10.4062
L48.7812 2.09375
Q45.0156 0.34375 40.9844 -0.53125
Q36.9688 -1.42188 32.4219 -1.42188
Q20.0625 -1.42188 12.7812 6.34375
Q5.51562 14.1094 5.51562 27.2969
Q5.51562 40.6719 12.8594 48.3281
Q20.2188 56 33.0156 56
Q37.1562 56 41.1094 55.1406
Q45.0625 54.2969 48.7812 52.5938" id="BitstreamVeraSans-Roman-63"/>
     <path d="
M48.6875 27.2969
Q48.6875 37.2031 44.6094 42.8438
Q40.5312 48.4844 33.4062 48.4844
Q26.2656 48.4844 22.1875 42.8438
Q18.1094 37.2031 18.1094 27.2969
Q18.1094 17.3906 22.1875 11.75
Q26.2656 6.10938 33.4062 6.10938
Q40.5312 6.10938 44.6094 11.75
Q48.6875 17.3906 48.6875 27.2969
M18.1094 46.3906
Q20.9531 51.2656 25.2656 53.625
Q29.5938 56 35.5938 56
Q45.5625 56 51.7812 48.0938
Q58.0156 40.1875 58.0156 27.2969
Q58.0156 14.4062 51.7812 6.48438
Q45.5625 -1.42188 35.5938 -1.42188
Q29.5938 -1.42188 25.2656 0.953125
Q20.9531 3.32812 18.1094 8.20312
L18.1094 0
L9.07812 0
L9.07812 75.9844
L18.1094 75.9844
z
" id="BitstreamVeraSans-Roman-62"/>
     <path d="
M9.8125 72.9062
L23.0938 72.9062
L55.4219 11.9219
L55.4219 72.9062
L64.9844 72.9062
L64.9844 0
L51.7031 0
L19.3906 60.9844
L19.3906 0
L9.8125 0
z
" id="BitstreamVeraSans-Roman-4e"/>
     <path d="
M12.4062 8.29688
L28.5156 8.29688
L28.5156 63.9219
L10.9844 60.4062
L10.9844 69.3906
L28.4219 72.9062
L38.2812 72.9062
L38.2812 8.29688
L54.3906 8.29688
L54.3906 0
L12.4062 0
z
" id="BitstreamVeraSans-Roman-31"/>
     <path d="
M37.7969 64.3125
L12.8906 25.3906
L37.7969 25.3906
z

M35.2031 72.9062
L47.6094 72.9062
L47.6094 25.3906
L58.0156 25.3906
L58.0156 17.1875
L47.6094 17.1875
L47.6094 0
L37.7969 0
L37.7969 17.1875
L4.89062 17.1875
L4.89062 26.7031
z
" id="BitstreamVeraSans-Roman-34"/>
     <path d="
M10.7969 72.9062
L49.5156 72.9062
L49.5156 64.5938
L19.8281 64.5938
L19.8281 46.7344
Q21.9688 47.4688 24.1094 47.8281
Q26.2656 48.1875 28.4219 48.1875
Q40.625 48.1875 47.75 41.5
Q54.8906 34.8125 54.8906 23.3906
Q54.8906 11.625 47.5625 5.09375
Q40.2344 -1.42188 26.9062 -1.42188
Q22.3125 -1.42188 17.5469 -0.640625
Q12.7969 0.140625 7.71875 1.70312
L7.71875 11.625
Q12.1094 9.23438 16.7969 8.0625
Q21.4844 6.89062 26.7031 6.89062
Q35.1562 6.89062 40.0781 11.3281
Q45.0156 15.7656 45.0156 23.3906
Q45.0156 31 40.0781 35.4375
Q35.1562 39.8906 26.7031 39.8906
Q22.75 39.8906 18.8125 39.0156
Q14.8906 38.1406 10.7969 36.2812
z
" id="BitstreamVeraSans-Roman-35"/>
     <path d="
M54.8906 33.0156
L54.8906 0
L45.9062 0
L45.9062 32.7188
Q45.9062 40.4844 42.875 44.3281
Q39.8438 48.1875 33.7969 48.1875
Q26.5156 48.1875 22.3125 43.5469
Q18.1094 38.9219 18.1094 30.9062
L18.1094 0
L9.07812 0
L9.07812 54.6875
L18.1094 54.6875
L18.1094 46.1875
Q21.3438 51.125 25.7031 53.5625
Q30.0781 56 35.7969 56
Q45.2188 56 50.0469 50.1719
Q54.8906 44.3438 54.8906 33.0156" id="BitstreamVeraSans-Roman-6e"/>
     <path d="
M30.6094 48.3906
Q23.3906 48.3906 19.1875 42.75
Q14.9844 37.1094 14.9844 27.2969
Q14.9844 17.4844 19.1562 11.8438
Q23.3438 6.20312 30.6094 6.20312
Q37.7969 6.20312 41.9844 11.8594
Q46.1875 17.5312 46.1875 27.2969
Q46.1875 37.0156 41.9844 42.7031
Q37.7969 48.3906 30.6094 48.3906
M30.6094 56
Q42.3281 56 49.0156 48.375
Q55.7188 40.7656 55.7188 27.2969
Q55.7188 13.875 49.0156 6.21875
Q42.3281 -1.42188 30.6094 -1.42188
Q18.8438 -1.42188 12.1719 6.21875
Q5.51562 13.875 5.51562 27.2969
Q5.51562 40.7656 12.1719 48.375
Q18.8438 56 30.6094 56" id="BitstreamVeraSans-Roman-6f"/>
     <path d="
M9.42188 75.9844
L18.4062 75.9844
L18.4062 0
L9.42188 0
z
" id="BitstreamVeraSans-Roman-6c"/>
     <path d="
M9.07812 75.9844
L18.1094 75.9844
L18.1094 31.1094
L44.9219 54.6875
L56.3906 54.6875
L27.3906 29.1094
L57.625 0
L45.9062 0
L18.1094 26.7031
L18.1094 0
L9.07812 0
z
" id="BitstreamVeraSans-Roman-6b"/>
     <path d="
M19.6719 64.7969
L19.6719 37.4062
L32.0781 37.4062
Q38.9688 37.4062 42.7188 40.9688
Q46.4844 44.5312 46.4844 51.125
Q46.4844 57.6719 42.7188 61.2344
Q38.9688 64.7969 32.0781 64.7969
z

M9.8125 72.9062
L32.0781 72.9062
Q44.3438 72.9062 50.6094 67.3594
Q56.8906 61.8125 56.8906 51.125
Q56.8906 40.3281 50.6094 34.8125
Q44.3438 29.2969 32.0781 29.2969
L19.6719 29.2969
L19.6719 0
L9.8125 0
z
" id="BitstreamVeraSans-Roman-50"/>
     <path d="
M44.3906 34.1875
Q47.5625 33.1094 50.5625 29.5938
Q53.5625 26.0781 56.5938 19.9219
L66.6094 0
L56 0
L46.6875 18.7031
Q43.0625 26.0312 39.6719 28.4219
Q36.2812 30.8125 30.4219 30.8125
L19.6719 30.8125
L19.6719 0
L9.8125 0
L9.8125 72.9062
L32.0781 72.9062
Q44.5781 72.9062 50.7344 67.6719
Q56.8906 62.4531 56.8906 51.9062
Q56.8906 45.0156 53.6875 40.4688
Q50.4844 35.9375 44.3906 34.1875
M19.6719 64.7969
L19.6719 38.9219
L32.0781 38.9219
Q39.2031 38.9219 42.8438 42.2188
Q46.4844 45.5156 46.4844 51.9062
Q46.4844 58.2969 42.8438 61.5469
Q39.2031 64.7969 32.0781 64.7969
z
" id="BitstreamVeraSans-Roman-52"/>
     <path d="
M4.89062 31.3906
L31.2031 31.3906
L31.2031 23.3906
L4.89062 23.3906
z
" id="BitstreamVeraSans-Roman-2d"/>
     <path d="
M3.32812 72.9062
L13.2812 72.9062
L28.6094 11.2812
L43.8906 72.9062
L54.9844 72.9062
L70.3125 11.2812
L85.5938 72.9062
L95.6094 72.9062
L77.2969 0
L64.8906 0
L49.5156 63.2812
L33.9844 0
L21.5781 0
z
" id="BitstreamVeraSans-Roman-57"/>
     <path d="
M18.3125 70.2188
L18.3125 54.6875
L36.8125 54.6875
L36.8125 47.7031
L18.3125 47.7031
L18.3125 18.0156
Q18.3125 11.3281 20.1406 9.42188
Q21.9688 7.51562 27.5938 7.51562
L36.8125 7.51562
L36.8125 0
L27.5938 0
Q17.1875 0 13.2344 3.875
Q9.28125 7.76562 9.28125 18.0156
L9.28125 47.7031
L2.6875 47.7031
L2.6875 54.6875
L9.28125 54.6875
L9.28125 70.2188
z
" id="BitstreamVeraSans-Roman-74"/>
     <path d="
M8.5 21.5781
L8.5 54.6875
L17.4844 54.6875
L17.4844 21.9219
Q17.4844 14.1562 20.5 10.2656
Q23.5312 6.39062 29.5938 6.39062
Q36.8594 6.39062 41.0781 11.0312
Q45.3125 15.6719 45.3125 23.6875
L45.3125 54.6875
L54.2969 54.6875
L54.2969 0
L45.3125 0
L45.3125 8.40625
Q42.0469 3.42188 37.7188 1
Q33.4062 -1.42188 27.6875 -1.42188
Q18.2656 -1.42188 13.375 4.4375
Q8.5 10.2969 8.5 21.5781" id="BitstreamVeraSans-Roman-75"/>
     <path d="
M41.1094 46.2969
Q39.5938 47.1719 37.8125 47.5781
Q36.0312 48 33.8906 48
Q26.2656 48 22.1875 43.0469
Q18.1094 38.0938 18.1094 28.8125
L18.1094 0
L9.07812 0
L9.07812 54.6875
L18.1094 54.6875
L18.1094 46.1875
Q20.9531 51.1719 25.4844 53.5781
Q30.0312 56 36.5312 56
Q37.4531 56 38.5781 55.875
Q39.7031 55.7656 41.0625 55.5156
z
" id="BitstreamVeraSans-Roman-72"/>
    </defs>
    <g transform="translate(7.2 16.318125)scale(0.12 -0.12)">
     <use xlink:href="#BitstreamVeraSans-Roman-50"/>
     <use x="60.302734375" xlink:href="#BitstreamVeraSans-Roman-57"/>
     <use x="159.1796875" xlink:href="#BitstreamVeraSans-Roman-31"/>
     <use x="222.802734375" xlink:href="#BitstreamVeraSans-Roman-35"/>
     <use x="286.42578125" xlink:href="#BitstreamVeraSans-Roman-2d"/>
     <use x="322.509765625" xlink:href="#BitstreamVeraSans-Roman-34"/>
     <use x="386.1328125" xlink:href="#BitstreamVeraSans-Roman-64"/>
     <use x="449.609375" xlink:href="#BitstreamVeraSans-Roman-20"/>
     <use x="481.396484375" xlink:href="#BitstreamVeraSans-Roman-4e"/>
     <use x="556.201171875" xlink:href="#BitstreamVeraSans-Roman-52"/>
     <use x="625.68359375" xlink:href="#BitstreamVeraSans-Roman-4d"/>
     <use x="711.962890625" xlink:href="#BitstreamVeraSans-Roman-20"/>
     <use x="743.75" xlink:href="#BitstreamVeraSans-Roman-6f"/>
     <use x="804.931640625" xlink:href="#BitstreamVeraSans-Roman-72"/>
     <use x="846.044921875" xlink:href="#BitstreamVeraSans-Roman-69"/>
     <use x="873.828125" xlink:href="#BitstreamVeraSans-Roman-65"/>
     <use x="935.3515625" xlink:href="#BitstreamVeraSans-Roman-6e"/>
     <use x="998.73046875" xlink:href="#BitstreamVeraSans-Roman-74"/>
     <use x="1037.93945312" xlink:href="#BitstreamVeraSans-Roman-65"/>
     <use x="1099.46289062" xlink:href="#BitstreamVeraSans-Roman-64"/>
     <use x="1162.93945312" xlink:href="#BitstreamVeraSans-Roman-20"/>
     <use x="1194.7265625" xlink:href="#BitstreamVeraSans-Roman-28"/>
     <use x="1233.74023438" xlink:href="#BitstreamVeraSans-Roman-62"/>
     <use x="1297.21679688" xlink:href="#BitstreamVeraSans-Roman-6c"/>
     <use x="1325.0" xlink:href="#BitstreamVeraSans-Roman-61"/>
     <use x="1386.27929688" xlink:href="#BitstreamVeraSans-Roman-63"/>
     <use x="1441.25976562" xlink:href="#BitstreamVeraSans-Roman-6b"/>
     <use x="1499.16992188" xlink:href="#BitstreamVeraSans-Roman-29"/>
     <use x="1538.18359375" xlink:href="#BitstreamVeraSans-Roman-20"/>
     <use x="1569.97070312" xlink:href="#BitstreamVeraSans-Roman-61"/>
     <use x="1631.25" xlink:href="#BitstreamVeraSans-Roman-6e"/>
     <use x="1694.62890625" xlink:href="#BitstreamVeraSans-Roman-64"/>
     <use x="1758.10546875" xlink:href="#BitstreamVeraSans-Roman-20"/>
     <use x="1789.89257812" xlink:href="#BitstreamVeraSans-Roman-72"/>
     <use x="1828.75585938" xlink:href="#BitstreamVeraSans-Roman-6f"/>
     <use x="1889.9375" xlink:href="#BitstreamVeraSans-Roman-74"/>
     <use x="1929.14648438" xlink:href="#BitstreamVeraSans-Roman-61"/>
     <use x="1990.42578125" xlink:href="#BitstreamVeraSans-Roman-74"/>
     <use x="2029.63476562" xlink:href="#BitstreamVeraSans-Roman-65"/>
     <use x="2091.15820312" xlink:href="#BitstreamVeraSans-Roman-64"/>
     <use x="2154.63476562" xlink:href="#BitstreamVeraSans-Roman-20"/>
     <use x="2186.421875" xlink:href="#BitstreamVeraSans-Roman-28"/>
     <use x="2225.43554688" xlink:href="#BitstreamVeraSans-Roman-62"/>
     <use x="2288.91210938" xlink:href="#BitstreamVeraSans-Roman-6c"/>
     <use x="2316.6953125" xlink:href="#BitstreamVeraSans-Roman-75"/>
     <use x="2380.07421875" xlink:href="#BitstreamVeraSans-Roman-65"/>
     <use x="2441.59765625" xlink:href="#BitstreamVeraSans-Roman-29"/>
    </g>
   </g>
  </g>
 </g>
 <defs>
  <clipPath id="pf6dc1569cc">
   <rect height="248.9" width="239.83671875" x="35.604453125" y="21.318125"/>
  </clipPath>
 </defs>
</svg>
