<?xml version="1.0" encoding="utf-8" standalone="no"?>
<!DOCTYPE svg PUBLIC "-//W3C//DTD SVG 1.1//EN"
  "http://www.w3.org/Graphics/SVG/1.1/DTD/svg11.dtd">
<!-- Created with matplotlib (http://matplotlib.org/) -->
<svg height="291pt" version="1.1" viewBox="0 0 343 291" width="343pt" xmlns="http://www.w3.org/2000/svg" xmlns:xlink="http://www.w3.org/1999/xlink">
 <defs>
  <style type="text/css">
*{stroke-linecap:butt;stroke-linejoin:round;}
  </style>
 </defs>
 <g id="figure_1">
  <g id="patch_1">
   <path d="
M0 291.096
L343.954 291.096
L343.954 0
L0 0
z
" style="fill:none;"/>
  </g>
  <g id="axes_1">
   <g id="PathCollection_1">
    <defs>
     <path d="
M0 2.23607
C0.593012 2.23607 1.16182 2.00046 1.58114 1.58114
C2.00046 1.16182 2.23607 0.593012 2.23607 0
C2.23607 -0.593012 2.00046 -1.16182 1.58114 -1.58114
C1.16182 -2.00046 0.593012 -2.23607 0 -2.23607
C-0.593012 -2.23607 -1.16182 -2.00046 -1.58114 -1.58114
C-2.00046 -1.16182 -2.23607 -0.593012 -2.23607 0
C-2.23607 0.593012 -2.00046 1.16182 -1.58114 1.58114
C-1.16182 2.00046 -0.593012 2.23607 0 2.23607
z
" id="C0_0_919e3f95db"/>
    </defs>
    <g clip-path="url(#p774233bd5e)">
     <use style="fill:none;stroke:#000000;" x="165.298421919" xlink:href="#C0_0_919e3f95db" y="155.260342576"/>
    </g>
   </g>
   <g id="PathCollection_2">
    <defs>
     <path d="
M0 2.23607
C0.593012 2.23607 1.16182 2.00046 1.58114 1.58114
C2.00046 1.16182 2.23607 0.593012 2.23607 0
C2.23607 -0.593012 2.00046 -1.16182 1.58114 -1.58114
C1.16182 -2.00046 0.593012 -2.23607 0 -2.23607
C-0.593012 -2.23607 -1.16182 -2.00046 -1.58114 -1.58114
C-2.00046 -1.16182 -2.23607 -0.593012 -2.23607 0
C-2.23607 0.593012 -2.00046 1.16182 -1.58114 1.58114
C-1.16182 2.00046 -0.593012 2.23607 0 2.23607
z
" id="C1_0_919e3f95db"/>
    </defs>
    <g clip-path="url(#p774233bd5e)">
     <use style="fill:none;stroke:#0000ff;" x="164.747953252" xlink:href="#C1_0_919e3f95db" y="156.042734591"/>
    </g>
   </g>
   <g id="line2d_1">
    <path clip-path="url(#p774233bd5e)" d="
M171.977 60.3215
L176.449 60.4386
L180.908 60.7896
L185.344 61.3735
L189.742 62.1887
L194.092 63.233
L198.381 64.5035
L202.598 65.9968
L206.731 67.7087
L210.769 69.6346
L214.7 71.7692
L218.514 74.1065
L222.201 76.6403
L225.75 79.3636
L229.152 82.2689
L232.397 85.3482
L235.476 88.5932
L238.381 91.9948
L241.105 95.5439
L243.638 99.2305
L245.976 103.045
L248.11 106.976
L250.036 111.014
L251.748 115.147
L253.241 119.364
L254.512 123.653
L255.556 128.003
L256.372 132.401
L256.955 136.837
L257.306 141.296
L257.424 145.768
L257.306 150.24
L256.955 154.7
L256.372 159.135
L255.556 163.533
L254.512 167.883
L253.241 172.173
L251.748 176.389
L250.036 180.522
L248.11 184.56
L245.976 188.491
L243.638 192.306
L241.105 195.992
L238.381 199.541
L235.476 202.943
L232.397 206.188
L229.152 209.267
L225.75 212.173
L222.201 214.896
L218.514 217.43
L214.7 219.767
L210.769 221.902
L206.731 223.828
L202.598 225.539
L198.381 227.033
L194.092 228.303
L189.742 229.348
L185.344 230.163
L180.908 230.747
L176.449 231.098
L171.977 231.215
L167.505 231.098
L163.045 230.747
L158.61 230.163
L154.212 229.348
L149.862 228.303
L145.572 227.033
L141.356 225.539
L137.223 223.828
L133.185 221.902
L129.254 219.767
L125.439 217.43
L121.753 214.896
L118.204 212.173
L114.802 209.267
L111.557 206.188
L108.478 202.943
L105.572 199.541
L102.849 195.992
L100.315 192.306
L97.9779 188.491
L95.8434 184.56
L93.9175 180.522
L92.2056 176.389
L90.7123 172.173
L89.4418 167.883
L88.3974 163.533
L87.5822 159.135
L86.9983 154.7
L86.6473 150.24
L86.5302 145.768
L86.6473 141.296
L86.9983 136.837
L87.5822 132.401
L88.3974 128.003
L89.4418 123.653
L90.7123 119.364
L92.2056 115.147
L93.9175 111.014
L95.8434 106.976
L97.9779 103.045
L100.315 99.2305
L102.849 95.5439
L105.572 91.9948
L108.478 88.5932
L111.557 85.3482
L114.802 82.2689
L118.204 79.3636
L121.753 76.6403
L125.439 74.1065
L129.254 71.7692
L133.185 69.6346
L137.223 67.7087
L141.356 65.9968
L145.572 64.5035
L149.862 63.233
L154.212 62.1887
L158.61 61.3735
L163.045 60.7896
L167.505 60.4386
L171.977 60.3215
L171.977 60.3215" style="fill:none;stroke:#000000;stroke-linecap:square;"/>
   </g>
   <g id="line2d_2">
    <defs>
     <path d="
M-3 0
L3 0
M0 3
L0 -3" id="m9d0eee4805" style="stroke:#000000;stroke-width:0.5;"/>
    </defs>
    <g clip-path="url(#p774233bd5e)">
     <use style="stroke:#000000;stroke-width:0.5;" x="171.976875" xlink:href="#m9d0eee4805" y="68.0938004268"/>
     <use style="stroke:#000000;stroke-width:0.5;" x="171.976875" xlink:href="#m9d0eee4805" y="76.4572645956"/>
     <use style="stroke:#000000;stroke-width:0.5;" x="171.976875" xlink:href="#m9d0eee4805" y="85.3482262631"/>
     <use style="stroke:#000000;stroke-width:0.5;" x="171.976875" xlink:href="#m9d0eee4805" y="94.6990198425"/>
     <use style="stroke:#000000;stroke-width:0.5;" x="171.976875" xlink:href="#m9d0eee4805" y="104.438480149"/>
     <use style="stroke:#000000;stroke-width:0.5;" x="171.976875" xlink:href="#m9d0eee4805" y="114.492484007"/>
     <use style="stroke:#000000;stroke-width:0.5;" x="171.976875" xlink:href="#m9d0eee4805" y="124.784514379"/>
     <use style="stroke:#000000;stroke-width:0.5;" x="171.976875" xlink:href="#m9d0eee4805" y="135.236242698"/>
     <use style="stroke:#000000;stroke-width:0.5;" x="171.976875" xlink:href="#m9d0eee4805" y="145.768125"/>
    </g>
   </g>
   <g id="line2d_3">
    <g clip-path="url(#p774233bd5e)">
     <use style="stroke:#000000;stroke-width:0.5;" x="249.651199573" xlink:href="#m9d0eee4805" y="145.768125"/>
     <use style="stroke:#000000;stroke-width:0.5;" x="241.287735404" xlink:href="#m9d0eee4805" y="145.768125"/>
     <use style="stroke:#000000;stroke-width:0.5;" x="232.396773737" xlink:href="#m9d0eee4805" y="145.768125"/>
     <use style="stroke:#000000;stroke-width:0.5;" x="223.045980157" xlink:href="#m9d0eee4805" y="145.768125"/>
     <use style="stroke:#000000;stroke-width:0.5;" x="213.306519851" xlink:href="#m9d0eee4805" y="145.768125"/>
     <use style="stroke:#000000;stroke-width:0.5;" x="203.252515993" xlink:href="#m9d0eee4805" y="145.768125"/>
     <use style="stroke:#000000;stroke-width:0.5;" x="192.960485621" xlink:href="#m9d0eee4805" y="145.768125"/>
     <use style="stroke:#000000;stroke-width:0.5;" x="182.508757302" xlink:href="#m9d0eee4805" y="145.768125"/>
    </g>
   </g>
   <g id="line2d_4">
    <g clip-path="url(#p774233bd5e)">
     <use style="stroke:#000000;stroke-width:0.5;" x="171.976875" xlink:href="#m9d0eee4805" y="223.442449573"/>
     <use style="stroke:#000000;stroke-width:0.5;" x="171.976875" xlink:href="#m9d0eee4805" y="215.078985404"/>
     <use style="stroke:#000000;stroke-width:0.5;" x="171.976875" xlink:href="#m9d0eee4805" y="206.188023737"/>
     <use style="stroke:#000000;stroke-width:0.5;" x="171.976875" xlink:href="#m9d0eee4805" y="196.837230157"/>
     <use style="stroke:#000000;stroke-width:0.5;" x="171.976875" xlink:href="#m9d0eee4805" y="187.097769851"/>
     <use style="stroke:#000000;stroke-width:0.5;" x="171.976875" xlink:href="#m9d0eee4805" y="177.043765993"/>
     <use style="stroke:#000000;stroke-width:0.5;" x="171.976875" xlink:href="#m9d0eee4805" y="166.751735621"/>
     <use style="stroke:#000000;stroke-width:0.5;" x="171.976875" xlink:href="#m9d0eee4805" y="156.300007302"/>
    </g>
   </g>
   <g id="line2d_5">
    <g clip-path="url(#p774233bd5e)">
     <use style="stroke:#000000;stroke-width:0.5;" x="94.3025504268" xlink:href="#m9d0eee4805" y="145.768125"/>
     <use style="stroke:#000000;stroke-width:0.5;" x="102.666014596" xlink:href="#m9d0eee4805" y="145.768125"/>
     <use style="stroke:#000000;stroke-width:0.5;" x="111.556976263" xlink:href="#m9d0eee4805" y="145.768125"/>
     <use style="stroke:#000000;stroke-width:0.5;" x="120.907769843" xlink:href="#m9d0eee4805" y="145.768125"/>
     <use style="stroke:#000000;stroke-width:0.5;" x="130.647230149" xlink:href="#m9d0eee4805" y="145.768125"/>
     <use style="stroke:#000000;stroke-width:0.5;" x="140.701234007" xlink:href="#m9d0eee4805" y="145.768125"/>
     <use style="stroke:#000000;stroke-width:0.5;" x="150.993264379" xlink:href="#m9d0eee4805" y="145.768125"/>
     <use style="stroke:#000000;stroke-width:0.5;" x="161.444992698" xlink:href="#m9d0eee4805" y="145.768125"/>
    </g>
   </g>
   <g id="line2d_6">
    <path clip-path="url(#p774233bd5e)" d="
M171.977 60.3215
L171.977 61.0704
L171.977 61.8257
L171.977 62.5875" style="fill:none;stroke:#000000;stroke-linecap:square;"/>
   </g>
   <g id="line2d_7">
    <path clip-path="url(#p774233bd5e)" d="
M186.815 61.6196
L186.684 62.3571
L186.553 63.101
L186.421 63.8512" style="fill:none;stroke:#000000;stroke-linecap:square;"/>
   </g>
   <g id="line2d_8">
    <path clip-path="url(#p774233bd5e)" d="
M201.201 65.4745
L200.945 66.1783
L200.687 66.8881
L200.426 67.6039" style="fill:none;stroke:#000000;stroke-linecap:square;"/>
   </g>
   <g id="line2d_9">
    <path clip-path="url(#p774233bd5e)" d="
M214.7 71.7692
L214.326 72.4177
L213.948 73.0719
L213.567 73.7316" style="fill:none;stroke:#000000;stroke-linecap:square;"/>
   </g>
   <g id="line2d_10">
    <path clip-path="url(#p774233bd5e)" d="
M226.901 80.3122
L226.42 80.8859
L225.934 81.4645
L225.444 82.0481" style="fill:none;stroke:#000000;stroke-linecap:square;"/>
   </g>
   <g id="line2d_11">
    <path clip-path="url(#p774233bd5e)" d="
M237.433 90.8441
L236.859 91.3255
L236.28 91.811
L235.697 92.3006" style="fill:none;stroke:#000000;stroke-linecap:square;"/>
   </g>
   <g id="line2d_12">
    <path clip-path="url(#p774233bd5e)" d="
M245.976 103.045
L245.327 103.419
L244.673 103.797
L244.013 104.178" style="fill:none;stroke:#000000;stroke-linecap:square;"/>
   </g>
   <g id="line2d_13">
    <path clip-path="url(#p774233bd5e)" d="
M252.27 116.544
L251.567 116.8
L250.857 117.058
L250.141 117.319" style="fill:none;stroke:#000000;stroke-linecap:square;"/>
   </g>
   <g id="line2d_14">
    <path clip-path="url(#p774233bd5e)" d="
M256.125 130.93
L255.388 131.061
L254.644 131.192
L253.894 131.324" style="fill:none;stroke:#000000;stroke-linecap:square;"/>
   </g>
   <g id="line2d_15">
    <path clip-path="url(#p774233bd5e)" d="
M257.424 145.768
L256.675 145.768
L255.919 145.768
L255.158 145.768" style="fill:none;stroke:#000000;stroke-linecap:square;"/>
   </g>
   <g id="line2d_16">
    <path clip-path="url(#p774233bd5e)" d="
M256.125 160.606
L255.388 160.476
L254.644 160.345
L253.894 160.212" style="fill:none;stroke:#000000;stroke-linecap:square;"/>
   </g>
   <g id="line2d_17">
    <path clip-path="url(#p774233bd5e)" d="
M252.27 174.993
L251.567 174.736
L250.857 174.478
L250.141 174.218" style="fill:none;stroke:#000000;stroke-linecap:square;"/>
   </g>
   <g id="line2d_18">
    <path clip-path="url(#p774233bd5e)" d="
M245.976 188.491
L245.327 188.117
L244.673 187.739
L244.013 187.358" style="fill:none;stroke:#000000;stroke-linecap:square;"/>
   </g>
   <g id="line2d_19">
    <path clip-path="url(#p774233bd5e)" d="
M237.433 200.692
L236.859 200.211
L236.28 199.725
L235.697 199.236" style="fill:none;stroke:#000000;stroke-linecap:square;"/>
   </g>
   <g id="line2d_20">
    <path clip-path="url(#p774233bd5e)" d="
M226.901 211.224
L226.42 210.65
L225.934 210.072
L225.444 209.488" style="fill:none;stroke:#000000;stroke-linecap:square;"/>
   </g>
   <g id="line2d_21">
    <path clip-path="url(#p774233bd5e)" d="
M214.7 219.767
L214.326 219.119
L213.948 218.464
L213.567 217.805" style="fill:none;stroke:#000000;stroke-linecap:square;"/>
   </g>
   <g id="line2d_22">
    <path clip-path="url(#p774233bd5e)" d="
M201.201 226.062
L200.945 225.358
L200.687 224.648
L200.426 223.932" style="fill:none;stroke:#000000;stroke-linecap:square;"/>
   </g>
   <g id="line2d_23">
    <path clip-path="url(#p774233bd5e)" d="
M186.815 229.917
L186.684 229.179
L186.553 228.435
L186.421 227.685" style="fill:none;stroke:#000000;stroke-linecap:square;"/>
   </g>
   <g id="line2d_24">
    <path clip-path="url(#p774233bd5e)" d="
M171.977 231.215
L171.977 230.466
L171.977 229.711
L171.977 228.949" style="fill:none;stroke:#000000;stroke-linecap:square;"/>
   </g>
   <g id="line2d_25">
    <path clip-path="url(#p774233bd5e)" d="
M157.139 229.917
L157.269 229.179
L157.4 228.435
L157.533 227.685" style="fill:none;stroke:#000000;stroke-linecap:square;"/>
   </g>
   <g id="line2d_26">
    <path clip-path="url(#p774233bd5e)" d="
M142.752 226.062
L143.009 225.358
L143.267 224.648
L143.527 223.932" style="fill:none;stroke:#000000;stroke-linecap:square;"/>
   </g>
   <g id="line2d_27">
    <path clip-path="url(#p774233bd5e)" d="
M129.254 219.767
L129.628 219.119
L130.006 218.464
L130.387 217.805" style="fill:none;stroke:#000000;stroke-linecap:square;"/>
   </g>
   <g id="line2d_28">
    <path clip-path="url(#p774233bd5e)" d="
M117.053 211.224
L117.534 210.65
L118.02 210.072
L118.509 209.488" style="fill:none;stroke:#000000;stroke-linecap:square;"/>
   </g>
   <g id="line2d_29">
    <path clip-path="url(#p774233bd5e)" d="
M106.521 200.692
L107.095 200.211
L107.673 199.725
L108.257 199.236" style="fill:none;stroke:#000000;stroke-linecap:square;"/>
   </g>
   <g id="line2d_30">
    <path clip-path="url(#p774233bd5e)" d="
M97.9779 188.491
L98.6265 188.117
L99.2806 187.739
L99.9403 187.358" style="fill:none;stroke:#000000;stroke-linecap:square;"/>
   </g>
   <g id="line2d_31">
    <path clip-path="url(#p774233bd5e)" d="
M91.6833 174.993
L92.387 174.736
L93.0968 174.478
L93.8127 174.218" style="fill:none;stroke:#000000;stroke-linecap:square;"/>
   </g>
   <g id="line2d_32">
    <path clip-path="url(#p774233bd5e)" d="
M87.8284 160.606
L88.5659 160.476
L89.3098 160.345
L90.0599 160.212" style="fill:none;stroke:#000000;stroke-linecap:square;"/>
   </g>
   <g id="line2d_33">
    <path clip-path="url(#p774233bd5e)" d="
M86.5302 145.768
L87.2791 145.768
L88.0345 145.768
L88.7962 145.768" style="fill:none;stroke:#000000;stroke-linecap:square;"/>
   </g>
   <g id="line2d_34">
    <path clip-path="url(#p774233bd5e)" d="
M87.8284 130.93
L88.5659 131.061
L89.3098 131.192
L90.0599 131.324" style="fill:none;stroke:#000000;stroke-linecap:square;"/>
   </g>
   <g id="line2d_35">
    <path clip-path="url(#p774233bd5e)" d="
M91.6833 116.544
L92.387 116.8
L93.0968 117.058
L93.8127 117.319" style="fill:none;stroke:#000000;stroke-linecap:square;"/>
   </g>
   <g id="line2d_36">
    <path clip-path="url(#p774233bd5e)" d="
M97.9779 103.045
L98.6265 103.419
L99.2806 103.797
L99.9403 104.178" style="fill:none;stroke:#000000;stroke-linecap:square;"/>
   </g>
   <g id="line2d_37">
    <path clip-path="url(#p774233bd5e)" d="
M106.521 90.8441
L107.095 91.3255
L107.673 91.811
L108.257 92.3006" style="fill:none;stroke:#000000;stroke-linecap:square;"/>
   </g>
   <g id="line2d_38">
    <path clip-path="url(#p774233bd5e)" d="
M117.053 80.3122
L117.534 80.8859
L118.02 81.4645
L118.509 82.0481" style="fill:none;stroke:#000000;stroke-linecap:square;"/>
   </g>
   <g id="line2d_39">
    <path clip-path="url(#p774233bd5e)" d="
M129.254 71.7692
L129.628 72.4177
L130.006 73.0719
L130.387 73.7316" style="fill:none;stroke:#000000;stroke-linecap:square;"/>
   </g>
   <g id="line2d_40">
    <path clip-path="url(#p774233bd5e)" d="
M142.752 65.4745
L143.009 66.1783
L143.267 66.8881
L143.527 67.6039" style="fill:none;stroke:#000000;stroke-linecap:square;"/>
   </g>
   <g id="line2d_41">
    <path clip-path="url(#p774233bd5e)" d="
M157.139 61.6196
L157.269 62.3571
L157.4 63.101
L157.533 63.8512" style="fill:none;stroke:#000000;stroke-linecap:square;"/>
   </g>
   <g id="text_1">
    <!-- z&amp;xARM  oriented (black) and rotated (corrected; blue) -->
    <defs>
     <path id="BitstreamVeraSans-Roman-20"/>
     <path d="
M24.3125 39.2031
Q19.875 35.25 17.7969 31.3125
Q15.7188 27.3906 15.7188 23.0938
Q15.7188 15.9688 20.8906 11.2344
Q26.0781 6.5 33.8906 6.5
Q38.5312 6.5 42.5781 8.03125
Q46.625 9.57812 50.2031 12.7031
z

M31.2031 44.6719
L56 19.2812
Q58.8906 23.6406 60.5 28.5938
Q62.1094 33.5469 62.4062 39.1094
L71.4844 39.1094
Q70.9062 32.6719 68.3594 26.3594
Q65.8281 20.0625 61.2812 13.9219
L74.9062 0
L62.5938 0
L55.6094 7.17188
Q50.5312 2.82812 44.9688 0.703125
Q39.4062 -1.42188 33.0156 -1.42188
Q21.2344 -1.42188 13.7656 5.29688
Q6.29688 12.0156 6.29688 22.5156
Q6.29688 28.7656 9.5625 34.25
Q12.8438 39.75 19.3906 44.5781
Q17.0469 47.6562 15.8125 50.7031
Q14.5938 53.7656 14.5938 56.6875
Q14.5938 64.5938 20.0156 69.4062
Q25.4375 74.2188 34.4219 74.2188
Q38.4844 74.2188 42.5 73.3438
Q46.5312 72.4688 50.6875 70.7031
L50.6875 61.8125
Q46.4375 64.1094 42.5781 65.2969
Q38.7188 66.5 35.4062 66.5
Q30.2812 66.5 27.0781 63.7812
Q23.875 61.0781 23.875 56.7812
Q23.875 54.2969 25.3125 51.7812
Q26.7656 49.2656 31.2031 44.6719" id="BitstreamVeraSans-Roman-26"/>
     <path d="
M8.01562 75.875
L15.8281 75.875
Q23.1406 64.3594 26.7812 53.3125
Q30.4219 42.2812 30.4219 31.3906
Q30.4219 20.4531 26.7812 9.375
Q23.1406 -1.70312 15.8281 -13.1875
L8.01562 -13.1875
Q14.5 -2 17.7031 9.0625
Q20.9062 20.125 20.9062 31.3906
Q20.9062 42.6719 17.7031 53.6562
Q14.5 64.6562 8.01562 75.875" id="BitstreamVeraSans-Roman-29"/>
     <path d="
M31 75.875
Q24.4688 64.6562 21.2812 53.6562
Q18.1094 42.6719 18.1094 31.3906
Q18.1094 20.125 21.3125 9.0625
Q24.5156 -2 31 -13.1875
L23.1875 -13.1875
Q15.875 -1.70312 12.2344 9.375
Q8.59375 20.4531 8.59375 31.3906
Q8.59375 42.2812 12.2031 53.3125
Q15.8281 64.3594 23.1875 75.875
z
" id="BitstreamVeraSans-Roman-28"/>
     <path d="
M5.51562 54.6875
L48.1875 54.6875
L48.1875 46.4844
L14.4062 7.17188
L48.1875 7.17188
L48.1875 0
L4.29688 0
L4.29688 8.20312
L38.0938 47.5156
L5.51562 47.5156
z
" id="BitstreamVeraSans-Roman-7a"/>
     <path d="
M11.7188 51.7031
L22.0156 51.7031
L22.0156 39.3125
L11.7188 39.3125
z

M11.7188 12.4062
L22.0156 12.4062
L22.0156 4
L14.0156 -11.625
L7.71875 -11.625
L11.7188 4
z
" id="BitstreamVeraSans-Roman-3b"/>
     <path d="
M9.42188 54.6875
L18.4062 54.6875
L18.4062 0
L9.42188 0
z

M9.42188 75.9844
L18.4062 75.9844
L18.4062 64.5938
L9.42188 64.5938
z
" id="BitstreamVeraSans-Roman-69"/>
     <path d="
M34.1875 63.1875
L20.7969 26.9062
L47.6094 26.9062
z

M28.6094 72.9062
L39.7969 72.9062
L67.5781 0
L57.3281 0
L50.6875 18.7031
L17.8281 18.7031
L11.1875 0
L0.78125 0
z
" id="BitstreamVeraSans-Roman-41"/>
     <path d="
M56.2031 29.5938
L56.2031 25.2031
L14.8906 25.2031
Q15.4844 15.9219 20.4844 11.0625
Q25.4844 6.20312 34.4219 6.20312
Q39.5938 6.20312 44.4531 7.46875
Q49.3125 8.73438 54.1094 11.2812
L54.1094 2.78125
Q49.2656 0.734375 44.1875 -0.34375
Q39.1094 -1.42188 33.8906 -1.42188
Q20.7969 -1.42188 13.1562 6.1875
Q5.51562 13.8125 5.51562 26.8125
Q5.51562 40.2344 12.7656 48.1094
Q20.0156 56 32.3281 56
Q43.3594 56 49.7812 48.8906
Q56.2031 41.7969 56.2031 29.5938
M47.2188 32.2344
Q47.125 39.5938 43.0938 43.9844
Q39.0625 48.3906 32.4219 48.3906
Q24.9062 48.3906 20.3906 44.1406
Q15.875 39.8906 15.1875 32.1719
z
" id="BitstreamVeraSans-Roman-65"/>
     <path d="
M45.4062 46.3906
L45.4062 75.9844
L54.3906 75.9844
L54.3906 0
L45.4062 0
L45.4062 8.20312
Q42.5781 3.32812 38.25 0.953125
Q33.9375 -1.42188 27.875 -1.42188
Q17.9688 -1.42188 11.7344 6.48438
Q5.51562 14.4062 5.51562 27.2969
Q5.51562 40.1875 11.7344 48.0938
Q17.9688 56 27.875 56
Q33.9375 56 38.25 53.625
Q42.5781 51.2656 45.4062 46.3906
M14.7969 27.2969
Q14.7969 17.3906 18.875 11.75
Q22.9531 6.10938 30.0781 6.10938
Q37.2031 6.10938 41.2969 11.75
Q45.4062 17.3906 45.4062 27.2969
Q45.4062 37.2031 41.2969 42.8438
Q37.2031 48.4844 30.0781 48.4844
Q22.9531 48.4844 18.875 42.8438
Q14.7969 37.2031 14.7969 27.2969" id="BitstreamVeraSans-Roman-64"/>
     <path d="
M34.2812 27.4844
Q23.3906 27.4844 19.1875 25
Q14.9844 22.5156 14.9844 16.5
Q14.9844 11.7188 18.1406 8.90625
Q21.2969 6.10938 26.7031 6.10938
Q34.1875 6.10938 38.7031 11.4062
Q43.2188 16.7031 43.2188 25.4844
L43.2188 27.4844
z

M52.2031 31.2031
L52.2031 0
L43.2188 0
L43.2188 8.29688
Q40.1406 3.32812 35.5469 0.953125
Q30.9531 -1.42188 24.3125 -1.42188
Q15.9219 -1.42188 10.9531 3.29688
Q6 8.01562 6 15.9219
Q6 25.1406 12.1719 29.8281
Q18.3594 34.5156 30.6094 34.5156
L43.2188 34.5156
L43.2188 35.4062
Q43.2188 41.6094 39.1406 45
Q35.0625 48.3906 27.6875 48.3906
Q23 48.3906 18.5469 47.2656
Q14.1094 46.1406 10.0156 43.8906
L10.0156 52.2031
Q14.9375 54.1094 19.5781 55.0469
Q24.2188 56 28.6094 56
Q40.4844 56 46.3438 49.8438
Q52.2031 43.7031 52.2031 31.2031" id="BitstreamVeraSans-Roman-61"/>
     <path d="
M48.7812 52.5938
L48.7812 44.1875
Q44.9688 46.2969 41.1406 47.3438
Q37.3125 48.3906 33.4062 48.3906
Q24.6562 48.3906 19.8125 42.8438
Q14.9844 37.3125 14.9844 27.2969
Q14.9844 17.2812 19.8125 11.7344
Q24.6562 6.20312 33.4062 6.20312
Q37.3125 6.20312 41.1406 7.25
Q44.9688 8.29688 48.7812 10.4062
L48.7812 2.09375
Q45.0156 0.34375 40.9844 -0.53125
Q36.9688 -1.42188 32.4219 -1.42188
Q20.0625 -1.42188 12.7812 6.34375
Q5.51562 14.1094 5.51562 27.2969
Q5.51562 40.6719 12.8594 48.3281
Q20.2188 56 33.0156 56
Q37.1562 56 41.1094 55.1406
Q45.0625 54.2969 48.7812 52.5938" id="BitstreamVeraSans-Roman-63"/>
     <path d="
M48.6875 27.2969
Q48.6875 37.2031 44.6094 42.8438
Q40.5312 48.4844 33.4062 48.4844
Q26.2656 48.4844 22.1875 42.8438
Q18.1094 37.2031 18.1094 27.2969
Q18.1094 17.3906 22.1875 11.75
Q26.2656 6.10938 33.4062 6.10938
Q40.5312 6.10938 44.6094 11.75
Q48.6875 17.3906 48.6875 27.2969
M18.1094 46.3906
Q20.9531 51.2656 25.2656 53.625
Q29.5938 56 35.5938 56
Q45.5625 56 51.7812 48.0938
Q58.0156 40.1875 58.0156 27.2969
Q58.0156 14.4062 51.7812 6.48438
Q45.5625 -1.42188 35.5938 -1.42188
Q29.5938 -1.42188 25.2656 0.953125
Q20.9531 3.32812 18.1094 8.20312
L18.1094 0
L9.07812 0
L9.07812 75.9844
L18.1094 75.9844
z
" id="BitstreamVeraSans-Roman-62"/>
     <path d="
M9.8125 72.9062
L24.5156 72.9062
L43.1094 23.2969
L61.8125 72.9062
L76.5156 72.9062
L76.5156 0
L66.8906 0
L66.8906 64.0156
L48.0938 14.0156
L38.1875 14.0156
L19.3906 64.0156
L19.3906 0
L9.8125 0
z
" id="BitstreamVeraSans-Roman-4d"/>
     <path d="
M54.8906 33.0156
L54.8906 0
L45.9062 0
L45.9062 32.7188
Q45.9062 40.4844 42.875 44.3281
Q39.8438 48.1875 33.7969 48.1875
Q26.5156 48.1875 22.3125 43.5469
Q18.1094 38.9219 18.1094 30.9062
L18.1094 0
L9.07812 0
L9.07812 54.6875
L18.1094 54.6875
L18.1094 46.1875
Q21.3438 51.125 25.7031 53.5625
Q30.0781 56 35.7969 56
Q45.2188 56 50.0469 50.1719
Q54.8906 44.3438 54.8906 33.0156" id="BitstreamVeraSans-Roman-6e"/>
     <path d="
M30.6094 48.3906
Q23.3906 48.3906 19.1875 42.75
Q14.9844 37.1094 14.9844 27.2969
Q14.9844 17.4844 19.1562 11.8438
Q23.3438 6.20312 30.6094 6.20312
Q37.7969 6.20312 41.9844 11.8594
Q46.1875 17.5312 46.1875 27.2969
Q46.1875 37.0156 41.9844 42.7031
Q37.7969 48.3906 30.6094 48.3906
M30.6094 56
Q42.3281 56 49.0156 48.375
Q55.7188 40.7656 55.7188 27.2969
Q55.7188 13.875 49.0156 6.21875
Q42.3281 -1.42188 30.6094 -1.42188
Q18.8438 -1.42188 12.1719 6.21875
Q5.51562 13.875 5.51562 27.2969
Q5.51562 40.7656 12.1719 48.375
Q18.8438 56 30.6094 56" id="BitstreamVeraSans-Roman-6f"/>
     <path d="
M9.42188 75.9844
L18.4062 75.9844
L18.4062 0
L9.42188 0
z
" id="BitstreamVeraSans-Roman-6c"/>
     <path d="
M9.07812 75.9844
L18.1094 75.9844
L18.1094 31.1094
L44.9219 54.6875
L56.3906 54.6875
L27.3906 29.1094
L57.625 0
L45.9062 0
L18.1094 26.7031
L18.1094 0
L9.07812 0
z
" id="BitstreamVeraSans-Roman-6b"/>
     <path d="
M44.3906 34.1875
Q47.5625 33.1094 50.5625 29.5938
Q53.5625 26.0781 56.5938 19.9219
L66.6094 0
L56 0
L46.6875 18.7031
Q43.0625 26.0312 39.6719 28.4219
Q36.2812 30.8125 30.4219 30.8125
L19.6719 30.8125
L19.6719 0
L9.8125 0
L9.8125 72.9062
L32.0781 72.9062
Q44.5781 72.9062 50.7344 67.6719
Q56.8906 62.4531 56.8906 51.9062
Q56.8906 45.0156 53.6875 40.4688
Q50.4844 35.9375 44.3906 34.1875
M19.6719 64.7969
L19.6719 38.9219
L32.0781 38.9219
Q39.2031 38.9219 42.8438 42.2188
Q46.4844 45.5156 46.4844 51.9062
Q46.4844 58.2969 42.8438 61.5469
Q39.2031 64.7969 32.0781 64.7969
z
" id="BitstreamVeraSans-Roman-52"/>
     <path d="
M54.8906 54.6875
L35.1094 28.0781
L55.9062 0
L45.3125 0
L29.3906 21.4844
L13.4844 0
L2.875 0
L24.125 28.6094
L4.6875 54.6875
L15.2812 54.6875
L29.7812 35.2031
L44.2812 54.6875
z
" id="BitstreamVeraSans-Roman-78"/>
     <path d="
M18.3125 70.2188
L18.3125 54.6875
L36.8125 54.6875
L36.8125 47.7031
L18.3125 47.7031
L18.3125 18.0156
Q18.3125 11.3281 20.1406 9.42188
Q21.9688 7.51562 27.5938 7.51562
L36.8125 7.51562
L36.8125 0
L27.5938 0
Q17.1875 0 13.2344 3.875
Q9.28125 7.76562 9.28125 18.0156
L9.28125 47.7031
L2.6875 47.7031
L2.6875 54.6875
L9.28125 54.6875
L9.28125 70.2188
z
" id="BitstreamVeraSans-Roman-74"/>
     <path d="
M8.5 21.5781
L8.5 54.6875
L17.4844 54.6875
L17.4844 21.9219
Q17.4844 14.1562 20.5 10.2656
Q23.5312 6.39062 29.5938 6.39062
Q36.8594 6.39062 41.0781 11.0312
Q45.3125 15.6719 45.3125 23.6875
L45.3125 54.6875
L54.2969 54.6875
L54.2969 0
L45.3125 0
L45.3125 8.40625
Q42.0469 3.42188 37.7188 1
Q33.4062 -1.42188 27.6875 -1.42188
Q18.2656 -1.42188 13.375 4.4375
Q8.5 10.2969 8.5 21.5781" id="BitstreamVeraSans-Roman-75"/>
     <path d="
M41.1094 46.2969
Q39.5938 47.1719 37.8125 47.5781
Q36.0312 48 33.8906 48
Q26.2656 48 22.1875 43.0469
Q18.1094 38.0938 18.1094 28.8125
L18.1094 0
L9.07812 0
L9.07812 54.6875
L18.1094 54.6875
L18.1094 46.1875
Q20.9531 51.1719 25.4844 53.5781
Q30.0312 56 36.5312 56
Q37.4531 56 38.5781 55.875
Q39.7031 55.7656 41.0625 55.5156
z
" id="BitstreamVeraSans-Roman-72"/>
    </defs>
    <g transform="translate(7.2 16.318125)scale(0.12 -0.12)">
     <use xlink:href="#BitstreamVeraSans-Roman-7a"/>
     <use x="52.490234375" xlink:href="#BitstreamVeraSans-Roman-26"/>
     <use x="130.46875" xlink:href="#BitstreamVeraSans-Roman-78"/>
     <use x="189.6484375" xlink:href="#BitstreamVeraSans-Roman-41"/>
     <use x="258.056640625" xlink:href="#BitstreamVeraSans-Roman-52"/>
     <use x="327.5390625" xlink:href="#BitstreamVeraSans-Roman-4d"/>
     <use x="413.818359375" xlink:href="#BitstreamVeraSans-Roman-20"/>
     <use x="445.60546875" xlink:href="#BitstreamVeraSans-Roman-20"/>
     <use x="477.392578125" xlink:href="#BitstreamVeraSans-Roman-6f"/>
     <use x="538.57421875" xlink:href="#BitstreamVeraSans-Roman-72"/>
     <use x="579.6875" xlink:href="#BitstreamVeraSans-Roman-69"/>
     <use x="607.470703125" xlink:href="#BitstreamVeraSans-Roman-65"/>
     <use x="668.994140625" xlink:href="#BitstreamVeraSans-Roman-6e"/>
     <use x="732.373046875" xlink:href="#BitstreamVeraSans-Roman-74"/>
     <use x="771.58203125" xlink:href="#BitstreamVeraSans-Roman-65"/>
     <use x="833.10546875" xlink:href="#BitstreamVeraSans-Roman-64"/>
     <use x="896.58203125" xlink:href="#BitstreamVeraSans-Roman-20"/>
     <use x="928.369140625" xlink:href="#BitstreamVeraSans-Roman-28"/>
     <use x="967.3828125" xlink:href="#BitstreamVeraSans-Roman-62"/>
     <use x="1030.859375" xlink:href="#BitstreamVeraSans-Roman-6c"/>
     <use x="1058.64257812" xlink:href="#BitstreamVeraSans-Roman-61"/>
     <use x="1119.921875" xlink:href="#BitstreamVeraSans-Roman-63"/>
     <use x="1174.90234375" xlink:href="#BitstreamVeraSans-Roman-6b"/>
     <use x="1232.8125" xlink:href="#BitstreamVeraSans-Roman-29"/>
     <use x="1271.82617188" xlink:href="#BitstreamVeraSans-Roman-20"/>
     <use x="1303.61328125" xlink:href="#BitstreamVeraSans-Roman-61"/>
     <use x="1364.89257812" xlink:href="#BitstreamVeraSans-Roman-6e"/>
     <use x="1428.27148438" xlink:href="#BitstreamVeraSans-Roman-64"/>
     <use x="1491.74804688" xlink:href="#BitstreamVeraSans-Roman-20"/>
     <use x="1523.53515625" xlink:href="#BitstreamVeraSans-Roman-72"/>
     <use x="1562.3984375" xlink:href="#BitstreamVeraSans-Roman-6f"/>
     <use x="1623.58007812" xlink:href="#BitstreamVeraSans-Roman-74"/>
     <use x="1662.7890625" xlink:href="#BitstreamVeraSans-Roman-61"/>
     <use x="1724.06835938" xlink:href="#BitstreamVeraSans-Roman-74"/>
     <use x="1763.27734375" xlink:href="#BitstreamVeraSans-Roman-65"/>
     <use x="1824.80078125" xlink:href="#BitstreamVeraSans-Roman-64"/>
     <use x="1888.27734375" xlink:href="#BitstreamVeraSans-Roman-20"/>
     <use x="1920.06445312" xlink:href="#BitstreamVeraSans-Roman-28"/>
     <use x="1959.078125" xlink:href="#BitstreamVeraSans-Roman-63"/>
     <use x="2014.05859375" xlink:href="#BitstreamVeraSans-Roman-6f"/>
     <use x="2075.24023438" xlink:href="#BitstreamVeraSans-Roman-72"/>
     <use x="2114.60351562" xlink:href="#BitstreamVeraSans-Roman-72"/>
     <use x="2153.46679688" xlink:href="#BitstreamVeraSans-Roman-65"/>
     <use x="2214.99023438" xlink:href="#BitstreamVeraSans-Roman-63"/>
     <use x="2269.97070312" xlink:href="#BitstreamVeraSans-Roman-74"/>
     <use x="2309.1796875" xlink:href="#BitstreamVeraSans-Roman-65"/>
     <use x="2370.703125" xlink:href="#BitstreamVeraSans-Roman-64"/>
     <use x="2434.1796875" xlink:href="#BitstreamVeraSans-Roman-3b"/>
     <use x="2467.87109375" xlink:href="#BitstreamVeraSans-Roman-20"/>
     <use x="2499.65820312" xlink:href="#BitstreamVeraSans-Roman-62"/>
     <use x="2563.13476562" xlink:href="#BitstreamVeraSans-Roman-6c"/>
     <use x="2590.91796875" xlink:href="#BitstreamVeraSans-Roman-75"/>
     <use x="2654.296875" xlink:href="#BitstreamVeraSans-Roman-65"/>
     <use x="2715.8203125" xlink:href="#BitstreamVeraSans-Roman-29"/>
    </g>
   </g>
  </g>
 </g>
 <defs>
  <clipPath id="p774233bd5e">
   <rect height="248.9" width="239.83671875" x="52.058515625" y="21.318125"/>
  </clipPath>
 </defs>
</svg>
