<?xml version="1.0" encoding="utf-8" standalone="no"?>
<!DOCTYPE svg PUBLIC "-//W3C//DTD SVG 1.1//EN"
  "http://www.w3.org/Graphics/SVG/1.1/DTD/svg11.dtd">
<!-- Created with matplotlib (http://matplotlib.org/) -->
<svg height="507pt" version="1.1" viewBox="0 0 496 507" width="496pt" xmlns="http://www.w3.org/2000/svg" xmlns:xlink="http://www.w3.org/1999/xlink">
 <defs>
  <style type="text/css">
*{stroke-linecap:butt;stroke-linejoin:round;}
  </style>
 </defs>
 <g id="figure_1">
  <g id="patch_1">
   <path d="
M0 507.096
L496.796 507.096
L496.796 0
L0 0
z
" style="fill:none;"/>
  </g>
  <g id="axes_1">
   <g id="PathCollection_1">
    <defs>
     <path d="
M0 2.23607
C0.593012 2.23607 1.16182 2.00046 1.58114 1.58114
C2.00046 1.16182 2.23607 0.593012 2.23607 0
C2.23607 -0.593012 2.00046 -1.16182 1.58114 -1.58114
C1.16182 -2.00046 0.593012 -2.23607 0 -2.23607
C-0.593012 -2.23607 -1.16182 -2.00046 -1.58114 -1.58114
C-2.00046 -1.16182 -2.23607 -0.593012 -2.23607 0
C-2.23607 0.593012 -2.00046 1.16182 -1.58114 1.58114
C-1.16182 2.00046 -0.593012 2.23607 0 2.23607
z
" id="m36ab973de9" style="stroke:#0000ff;"/>
    </defs>
    <g clip-path="url(#p860f805187)">
     <use style="fill:#0000ff;stroke:#0000ff;" x="371.568350525" xlink:href="#m36ab973de9" y="355.968972952"/>
    </g>
   </g>
   <g id="PathCollection_2">
    <defs>
     <path d="
M0 2.23607
C0.593012 2.23607 1.16182 2.00046 1.58114 1.58114
C2.00046 1.16182 2.23607 0.593012 2.23607 0
C2.23607 -0.593012 2.00046 -1.16182 1.58114 -1.58114
C1.16182 -2.00046 0.593012 -2.23607 0 -2.23607
C-0.593012 -2.23607 -1.16182 -2.00046 -1.58114 -1.58114
C-2.00046 -1.16182 -2.23607 -0.593012 -2.23607 0
C-2.23607 0.593012 -2.00046 1.16182 -1.58114 1.58114
C-1.16182 2.00046 -0.593012 2.23607 0 2.23607
z
" id="m388a7c096d" style="stroke:#ff0000;"/>
    </defs>
    <g clip-path="url(#p860f805187)">
     <use style="fill:#ff0000;stroke:#ff0000;" x="367.371247504" xlink:href="#m388a7c096d" y="338.748791831"/>
    </g>
   </g>
   <g id="line2d_1">
    <path clip-path="url(#p860f805187)" d="
M261.678 96.3983
L264.424 96.4223
L267.17 96.4942
L272.655 96.7817
L278.127 97.2604
L283.579 97.9298
L289.005 98.7891
L294.397 99.8372
L299.749 101.073
L305.055 102.495
L310.308 104.101
L315.501 105.889
L320.63 107.857
L325.686 110.004
L330.664 112.325
L335.558 114.819
L340.363 117.482
L345.071 120.311
L349.678 123.303
L354.177 126.453
L358.564 129.759
L362.833 133.216
L366.979 136.82
L370.996 140.566
L374.88 144.45
L378.626 148.467
L382.23 152.613
L385.687 156.882
L388.993 161.268
L392.143 165.768
L395.135 170.375
L397.964 175.083
L400.627 179.887
L403.121 184.782
L405.442 189.76
L407.588 194.816
L409.557 199.944
L411.345 205.138
L412.951 210.391
L414.373 215.697
L415.609 221.049
L416.657 226.441
L417.516 231.866
L418.185 237.319
L418.664 242.791
L418.952 248.276
L419.048 253.768
L418.952 259.26
L418.664 264.746
L418.185 270.218
L417.516 275.67
L416.657 281.095
L415.609 286.487
L414.373 291.839
L412.951 297.145
L411.345 302.398
L409.557 307.592
L407.588 312.72
L405.442 317.776
L403.121 322.755
L400.627 327.649
L397.964 332.453
L395.135 337.161
L392.143 341.768
L388.993 346.268
L385.687 350.655
L382.23 354.923
L378.626 359.069
L374.88 363.086
L370.996 366.97
L366.979 370.717
L362.833 374.32
L358.564 377.777
L354.177 381.083
L349.678 384.234
L345.071 387.225
L340.363 390.054
L335.558 392.717
L330.664 395.211
L325.686 397.533
L320.63 399.679
L315.501 401.647
L310.308 403.436
L305.055 405.042
L299.749 406.463
L294.397 407.699
L289.005 408.747
L283.579 409.606
L278.127 410.276
L272.655 410.755
L267.17 411.042
L261.678 411.138
L256.186 411.042
L250.7 410.755
L245.228 410.276
L239.776 409.606
L234.351 408.747
L228.959 407.699
L223.607 406.463
L218.301 405.042
L213.048 403.436
L207.854 401.647
L202.726 399.679
L197.67 397.533
L192.691 395.211
L187.797 392.717
L182.993 390.054
L178.284 387.225
L173.678 384.234
L169.178 381.083
L164.791 377.777
L160.522 374.32
L156.377 370.717
L152.359 366.97
L148.475 363.086
L144.729 359.069
L141.125 354.923
L137.669 350.655
L134.363 346.268
L131.212 341.768
L128.221 337.161
L125.391 332.453
L122.728 327.649
L120.235 322.755
L117.913 317.776
L115.767 312.72
L113.798 307.592
L112.01 302.398
L110.404 297.145
L108.982 291.839
L107.747 286.487
L106.699 281.095
L105.839 275.67
L105.17 270.218
L104.691 264.746
L104.404 259.26
L104.308 253.768
L104.404 248.276
L104.691 242.791
L105.17 237.319
L105.839 231.866
L106.699 226.441
L107.747 221.049
L108.982 215.697
L110.404 210.391
L112.01 205.138
L113.798 199.944
L115.767 194.816
L117.913 189.76
L120.235 184.782
L122.728 179.887
L125.391 175.083
L128.221 170.375
L131.212 165.768
L134.363 161.268
L137.669 156.882
L141.125 152.613
L144.729 148.467
L148.475 144.45
L152.359 140.566
L156.377 136.82
L160.522 133.216
L164.791 129.759
L169.178 126.453
L173.678 123.303
L178.284 120.311
L182.993 117.482
L187.797 114.819
L192.691 112.325
L197.67 110.004
L202.726 107.857
L207.854 105.889
L213.048 104.101
L218.301 102.495
L223.607 101.073
L228.959 99.8372
L234.351 98.7891
L239.776 97.9298
L245.228 97.2604
L250.7 96.7817
L256.186 96.4942
L261.678 96.3983
L261.678 96.3983" style="fill:none;stroke:#000000;stroke-linecap:square;"/>
   </g>
   <g id="line2d_2">
    <defs>
     <path d="
M-3 0
L3 0
M0 3
L0 -3" id="m9d0eee4805" style="stroke:#000000;stroke-width:0.5;"/>
    </defs>
    <g clip-path="url(#p860f805187)">
     <use style="stroke:#000000;stroke-width:0.5;" x="261.677734375" xlink:href="#m9d0eee4805" y="110.712836424"/>
     <use style="stroke:#000000;stroke-width:0.5;" x="261.677734375" xlink:href="#m9d0eee4805" y="126.116095953"/>
     <use style="stroke:#000000;stroke-width:0.5;" x="261.677734375" xlink:href="#m9d0eee4805" y="142.490864502"/>
     <use style="stroke:#000000;stroke-width:0.5;" x="261.677734375" xlink:href="#m9d0eee4805" y="159.712520194"/>
     <use style="stroke:#000000;stroke-width:0.5;" x="261.677734375" xlink:href="#m9d0eee4805" y="177.649995831"/>
     <use style="stroke:#000000;stroke-width:0.5;" x="261.677734375" xlink:href="#m9d0eee4805" y="196.166776392"/>
     <use style="stroke:#000000;stroke-width:0.5;" x="261.677734375" xlink:href="#m9d0eee4805" y="215.121937997"/>
     <use style="stroke:#000000;stroke-width:0.5;" x="261.677734375" xlink:href="#m9d0eee4805" y="234.371220421"/>
     <use style="stroke:#000000;stroke-width:0.5;" x="261.677734375" xlink:href="#m9d0eee4805" y="253.768125"/>
    </g>
   </g>
   <g id="line2d_3">
    <g clip-path="url(#p860f805187)">
     <use style="stroke:#000000;stroke-width:0.5;" x="404.733022951" xlink:href="#m9d0eee4805" y="253.768125"/>
     <use style="stroke:#000000;stroke-width:0.5;" x="389.329763422" xlink:href="#m9d0eee4805" y="253.768125"/>
     <use style="stroke:#000000;stroke-width:0.5;" x="372.954994873" xlink:href="#m9d0eee4805" y="253.768125"/>
     <use style="stroke:#000000;stroke-width:0.5;" x="355.733339181" xlink:href="#m9d0eee4805" y="253.768125"/>
     <use style="stroke:#000000;stroke-width:0.5;" x="337.795863544" xlink:href="#m9d0eee4805" y="253.768125"/>
     <use style="stroke:#000000;stroke-width:0.5;" x="319.279082983" xlink:href="#m9d0eee4805" y="253.768125"/>
     <use style="stroke:#000000;stroke-width:0.5;" x="300.323921378" xlink:href="#m9d0eee4805" y="253.768125"/>
     <use style="stroke:#000000;stroke-width:0.5;" x="281.074638954" xlink:href="#m9d0eee4805" y="253.768125"/>
    </g>
   </g>
   <g id="line2d_4">
    <g clip-path="url(#p860f805187)">
     <use style="stroke:#000000;stroke-width:0.5;" x="261.677734375" xlink:href="#m9d0eee4805" y="396.823413576"/>
     <use style="stroke:#000000;stroke-width:0.5;" x="261.677734375" xlink:href="#m9d0eee4805" y="381.420154047"/>
     <use style="stroke:#000000;stroke-width:0.5;" x="261.677734375" xlink:href="#m9d0eee4805" y="365.045385498"/>
     <use style="stroke:#000000;stroke-width:0.5;" x="261.677734375" xlink:href="#m9d0eee4805" y="347.823729806"/>
     <use style="stroke:#000000;stroke-width:0.5;" x="261.677734375" xlink:href="#m9d0eee4805" y="329.886254169"/>
     <use style="stroke:#000000;stroke-width:0.5;" x="261.677734375" xlink:href="#m9d0eee4805" y="311.369473608"/>
     <use style="stroke:#000000;stroke-width:0.5;" x="261.677734375" xlink:href="#m9d0eee4805" y="292.414312003"/>
     <use style="stroke:#000000;stroke-width:0.5;" x="261.677734375" xlink:href="#m9d0eee4805" y="273.165029579"/>
    </g>
   </g>
   <g id="line2d_5">
    <g clip-path="url(#p860f805187)">
     <use style="stroke:#000000;stroke-width:0.5;" x="118.622445799" xlink:href="#m9d0eee4805" y="253.768125"/>
     <use style="stroke:#000000;stroke-width:0.5;" x="134.025705328" xlink:href="#m9d0eee4805" y="253.768125"/>
     <use style="stroke:#000000;stroke-width:0.5;" x="150.400473877" xlink:href="#m9d0eee4805" y="253.768125"/>
     <use style="stroke:#000000;stroke-width:0.5;" x="167.622129569" xlink:href="#m9d0eee4805" y="253.768125"/>
     <use style="stroke:#000000;stroke-width:0.5;" x="185.559605206" xlink:href="#m9d0eee4805" y="253.768125"/>
     <use style="stroke:#000000;stroke-width:0.5;" x="204.076385767" xlink:href="#m9d0eee4805" y="253.768125"/>
     <use style="stroke:#000000;stroke-width:0.5;" x="223.031547372" xlink:href="#m9d0eee4805" y="253.768125"/>
     <use style="stroke:#000000;stroke-width:0.5;" x="242.280829796" xlink:href="#m9d0eee4805" y="253.768125"/>
    </g>
   </g>
   <g id="line2d_6">
    <path clip-path="url(#p860f805187)" d="
M261.678 96.3983
L261.678 97.7776
L261.678 99.1688
L261.678 100.572" style="fill:none;stroke:#000000;stroke-linecap:square;"/>
   </g>
   <g id="line2d_7">
    <path clip-path="url(#p860f805187)" d="
M289.005 98.7891
L288.765 100.147
L288.524 101.517
L288.28 102.899" style="fill:none;stroke:#000000;stroke-linecap:square;"/>
   </g>
   <g id="line2d_8">
    <path clip-path="url(#p860f805187)" d="
M315.501 105.889
L315.03 107.185
L314.554 108.492
L314.074 109.811" style="fill:none;stroke:#000000;stroke-linecap:square;"/>
   </g>
   <g id="line2d_9">
    <path clip-path="url(#p860f805187)" d="
M340.363 117.482
L339.673 118.676
L338.977 119.881
L338.276 121.096" style="fill:none;stroke:#000000;stroke-linecap:square;"/>
   </g>
   <g id="line2d_10">
    <path clip-path="url(#p860f805187)" d="
M362.833 133.216
L361.947 134.272
L361.052 135.338
L360.15 136.413" style="fill:none;stroke:#000000;stroke-linecap:square;"/>
   </g>
   <g id="line2d_11">
    <path clip-path="url(#p860f805187)" d="
M382.23 152.613
L381.173 153.499
L380.108 154.394
L379.033 155.295" style="fill:none;stroke:#000000;stroke-linecap:square;"/>
   </g>
   <g id="line2d_12">
    <path clip-path="url(#p860f805187)" d="
M397.964 175.083
L396.769 175.773
L395.565 176.468
L394.35 177.17" style="fill:none;stroke:#000000;stroke-linecap:square;"/>
   </g>
   <g id="line2d_13">
    <path clip-path="url(#p860f805187)" d="
M409.557 199.944
L408.261 200.416
L406.954 200.892
L405.635 201.372" style="fill:none;stroke:#000000;stroke-linecap:square;"/>
   </g>
   <g id="line2d_14">
    <path clip-path="url(#p860f805187)" d="
M416.657 226.441
L415.298 226.681
L413.928 226.922
L412.547 227.166" style="fill:none;stroke:#000000;stroke-linecap:square;"/>
   </g>
   <g id="line2d_15">
    <path clip-path="url(#p860f805187)" d="
M419.048 253.768
L417.668 253.768
L416.277 253.768
L414.874 253.768" style="fill:none;stroke:#000000;stroke-linecap:square;"/>
   </g>
   <g id="line2d_16">
    <path clip-path="url(#p860f805187)" d="
M416.657 281.095
L415.298 280.856
L413.928 280.614
L412.547 280.37" style="fill:none;stroke:#000000;stroke-linecap:square;"/>
   </g>
   <g id="line2d_17">
    <path clip-path="url(#p860f805187)" d="
M409.557 307.592
L408.261 307.12
L406.954 306.644
L405.635 306.164" style="fill:none;stroke:#000000;stroke-linecap:square;"/>
   </g>
   <g id="line2d_18">
    <path clip-path="url(#p860f805187)" d="
M397.964 332.453
L396.769 331.763
L395.565 331.068
L394.35 330.366" style="fill:none;stroke:#000000;stroke-linecap:square;"/>
   </g>
   <g id="line2d_19">
    <path clip-path="url(#p860f805187)" d="
M382.23 354.923
L381.173 354.037
L380.108 353.143
L379.033 352.241" style="fill:none;stroke:#000000;stroke-linecap:square;"/>
   </g>
   <g id="line2d_20">
    <path clip-path="url(#p860f805187)" d="
M362.833 374.32
L361.947 373.264
L361.052 372.198
L360.15 371.123" style="fill:none;stroke:#000000;stroke-linecap:square;"/>
   </g>
   <g id="line2d_21">
    <path clip-path="url(#p860f805187)" d="
M340.363 390.054
L339.673 388.86
L338.977 387.655
L338.276 386.44" style="fill:none;stroke:#000000;stroke-linecap:square;"/>
   </g>
   <g id="line2d_22">
    <path clip-path="url(#p860f805187)" d="
M315.501 401.647
L315.03 400.351
L314.554 399.044
L314.074 397.726" style="fill:none;stroke:#000000;stroke-linecap:square;"/>
   </g>
   <g id="line2d_23">
    <path clip-path="url(#p860f805187)" d="
M289.005 408.747
L288.765 407.389
L288.524 406.019
L288.28 404.637" style="fill:none;stroke:#000000;stroke-linecap:square;"/>
   </g>
   <g id="line2d_24">
    <path clip-path="url(#p860f805187)" d="
M261.678 411.138
L261.678 409.759
L261.678 408.367
L261.678 406.965" style="fill:none;stroke:#000000;stroke-linecap:square;"/>
   </g>
   <g id="line2d_25">
    <path clip-path="url(#p860f805187)" d="
M234.351 408.747
L234.59 407.389
L234.832 406.019
L235.075 404.637" style="fill:none;stroke:#000000;stroke-linecap:square;"/>
   </g>
   <g id="line2d_26">
    <path clip-path="url(#p860f805187)" d="
M207.854 401.647
L208.326 400.351
L208.802 399.044
L209.281 397.726" style="fill:none;stroke:#000000;stroke-linecap:square;"/>
   </g>
   <g id="line2d_27">
    <path clip-path="url(#p860f805187)" d="
M182.993 390.054
L183.682 388.86
L184.378 387.655
L185.08 386.44" style="fill:none;stroke:#000000;stroke-linecap:square;"/>
   </g>
   <g id="line2d_28">
    <path clip-path="url(#p860f805187)" d="
M160.522 374.32
L161.409 373.264
L162.303 372.198
L163.205 371.123" style="fill:none;stroke:#000000;stroke-linecap:square;"/>
   </g>
   <g id="line2d_29">
    <path clip-path="url(#p860f805187)" d="
M141.125 354.923
L142.182 354.037
L143.248 353.143
L144.322 352.241" style="fill:none;stroke:#000000;stroke-linecap:square;"/>
   </g>
   <g id="line2d_30">
    <path clip-path="url(#p860f805187)" d="
M125.391 332.453
L126.586 331.763
L127.791 331.068
L129.006 330.366" style="fill:none;stroke:#000000;stroke-linecap:square;"/>
   </g>
   <g id="line2d_31">
    <path clip-path="url(#p860f805187)" d="
M113.798 307.592
L115.095 307.12
L116.402 306.644
L117.72 306.164" style="fill:none;stroke:#000000;stroke-linecap:square;"/>
   </g>
   <g id="line2d_32">
    <path clip-path="url(#p860f805187)" d="
M106.699 281.095
L108.057 280.856
L109.427 280.614
L110.809 280.37" style="fill:none;stroke:#000000;stroke-linecap:square;"/>
   </g>
   <g id="line2d_33">
    <path clip-path="url(#p860f805187)" d="
M104.308 253.768
L105.687 253.768
L107.078 253.768
L108.481 253.768" style="fill:none;stroke:#000000;stroke-linecap:square;"/>
   </g>
   <g id="line2d_34">
    <path clip-path="url(#p860f805187)" d="
M106.699 226.441
L108.057 226.681
L109.427 226.922
L110.809 227.166" style="fill:none;stroke:#000000;stroke-linecap:square;"/>
   </g>
   <g id="line2d_35">
    <path clip-path="url(#p860f805187)" d="
M113.798 199.944
L115.095 200.416
L116.402 200.892
L117.72 201.372" style="fill:none;stroke:#000000;stroke-linecap:square;"/>
   </g>
   <g id="line2d_36">
    <path clip-path="url(#p860f805187)" d="
M125.391 175.083
L126.586 175.773
L127.791 176.468
L129.006 177.17" style="fill:none;stroke:#000000;stroke-linecap:square;"/>
   </g>
   <g id="line2d_37">
    <path clip-path="url(#p860f805187)" d="
M141.125 152.613
L142.182 153.499
L143.248 154.394
L144.322 155.295" style="fill:none;stroke:#000000;stroke-linecap:square;"/>
   </g>
   <g id="line2d_38">
    <path clip-path="url(#p860f805187)" d="
M160.522 133.216
L161.409 134.272
L162.303 135.338
L163.205 136.413" style="fill:none;stroke:#000000;stroke-linecap:square;"/>
   </g>
   <g id="line2d_39">
    <path clip-path="url(#p860f805187)" d="
M182.993 117.482
L183.682 118.676
L184.378 119.881
L185.08 121.096" style="fill:none;stroke:#000000;stroke-linecap:square;"/>
   </g>
   <g id="line2d_40">
    <path clip-path="url(#p860f805187)" d="
M207.854 105.889
L208.326 107.185
L208.802 108.492
L209.281 109.811" style="fill:none;stroke:#000000;stroke-linecap:square;"/>
   </g>
   <g id="line2d_41">
    <path clip-path="url(#p860f805187)" d="
M234.351 98.7891
L234.59 100.147
L234.832 101.517
L235.075 102.899" style="fill:none;stroke:#000000;stroke-linecap:square;"/>
   </g>
   <g id="text_1">
    <!-- PW10-7d NRM upon cooling and warming (specimen coordinates) -->
    <defs>
     <path id="BitstreamVeraSans-Roman-20"/>
     <path d="
M8.01562 75.875
L15.8281 75.875
Q23.1406 64.3594 26.7812 53.3125
Q30.4219 42.2812 30.4219 31.3906
Q30.4219 20.4531 26.7812 9.375
Q23.1406 -1.70312 15.8281 -13.1875
L8.01562 -13.1875
Q14.5 -2 17.7031 9.0625
Q20.9062 20.125 20.9062 31.3906
Q20.9062 42.6719 17.7031 53.6562
Q14.5 64.6562 8.01562 75.875" id="BitstreamVeraSans-Roman-29"/>
     <path d="
M31 75.875
Q24.4688 64.6562 21.2812 53.6562
Q18.1094 42.6719 18.1094 31.3906
Q18.1094 20.125 21.3125 9.0625
Q24.5156 -2 31 -13.1875
L23.1875 -13.1875
Q15.875 -1.70312 12.2344 9.375
Q8.59375 20.4531 8.59375 31.3906
Q8.59375 42.2812 12.2031 53.3125
Q15.8281 64.3594 23.1875 75.875
z
" id="BitstreamVeraSans-Roman-28"/>
     <path d="
M9.8125 72.9062
L23.0938 72.9062
L55.4219 11.9219
L55.4219 72.9062
L64.9844 72.9062
L64.9844 0
L51.7031 0
L19.3906 60.9844
L19.3906 0
L9.8125 0
z
" id="BitstreamVeraSans-Roman-4e"/>
     <path d="
M9.8125 72.9062
L24.5156 72.9062
L43.1094 23.2969
L61.8125 72.9062
L76.5156 72.9062
L76.5156 0
L66.8906 0
L66.8906 64.0156
L48.0938 14.0156
L38.1875 14.0156
L19.3906 64.0156
L19.3906 0
L9.8125 0
z
" id="BitstreamVeraSans-Roman-4d"/>
     <path d="
M9.42188 54.6875
L18.4062 54.6875
L18.4062 0
L9.42188 0
z

M9.42188 75.9844
L18.4062 75.9844
L18.4062 64.5938
L9.42188 64.5938
z
" id="BitstreamVeraSans-Roman-69"/>
     <path d="
M56.2031 29.5938
L56.2031 25.2031
L14.8906 25.2031
Q15.4844 15.9219 20.4844 11.0625
Q25.4844 6.20312 34.4219 6.20312
Q39.5938 6.20312 44.4531 7.46875
Q49.3125 8.73438 54.1094 11.2812
L54.1094 2.78125
Q49.2656 0.734375 44.1875 -0.34375
Q39.1094 -1.42188 33.8906 -1.42188
Q20.7969 -1.42188 13.1562 6.1875
Q5.51562 13.8125 5.51562 26.8125
Q5.51562 40.2344 12.7656 48.1094
Q20.0156 56 32.3281 56
Q43.3594 56 49.7812 48.8906
Q56.2031 41.7969 56.2031 29.5938
M47.2188 32.2344
Q47.125 39.5938 43.0938 43.9844
Q39.0625 48.3906 32.4219 48.3906
Q24.9062 48.3906 20.3906 44.1406
Q15.875 39.8906 15.1875 32.1719
z
" id="BitstreamVeraSans-Roman-65"/>
     <path d="
M45.4062 46.3906
L45.4062 75.9844
L54.3906 75.9844
L54.3906 0
L45.4062 0
L45.4062 8.20312
Q42.5781 3.32812 38.25 0.953125
Q33.9375 -1.42188 27.875 -1.42188
Q17.9688 -1.42188 11.7344 6.48438
Q5.51562 14.4062 5.51562 27.2969
Q5.51562 40.1875 11.7344 48.0938
Q17.9688 56 27.875 56
Q33.9375 56 38.25 53.625
Q42.5781 51.2656 45.4062 46.3906
M14.7969 27.2969
Q14.7969 17.3906 18.875 11.75
Q22.9531 6.10938 30.0781 6.10938
Q37.2031 6.10938 41.2969 11.75
Q45.4062 17.3906 45.4062 27.2969
Q45.4062 37.2031 41.2969 42.8438
Q37.2031 48.4844 30.0781 48.4844
Q22.9531 48.4844 18.875 42.8438
Q14.7969 37.2031 14.7969 27.2969" id="BitstreamVeraSans-Roman-64"/>
     <path d="
M45.4062 27.9844
Q45.4062 37.75 41.375 43.1094
Q37.3594 48.4844 30.0781 48.4844
Q22.8594 48.4844 18.8281 43.1094
Q14.7969 37.75 14.7969 27.9844
Q14.7969 18.2656 18.8281 12.8906
Q22.8594 7.51562 30.0781 7.51562
Q37.3594 7.51562 41.375 12.8906
Q45.4062 18.2656 45.4062 27.9844
M54.3906 6.78125
Q54.3906 -7.17188 48.1875 -13.9844
Q42 -20.7969 29.2031 -20.7969
Q24.4688 -20.7969 20.2656 -20.0938
Q16.0625 -19.3906 12.1094 -17.9219
L12.1094 -9.1875
Q16.0625 -11.3281 19.9219 -12.3438
Q23.7812 -13.375 27.7812 -13.375
Q36.625 -13.375 41.0156 -8.76562
Q45.4062 -4.15625 45.4062 5.17188
L45.4062 9.625
Q42.625 4.78125 38.2812 2.39062
Q33.9375 0 27.875 0
Q17.8281 0 11.6719 7.65625
Q5.51562 15.3281 5.51562 27.9844
Q5.51562 40.6719 11.6719 48.3281
Q17.8281 56 27.875 56
Q33.9375 56 38.2812 53.6094
Q42.625 51.2188 45.4062 46.3906
L45.4062 54.6875
L54.3906 54.6875
z
" id="BitstreamVeraSans-Roman-67"/>
     <path d="
M34.2812 27.4844
Q23.3906 27.4844 19.1875 25
Q14.9844 22.5156 14.9844 16.5
Q14.9844 11.7188 18.1406 8.90625
Q21.2969 6.10938 26.7031 6.10938
Q34.1875 6.10938 38.7031 11.4062
Q43.2188 16.7031 43.2188 25.4844
L43.2188 27.4844
z

M52.2031 31.2031
L52.2031 0
L43.2188 0
L43.2188 8.29688
Q40.1406 3.32812 35.5469 0.953125
Q30.9531 -1.42188 24.3125 -1.42188
Q15.9219 -1.42188 10.9531 3.29688
Q6 8.01562 6 15.9219
Q6 25.1406 12.1719 29.8281
Q18.3594 34.5156 30.6094 34.5156
L43.2188 34.5156
L43.2188 35.4062
Q43.2188 41.6094 39.1406 45
Q35.0625 48.3906 27.6875 48.3906
Q23 48.3906 18.5469 47.2656
Q14.1094 46.1406 10.0156 43.8906
L10.0156 52.2031
Q14.9375 54.1094 19.5781 55.0469
Q24.2188 56 28.6094 56
Q40.4844 56 46.3438 49.8438
Q52.2031 43.7031 52.2031 31.2031" id="BitstreamVeraSans-Roman-61"/>
     <path d="
M48.7812 52.5938
L48.7812 44.1875
Q44.9688 46.2969 41.1406 47.3438
Q37.3125 48.3906 33.4062 48.3906
Q24.6562 48.3906 19.8125 42.8438
Q14.9844 37.3125 14.9844 27.2969
Q14.9844 17.2812 19.8125 11.7344
Q24.6562 6.20312 33.4062 6.20312
Q37.3125 6.20312 41.1406 7.25
Q44.9688 8.29688 48.7812 10.4062
L48.7812 2.09375
Q45.0156 0.34375 40.9844 -0.53125
Q36.9688 -1.42188 32.4219 -1.42188
Q20.0625 -1.42188 12.7812 6.34375
Q5.51562 14.1094 5.51562 27.2969
Q5.51562 40.6719 12.8594 48.3281
Q20.2188 56 33.0156 56
Q37.1562 56 41.1094 55.1406
Q45.0625 54.2969 48.7812 52.5938" id="BitstreamVeraSans-Roman-63"/>
     <path d="
M31.7812 66.4062
Q24.1719 66.4062 20.3281 58.9062
Q16.5 51.4219 16.5 36.375
Q16.5 21.3906 20.3281 13.8906
Q24.1719 6.39062 31.7812 6.39062
Q39.4531 6.39062 43.2812 13.8906
Q47.125 21.3906 47.125 36.375
Q47.125 51.4219 43.2812 58.9062
Q39.4531 66.4062 31.7812 66.4062
M31.7812 74.2188
Q44.0469 74.2188 50.5156 64.5156
Q56.9844 54.8281 56.9844 36.375
Q56.9844 17.9688 50.5156 8.26562
Q44.0469 -1.42188 31.7812 -1.42188
Q19.5312 -1.42188 13.0625 8.26562
Q6.59375 17.9688 6.59375 36.375
Q6.59375 54.8281 13.0625 64.5156
Q19.5312 74.2188 31.7812 74.2188" id="BitstreamVeraSans-Roman-30"/>
     <path d="
M12.4062 8.29688
L28.5156 8.29688
L28.5156 63.9219
L10.9844 60.4062
L10.9844 69.3906
L28.4219 72.9062
L38.2812 72.9062
L38.2812 8.29688
L54.3906 8.29688
L54.3906 0
L12.4062 0
z
" id="BitstreamVeraSans-Roman-31"/>
     <path d="
M8.20312 72.9062
L55.0781 72.9062
L55.0781 68.7031
L28.6094 0
L18.3125 0
L43.2188 64.5938
L8.20312 64.5938
z
" id="BitstreamVeraSans-Roman-37"/>
     <path d="
M54.8906 33.0156
L54.8906 0
L45.9062 0
L45.9062 32.7188
Q45.9062 40.4844 42.875 44.3281
Q39.8438 48.1875 33.7969 48.1875
Q26.5156 48.1875 22.3125 43.5469
Q18.1094 38.9219 18.1094 30.9062
L18.1094 0
L9.07812 0
L9.07812 54.6875
L18.1094 54.6875
L18.1094 46.1875
Q21.3438 51.125 25.7031 53.5625
Q30.0781 56 35.7969 56
Q45.2188 56 50.0469 50.1719
Q54.8906 44.3438 54.8906 33.0156" id="BitstreamVeraSans-Roman-6e"/>
     <path d="
M52 44.1875
Q55.375 50.25 60.0625 53.125
Q64.75 56 71.0938 56
Q79.6406 56 84.2812 50.0156
Q88.9219 44.0469 88.9219 33.0156
L88.9219 0
L79.8906 0
L79.8906 32.7188
Q79.8906 40.5781 77.0938 44.375
Q74.3125 48.1875 68.6094 48.1875
Q61.625 48.1875 57.5625 43.5469
Q53.5156 38.9219 53.5156 30.9062
L53.5156 0
L44.4844 0
L44.4844 32.7188
Q44.4844 40.625 41.7031 44.4062
Q38.9219 48.1875 33.1094 48.1875
Q26.2188 48.1875 22.1562 43.5312
Q18.1094 38.875 18.1094 30.9062
L18.1094 0
L9.07812 0
L9.07812 54.6875
L18.1094 54.6875
L18.1094 46.1875
Q21.1875 51.2188 25.4844 53.6094
Q29.7812 56 35.6875 56
Q41.6562 56 45.8281 52.9688
Q50 49.9531 52 44.1875" id="BitstreamVeraSans-Roman-6d"/>
     <path d="
M30.6094 48.3906
Q23.3906 48.3906 19.1875 42.75
Q14.9844 37.1094 14.9844 27.2969
Q14.9844 17.4844 19.1562 11.8438
Q23.3438 6.20312 30.6094 6.20312
Q37.7969 6.20312 41.9844 11.8594
Q46.1875 17.5312 46.1875 27.2969
Q46.1875 37.0156 41.9844 42.7031
Q37.7969 48.3906 30.6094 48.3906
M30.6094 56
Q42.3281 56 49.0156 48.375
Q55.7188 40.7656 55.7188 27.2969
Q55.7188 13.875 49.0156 6.21875
Q42.3281 -1.42188 30.6094 -1.42188
Q18.8438 -1.42188 12.1719 6.21875
Q5.51562 13.875 5.51562 27.2969
Q5.51562 40.7656 12.1719 48.375
Q18.8438 56 30.6094 56" id="BitstreamVeraSans-Roman-6f"/>
     <path d="
M9.42188 75.9844
L18.4062 75.9844
L18.4062 0
L9.42188 0
z
" id="BitstreamVeraSans-Roman-6c"/>
     <path d="
M19.6719 64.7969
L19.6719 37.4062
L32.0781 37.4062
Q38.9688 37.4062 42.7188 40.9688
Q46.4844 44.5312 46.4844 51.125
Q46.4844 57.6719 42.7188 61.2344
Q38.9688 64.7969 32.0781 64.7969
z

M9.8125 72.9062
L32.0781 72.9062
Q44.3438 72.9062 50.6094 67.3594
Q56.8906 61.8125 56.8906 51.125
Q56.8906 40.3281 50.6094 34.8125
Q44.3438 29.2969 32.0781 29.2969
L19.6719 29.2969
L19.6719 0
L9.8125 0
z
" id="BitstreamVeraSans-Roman-50"/>
     <path d="
M44.3906 34.1875
Q47.5625 33.1094 50.5625 29.5938
Q53.5625 26.0781 56.5938 19.9219
L66.6094 0
L56 0
L46.6875 18.7031
Q43.0625 26.0312 39.6719 28.4219
Q36.2812 30.8125 30.4219 30.8125
L19.6719 30.8125
L19.6719 0
L9.8125 0
L9.8125 72.9062
L32.0781 72.9062
Q44.5781 72.9062 50.7344 67.6719
Q56.8906 62.4531 56.8906 51.9062
Q56.8906 45.0156 53.6875 40.4688
Q50.4844 35.9375 44.3906 34.1875
M19.6719 64.7969
L19.6719 38.9219
L32.0781 38.9219
Q39.2031 38.9219 42.8438 42.2188
Q46.4844 45.5156 46.4844 51.9062
Q46.4844 58.2969 42.8438 61.5469
Q39.2031 64.7969 32.0781 64.7969
z
" id="BitstreamVeraSans-Roman-52"/>
     <path d="
M4.89062 31.3906
L31.2031 31.3906
L31.2031 23.3906
L4.89062 23.3906
z
" id="BitstreamVeraSans-Roman-2d"/>
     <path d="
M3.32812 72.9062
L13.2812 72.9062
L28.6094 11.2812
L43.8906 72.9062
L54.9844 72.9062
L70.3125 11.2812
L85.5938 72.9062
L95.6094 72.9062
L77.2969 0
L64.8906 0
L49.5156 63.2812
L33.9844 0
L21.5781 0
z
" id="BitstreamVeraSans-Roman-57"/>
     <path d="
M4.20312 54.6875
L13.1875 54.6875
L24.4219 12.0156
L35.5938 54.6875
L46.1875 54.6875
L57.4219 12.0156
L68.6094 54.6875
L77.5938 54.6875
L63.2812 0
L52.6875 0
L40.9219 44.8281
L29.1094 0
L18.5 0
z
" id="BitstreamVeraSans-Roman-77"/>
     <path d="
M18.3125 70.2188
L18.3125 54.6875
L36.8125 54.6875
L36.8125 47.7031
L18.3125 47.7031
L18.3125 18.0156
Q18.3125 11.3281 20.1406 9.42188
Q21.9688 7.51562 27.5938 7.51562
L36.8125 7.51562
L36.8125 0
L27.5938 0
Q17.1875 0 13.2344 3.875
Q9.28125 7.76562 9.28125 18.0156
L9.28125 47.7031
L2.6875 47.7031
L2.6875 54.6875
L9.28125 54.6875
L9.28125 70.2188
z
" id="BitstreamVeraSans-Roman-74"/>
     <path d="
M8.5 21.5781
L8.5 54.6875
L17.4844 54.6875
L17.4844 21.9219
Q17.4844 14.1562 20.5 10.2656
Q23.5312 6.39062 29.5938 6.39062
Q36.8594 6.39062 41.0781 11.0312
Q45.3125 15.6719 45.3125 23.6875
L45.3125 54.6875
L54.2969 54.6875
L54.2969 0
L45.3125 0
L45.3125 8.40625
Q42.0469 3.42188 37.7188 1
Q33.4062 -1.42188 27.6875 -1.42188
Q18.2656 -1.42188 13.375 4.4375
Q8.5 10.2969 8.5 21.5781" id="BitstreamVeraSans-Roman-75"/>
     <path d="
M41.1094 46.2969
Q39.5938 47.1719 37.8125 47.5781
Q36.0312 48 33.8906 48
Q26.2656 48 22.1875 43.0469
Q18.1094 38.0938 18.1094 28.8125
L18.1094 0
L9.07812 0
L9.07812 54.6875
L18.1094 54.6875
L18.1094 46.1875
Q20.9531 51.1719 25.4844 53.5781
Q30.0312 56 36.5312 56
Q37.4531 56 38.5781 55.875
Q39.7031 55.7656 41.0625 55.5156
z
" id="BitstreamVeraSans-Roman-72"/>
     <path d="
M44.2812 53.0781
L44.2812 44.5781
Q40.4844 46.5312 36.375 47.5
Q32.2812 48.4844 27.875 48.4844
Q21.1875 48.4844 17.8438 46.4375
Q14.5 44.3906 14.5 40.2812
Q14.5 37.1562 16.8906 35.375
Q19.2812 33.5938 26.5156 31.9844
L29.5938 31.2969
Q39.1562 29.25 43.1875 25.5156
Q47.2188 21.7812 47.2188 15.0938
Q47.2188 7.46875 41.1875 3.01562
Q35.1562 -1.42188 24.6094 -1.42188
Q20.2188 -1.42188 15.4531 -0.5625
Q10.6875 0.296875 5.42188 2
L5.42188 11.2812
Q10.4062 8.6875 15.2344 7.39062
Q20.0625 6.10938 24.8125 6.10938
Q31.1562 6.10938 34.5625 8.28125
Q37.9844 10.4531 37.9844 14.4062
Q37.9844 18.0625 35.5156 20.0156
Q33.0625 21.9688 24.7031 23.7812
L21.5781 24.5156
Q13.2344 26.2656 9.51562 29.9062
Q5.8125 33.5469 5.8125 39.8906
Q5.8125 47.6094 11.2812 51.7969
Q16.75 56 26.8125 56
Q31.7812 56 36.1719 55.2656
Q40.5781 54.5469 44.2812 53.0781" id="BitstreamVeraSans-Roman-73"/>
     <path d="
M18.1094 8.20312
L18.1094 -20.7969
L9.07812 -20.7969
L9.07812 54.6875
L18.1094 54.6875
L18.1094 46.3906
Q20.9531 51.2656 25.2656 53.625
Q29.5938 56 35.5938 56
Q45.5625 56 51.7812 48.0938
Q58.0156 40.1875 58.0156 27.2969
Q58.0156 14.4062 51.7812 6.48438
Q45.5625 -1.42188 35.5938 -1.42188
Q29.5938 -1.42188 25.2656 0.953125
Q20.9531 3.32812 18.1094 8.20312
M48.6875 27.2969
Q48.6875 37.2031 44.6094 42.8438
Q40.5312 48.4844 33.4062 48.4844
Q26.2656 48.4844 22.1875 42.8438
Q18.1094 37.2031 18.1094 27.2969
Q18.1094 17.3906 22.1875 11.75
Q26.2656 6.10938 33.4062 6.10938
Q40.5312 6.10938 44.6094 11.75
Q48.6875 17.3906 48.6875 27.2969" id="BitstreamVeraSans-Roman-70"/>
    </defs>
    <g transform="translate(65.263984375 16.318125)scale(0.12 -0.12)">
     <use xlink:href="#BitstreamVeraSans-Roman-50"/>
     <use x="60.302734375" xlink:href="#BitstreamVeraSans-Roman-57"/>
     <use x="159.1796875" xlink:href="#BitstreamVeraSans-Roman-31"/>
     <use x="222.802734375" xlink:href="#BitstreamVeraSans-Roman-30"/>
     <use x="286.42578125" xlink:href="#BitstreamVeraSans-Roman-2d"/>
     <use x="322.509765625" xlink:href="#BitstreamVeraSans-Roman-37"/>
     <use x="386.1328125" xlink:href="#BitstreamVeraSans-Roman-64"/>
     <use x="449.609375" xlink:href="#BitstreamVeraSans-Roman-20"/>
     <use x="481.396484375" xlink:href="#BitstreamVeraSans-Roman-4e"/>
     <use x="556.201171875" xlink:href="#BitstreamVeraSans-Roman-52"/>
     <use x="625.68359375" xlink:href="#BitstreamVeraSans-Roman-4d"/>
     <use x="711.962890625" xlink:href="#BitstreamVeraSans-Roman-20"/>
     <use x="743.75" xlink:href="#BitstreamVeraSans-Roman-75"/>
     <use x="807.12890625" xlink:href="#BitstreamVeraSans-Roman-70"/>
     <use x="870.60546875" xlink:href="#BitstreamVeraSans-Roman-6f"/>
     <use x="931.787109375" xlink:href="#BitstreamVeraSans-Roman-6e"/>
     <use x="995.166015625" xlink:href="#BitstreamVeraSans-Roman-20"/>
     <use x="1026.953125" xlink:href="#BitstreamVeraSans-Roman-63"/>
     <use x="1081.93359375" xlink:href="#BitstreamVeraSans-Roman-6f"/>
     <use x="1143.11523438" xlink:href="#BitstreamVeraSans-Roman-6f"/>
     <use x="1204.296875" xlink:href="#BitstreamVeraSans-Roman-6c"/>
     <use x="1232.08007812" xlink:href="#BitstreamVeraSans-Roman-69"/>
     <use x="1259.86328125" xlink:href="#BitstreamVeraSans-Roman-6e"/>
     <use x="1323.2421875" xlink:href="#BitstreamVeraSans-Roman-67"/>
     <use x="1386.71875" xlink:href="#BitstreamVeraSans-Roman-20"/>
     <use x="1418.50585938" xlink:href="#BitstreamVeraSans-Roman-61"/>
     <use x="1479.78515625" xlink:href="#BitstreamVeraSans-Roman-6e"/>
     <use x="1543.1640625" xlink:href="#BitstreamVeraSans-Roman-64"/>
     <use x="1606.640625" xlink:href="#BitstreamVeraSans-Roman-20"/>
     <use x="1638.42773438" xlink:href="#BitstreamVeraSans-Roman-77"/>
     <use x="1720.21484375" xlink:href="#BitstreamVeraSans-Roman-61"/>
     <use x="1781.49414062" xlink:href="#BitstreamVeraSans-Roman-72"/>
     <use x="1820.85742188" xlink:href="#BitstreamVeraSans-Roman-6d"/>
     <use x="1918.26953125" xlink:href="#BitstreamVeraSans-Roman-69"/>
     <use x="1946.05273438" xlink:href="#BitstreamVeraSans-Roman-6e"/>
     <use x="2009.43164062" xlink:href="#BitstreamVeraSans-Roman-67"/>
     <use x="2072.90820312" xlink:href="#BitstreamVeraSans-Roman-20"/>
     <use x="2104.6953125" xlink:href="#BitstreamVeraSans-Roman-28"/>
     <use x="2143.70898438" xlink:href="#BitstreamVeraSans-Roman-73"/>
     <use x="2195.80859375" xlink:href="#BitstreamVeraSans-Roman-70"/>
     <use x="2259.28515625" xlink:href="#BitstreamVeraSans-Roman-65"/>
     <use x="2320.80859375" xlink:href="#BitstreamVeraSans-Roman-63"/>
     <use x="2375.7890625" xlink:href="#BitstreamVeraSans-Roman-69"/>
     <use x="2403.57226562" xlink:href="#BitstreamVeraSans-Roman-6d"/>
     <use x="2500.984375" xlink:href="#BitstreamVeraSans-Roman-65"/>
     <use x="2562.5078125" xlink:href="#BitstreamVeraSans-Roman-6e"/>
     <use x="2625.88671875" xlink:href="#BitstreamVeraSans-Roman-20"/>
     <use x="2657.67382812" xlink:href="#BitstreamVeraSans-Roman-63"/>
     <use x="2712.65429688" xlink:href="#BitstreamVeraSans-Roman-6f"/>
     <use x="2773.8359375" xlink:href="#BitstreamVeraSans-Roman-6f"/>
     <use x="2835.01757812" xlink:href="#BitstreamVeraSans-Roman-72"/>
     <use x="2874.38085938" xlink:href="#BitstreamVeraSans-Roman-64"/>
     <use x="2937.85742188" xlink:href="#BitstreamVeraSans-Roman-69"/>
     <use x="2965.640625" xlink:href="#BitstreamVeraSans-Roman-6e"/>
     <use x="3029.01953125" xlink:href="#BitstreamVeraSans-Roman-61"/>
     <use x="3090.29882812" xlink:href="#BitstreamVeraSans-Roman-74"/>
     <use x="3129.5078125" xlink:href="#BitstreamVeraSans-Roman-65"/>
     <use x="3191.03125" xlink:href="#BitstreamVeraSans-Roman-73"/>
     <use x="3243.13085938" xlink:href="#BitstreamVeraSans-Roman-29"/>
    </g>
   </g>
  </g>
 </g>
 <defs>
  <clipPath id="p860f805187">
   <rect height="464.9" width="455.83671875" x="33.759375" y="21.318125"/>
  </clipPath>
 </defs>
</svg>
