<?xml version="1.0" encoding="utf-8" standalone="no"?>
<!DOCTYPE svg PUBLIC "-//W3C//DTD SVG 1.1//EN"
  "http://www.w3.org/Graphics/SVG/1.1/DTD/svg11.dtd">
<!-- Created with matplotlib (http://matplotlib.org/) -->
<svg height="432pt" version="1.1" viewBox="0 0 1008 432" width="1008pt" xmlns="http://www.w3.org/2000/svg" xmlns:xlink="http://www.w3.org/1999/xlink">
 <defs>
  <style type="text/css">
*{stroke-linecap:butt;stroke-linejoin:round;}
  </style>
 </defs>
 <g id="figure_1">
  <g id="patch_1">
   <path d="
M0 432
L1008 432
L1008 0
L0 0
z
" style="fill:#ffffff;"/>
  </g>
  <g id="axes_1">
   <g id="patch_2">
    <path d="
M126 378
L481.091 378
L481.091 43.2
L126 43.2
z
" style="fill:#ffffff;"/>
   </g>
   <g id="PathCollection_1">
    <defs>
     <path d="
M0 2.23607
C0.593012 2.23607 1.16182 2.00046 1.58114 1.58114
C2.00046 1.16182 2.23607 0.593012 2.23607 0
C2.23607 -0.593012 2.00046 -1.16182 1.58114 -1.58114
C1.16182 -2.00046 0.593012 -2.23607 0 -2.23607
C-0.593012 -2.23607 -1.16182 -2.00046 -1.58114 -1.58114
C-2.00046 -1.16182 -2.23607 -0.593012 -2.23607 0
C-2.23607 0.593012 -2.00046 1.16182 -1.58114 1.58114
C-1.16182 2.00046 -0.593012 2.23607 0 2.23607
z
" id="m892ea4c8d5" style="stroke:#000000;"/>
    </defs>
    <g clip-path="url(#pa8fb990924)">
     <use style="fill:#0000ff;stroke:#000000;" x="146.289701782" xlink:href="#m892ea4c8d5" y="122.972629716"/>
     <use style="fill:#0000ff;stroke:#000000;" x="151.965972" xlink:href="#m892ea4c8d5" y="135.411696288"/>
     <use style="fill:#0000ff;stroke:#000000;" x="157.074948982" xlink:href="#m892ea4c8d5" y="146.156876856"/>
     <use style="fill:#0000ff;stroke:#000000;" x="162.026854036" xlink:href="#m892ea4c8d5" y="154.159012566"/>
     <use style="fill:#0000ff;stroke:#000000;" x="167.175550473" xlink:href="#m892ea4c8d5" y="160.421909148"/>
     <use style="fill:#0000ff;stroke:#000000;" x="172.193218364" xlink:href="#m892ea4c8d5" y="165.558121146"/>
     <use style="fill:#0000ff;stroke:#000000;" x="177.371072836" xlink:href="#m892ea4c8d5" y="170.341249716"/>
     <use style="fill:#0000ff;stroke:#000000;" x="182.293637236" xlink:href="#m892ea4c8d5" y="174.776934006"/>
     <use style="fill:#0000ff;stroke:#000000;" x="187.459753418" xlink:href="#m892ea4c8d5" y="178.958253996"/>
     <use style="fill:#0000ff;stroke:#000000;" x="192.550661345" xlink:href="#m892ea4c8d5" y="183.044297718"/>
     <use style="fill:#0000ff;stroke:#000000;" x="197.555048836" xlink:href="#m892ea4c8d5" y="187.298869716"/>
     <use style="fill:#0000ff;stroke:#000000;" x="202.618290109" xlink:href="#m892ea4c8d5" y="192.153529422"/>
     <use style="fill:#0000ff;stroke:#000000;" x="207.791761745" xlink:href="#m892ea4c8d5" y="198.006236856"/>
     <use style="fill:#0000ff;stroke:#000000;" x="212.740684036" xlink:href="#m892ea4c8d5" y="205.335744858"/>
     <use style="fill:#0000ff;stroke:#000000;" x="217.820097164" xlink:href="#m892ea4c8d5" y="215.763459138"/>
     <use style="fill:#0000ff;stroke:#000000;" x="222.990596182" xlink:href="#m892ea4c8d5" y="233.306563428"/>
     <use style="fill:#0000ff;stroke:#000000;" x="228.005139273" xlink:href="#m892ea4c8d5" y="261.107548002"/>
     <use style="fill:#0000ff;stroke:#000000;" x="233.051995636" xlink:href="#m892ea4c8d5" y="292.110206004"/>
     <use style="fill:#0000ff;stroke:#000000;" x="239.337510545" xlink:href="#m892ea4c8d5" y="316.58373"/>
     <use style="fill:#0000ff;stroke:#000000;" x="243.353385818" xlink:href="#m892ea4c8d5" y="326.319191712"/>
     <use style="fill:#0000ff;stroke:#000000;" x="249.437513455" xlink:href="#m892ea4c8d5" y="340.132267998"/>
     <use style="fill:#0000ff;stroke:#000000;" x="253.373442545" xlink:href="#m892ea4c8d5" y="346.07612529"/>
     <use style="fill:#0000ff;stroke:#000000;" x="258.437241818" xlink:href="#m892ea4c8d5" y="350.01997443"/>
     <use style="fill:#0000ff;stroke:#000000;" x="263.558261455" xlink:href="#m892ea4c8d5" y="352.409027994"/>
     <use style="fill:#0000ff;stroke:#000000;" x="268.653410182" xlink:href="#m892ea4c8d5" y="354.109627854"/>
     <use style="fill:#0000ff;stroke:#000000;" x="273.692961818" xlink:href="#m892ea4c8d5" y="355.359025566"/>
     <use style="fill:#0000ff;stroke:#000000;" x="278.787501818" xlink:href="#m892ea4c8d5" y="356.371041708"/>
     <use style="fill:#0000ff;stroke:#000000;" x="283.885592727" xlink:href="#m892ea4c8d5" y="357.16990743"/>
     <use style="fill:#0000ff;stroke:#000000;" x="288.853111636" xlink:href="#m892ea4c8d5" y="357.81974028"/>
     <use style="fill:#0000ff;stroke:#000000;" x="293.925737455" xlink:href="#m892ea4c8d5" y="358.355924712"/>
     <use style="fill:#0000ff;stroke:#000000;" x="299.061062182" xlink:href="#m892ea4c8d5" y="358.830681714"/>
     <use style="fill:#0000ff;stroke:#000000;" x="304.066220727" xlink:href="#m892ea4c8d5" y="359.209979424"/>
     <use style="fill:#0000ff;stroke:#000000;" x="309.098163273" xlink:href="#m892ea4c8d5" y="359.56791243"/>
     <use style="fill:#0000ff;stroke:#000000;" x="314.291925818" xlink:href="#m892ea4c8d5" y="359.858660004"/>
     <use style="fill:#0000ff;stroke:#000000;" x="319.263198545" xlink:href="#m892ea4c8d5" y="360.116254566"/>
     <use style="fill:#0000ff;stroke:#000000;" x="324.350028" xlink:href="#m892ea4c8d5" y="360.345218148"/>
     <use style="fill:#0000ff;stroke:#000000;" x="329.46912" xlink:href="#m892ea4c8d5" y="360.54919728"/>
     <use style="fill:#0000ff;stroke:#000000;" x="334.514556" xlink:href="#m892ea4c8d5" y="360.74505528"/>
     <use style="fill:#0000ff;stroke:#000000;" x="339.523671273" xlink:href="#m892ea4c8d5" y="360.913939002"/>
     <use style="fill:#0000ff;stroke:#000000;" x="344.757711273" xlink:href="#m892ea4c8d5" y="361.074969432"/>
     <use style="fill:#0000ff;stroke:#000000;" x="350.821446545" xlink:href="#m892ea4c8d5" y="361.23419529"/>
     <use style="fill:#0000ff;stroke:#000000;" x="354.834075273" xlink:href="#m892ea4c8d5" y="361.35081171"/>
     <use style="fill:#0000ff;stroke:#000000;" x="359.956008" xlink:href="#m892ea4c8d5" y="361.474165422"/>
     <use style="fill:#0000ff;stroke:#000000;" x="364.964818909" xlink:href="#m892ea4c8d5" y="361.59237828"/>
     <use style="fill:#0000ff;stroke:#000000;" x="370.048909091" xlink:href="#m892ea4c8d5" y="361.702773"/>
     <use style="fill:#0000ff;stroke:#000000;" x="375.193872" xlink:href="#m892ea4c8d5" y="361.78996329"/>
     <use style="fill:#0000ff;stroke:#000000;" x="380.224495636" xlink:href="#m892ea4c8d5" y="361.862022852"/>
     <use style="fill:#0000ff;stroke:#000000;" x="385.320963273" xlink:href="#m892ea4c8d5" y="361.978205148"/>
     <use style="fill:#0000ff;stroke:#000000;" x="390.405459273" xlink:href="#m892ea4c8d5" y="362.077618428"/>
     <use style="fill:#0000ff;stroke:#000000;" x="395.481230182" xlink:href="#m892ea4c8d5" y="362.163485142"/>
     <use style="fill:#0000ff;stroke:#000000;" x="400.434038182" xlink:href="#m892ea4c8d5" y="362.258541"/>
     <use style="fill:#0000ff;stroke:#000000;" x="405.595842545" xlink:href="#m892ea4c8d5" y="362.348206578"/>
     <use style="fill:#0000ff;stroke:#000000;" x="410.616422182" xlink:href="#m892ea4c8d5" y="362.434025862"/>
     <use style="fill:#0000ff;stroke:#000000;" x="415.636798909" xlink:href="#m892ea4c8d5" y="362.52400671"/>
     <use style="fill:#0000ff;stroke:#000000;" x="420.829141091" xlink:href="#m892ea4c8d5" y="362.614200714"/>
     <use style="fill:#0000ff;stroke:#000000;" x="425.796152727" xlink:href="#m892ea4c8d5" y="362.692136574"/>
     <use style="fill:#0000ff;stroke:#000000;" x="430.392449455" xlink:href="#m892ea4c8d5" y="362.840932854"/>
    </g>
   </g>
   <g id="PathCollection_2">
    <defs>
     <path d="
M0 2.23607
C0.593012 2.23607 1.16182 2.00046 1.58114 1.58114
C2.00046 1.16182 2.23607 0.593012 2.23607 0
C2.23607 -0.593012 2.00046 -1.16182 1.58114 -1.58114
C1.16182 -2.00046 0.593012 -2.23607 0 -2.23607
C-0.593012 -2.23607 -1.16182 -2.00046 -1.58114 -1.58114
C-2.00046 -1.16182 -2.23607 -0.593012 -2.23607 0
C-2.23607 0.593012 -2.00046 1.16182 -1.58114 1.58114
C-1.16182 2.00046 -0.593012 2.23607 0 2.23607
z
" id="mcd54f2a490" style="stroke:#000000;"/>
    </defs>
    <g clip-path="url(#pa8fb990924)">
     <use style="fill:#ff0000;stroke:#000000;" x="146.288524909" xlink:href="#mcd54f2a490" y="107.972758854"/>
     <use style="fill:#ff0000;stroke:#000000;" x="151.928829491" xlink:href="#mcd54f2a490" y="118.141655994"/>
     <use style="fill:#ff0000;stroke:#000000;" x="156.996605782" xlink:href="#mcd54f2a490" y="125.909668854"/>
     <use style="fill:#ff0000;stroke:#000000;" x="162.109011927" xlink:href="#mcd54f2a490" y="131.205029148"/>
     <use style="fill:#ff0000;stroke:#000000;" x="167.139290618" xlink:href="#mcd54f2a490" y="135.611329716"/>
     <use style="fill:#ff0000;stroke:#000000;" x="172.239704836" xlink:href="#mcd54f2a490" y="139.63955571"/>
     <use style="fill:#ff0000;stroke:#000000;" x="177.378276109" xlink:href="#mcd54f2a490" y="144.033033996"/>
     <use style="fill:#ff0000;stroke:#000000;" x="182.382044727" xlink:href="#mcd54f2a490" y="148.29330429"/>
     <use style="fill:#ff0000;stroke:#000000;" x="187.427886545" xlink:href="#mcd54f2a490" y="152.275168854"/>
     <use style="fill:#ff0000;stroke:#000000;" x="192.516014618" xlink:href="#mcd54f2a490" y="156.09177"/>
     <use style="fill:#ff0000;stroke:#000000;" x="197.610057491" xlink:href="#mcd54f2a490" y="159.92113428"/>
     <use style="fill:#ff0000;stroke:#000000;" x="202.717543091" xlink:href="#mcd54f2a490" y="164.613379716"/>
     <use style="fill:#ff0000;stroke:#000000;" x="207.737341527" xlink:href="#mcd54f2a490" y="170.486092566"/>
     <use style="fill:#ff0000;stroke:#000000;" x="212.777999018" xlink:href="#mcd54f2a490" y="177.99433857"/>
     <use style="fill:#ff0000;stroke:#000000;" x="217.851335018" xlink:href="#mcd54f2a490" y="189.407278854"/>
     <use style="fill:#ff0000;stroke:#000000;" x="222.984123382" xlink:href="#mcd54f2a490" y="208.534153428"/>
     <use style="fill:#ff0000;stroke:#000000;" x="228.042068727" xlink:href="#mcd54f2a490" y="239.790523428"/>
     <use style="fill:#ff0000;stroke:#000000;" x="233.064373091" xlink:href="#mcd54f2a490" y="273.874172292"/>
     <use style="fill:#ff0000;stroke:#000000;" x="239.335582909" xlink:href="#mcd54f2a490" y="300.759443712"/>
     <use style="fill:#ff0000;stroke:#000000;" x="243.194508" xlink:href="#mcd54f2a490" y="311.517980568"/>
     <use style="fill:#ff0000;stroke:#000000;" x="248.281337455" xlink:href="#mcd54f2a490" y="324.014378292"/>
     <use style="fill:#ff0000;stroke:#000000;" x="253.450243636" xlink:href="#mcd54f2a490" y="333.629241138"/>
     <use style="fill:#ff0000;stroke:#000000;" x="259.650029455" xlink:href="#mcd54f2a490" y="339.091817292"/>
     <use style="fill:#ff0000;stroke:#000000;" x="263.594277818" xlink:href="#mcd54f2a490" y="341.31215286"/>
     <use style="fill:#ff0000;stroke:#000000;" x="268.663657091" xlink:href="#mcd54f2a490" y="343.35438543"/>
     <use style="fill:#ff0000;stroke:#000000;" x="273.741862909" xlink:href="#mcd54f2a490" y="344.976010434"/>
     <use style="fill:#ff0000;stroke:#000000;" x="278.719121455" xlink:href="#mcd54f2a490" y="346.226435424"/>
     <use style="fill:#ff0000;stroke:#000000;" x="283.930334182" xlink:href="#mcd54f2a490" y="347.29530786"/>
     <use style="fill:#ff0000;stroke:#000000;" x="288.864677455" xlink:href="#mcd54f2a490" y="348.117509142"/>
     <use style="fill:#ff0000;stroke:#000000;" x="294.016640727" xlink:href="#mcd54f2a490" y="348.811465284"/>
     <use style="fill:#ff0000;stroke:#000000;" x="299.074048364" xlink:href="#mcd54f2a490" y="349.417821006"/>
     <use style="fill:#ff0000;stroke:#000000;" x="304.157529818" xlink:href="#mcd54f2a490" y="349.91730243"/>
     <use style="fill:#ff0000;stroke:#000000;" x="309.189370909" xlink:href="#mcd54f2a490" y="350.340207282"/>
     <use style="fill:#ff0000;stroke:#000000;" x="314.304201818" xlink:href="#mcd54f2a490" y="350.728029"/>
     <use style="fill:#ff0000;stroke:#000000;" x="319.301244" xlink:href="#mcd54f2a490" y="351.072558288"/>
     <use style="fill:#ff0000;stroke:#000000;" x="324.356825455" xlink:href="#mcd54f2a490" y="351.346797432"/>
     <use style="fill:#ff0000;stroke:#000000;" x="329.567530909" xlink:href="#mcd54f2a490" y="351.614263572"/>
     <use style="fill:#ff0000;stroke:#000000;" x="334.610633455" xlink:href="#mcd54f2a490" y="351.852577002"/>
     <use style="fill:#ff0000;stroke:#000000;" x="339.617009455" xlink:href="#mcd54f2a490" y="352.066196142"/>
     <use style="fill:#ff0000;stroke:#000000;" x="344.684055273" xlink:href="#mcd54f2a490" y="352.268109"/>
     <use style="fill:#ff0000;stroke:#000000;" x="349.725331636" xlink:href="#mcd54f2a490" y="352.470734424"/>
     <use style="fill:#ff0000;stroke:#000000;" x="354.753317455" xlink:href="#mcd54f2a490" y="352.65047571"/>
     <use style="fill:#ff0000;stroke:#000000;" x="359.885497091" xlink:href="#mcd54f2a490" y="352.815756426"/>
     <use style="fill:#ff0000;stroke:#000000;" x="364.930425818" xlink:href="#mcd54f2a490" y="352.966517424"/>
     <use style="fill:#ff0000;stroke:#000000;" x="370.002747273" xlink:href="#mcd54f2a490" y="353.120584572"/>
     <use style="fill:#ff0000;stroke:#000000;" x="375.140101091" xlink:href="#mcd54f2a490" y="353.253643578"/>
     <use style="fill:#ff0000;stroke:#000000;" x="380.224597091" xlink:href="#mcd54f2a490" y="353.352831426"/>
     <use style="fill:#ff0000;stroke:#000000;" x="385.303614545" xlink:href="#mcd54f2a490" y="353.468171142"/>
     <use style="fill:#ff0000;stroke:#000000;" x="390.460041818" xlink:href="#mcd54f2a490" y="353.61939528"/>
     <use style="fill:#ff0000;stroke:#000000;" x="395.430908727" xlink:href="#mcd54f2a490" y="353.753338716"/>
     <use style="fill:#ff0000;stroke:#000000;" x="400.486896" xlink:href="#mcd54f2a490" y="353.877962994"/>
     <use style="fill:#ff0000;stroke:#000000;" x="405.527360727" xlink:href="#mcd54f2a490" y="353.997232146"/>
     <use style="fill:#ff0000;stroke:#000000;" x="410.634379636" xlink:href="#mcd54f2a490" y="354.116697714"/>
     <use style="fill:#ff0000;stroke:#000000;" x="415.659118909" xlink:href="#mcd54f2a490" y="354.240318708"/>
     <use style="fill:#ff0000;stroke:#000000;" x="420.840706909" xlink:href="#mcd54f2a490" y="354.364960284"/>
     <use style="fill:#ff0000;stroke:#000000;" x="425.887766182" xlink:href="#mcd54f2a490" y="354.477747708"/>
     <use style="fill:#ff0000;stroke:#000000;" x="430.396609091" xlink:href="#mcd54f2a490" y="354.697587432"/>
    </g>
   </g>
   <g id="patch_3">
    <path d="
M126 43.2
L481.091 43.2" style="fill:none;stroke:#000000;stroke-linecap:square;stroke-linejoin:miter;"/>
   </g>
   <g id="patch_4">
    <path d="
M481.091 378
L481.091 43.2" style="fill:none;stroke:#000000;stroke-linecap:square;stroke-linejoin:miter;"/>
   </g>
   <g id="patch_5">
    <path d="
M126 378
L481.091 378" style="fill:none;stroke:#000000;stroke-linecap:square;stroke-linejoin:miter;"/>
   </g>
   <g id="patch_6">
    <path d="
M126 378
L126 43.2" style="fill:none;stroke:#000000;stroke-linecap:square;stroke-linejoin:miter;"/>
   </g>
   <g id="matplotlib.axis_1">
    <g id="xtick_1">
     <g id="line2d_1">
      <defs>
       <path d="
M0 0
L0 -4" id="m93b0483c22" style="stroke:#000000;stroke-width:0.5;"/>
      </defs>
      <g>
       <use style="stroke:#000000;stroke-width:0.5;" x="126.0" xlink:href="#m93b0483c22" y="378.0"/>
      </g>
     </g>
     <g id="line2d_2">
      <defs>
       <path d="
M0 0
L0 4" id="m741efc42ff" style="stroke:#000000;stroke-width:0.5;"/>
      </defs>
      <g>
       <use style="stroke:#000000;stroke-width:0.5;" x="126.0" xlink:href="#m741efc42ff" y="43.2"/>
      </g>
     </g>
     <g id="text_1">
      <!-- 0 -->
      <defs>
       <path d="
M31.7812 66.4062
Q24.1719 66.4062 20.3281 58.9062
Q16.5 51.4219 16.5 36.375
Q16.5 21.3906 20.3281 13.8906
Q24.1719 6.39062 31.7812 6.39062
Q39.4531 6.39062 43.2812 13.8906
Q47.125 21.3906 47.125 36.375
Q47.125 51.4219 43.2812 58.9062
Q39.4531 66.4062 31.7812 66.4062
M31.7812 74.2188
Q44.0469 74.2188 50.5156 64.5156
Q56.9844 54.8281 56.9844 36.375
Q56.9844 17.9688 50.5156 8.26562
Q44.0469 -1.42188 31.7812 -1.42188
Q19.5312 -1.42188 13.0625 8.26562
Q6.59375 17.9688 6.59375 36.375
Q6.59375 54.8281 13.0625 64.5156
Q19.5312 74.2188 31.7812 74.2188" id="BitstreamVeraSans-Roman-30"/>
      </defs>
      <g transform="translate(123.48046875 389.5984375)scale(0.1 -0.1)">
       <use xlink:href="#BitstreamVeraSans-Roman-30"/>
      </g>
     </g>
    </g>
    <g id="xtick_2">
     <g id="line2d_3">
      <g>
       <use style="stroke:#000000;stroke-width:0.5;" x="176.727272727" xlink:href="#m93b0483c22" y="378.0"/>
      </g>
     </g>
     <g id="line2d_4">
      <g>
       <use style="stroke:#000000;stroke-width:0.5;" x="176.727272727" xlink:href="#m741efc42ff" y="43.2"/>
      </g>
     </g>
     <g id="text_2">
      <!-- 50 -->
      <defs>
       <path d="
M10.7969 72.9062
L49.5156 72.9062
L49.5156 64.5938
L19.8281 64.5938
L19.8281 46.7344
Q21.9688 47.4688 24.1094 47.8281
Q26.2656 48.1875 28.4219 48.1875
Q40.625 48.1875 47.75 41.5
Q54.8906 34.8125 54.8906 23.3906
Q54.8906 11.625 47.5625 5.09375
Q40.2344 -1.42188 26.9062 -1.42188
Q22.3125 -1.42188 17.5469 -0.640625
Q12.7969 0.140625 7.71875 1.70312
L7.71875 11.625
Q12.1094 9.23438 16.7969 8.0625
Q21.4844 6.89062 26.7031 6.89062
Q35.1562 6.89062 40.0781 11.3281
Q45.0156 15.7656 45.0156 23.3906
Q45.0156 31 40.0781 35.4375
Q35.1562 39.8906 26.7031 39.8906
Q22.75 39.8906 18.8125 39.0156
Q14.8906 38.1406 10.7969 36.2812
z
" id="BitstreamVeraSans-Roman-35"/>
      </defs>
      <g transform="translate(171.082741477 389.5984375)scale(0.1 -0.1)">
       <use xlink:href="#BitstreamVeraSans-Roman-35"/>
       <use x="63.623046875" xlink:href="#BitstreamVeraSans-Roman-30"/>
      </g>
     </g>
    </g>
    <g id="xtick_3">
     <g id="line2d_5">
      <g>
       <use style="stroke:#000000;stroke-width:0.5;" x="227.454545455" xlink:href="#m93b0483c22" y="378.0"/>
      </g>
     </g>
     <g id="line2d_6">
      <g>
       <use style="stroke:#000000;stroke-width:0.5;" x="227.454545455" xlink:href="#m741efc42ff" y="43.2"/>
      </g>
     </g>
     <g id="text_3">
      <!-- 100 -->
      <defs>
       <path d="
M12.4062 8.29688
L28.5156 8.29688
L28.5156 63.9219
L10.9844 60.4062
L10.9844 69.3906
L28.4219 72.9062
L38.2812 72.9062
L38.2812 8.29688
L54.3906 8.29688
L54.3906 0
L12.4062 0
z
" id="BitstreamVeraSans-Roman-31"/>
      </defs>
      <g transform="translate(218.792045455 389.5984375)scale(0.1 -0.1)">
       <use xlink:href="#BitstreamVeraSans-Roman-31"/>
       <use x="63.623046875" xlink:href="#BitstreamVeraSans-Roman-30"/>
       <use x="127.24609375" xlink:href="#BitstreamVeraSans-Roman-30"/>
      </g>
     </g>
    </g>
    <g id="xtick_4">
     <g id="line2d_7">
      <g>
       <use style="stroke:#000000;stroke-width:0.5;" x="278.181818182" xlink:href="#m93b0483c22" y="378.0"/>
      </g>
     </g>
     <g id="line2d_8">
      <g>
       <use style="stroke:#000000;stroke-width:0.5;" x="278.181818182" xlink:href="#m741efc42ff" y="43.2"/>
      </g>
     </g>
     <g id="text_4">
      <!-- 150 -->
      <g transform="translate(269.519318182 389.5984375)scale(0.1 -0.1)">
       <use xlink:href="#BitstreamVeraSans-Roman-31"/>
       <use x="63.623046875" xlink:href="#BitstreamVeraSans-Roman-35"/>
       <use x="127.24609375" xlink:href="#BitstreamVeraSans-Roman-30"/>
      </g>
     </g>
    </g>
    <g id="xtick_5">
     <g id="line2d_9">
      <g>
       <use style="stroke:#000000;stroke-width:0.5;" x="328.909090909" xlink:href="#m93b0483c22" y="378.0"/>
      </g>
     </g>
     <g id="line2d_10">
      <g>
       <use style="stroke:#000000;stroke-width:0.5;" x="328.909090909" xlink:href="#m741efc42ff" y="43.2"/>
      </g>
     </g>
     <g id="text_5">
      <!-- 200 -->
      <defs>
       <path d="
M19.1875 8.29688
L53.6094 8.29688
L53.6094 0
L7.32812 0
L7.32812 8.29688
Q12.9375 14.1094 22.625 23.8906
Q32.3281 33.6875 34.8125 36.5312
Q39.5469 41.8438 41.4219 45.5312
Q43.3125 49.2188 43.3125 52.7812
Q43.3125 58.5938 39.2344 62.25
Q35.1562 65.9219 28.6094 65.9219
Q23.9688 65.9219 18.8125 64.3125
Q13.6719 62.7031 7.8125 59.4219
L7.8125 69.3906
Q13.7656 71.7812 18.9375 73
Q24.125 74.2188 28.4219 74.2188
Q39.75 74.2188 46.4844 68.5469
Q53.2188 62.8906 53.2188 53.4219
Q53.2188 48.9219 51.5312 44.8906
Q49.8594 40.875 45.4062 35.4062
Q44.1875 33.9844 37.6406 27.2188
Q31.1094 20.4531 19.1875 8.29688" id="BitstreamVeraSans-Roman-32"/>
      </defs>
      <g transform="translate(320.063778409 389.5984375)scale(0.1 -0.1)">
       <use xlink:href="#BitstreamVeraSans-Roman-32"/>
       <use x="63.623046875" xlink:href="#BitstreamVeraSans-Roman-30"/>
       <use x="127.24609375" xlink:href="#BitstreamVeraSans-Roman-30"/>
      </g>
     </g>
    </g>
    <g id="xtick_6">
     <g id="line2d_11">
      <g>
       <use style="stroke:#000000;stroke-width:0.5;" x="379.636363636" xlink:href="#m93b0483c22" y="378.0"/>
      </g>
     </g>
     <g id="line2d_12">
      <g>
       <use style="stroke:#000000;stroke-width:0.5;" x="379.636363636" xlink:href="#m741efc42ff" y="43.2"/>
      </g>
     </g>
     <g id="text_6">
      <!-- 250 -->
      <g transform="translate(370.791051136 389.5984375)scale(0.1 -0.1)">
       <use xlink:href="#BitstreamVeraSans-Roman-32"/>
       <use x="63.623046875" xlink:href="#BitstreamVeraSans-Roman-35"/>
       <use x="127.24609375" xlink:href="#BitstreamVeraSans-Roman-30"/>
      </g>
     </g>
    </g>
    <g id="xtick_7">
     <g id="line2d_13">
      <g>
       <use style="stroke:#000000;stroke-width:0.5;" x="430.363636364" xlink:href="#m93b0483c22" y="378.0"/>
      </g>
     </g>
     <g id="line2d_14">
      <g>
       <use style="stroke:#000000;stroke-width:0.5;" x="430.363636364" xlink:href="#m741efc42ff" y="43.2"/>
      </g>
     </g>
     <g id="text_7">
      <!-- 300 -->
      <defs>
       <path d="
M40.5781 39.3125
Q47.6562 37.7969 51.625 33
Q55.6094 28.2188 55.6094 21.1875
Q55.6094 10.4062 48.1875 4.48438
Q40.7656 -1.42188 27.0938 -1.42188
Q22.5156 -1.42188 17.6562 -0.515625
Q12.7969 0.390625 7.625 2.20312
L7.625 11.7188
Q11.7188 9.32812 16.5938 8.10938
Q21.4844 6.89062 26.8125 6.89062
Q36.0781 6.89062 40.9375 10.5469
Q45.7969 14.2031 45.7969 21.1875
Q45.7969 27.6406 41.2812 31.2656
Q36.7656 34.9062 28.7188 34.9062
L20.2188 34.9062
L20.2188 43.0156
L29.1094 43.0156
Q36.375 43.0156 40.2344 45.9219
Q44.0938 48.8281 44.0938 54.2969
Q44.0938 59.9062 40.1094 62.9062
Q36.1406 65.9219 28.7188 65.9219
Q24.6562 65.9219 20.0156 65.0312
Q15.375 64.1562 9.8125 62.3125
L9.8125 71.0938
Q15.4375 72.6562 20.3438 73.4375
Q25.25 74.2188 29.5938 74.2188
Q40.8281 74.2188 47.3594 69.1094
Q53.9062 64.0156 53.9062 55.3281
Q53.9062 49.2656 50.4375 45.0938
Q46.9688 40.9219 40.5781 39.3125" id="BitstreamVeraSans-Roman-33"/>
      </defs>
      <g transform="translate(421.533167614 389.5984375)scale(0.1 -0.1)">
       <use xlink:href="#BitstreamVeraSans-Roman-33"/>
       <use x="63.623046875" xlink:href="#BitstreamVeraSans-Roman-30"/>
       <use x="127.24609375" xlink:href="#BitstreamVeraSans-Roman-30"/>
      </g>
     </g>
    </g>
    <g id="xtick_8">
     <g id="line2d_15">
      <g>
       <use style="stroke:#000000;stroke-width:0.5;" x="481.090909091" xlink:href="#m93b0483c22" y="378.0"/>
      </g>
     </g>
     <g id="line2d_16">
      <g>
       <use style="stroke:#000000;stroke-width:0.5;" x="481.090909091" xlink:href="#m741efc42ff" y="43.2"/>
      </g>
     </g>
     <g id="text_8">
      <!-- 350 -->
      <g transform="translate(472.260440341 389.5984375)scale(0.1 -0.1)">
       <use xlink:href="#BitstreamVeraSans-Roman-33"/>
       <use x="63.623046875" xlink:href="#BitstreamVeraSans-Roman-35"/>
       <use x="127.24609375" xlink:href="#BitstreamVeraSans-Roman-30"/>
      </g>
     </g>
    </g>
    <g id="text_9">
     <!-- temperature (K) -->
     <defs>
      <path d="
M34.2812 27.4844
Q23.3906 27.4844 19.1875 25
Q14.9844 22.5156 14.9844 16.5
Q14.9844 11.7188 18.1406 8.90625
Q21.2969 6.10938 26.7031 6.10938
Q34.1875 6.10938 38.7031 11.4062
Q43.2188 16.7031 43.2188 25.4844
L43.2188 27.4844
z

M52.2031 31.2031
L52.2031 0
L43.2188 0
L43.2188 8.29688
Q40.1406 3.32812 35.5469 0.953125
Q30.9531 -1.42188 24.3125 -1.42188
Q15.9219 -1.42188 10.9531 3.29688
Q6 8.01562 6 15.9219
Q6 25.1406 12.1719 29.8281
Q18.3594 34.5156 30.6094 34.5156
L43.2188 34.5156
L43.2188 35.4062
Q43.2188 41.6094 39.1406 45
Q35.0625 48.3906 27.6875 48.3906
Q23 48.3906 18.5469 47.2656
Q14.1094 46.1406 10.0156 43.8906
L10.0156 52.2031
Q14.9375 54.1094 19.5781 55.0469
Q24.2188 56 28.6094 56
Q40.4844 56 46.3438 49.8438
Q52.2031 43.7031 52.2031 31.2031" id="BitstreamVeraSans-Roman-61"/>
      <path d="
M9.8125 72.9062
L19.6719 72.9062
L19.6719 42.0938
L52.3906 72.9062
L65.0938 72.9062
L28.9062 38.9219
L67.6719 0
L54.6875 0
L19.6719 35.1094
L19.6719 0
L9.8125 0
z
" id="BitstreamVeraSans-Roman-4b"/>
      <path id="BitstreamVeraSans-Roman-20"/>
      <path d="
M8.01562 75.875
L15.8281 75.875
Q23.1406 64.3594 26.7812 53.3125
Q30.4219 42.2812 30.4219 31.3906
Q30.4219 20.4531 26.7812 9.375
Q23.1406 -1.70312 15.8281 -13.1875
L8.01562 -13.1875
Q14.5 -2 17.7031 9.0625
Q20.9062 20.125 20.9062 31.3906
Q20.9062 42.6719 17.7031 53.6562
Q14.5 64.6562 8.01562 75.875" id="BitstreamVeraSans-Roman-29"/>
      <path d="
M52 44.1875
Q55.375 50.25 60.0625 53.125
Q64.75 56 71.0938 56
Q79.6406 56 84.2812 50.0156
Q88.9219 44.0469 88.9219 33.0156
L88.9219 0
L79.8906 0
L79.8906 32.7188
Q79.8906 40.5781 77.0938 44.375
Q74.3125 48.1875 68.6094 48.1875
Q61.625 48.1875 57.5625 43.5469
Q53.5156 38.9219 53.5156 30.9062
L53.5156 0
L44.4844 0
L44.4844 32.7188
Q44.4844 40.625 41.7031 44.4062
Q38.9219 48.1875 33.1094 48.1875
Q26.2188 48.1875 22.1562 43.5312
Q18.1094 38.875 18.1094 30.9062
L18.1094 0
L9.07812 0
L9.07812 54.6875
L18.1094 54.6875
L18.1094 46.1875
Q21.1875 51.2188 25.4844 53.6094
Q29.7812 56 35.6875 56
Q41.6562 56 45.8281 52.9688
Q50 49.9531 52 44.1875" id="BitstreamVeraSans-Roman-6d"/>
      <path d="
M31 75.875
Q24.4688 64.6562 21.2812 53.6562
Q18.1094 42.6719 18.1094 31.3906
Q18.1094 20.125 21.3125 9.0625
Q24.5156 -2 31 -13.1875
L23.1875 -13.1875
Q15.875 -1.70312 12.2344 9.375
Q8.59375 20.4531 8.59375 31.3906
Q8.59375 42.2812 12.2031 53.3125
Q15.8281 64.3594 23.1875 75.875
z
" id="BitstreamVeraSans-Roman-28"/>
      <path d="
M56.2031 29.5938
L56.2031 25.2031
L14.8906 25.2031
Q15.4844 15.9219 20.4844 11.0625
Q25.4844 6.20312 34.4219 6.20312
Q39.5938 6.20312 44.4531 7.46875
Q49.3125 8.73438 54.1094 11.2812
L54.1094 2.78125
Q49.2656 0.734375 44.1875 -0.34375
Q39.1094 -1.42188 33.8906 -1.42188
Q20.7969 -1.42188 13.1562 6.1875
Q5.51562 13.8125 5.51562 26.8125
Q5.51562 40.2344 12.7656 48.1094
Q20.0156 56 32.3281 56
Q43.3594 56 49.7812 48.8906
Q56.2031 41.7969 56.2031 29.5938
M47.2188 32.2344
Q47.125 39.5938 43.0938 43.9844
Q39.0625 48.3906 32.4219 48.3906
Q24.9062 48.3906 20.3906 44.1406
Q15.875 39.8906 15.1875 32.1719
z
" id="BitstreamVeraSans-Roman-65"/>
      <path d="
M18.3125 70.2188
L18.3125 54.6875
L36.8125 54.6875
L36.8125 47.7031
L18.3125 47.7031
L18.3125 18.0156
Q18.3125 11.3281 20.1406 9.42188
Q21.9688 7.51562 27.5938 7.51562
L36.8125 7.51562
L36.8125 0
L27.5938 0
Q17.1875 0 13.2344 3.875
Q9.28125 7.76562 9.28125 18.0156
L9.28125 47.7031
L2.6875 47.7031
L2.6875 54.6875
L9.28125 54.6875
L9.28125 70.2188
z
" id="BitstreamVeraSans-Roman-74"/>
      <path d="
M8.5 21.5781
L8.5 54.6875
L17.4844 54.6875
L17.4844 21.9219
Q17.4844 14.1562 20.5 10.2656
Q23.5312 6.39062 29.5938 6.39062
Q36.8594 6.39062 41.0781 11.0312
Q45.3125 15.6719 45.3125 23.6875
L45.3125 54.6875
L54.2969 54.6875
L54.2969 0
L45.3125 0
L45.3125 8.40625
Q42.0469 3.42188 37.7188 1
Q33.4062 -1.42188 27.6875 -1.42188
Q18.2656 -1.42188 13.375 4.4375
Q8.5 10.2969 8.5 21.5781" id="BitstreamVeraSans-Roman-75"/>
      <path d="
M41.1094 46.2969
Q39.5938 47.1719 37.8125 47.5781
Q36.0312 48 33.8906 48
Q26.2656 48 22.1875 43.0469
Q18.1094 38.0938 18.1094 28.8125
L18.1094 0
L9.07812 0
L9.07812 54.6875
L18.1094 54.6875
L18.1094 46.1875
Q20.9531 51.1719 25.4844 53.5781
Q30.0312 56 36.5312 56
Q37.4531 56 38.5781 55.875
Q39.7031 55.7656 41.0625 55.5156
z
" id="BitstreamVeraSans-Roman-72"/>
      <path d="
M18.1094 8.20312
L18.1094 -20.7969
L9.07812 -20.7969
L9.07812 54.6875
L18.1094 54.6875
L18.1094 46.3906
Q20.9531 51.2656 25.2656 53.625
Q29.5938 56 35.5938 56
Q45.5625 56 51.7812 48.0938
Q58.0156 40.1875 58.0156 27.2969
Q58.0156 14.4062 51.7812 6.48438
Q45.5625 -1.42188 35.5938 -1.42188
Q29.5938 -1.42188 25.2656 0.953125
Q20.9531 3.32812 18.1094 8.20312
M48.6875 27.2969
Q48.6875 37.2031 44.6094 42.8438
Q40.5312 48.4844 33.4062 48.4844
Q26.2656 48.4844 22.1875 42.8438
Q18.1094 37.2031 18.1094 27.2969
Q18.1094 17.3906 22.1875 11.75
Q26.2656 6.10938 33.4062 6.10938
Q40.5312 6.10938 44.6094 11.75
Q48.6875 17.3906 48.6875 27.2969" id="BitstreamVeraSans-Roman-70"/>
     </defs>
     <g transform="translate(263.779829545 404.2765625)scale(0.1 -0.1)">
      <use xlink:href="#BitstreamVeraSans-Roman-74"/>
      <use x="39.208984375" xlink:href="#BitstreamVeraSans-Roman-65"/>
      <use x="100.732421875" xlink:href="#BitstreamVeraSans-Roman-6d"/>
      <use x="198.14453125" xlink:href="#BitstreamVeraSans-Roman-70"/>
      <use x="261.62109375" xlink:href="#BitstreamVeraSans-Roman-65"/>
      <use x="323.14453125" xlink:href="#BitstreamVeraSans-Roman-72"/>
      <use x="364.2578125" xlink:href="#BitstreamVeraSans-Roman-61"/>
      <use x="425.537109375" xlink:href="#BitstreamVeraSans-Roman-74"/>
      <use x="464.74609375" xlink:href="#BitstreamVeraSans-Roman-75"/>
      <use x="528.125" xlink:href="#BitstreamVeraSans-Roman-72"/>
      <use x="566.98828125" xlink:href="#BitstreamVeraSans-Roman-65"/>
      <use x="628.51171875" xlink:href="#BitstreamVeraSans-Roman-20"/>
      <use x="660.298828125" xlink:href="#BitstreamVeraSans-Roman-28"/>
      <use x="699.3125" xlink:href="#BitstreamVeraSans-Roman-4b"/>
      <use x="764.888671875" xlink:href="#BitstreamVeraSans-Roman-29"/>
     </g>
    </g>
   </g>
   <g id="matplotlib.axis_2">
    <g id="ytick_1">
     <g id="line2d_17">
      <defs>
       <path d="
M0 0
L4 0" id="m728421d6d4" style="stroke:#000000;stroke-width:0.5;"/>
      </defs>
      <g>
       <use style="stroke:#000000;stroke-width:0.5;" x="126.0" xlink:href="#m728421d6d4" y="378.0"/>
      </g>
     </g>
     <g id="line2d_18">
      <defs>
       <path d="
M0 0
L-4 0" id="mcb0005524f" style="stroke:#000000;stroke-width:0.5;"/>
      </defs>
      <g>
       <use style="stroke:#000000;stroke-width:0.5;" x="481.090909091" xlink:href="#mcb0005524f" y="378.0"/>
      </g>
     </g>
     <g id="text_10">
      <!-- 0.0 -->
      <defs>
       <path d="
M10.6875 12.4062
L21 12.4062
L21 0
L10.6875 0
z
" id="BitstreamVeraSans-Roman-2e"/>
      </defs>
      <g transform="translate(107.4203125 380.759375)scale(0.1 -0.1)">
       <use xlink:href="#BitstreamVeraSans-Roman-30"/>
       <use x="63.623046875" xlink:href="#BitstreamVeraSans-Roman-2e"/>
       <use x="95.41015625" xlink:href="#BitstreamVeraSans-Roman-30"/>
      </g>
     </g>
    </g>
    <g id="ytick_2">
     <g id="line2d_19">
      <g>
       <use style="stroke:#000000;stroke-width:0.5;" x="126.0" xlink:href="#m728421d6d4" y="322.2"/>
      </g>
     </g>
     <g id="line2d_20">
      <g>
       <use style="stroke:#000000;stroke-width:0.5;" x="481.090909091" xlink:href="#mcb0005524f" y="322.2"/>
      </g>
     </g>
     <g id="text_11">
      <!-- 0.1 -->
      <g transform="translate(107.6796875 324.959375)scale(0.1 -0.1)">
       <use xlink:href="#BitstreamVeraSans-Roman-30"/>
       <use x="63.623046875" xlink:href="#BitstreamVeraSans-Roman-2e"/>
       <use x="95.41015625" xlink:href="#BitstreamVeraSans-Roman-31"/>
      </g>
     </g>
    </g>
    <g id="ytick_3">
     <g id="line2d_21">
      <g>
       <use style="stroke:#000000;stroke-width:0.5;" x="126.0" xlink:href="#m728421d6d4" y="266.4"/>
      </g>
     </g>
     <g id="line2d_22">
      <g>
       <use style="stroke:#000000;stroke-width:0.5;" x="481.090909091" xlink:href="#mcb0005524f" y="266.4"/>
      </g>
     </g>
     <g id="text_12">
      <!-- 0.2 -->
      <g transform="translate(107.7578125 269.159375)scale(0.1 -0.1)">
       <use xlink:href="#BitstreamVeraSans-Roman-30"/>
       <use x="63.623046875" xlink:href="#BitstreamVeraSans-Roman-2e"/>
       <use x="95.41015625" xlink:href="#BitstreamVeraSans-Roman-32"/>
      </g>
     </g>
    </g>
    <g id="ytick_4">
     <g id="line2d_23">
      <g>
       <use style="stroke:#000000;stroke-width:0.5;" x="126.0" xlink:href="#m728421d6d4" y="210.6"/>
      </g>
     </g>
     <g id="line2d_24">
      <g>
       <use style="stroke:#000000;stroke-width:0.5;" x="481.090909091" xlink:href="#mcb0005524f" y="210.6"/>
      </g>
     </g>
     <g id="text_13">
      <!-- 0.3 -->
      <g transform="translate(107.5578125 213.359375)scale(0.1 -0.1)">
       <use xlink:href="#BitstreamVeraSans-Roman-30"/>
       <use x="63.623046875" xlink:href="#BitstreamVeraSans-Roman-2e"/>
       <use x="95.41015625" xlink:href="#BitstreamVeraSans-Roman-33"/>
      </g>
     </g>
    </g>
    <g id="ytick_5">
     <g id="line2d_25">
      <g>
       <use style="stroke:#000000;stroke-width:0.5;" x="126.0" xlink:href="#m728421d6d4" y="154.8"/>
      </g>
     </g>
     <g id="line2d_26">
      <g>
       <use style="stroke:#000000;stroke-width:0.5;" x="481.090909091" xlink:href="#mcb0005524f" y="154.8"/>
      </g>
     </g>
     <g id="text_14">
      <!-- 0.4 -->
      <defs>
       <path d="
M37.7969 64.3125
L12.8906 25.3906
L37.7969 25.3906
z

M35.2031 72.9062
L47.6094 72.9062
L47.6094 25.3906
L58.0156 25.3906
L58.0156 17.1875
L47.6094 17.1875
L47.6094 0
L37.7969 0
L37.7969 17.1875
L4.89062 17.1875
L4.89062 26.7031
z
" id="BitstreamVeraSans-Roman-34"/>
      </defs>
      <g transform="translate(107.3171875 157.559375)scale(0.1 -0.1)">
       <use xlink:href="#BitstreamVeraSans-Roman-30"/>
       <use x="63.623046875" xlink:href="#BitstreamVeraSans-Roman-2e"/>
       <use x="95.41015625" xlink:href="#BitstreamVeraSans-Roman-34"/>
      </g>
     </g>
    </g>
    <g id="ytick_6">
     <g id="line2d_27">
      <g>
       <use style="stroke:#000000;stroke-width:0.5;" x="126.0" xlink:href="#m728421d6d4" y="99.0"/>
      </g>
     </g>
     <g id="line2d_28">
      <g>
       <use style="stroke:#000000;stroke-width:0.5;" x="481.090909091" xlink:href="#mcb0005524f" y="99.0"/>
      </g>
     </g>
     <g id="text_15">
      <!-- 0.5 -->
      <g transform="translate(107.6296875 101.759375)scale(0.1 -0.1)">
       <use xlink:href="#BitstreamVeraSans-Roman-30"/>
       <use x="63.623046875" xlink:href="#BitstreamVeraSans-Roman-2e"/>
       <use x="95.41015625" xlink:href="#BitstreamVeraSans-Roman-35"/>
      </g>
     </g>
    </g>
    <g id="ytick_7">
     <g id="line2d_29">
      <g>
       <use style="stroke:#000000;stroke-width:0.5;" x="126.0" xlink:href="#m728421d6d4" y="43.2"/>
      </g>
     </g>
     <g id="line2d_30">
      <g>
       <use style="stroke:#000000;stroke-width:0.5;" x="481.090909091" xlink:href="#mcb0005524f" y="43.2"/>
      </g>
     </g>
     <g id="text_16">
      <!-- 0.6 -->
      <defs>
       <path d="
M33.0156 40.375
Q26.375 40.375 22.4844 35.8281
Q18.6094 31.2969 18.6094 23.3906
Q18.6094 15.5312 22.4844 10.9531
Q26.375 6.39062 33.0156 6.39062
Q39.6562 6.39062 43.5312 10.9531
Q47.4062 15.5312 47.4062 23.3906
Q47.4062 31.2969 43.5312 35.8281
Q39.6562 40.375 33.0156 40.375
M52.5938 71.2969
L52.5938 62.3125
Q48.875 64.0625 45.0938 64.9844
Q41.3125 65.9219 37.5938 65.9219
Q27.8281 65.9219 22.6719 59.3281
Q17.5312 52.7344 16.7969 39.4062
Q19.6719 43.6562 24.0156 45.9219
Q28.375 48.1875 33.5938 48.1875
Q44.5781 48.1875 50.9531 41.5156
Q57.3281 34.8594 57.3281 23.3906
Q57.3281 12.1562 50.6875 5.35938
Q44.0469 -1.42188 33.0156 -1.42188
Q20.3594 -1.42188 13.6719 8.26562
Q6.98438 17.9688 6.98438 36.375
Q6.98438 53.6562 15.1875 63.9375
Q23.3906 74.2188 37.2031 74.2188
Q40.9219 74.2188 44.7031 73.4844
Q48.4844 72.75 52.5938 71.2969" id="BitstreamVeraSans-Roman-36"/>
      </defs>
      <g transform="translate(107.3859375 45.959375)scale(0.1 -0.1)">
       <use xlink:href="#BitstreamVeraSans-Roman-30"/>
       <use x="63.623046875" xlink:href="#BitstreamVeraSans-Roman-2e"/>
       <use x="95.41015625" xlink:href="#BitstreamVeraSans-Roman-36"/>
      </g>
     </g>
    </g>
    <g id="text_17">
     <!-- magnetization (Am$^2$/kg) -->
     <defs>
      <path d="
M4.98438 0
L4.98438 2.6875
Q4.98438 2.9375 5.17188 3.21875
L20.7031 20.4062
Q24.2188 24.2188 26.4062 26.7969
Q28.6094 29.3906 30.75 32.7656
Q32.9062 36.1406 34.1562 39.625
Q35.4062 43.1094 35.4062 47.0156
Q35.4062 51.125 33.8906 54.8594
Q32.375 58.5938 29.375 60.8438
Q26.375 63.0938 22.125 63.0938
Q17.7812 63.0938 14.3125 60.4688
Q10.8438 57.8594 9.42188 53.7188
Q9.8125 53.8125 10.5 53.8125
Q12.75 53.8125 14.3281 52.2969
Q15.9219 50.7812 15.9219 48.3906
Q15.9219 46.0938 14.3281 44.5
Q12.75 42.9219 10.5 42.9219
Q8.15625 42.9219 6.5625 44.5469
Q4.98438 46.1875 4.98438 48.3906
Q4.98438 52.1562 6.39062 55.4375
Q7.8125 58.7344 10.4688 61.2969
Q13.1406 63.875 16.4844 65.2344
Q19.8281 66.6094 23.5781 66.6094
Q29.2969 66.6094 34.2188 64.1875
Q39.1562 61.7656 42.0312 57.3438
Q44.9219 52.9375 44.9219 47.0156
Q44.9219 42.6719 43.0156 38.7656
Q41.1094 34.8594 38.125 31.6562
Q35.1562 28.4688 30.5156 24.4062
Q25.875 20.3594 24.4219 19
L13.0938 8.10938
L22.7031 8.10938
Q29.7812 8.10938 34.5469 8.21875
Q39.3125 8.34375 39.5938 8.59375
Q40.7656 9.85938 42 17.8281
L44.9219 17.8281
L42.0938 0
z
" id="Cmr10-32"/>
      <path d="
M54.8906 33.0156
L54.8906 0
L45.9062 0
L45.9062 32.7188
Q45.9062 40.4844 42.875 44.3281
Q39.8438 48.1875 33.7969 48.1875
Q26.5156 48.1875 22.3125 43.5469
Q18.1094 38.9219 18.1094 30.9062
L18.1094 0
L9.07812 0
L9.07812 54.6875
L18.1094 54.6875
L18.1094 46.1875
Q21.3438 51.125 25.7031 53.5625
Q30.0781 56 35.7969 56
Q45.2188 56 50.0469 50.1719
Q54.8906 44.3438 54.8906 33.0156" id="BitstreamVeraSans-Roman-6e"/>
      <path d="
M30.6094 48.3906
Q23.3906 48.3906 19.1875 42.75
Q14.9844 37.1094 14.9844 27.2969
Q14.9844 17.4844 19.1562 11.8438
Q23.3438 6.20312 30.6094 6.20312
Q37.7969 6.20312 41.9844 11.8594
Q46.1875 17.5312 46.1875 27.2969
Q46.1875 37.0156 41.9844 42.7031
Q37.7969 48.3906 30.6094 48.3906
M30.6094 56
Q42.3281 56 49.0156 48.375
Q55.7188 40.7656 55.7188 27.2969
Q55.7188 13.875 49.0156 6.21875
Q42.3281 -1.42188 30.6094 -1.42188
Q18.8438 -1.42188 12.1719 6.21875
Q5.51562 13.875 5.51562 27.2969
Q5.51562 40.7656 12.1719 48.375
Q18.8438 56 30.6094 56" id="BitstreamVeraSans-Roman-6f"/>
      <path d="
M5.51562 54.6875
L48.1875 54.6875
L48.1875 46.4844
L14.4062 7.17188
L48.1875 7.17188
L48.1875 0
L4.29688 0
L4.29688 8.20312
L38.0938 47.5156
L5.51562 47.5156
z
" id="BitstreamVeraSans-Roman-7a"/>
      <path d="
M9.42188 54.6875
L18.4062 54.6875
L18.4062 0
L9.42188 0
z

M9.42188 75.9844
L18.4062 75.9844
L18.4062 64.5938
L9.42188 64.5938
z
" id="BitstreamVeraSans-Roman-69"/>
      <path d="
M34.1875 63.1875
L20.7969 26.9062
L47.6094 26.9062
z

M28.6094 72.9062
L39.7969 72.9062
L67.5781 0
L57.3281 0
L50.6875 18.7031
L17.8281 18.7031
L11.1875 0
L0.78125 0
z
" id="BitstreamVeraSans-Roman-41"/>
      <path d="
M25.3906 72.9062
L33.6875 72.9062
L8.29688 -9.28125
L0 -9.28125
z
" id="BitstreamVeraSans-Roman-2f"/>
      <path d="
M45.4062 27.9844
Q45.4062 37.75 41.375 43.1094
Q37.3594 48.4844 30.0781 48.4844
Q22.8594 48.4844 18.8281 43.1094
Q14.7969 37.75 14.7969 27.9844
Q14.7969 18.2656 18.8281 12.8906
Q22.8594 7.51562 30.0781 7.51562
Q37.3594 7.51562 41.375 12.8906
Q45.4062 18.2656 45.4062 27.9844
M54.3906 6.78125
Q54.3906 -7.17188 48.1875 -13.9844
Q42 -20.7969 29.2031 -20.7969
Q24.4688 -20.7969 20.2656 -20.0938
Q16.0625 -19.3906 12.1094 -17.9219
L12.1094 -9.1875
Q16.0625 -11.3281 19.9219 -12.3438
Q23.7812 -13.375 27.7812 -13.375
Q36.625 -13.375 41.0156 -8.76562
Q45.4062 -4.15625 45.4062 5.17188
L45.4062 9.625
Q42.625 4.78125 38.2812 2.39062
Q33.9375 0 27.875 0
Q17.8281 0 11.6719 7.65625
Q5.51562 15.3281 5.51562 27.9844
Q5.51562 40.6719 11.6719 48.3281
Q17.8281 56 27.875 56
Q33.9375 56 38.2812 53.6094
Q42.625 51.2188 45.4062 46.3906
L45.4062 54.6875
L54.3906 54.6875
z
" id="BitstreamVeraSans-Roman-67"/>
      <path d="
M9.07812 75.9844
L18.1094 75.9844
L18.1094 31.1094
L44.9219 54.6875
L56.3906 54.6875
L27.3906 29.1094
L57.625 0
L45.9062 0
L18.1094 26.7031
L18.1094 0
L9.07812 0
z
" id="BitstreamVeraSans-Roman-6b"/>
     </defs>
     <g transform="translate(100.2171875 271.5)rotate(-90.0)scale(0.1 -0.1)">
      <use transform="translate(0.0 0.8578125)" xlink:href="#BitstreamVeraSans-Roman-6d"/>
      <use transform="translate(97.412109375 0.8578125)" xlink:href="#BitstreamVeraSans-Roman-61"/>
      <use transform="translate(158.69140625 0.8578125)" xlink:href="#BitstreamVeraSans-Roman-67"/>
      <use transform="translate(222.16796875 0.8578125)" xlink:href="#BitstreamVeraSans-Roman-6e"/>
      <use transform="translate(285.546875 0.8578125)" xlink:href="#BitstreamVeraSans-Roman-65"/>
      <use transform="translate(347.0703125 0.8578125)" xlink:href="#BitstreamVeraSans-Roman-74"/>
      <use transform="translate(386.279296875 0.8578125)" xlink:href="#BitstreamVeraSans-Roman-69"/>
      <use transform="translate(414.0625 0.8578125)" xlink:href="#BitstreamVeraSans-Roman-7a"/>
      <use transform="translate(466.552734375 0.8578125)" xlink:href="#BitstreamVeraSans-Roman-61"/>
      <use transform="translate(527.83203125 0.8578125)" xlink:href="#BitstreamVeraSans-Roman-74"/>
      <use transform="translate(567.041015625 0.8578125)" xlink:href="#BitstreamVeraSans-Roman-69"/>
      <use transform="translate(594.82421875 0.8578125)" xlink:href="#BitstreamVeraSans-Roman-6f"/>
      <use transform="translate(656.005859375 0.8578125)" xlink:href="#BitstreamVeraSans-Roman-6e"/>
      <use transform="translate(719.384765625 0.8578125)" xlink:href="#BitstreamVeraSans-Roman-20"/>
      <use transform="translate(751.171875 0.8578125)" xlink:href="#BitstreamVeraSans-Roman-28"/>
      <use transform="translate(790.185546875 0.8578125)" xlink:href="#BitstreamVeraSans-Roman-41"/>
      <use transform="translate(858.59375 0.8578125)" xlink:href="#BitstreamVeraSans-Roman-6d"/>
      <use transform="translate(956.005859375 43.3734375)scale(0.7)" xlink:href="#Cmr10-32"/>
      <use transform="translate(1023.01210938 0.8578125)" xlink:href="#BitstreamVeraSans-Roman-2f"/>
      <use transform="translate(1056.70351562 0.8578125)" xlink:href="#BitstreamVeraSans-Roman-6b"/>
      <use transform="translate(1114.61367187 0.8578125)" xlink:href="#BitstreamVeraSans-Roman-67"/>
      <use transform="translate(1178.09023437 0.8578125)" xlink:href="#BitstreamVeraSans-Roman-29"/>
     </g>
    </g>
   </g>
   <g id="text_18">
    <!-- FC/ZFC experiments on MPMS on specimen PW10-7c -->
    <defs>
     <path d="
M5.60938 72.9062
L62.8906 72.9062
L62.8906 65.375
L16.7969 8.29688
L64.0156 8.29688
L64.0156 0
L4.5 0
L4.5 7.51562
L50.5938 64.5938
L5.60938 64.5938
z
" id="BitstreamVeraSans-Roman-5a"/>
     <path d="
M9.8125 72.9062
L24.5156 72.9062
L43.1094 23.2969
L61.8125 72.9062
L76.5156 72.9062
L76.5156 0
L66.8906 0
L66.8906 64.0156
L48.0938 14.0156
L38.1875 14.0156
L19.3906 64.0156
L19.3906 0
L9.8125 0
z
" id="BitstreamVeraSans-Roman-4d"/>
     <path d="
M8.20312 72.9062
L55.0781 72.9062
L55.0781 68.7031
L28.6094 0
L18.3125 0
L43.2188 64.5938
L8.20312 64.5938
z
" id="BitstreamVeraSans-Roman-37"/>
     <path d="
M19.6719 64.7969
L19.6719 37.4062
L32.0781 37.4062
Q38.9688 37.4062 42.7188 40.9688
Q46.4844 44.5312 46.4844 51.125
Q46.4844 57.6719 42.7188 61.2344
Q38.9688 64.7969 32.0781 64.7969
z

M9.8125 72.9062
L32.0781 72.9062
Q44.3438 72.9062 50.6094 67.3594
Q56.8906 61.8125 56.8906 51.125
Q56.8906 40.3281 50.6094 34.8125
Q44.3438 29.2969 32.0781 29.2969
L19.6719 29.2969
L19.6719 0
L9.8125 0
z
" id="BitstreamVeraSans-Roman-50"/>
     <path d="
M9.8125 72.9062
L51.7031 72.9062
L51.7031 64.5938
L19.6719 64.5938
L19.6719 43.1094
L48.5781 43.1094
L48.5781 34.8125
L19.6719 34.8125
L19.6719 0
L9.8125 0
z
" id="BitstreamVeraSans-Roman-46"/>
     <path d="
M53.5156 70.5156
L53.5156 60.8906
Q47.9062 63.5781 42.9219 64.8906
Q37.9375 66.2188 33.2969 66.2188
Q25.25 66.2188 20.875 63.0938
Q16.5 59.9688 16.5 54.2031
Q16.5 49.3594 19.4062 46.8906
Q22.3125 44.4375 30.4219 42.9219
L36.375 41.7031
Q47.4062 39.5938 52.6562 34.2969
Q57.9062 29 57.9062 20.125
Q57.9062 9.51562 50.7969 4.04688
Q43.7031 -1.42188 29.9844 -1.42188
Q24.8125 -1.42188 18.9688 -0.25
Q13.1406 0.921875 6.89062 3.21875
L6.89062 13.375
Q12.8906 10.0156 18.6562 8.29688
Q24.4219 6.59375 29.9844 6.59375
Q38.4219 6.59375 43.0156 9.90625
Q47.6094 13.2344 47.6094 19.3906
Q47.6094 24.75 44.3125 27.7812
Q41.0156 30.8125 33.5 32.3281
L27.4844 33.5
Q16.4531 35.6875 11.5156 40.375
Q6.59375 45.0625 6.59375 53.4219
Q6.59375 63.0938 13.4062 68.6562
Q20.2188 74.2188 32.1719 74.2188
Q37.3125 74.2188 42.625 73.2812
Q47.9531 72.3594 53.5156 70.5156" id="BitstreamVeraSans-Roman-53"/>
     <path d="
M64.4062 67.2812
L64.4062 56.8906
Q59.4219 61.5312 53.7812 63.8125
Q48.1406 66.1094 41.7969 66.1094
Q29.2969 66.1094 22.6562 58.4688
Q16.0156 50.8281 16.0156 36.375
Q16.0156 21.9688 22.6562 14.3281
Q29.2969 6.6875 41.7969 6.6875
Q48.1406 6.6875 53.7812 8.98438
Q59.4219 11.2812 64.4062 15.9219
L64.4062 5.60938
Q59.2344 2.09375 53.4375 0.328125
Q47.6562 -1.42188 41.2188 -1.42188
Q24.6562 -1.42188 15.125 8.70312
Q5.60938 18.8438 5.60938 36.375
Q5.60938 53.9531 15.125 64.0781
Q24.6562 74.2188 41.2188 74.2188
Q47.75 74.2188 53.5312 72.4844
Q59.3281 70.75 64.4062 67.2812" id="BitstreamVeraSans-Roman-43"/>
     <path d="
M4.89062 31.3906
L31.2031 31.3906
L31.2031 23.3906
L4.89062 23.3906
z
" id="BitstreamVeraSans-Roman-2d"/>
     <path d="
M54.8906 54.6875
L35.1094 28.0781
L55.9062 0
L45.3125 0
L29.3906 21.4844
L13.4844 0
L2.875 0
L24.125 28.6094
L4.6875 54.6875
L15.2812 54.6875
L29.7812 35.2031
L44.2812 54.6875
z
" id="BitstreamVeraSans-Roman-78"/>
     <path d="
M3.32812 72.9062
L13.2812 72.9062
L28.6094 11.2812
L43.8906 72.9062
L54.9844 72.9062
L70.3125 11.2812
L85.5938 72.9062
L95.6094 72.9062
L77.2969 0
L64.8906 0
L49.5156 63.2812
L33.9844 0
L21.5781 0
z
" id="BitstreamVeraSans-Roman-57"/>
     <path d="
M44.2812 53.0781
L44.2812 44.5781
Q40.4844 46.5312 36.375 47.5
Q32.2812 48.4844 27.875 48.4844
Q21.1875 48.4844 17.8438 46.4375
Q14.5 44.3906 14.5 40.2812
Q14.5 37.1562 16.8906 35.375
Q19.2812 33.5938 26.5156 31.9844
L29.5938 31.2969
Q39.1562 29.25 43.1875 25.5156
Q47.2188 21.7812 47.2188 15.0938
Q47.2188 7.46875 41.1875 3.01562
Q35.1562 -1.42188 24.6094 -1.42188
Q20.2188 -1.42188 15.4531 -0.5625
Q10.6875 0.296875 5.42188 2
L5.42188 11.2812
Q10.4062 8.6875 15.2344 7.39062
Q20.0625 6.10938 24.8125 6.10938
Q31.1562 6.10938 34.5625 8.28125
Q37.9844 10.4531 37.9844 14.4062
Q37.9844 18.0625 35.5156 20.0156
Q33.0625 21.9688 24.7031 23.7812
L21.5781 24.5156
Q13.2344 26.2656 9.51562 29.9062
Q5.8125 33.5469 5.8125 39.8906
Q5.8125 47.6094 11.2812 51.7969
Q16.75 56 26.8125 56
Q31.7812 56 36.1719 55.2656
Q40.5781 54.5469 44.2812 53.0781" id="BitstreamVeraSans-Roman-73"/>
     <path d="
M48.7812 52.5938
L48.7812 44.1875
Q44.9688 46.2969 41.1406 47.3438
Q37.3125 48.3906 33.4062 48.3906
Q24.6562 48.3906 19.8125 42.8438
Q14.9844 37.3125 14.9844 27.2969
Q14.9844 17.2812 19.8125 11.7344
Q24.6562 6.20312 33.4062 6.20312
Q37.3125 6.20312 41.1406 7.25
Q44.9688 8.29688 48.7812 10.4062
L48.7812 2.09375
Q45.0156 0.34375 40.9844 -0.53125
Q36.9688 -1.42188 32.4219 -1.42188
Q20.0625 -1.42188 12.7812 6.34375
Q5.51562 14.1094 5.51562 27.2969
Q5.51562 40.6719 12.8594 48.3281
Q20.2188 56 33.0156 56
Q37.1562 56 41.1094 55.1406
Q45.0625 54.2969 48.7812 52.5938" id="BitstreamVeraSans-Roman-63"/>
    </defs>
    <g transform="translate(145.348892045 38.2)scale(0.12 -0.12)">
     <use xlink:href="#BitstreamVeraSans-Roman-46"/>
     <use x="57.51953125" xlink:href="#BitstreamVeraSans-Roman-43"/>
     <use x="127.34375" xlink:href="#BitstreamVeraSans-Roman-2f"/>
     <use x="161.03515625" xlink:href="#BitstreamVeraSans-Roman-5a"/>
     <use x="229.541015625" xlink:href="#BitstreamVeraSans-Roman-46"/>
     <use x="287.060546875" xlink:href="#BitstreamVeraSans-Roman-43"/>
     <use x="356.884765625" xlink:href="#BitstreamVeraSans-Roman-20"/>
     <use x="388.671875" xlink:href="#BitstreamVeraSans-Roman-65"/>
     <use x="448.4453125" xlink:href="#BitstreamVeraSans-Roman-78"/>
     <use x="507.625" xlink:href="#BitstreamVeraSans-Roman-70"/>
     <use x="571.1015625" xlink:href="#BitstreamVeraSans-Roman-65"/>
     <use x="632.625" xlink:href="#BitstreamVeraSans-Roman-72"/>
     <use x="673.73828125" xlink:href="#BitstreamVeraSans-Roman-69"/>
     <use x="701.521484375" xlink:href="#BitstreamVeraSans-Roman-6d"/>
     <use x="798.93359375" xlink:href="#BitstreamVeraSans-Roman-65"/>
     <use x="860.45703125" xlink:href="#BitstreamVeraSans-Roman-6e"/>
     <use x="923.8359375" xlink:href="#BitstreamVeraSans-Roman-74"/>
     <use x="963.044921875" xlink:href="#BitstreamVeraSans-Roman-73"/>
     <use x="1015.14453125" xlink:href="#BitstreamVeraSans-Roman-20"/>
     <use x="1046.93164062" xlink:href="#BitstreamVeraSans-Roman-6f"/>
     <use x="1108.11328125" xlink:href="#BitstreamVeraSans-Roman-6e"/>
     <use x="1171.4921875" xlink:href="#BitstreamVeraSans-Roman-20"/>
     <use x="1203.27929688" xlink:href="#BitstreamVeraSans-Roman-4d"/>
     <use x="1289.55859375" xlink:href="#BitstreamVeraSans-Roman-50"/>
     <use x="1349.86132812" xlink:href="#BitstreamVeraSans-Roman-4d"/>
     <use x="1436.140625" xlink:href="#BitstreamVeraSans-Roman-53"/>
     <use x="1499.6171875" xlink:href="#BitstreamVeraSans-Roman-20"/>
     <use x="1531.40429688" xlink:href="#BitstreamVeraSans-Roman-6f"/>
     <use x="1592.5859375" xlink:href="#BitstreamVeraSans-Roman-6e"/>
     <use x="1655.96484375" xlink:href="#BitstreamVeraSans-Roman-20"/>
     <use x="1687.75195312" xlink:href="#BitstreamVeraSans-Roman-73"/>
     <use x="1739.8515625" xlink:href="#BitstreamVeraSans-Roman-70"/>
     <use x="1803.328125" xlink:href="#BitstreamVeraSans-Roman-65"/>
     <use x="1864.8515625" xlink:href="#BitstreamVeraSans-Roman-63"/>
     <use x="1919.83203125" xlink:href="#BitstreamVeraSans-Roman-69"/>
     <use x="1947.61523438" xlink:href="#BitstreamVeraSans-Roman-6d"/>
     <use x="2045.02734375" xlink:href="#BitstreamVeraSans-Roman-65"/>
     <use x="2106.55078125" xlink:href="#BitstreamVeraSans-Roman-6e"/>
     <use x="2169.9296875" xlink:href="#BitstreamVeraSans-Roman-20"/>
     <use x="2201.71679688" xlink:href="#BitstreamVeraSans-Roman-50"/>
     <use x="2262.01953125" xlink:href="#BitstreamVeraSans-Roman-57"/>
     <use x="2360.89648438" xlink:href="#BitstreamVeraSans-Roman-31"/>
     <use x="2424.51953125" xlink:href="#BitstreamVeraSans-Roman-30"/>
     <use x="2488.14257812" xlink:href="#BitstreamVeraSans-Roman-2d"/>
     <use x="2524.2265625" xlink:href="#BitstreamVeraSans-Roman-37"/>
     <use x="2587.84960938" xlink:href="#BitstreamVeraSans-Roman-63"/>
    </g>
   </g>
   <g id="legend_1">
    <g id="patch_7">
     <path d="
M409.58 88.0275
L475.091 88.0275
L475.091 49.2
L409.58 49.2
z
" style="fill:#ffffff;stroke:#000000;stroke-linejoin:miter;"/>
    </g>
    <g id="PathCollection_3">
     <defs>
      <path d="
M0 2.23607
C0.593012 2.23607 1.16182 2.00046 1.58114 1.58114
C2.00046 1.16182 2.23607 0.593012 2.23607 0
C2.23607 -0.593012 2.00046 -1.16182 1.58114 -1.58114
C1.16182 -2.00046 0.593012 -2.23607 0 -2.23607
C-0.593012 -2.23607 -1.16182 -2.00046 -1.58114 -1.58114
C-2.00046 -1.16182 -2.23607 -0.593012 -2.23607 0
C-2.23607 0.593012 -2.00046 1.16182 -1.58114 1.58114
C-1.16182 2.00046 -0.593012 2.23607 0 2.23607
z
" id="C0_0_919e3f95db"/>
      <path d="
M0 2.23607
C0.593012 2.23607 1.16182 2.00046 1.58114 1.58114
C2.00046 1.16182 2.23607 0.593012 2.23607 0
C2.23607 -0.593012 2.00046 -1.16182 1.58114 -1.58114
C1.16182 -2.00046 0.593012 -2.23607 0 -2.23607
C-0.593012 -2.23607 -1.16182 -2.00046 -1.58114 -1.58114
C-2.00046 -1.16182 -2.23607 -0.593012 -2.23607 0
C-2.23607 0.593012 -2.00046 1.16182 -1.58114 1.58114
C-1.16182 2.00046 -0.593012 2.23607 0 2.23607
z
" id="C0_1_919e3f95db"/>
      <path d="
M0 2.23607
C0.593012 2.23607 1.16182 2.00046 1.58114 1.58114
C2.00046 1.16182 2.23607 0.593012 2.23607 0
C2.23607 -0.593012 2.00046 -1.16182 1.58114 -1.58114
C1.16182 -2.00046 0.593012 -2.23607 0 -2.23607
C-0.593012 -2.23607 -1.16182 -2.00046 -1.58114 -1.58114
C-2.00046 -1.16182 -2.23607 -0.593012 -2.23607 0
C-2.23607 0.593012 -2.00046 1.16182 -1.58114 1.58114
C-1.16182 2.00046 -0.593012 2.23607 0 2.23607
z
" id="C0_2_919e3f95db"/>
     </defs>
     <use style="fill:#0000ff;stroke:#000000;" x="417.980284091" xlink:href="#C0_0_919e3f95db" y="59.968125"/>
     <use style="fill:#0000ff;stroke:#000000;" x="426.380284091" xlink:href="#C0_1_919e3f95db" y="58.918125"/>
     <use style="fill:#0000ff;stroke:#000000;" x="434.780284091" xlink:href="#C0_2_919e3f95db" y="60.493125"/>
    </g>
    <g id="text_19">
     <!-- FC -->
     <g transform="translate(447.980284091 63.118125)scale(0.12 -0.12)">
      <use xlink:href="#BitstreamVeraSans-Roman-46"/>
      <use x="57.51953125" xlink:href="#BitstreamVeraSans-Roman-43"/>
     </g>
    </g>
    <g id="PathCollection_4">
     <defs>
      <path d="
M0 2.23607
C0.593012 2.23607 1.16182 2.00046 1.58114 1.58114
C2.00046 1.16182 2.23607 0.593012 2.23607 0
C2.23607 -0.593012 2.00046 -1.16182 1.58114 -1.58114
C1.16182 -2.00046 0.593012 -2.23607 0 -2.23607
C-0.593012 -2.23607 -1.16182 -2.00046 -1.58114 -1.58114
C-2.00046 -1.16182 -2.23607 -0.593012 -2.23607 0
C-2.23607 0.593012 -2.00046 1.16182 -1.58114 1.58114
C-1.16182 2.00046 -0.593012 2.23607 0 2.23607
z
" id="C1_0_919e3f95db"/>
      <path d="
M0 2.23607
C0.593012 2.23607 1.16182 2.00046 1.58114 1.58114
C2.00046 1.16182 2.23607 0.593012 2.23607 0
C2.23607 -0.593012 2.00046 -1.16182 1.58114 -1.58114
C1.16182 -2.00046 0.593012 -2.23607 0 -2.23607
C-0.593012 -2.23607 -1.16182 -2.00046 -1.58114 -1.58114
C-2.00046 -1.16182 -2.23607 -0.593012 -2.23607 0
C-2.23607 0.593012 -2.00046 1.16182 -1.58114 1.58114
C-1.16182 2.00046 -0.593012 2.23607 0 2.23607
z
" id="C1_1_919e3f95db"/>
      <path d="
M0 2.23607
C0.593012 2.23607 1.16182 2.00046 1.58114 1.58114
C2.00046 1.16182 2.23607 0.593012 2.23607 0
C2.23607 -0.593012 2.00046 -1.16182 1.58114 -1.58114
C1.16182 -2.00046 0.593012 -2.23607 0 -2.23607
C-0.593012 -2.23607 -1.16182 -2.00046 -1.58114 -1.58114
C-2.00046 -1.16182 -2.23607 -0.593012 -2.23607 0
C-2.23607 0.593012 -2.00046 1.16182 -1.58114 1.58114
C-1.16182 2.00046 -0.593012 2.23607 0 2.23607
z
" id="C1_2_919e3f95db"/>
     </defs>
     <use style="fill:#ff0000;stroke:#000000;" x="417.980284091" xlink:href="#C1_0_919e3f95db" y="77.581875"/>
     <use style="fill:#ff0000;stroke:#000000;" x="426.380284091" xlink:href="#C1_1_919e3f95db" y="76.531875"/>
     <use style="fill:#ff0000;stroke:#000000;" x="434.780284091" xlink:href="#C1_2_919e3f95db" y="78.106875"/>
    </g>
    <g id="text_20">
     <!-- ZFC -->
     <g transform="translate(447.980284091 80.731875)scale(0.12 -0.12)">
      <use xlink:href="#BitstreamVeraSans-Roman-5a"/>
      <use x="68.505859375" xlink:href="#BitstreamVeraSans-Roman-46"/>
      <use x="126.025390625" xlink:href="#BitstreamVeraSans-Roman-43"/>
     </g>
    </g>
   </g>
  </g>
  <g id="axes_2">
   <g id="patch_8">
    <path d="
M552.109 378
L907.2 378
L907.2 43.2
L552.109 43.2
z
" style="fill:#ffffff;"/>
   </g>
   <g id="PathCollection_5">
    <g clip-path="url(#p20e0665c28)">
     <use style="fill:#0000ff;stroke:#000000;" x="856.472828727" xlink:href="#m892ea4c8d5" y="98.188101072"/>
     <use style="fill:#0000ff;stroke:#000000;" x="850.808925818" xlink:href="#m892ea4c8d5" y="98.5189332137"/>
     <use style="fill:#0000ff;stroke:#000000;" x="845.326930909" xlink:href="#m892ea4c8d5" y="99.435103848"/>
     <use style="fill:#0000ff;stroke:#000000;" x="840.093398182" xlink:href="#m892ea4c8d5" y="100.492319026"/>
     <use style="fill:#0000ff;stroke:#000000;" x="835.242349091" xlink:href="#m892ea4c8d5" y="101.590951834"/>
     <use style="fill:#0000ff;stroke:#000000;" x="830.166476727" xlink:href="#m892ea4c8d5" y="103.082185471"/>
     <use style="fill:#0000ff;stroke:#000000;" x="825.107648727" xlink:href="#m892ea4c8d5" y="104.567517062"/>
     <use style="fill:#0000ff;stroke:#000000;" x="820.063430182" xlink:href="#m892ea4c8d5" y="106.262175178"/>
     <use style="fill:#0000ff;stroke:#000000;" x="815.176669091" xlink:href="#m892ea4c8d5" y="108.183458458"/>
     <use style="fill:#0000ff;stroke:#000000;" x="810.162176727" xlink:href="#m892ea4c8d5" y="110.035136818"/>
     <use style="fill:#0000ff;stroke:#000000;" x="805.240921091" xlink:href="#m892ea4c8d5" y="111.810493214"/>
     <use style="fill:#0000ff;stroke:#000000;" x="800.186151273" xlink:href="#m892ea4c8d5" y="113.570380893"/>
     <use style="fill:#0000ff;stroke:#000000;" x="795.101553818" xlink:href="#m892ea4c8d5" y="115.432336656"/>
     <use style="fill:#0000ff;stroke:#000000;" x="790.009854545" xlink:href="#m892ea4c8d5" y="117.604975341"/>
     <use style="fill:#0000ff;stroke:#000000;" x="784.749943636" xlink:href="#m892ea4c8d5" y="119.817402614"/>
     <use style="fill:#0000ff;stroke:#000000;" x="779.791149818" xlink:href="#m892ea4c8d5" y="122.141158539"/>
     <use style="fill:#0000ff;stroke:#000000;" x="774.582676364" xlink:href="#m892ea4c8d5" y="124.633841153"/>
     <use style="fill:#0000ff;stroke:#000000;" x="769.515123273" xlink:href="#m892ea4c8d5" y="127.318855845"/>
     <use style="fill:#0000ff;stroke:#000000;" x="764.475774545" xlink:href="#m892ea4c8d5" y="130.353426607"/>
     <use style="fill:#0000ff;stroke:#000000;" x="759.352015636" xlink:href="#m892ea4c8d5" y="133.766452419"/>
     <use style="fill:#0000ff;stroke:#000000;" x="754.357104" xlink:href="#m892ea4c8d5" y="136.94939315"/>
     <use style="fill:#0000ff;stroke:#000000;" x="749.405107636" xlink:href="#m892ea4c8d5" y="140.50315836"/>
     <use style="fill:#0000ff;stroke:#000000;" x="744.229606909" xlink:href="#m892ea4c8d5" y="144.435887517"/>
     <use style="fill:#0000ff;stroke:#000000;" x="739.202432727" xlink:href="#m892ea4c8d5" y="148.466411753"/>
     <use style="fill:#0000ff;stroke:#000000;" x="734.159533091" xlink:href="#m892ea4c8d5" y="152.831938783"/>
     <use style="fill:#0000ff;stroke:#000000;" x="729.087008727" xlink:href="#m892ea4c8d5" y="157.714116737"/>
     <use style="fill:#0000ff;stroke:#000000;" x="724.082763273" xlink:href="#m892ea4c8d5" y="163.180312159"/>
     <use style="fill:#0000ff;stroke:#000000;" x="718.827417818" xlink:href="#m892ea4c8d5" y="168.990770942"/>
     <use style="fill:#0000ff;stroke:#000000;" x="713.8251" xlink:href="#m892ea4c8d5" y="175.654207337"/>
     <use style="fill:#0000ff;stroke:#000000;" x="708.789403636" xlink:href="#m892ea4c8d5" y="182.796641136"/>
     <use style="fill:#0000ff;stroke:#000000;" x="703.711603636" xlink:href="#m892ea4c8d5" y="190.923325714"/>
     <use style="fill:#0000ff;stroke:#000000;" x="698.587337455" xlink:href="#m892ea4c8d5" y="200.33731151"/>
     <use style="fill:#0000ff;stroke:#000000;" x="693.496449818" xlink:href="#m892ea4c8d5" y="210.716519009"/>
     <use style="fill:#0000ff;stroke:#000000;" x="688.476986182" xlink:href="#m892ea4c8d5" y="222.140729139"/>
     <use style="fill:#0000ff;stroke:#000000;" x="682.191572727" xlink:href="#m892ea4c8d5" y="236.142492727"/>
     <use style="fill:#0000ff;stroke:#000000;" x="678.246411273" xlink:href="#m892ea4c8d5" y="251.336612078"/>
     <use style="fill:#0000ff;stroke:#000000;" x="673.218121091" xlink:href="#m892ea4c8d5" y="270.876110194"/>
     <use style="fill:#0000ff;stroke:#000000;" x="668.152901455" xlink:href="#m892ea4c8d5" y="290.72286001"/>
     <use style="fill:#0000ff;stroke:#000000;" x="661.991871273" xlink:href="#m892ea4c8d5" y="309.440449954"/>
     <use style="fill:#0000ff;stroke:#000000;" x="657.887223273" xlink:href="#m892ea4c8d5" y="324.261272088"/>
     <use style="fill:#0000ff;stroke:#000000;" x="652.889623091" xlink:href="#m892ea4c8d5" y="333.716695601"/>
     <use style="fill:#0000ff;stroke:#000000;" x="647.780037382" xlink:href="#m892ea4c8d5" y="337.413417542"/>
     <use style="fill:#0000ff;stroke:#000000;" x="642.7915884" xlink:href="#m892ea4c8d5" y="338.21488187"/>
     <use style="fill:#0000ff;stroke:#000000;" x="637.649983636" xlink:href="#m892ea4c8d5" y="338.20419601"/>
     <use style="fill:#0000ff;stroke:#000000;" x="632.609224691" xlink:href="#m892ea4c8d5" y="338.004039178"/>
     <use style="fill:#0000ff;stroke:#000000;" x="627.542594836" xlink:href="#m892ea4c8d5" y="337.771002117"/>
     <use style="fill:#0000ff;stroke:#000000;" x="622.3754844" xlink:href="#m892ea4c8d5" y="337.543897711"/>
     <use style="fill:#0000ff;stroke:#000000;" x="617.343420109" xlink:href="#m892ea4c8d5" y="337.336982702"/>
     <use style="fill:#0000ff;stroke:#000000;" x="612.262160509" xlink:href="#m892ea4c8d5" y="337.084967263"/>
     <use style="fill:#0000ff;stroke:#000000;" x="607.308165491" xlink:href="#m892ea4c8d5" y="336.832524237"/>
     <use style="fill:#0000ff;stroke:#000000;" x="602.119638" xlink:href="#m892ea4c8d5" y="336.553510526"/>
     <use style="fill:#0000ff;stroke:#000000;" x="597.038134909" xlink:href="#m892ea4c8d5" y="336.248485725"/>
     <use style="fill:#0000ff;stroke:#000000;" x="591.986185527" xlink:href="#m892ea4c8d5" y="336.000388402"/>
     <use style="fill:#0000ff;stroke:#000000;" x="586.870218327" xlink:href="#m892ea4c8d5" y="335.807334113"/>
     <use style="fill:#0000ff;stroke:#000000;" x="581.756239636" xlink:href="#m892ea4c8d5" y="335.695852409"/>
     <use style="fill:#0000ff;stroke:#000000;" x="576.823570364" xlink:href="#m892ea4c8d5" y="335.668335675"/>
     <use style="fill:#0000ff;stroke:#000000;" x="572.400426109" xlink:href="#m892ea4c8d5" y="335.76136703"/>
    </g>
   </g>
   <g id="PathCollection_6">
    <g clip-path="url(#p20e0665c28)">
     <use style="fill:#ff0000;stroke:#000000;" x="572.397159273" xlink:href="#mcd54f2a490" y="335.770006783"/>
     <use style="fill:#ff0000;stroke:#000000;" x="578.140379345" xlink:href="#mcd54f2a490" y="335.714444331"/>
     <use style="fill:#ff0000;stroke:#000000;" x="583.092923564" xlink:href="#mcd54f2a490" y="335.724437633"/>
     <use style="fill:#ff0000;stroke:#000000;" x="588.289526836" xlink:href="#mcd54f2a490" y="335.869847013"/>
     <use style="fill:#ff0000;stroke:#000000;" x="593.195787491" xlink:href="#mcd54f2a490" y="336.065617965"/>
     <use style="fill:#ff0000;stroke:#000000;" x="598.287943309" xlink:href="#mcd54f2a490" y="336.320239104"/>
     <use style="fill:#ff0000;stroke:#000000;" x="603.439703673" xlink:href="#mcd54f2a490" y="336.599181072"/>
     <use style="fill:#ff0000;stroke:#000000;" x="608.560723309" xlink:href="#mcd54f2a490" y="336.878551584"/>
     <use style="fill:#ff0000;stroke:#000000;" x="613.528110327" xlink:href="#mcd54f2a490" y="337.107883845"/>
     <use style="fill:#ff0000;stroke:#000000;" x="618.6672396" xlink:href="#mcd54f2a490" y="337.36384801"/>
     <use style="fill:#ff0000;stroke:#000000;" x="623.653913127" xlink:href="#mcd54f2a490" y="337.529731845"/>
     <use style="fill:#ff0000;stroke:#000000;" x="628.765730836" xlink:href="#mcd54f2a490" y="337.724913549"/>
     <use style="fill:#ff0000;stroke:#000000;" x="633.911140145" xlink:href="#mcd54f2a490" y="337.871299587"/>
     <use style="fill:#ff0000;stroke:#000000;" x="638.968212982" xlink:href="#mcd54f2a490" y="337.885057954"/>
     <use style="fill:#ff0000;stroke:#000000;" x="643.959512836" xlink:href="#mcd54f2a490" y="337.841065234"/>
     <use style="fill:#ff0000;stroke:#000000;" x="648.966101891" xlink:href="#mcd54f2a490" y="337.356938695"/>
     <use style="fill:#ff0000;stroke:#000000;" x="654.068068364" xlink:href="#mcd54f2a490" y="335.319849051"/>
     <use style="fill:#ff0000;stroke:#000000;" x="659.159564727" xlink:href="#mcd54f2a490" y="330.172995435"/>
     <use style="fill:#ff0000;stroke:#000000;" x="664.266583636" xlink:href="#mcd54f2a490" y="322.00054848"/>
     <use style="fill:#ff0000;stroke:#000000;" x="669.383139273" xlink:href="#mcd54f2a490" y="312.262599682"/>
     <use style="fill:#ff0000;stroke:#000000;" x="674.450489455" xlink:href="#mcd54f2a490" y="303.130578621"/>
     <use style="fill:#ff0000;stroke:#000000;" x="679.610061818" xlink:href="#mcd54f2a490" y="295.344758705"/>
     <use style="fill:#ff0000;stroke:#000000;" x="684.536998909" xlink:href="#mcd54f2a490" y="289.770430536"/>
     <use style="fill:#ff0000;stroke:#000000;" x="689.687034545" xlink:href="#mcd54f2a490" y="285.511276162"/>
     <use style="fill:#ff0000;stroke:#000000;" x="694.762196727" xlink:href="#mcd54f2a490" y="282.182041224"/>
     <use style="fill:#ff0000;stroke:#000000;" x="699.715410545" xlink:href="#mcd54f2a490" y="279.537548811"/>
     <use style="fill:#ff0000;stroke:#000000;" x="704.772006545" xlink:href="#mcd54f2a490" y="277.256878776"/>
     <use style="fill:#ff0000;stroke:#000000;" x="709.945681091" xlink:href="#mcd54f2a490" y="275.302083929"/>
     <use style="fill:#ff0000;stroke:#000000;" x="715.002885818" xlink:href="#mcd54f2a490" y="273.750912483"/>
     <use style="fill:#ff0000;stroke:#000000;" x="720.120963273" xlink:href="#mcd54f2a490" y="272.274942857"/>
     <use style="fill:#ff0000;stroke:#000000;" x="725.215909091" xlink:href="#mcd54f2a490" y="271.015627094"/>
     <use style="fill:#ff0000;stroke:#000000;" x="730.213052727" xlink:href="#mcd54f2a490" y="269.950678035"/>
     <use style="fill:#ff0000;stroke:#000000;" x="735.204717818" xlink:href="#mcd54f2a490" y="269.003061072"/>
     <use style="fill:#ff0000;stroke:#000000;" x="740.482383273" xlink:href="#mcd54f2a490" y="268.109481785"/>
     <use style="fill:#ff0000;stroke:#000000;" x="745.410334909" xlink:href="#mcd54f2a490" y="267.388389545"/>
     <use style="fill:#ff0000;stroke:#000000;" x="750.496149818" xlink:href="#mcd54f2a490" y="266.756136007"/>
     <use style="fill:#ff0000;stroke:#000000;" x="755.662824" xlink:href="#mcd54f2a490" y="266.180361315"/>
     <use style="fill:#ff0000;stroke:#000000;" x="760.619791636" xlink:href="#mcd54f2a490" y="265.727821721"/>
     <use style="fill:#ff0000;stroke:#000000;" x="765.717984" xlink:href="#mcd54f2a490" y="265.305200811"/>
     <use style="fill:#ff0000;stroke:#000000;" x="770.825916" xlink:href="#mcd54f2a490" y="264.922164741"/>
     <use style="fill:#ff0000;stroke:#000000;" x="775.782883636" xlink:href="#mcd54f2a490" y="264.630817954"/>
     <use style="fill:#ff0000;stroke:#000000;" x="780.979081091" xlink:href="#mcd54f2a490" y="264.310671672"/>
     <use style="fill:#ff0000;stroke:#000000;" x="786.060229091" xlink:href="#mcd54f2a490" y="264.075904173"/>
     <use style="fill:#ff0000;stroke:#000000;" x="790.995282545" xlink:href="#mcd54f2a490" y="263.909115422"/>
     <use style="fill:#ff0000;stroke:#000000;" x="796.117012364" xlink:href="#mcd54f2a490" y="263.783438198"/>
     <use style="fill:#ff0000;stroke:#000000;" x="801.233162182" xlink:href="#mcd54f2a490" y="263.66814073"/>
     <use style="fill:#ff0000;stroke:#000000;" x="806.322325091" xlink:href="#mcd54f2a490" y="263.553453555"/>
     <use style="fill:#ff0000;stroke:#000000;" x="811.354572" xlink:href="#mcd54f2a490" y="263.510407841"/>
     <use style="fill:#ff0000;stroke:#000000;" x="816.526623273" xlink:href="#mcd54f2a490" y="263.479369968"/>
     <use style="fill:#ff0000;stroke:#000000;" x="821.483185091" xlink:href="#mcd54f2a490" y="263.507151672"/>
     <use style="fill:#ff0000;stroke:#000000;" x="826.628756727" xlink:href="#mcd54f2a490" y="263.604335503"/>
     <use style="fill:#ff0000;stroke:#000000;" x="831.752617091" xlink:href="#mcd54f2a490" y="263.699992646"/>
     <use style="fill:#ff0000;stroke:#000000;" x="836.700656727" xlink:href="#mcd54f2a490" y="263.796870374"/>
     <use style="fill:#ff0000;stroke:#000000;" x="841.838112" xlink:href="#mcd54f2a490" y="264.013421883"/>
     <use style="fill:#ff0000;stroke:#000000;" x="847.034512364" xlink:href="#mcd54f2a490" y="264.187131429"/>
     <use style="fill:#ff0000;stroke:#000000;" x="851.996857091" xlink:href="#mcd54f2a490" y="264.381905633"/>
     <use style="fill:#ff0000;stroke:#000000;" x="856.5057" xlink:href="#mcd54f2a490" y="264.825287013"/>
    </g>
   </g>
   <g id="patch_9">
    <path d="
M552.109 43.2
L907.2 43.2" style="fill:none;stroke:#000000;stroke-linecap:square;stroke-linejoin:miter;"/>
   </g>
   <g id="patch_10">
    <path d="
M907.2 378
L907.2 43.2" style="fill:none;stroke:#000000;stroke-linecap:square;stroke-linejoin:miter;"/>
   </g>
   <g id="patch_11">
    <path d="
M552.109 378
L907.2 378" style="fill:none;stroke:#000000;stroke-linecap:square;stroke-linejoin:miter;"/>
   </g>
   <g id="patch_12">
    <path d="
M552.109 378
L552.109 43.2" style="fill:none;stroke:#000000;stroke-linecap:square;stroke-linejoin:miter;"/>
   </g>
   <g id="matplotlib.axis_3">
    <g id="xtick_9">
     <g id="line2d_31">
      <g>
       <use style="stroke:#000000;stroke-width:0.5;" x="552.109090909" xlink:href="#m93b0483c22" y="378.0"/>
      </g>
     </g>
     <g id="line2d_32">
      <g>
       <use style="stroke:#000000;stroke-width:0.5;" x="552.109090909" xlink:href="#m741efc42ff" y="43.2"/>
      </g>
     </g>
     <g id="text_21">
      <!-- 0 -->
      <g transform="translate(549.589559659 389.5984375)scale(0.1 -0.1)">
       <use xlink:href="#BitstreamVeraSans-Roman-30"/>
      </g>
     </g>
    </g>
    <g id="xtick_10">
     <g id="line2d_33">
      <g>
       <use style="stroke:#000000;stroke-width:0.5;" x="602.836363636" xlink:href="#m93b0483c22" y="378.0"/>
      </g>
     </g>
     <g id="line2d_34">
      <g>
       <use style="stroke:#000000;stroke-width:0.5;" x="602.836363636" xlink:href="#m741efc42ff" y="43.2"/>
      </g>
     </g>
     <g id="text_22">
      <!-- 50 -->
      <g transform="translate(597.191832386 389.5984375)scale(0.1 -0.1)">
       <use xlink:href="#BitstreamVeraSans-Roman-35"/>
       <use x="63.623046875" xlink:href="#BitstreamVeraSans-Roman-30"/>
      </g>
     </g>
    </g>
    <g id="xtick_11">
     <g id="line2d_35">
      <g>
       <use style="stroke:#000000;stroke-width:0.5;" x="653.563636364" xlink:href="#m93b0483c22" y="378.0"/>
      </g>
     </g>
     <g id="line2d_36">
      <g>
       <use style="stroke:#000000;stroke-width:0.5;" x="653.563636364" xlink:href="#m741efc42ff" y="43.2"/>
      </g>
     </g>
     <g id="text_23">
      <!-- 100 -->
      <g transform="translate(644.901136364 389.5984375)scale(0.1 -0.1)">
       <use xlink:href="#BitstreamVeraSans-Roman-31"/>
       <use x="63.623046875" xlink:href="#BitstreamVeraSans-Roman-30"/>
       <use x="127.24609375" xlink:href="#BitstreamVeraSans-Roman-30"/>
      </g>
     </g>
    </g>
    <g id="xtick_12">
     <g id="line2d_37">
      <g>
       <use style="stroke:#000000;stroke-width:0.5;" x="704.290909091" xlink:href="#m93b0483c22" y="378.0"/>
      </g>
     </g>
     <g id="line2d_38">
      <g>
       <use style="stroke:#000000;stroke-width:0.5;" x="704.290909091" xlink:href="#m741efc42ff" y="43.2"/>
      </g>
     </g>
     <g id="text_24">
      <!-- 150 -->
      <g transform="translate(695.628409091 389.5984375)scale(0.1 -0.1)">
       <use xlink:href="#BitstreamVeraSans-Roman-31"/>
       <use x="63.623046875" xlink:href="#BitstreamVeraSans-Roman-35"/>
       <use x="127.24609375" xlink:href="#BitstreamVeraSans-Roman-30"/>
      </g>
     </g>
    </g>
    <g id="xtick_13">
     <g id="line2d_39">
      <g>
       <use style="stroke:#000000;stroke-width:0.5;" x="755.018181818" xlink:href="#m93b0483c22" y="378.0"/>
      </g>
     </g>
     <g id="line2d_40">
      <g>
       <use style="stroke:#000000;stroke-width:0.5;" x="755.018181818" xlink:href="#m741efc42ff" y="43.2"/>
      </g>
     </g>
     <g id="text_25">
      <!-- 200 -->
      <g transform="translate(746.172869318 389.5984375)scale(0.1 -0.1)">
       <use xlink:href="#BitstreamVeraSans-Roman-32"/>
       <use x="63.623046875" xlink:href="#BitstreamVeraSans-Roman-30"/>
       <use x="127.24609375" xlink:href="#BitstreamVeraSans-Roman-30"/>
      </g>
     </g>
    </g>
    <g id="xtick_14">
     <g id="line2d_41">
      <g>
       <use style="stroke:#000000;stroke-width:0.5;" x="805.745454545" xlink:href="#m93b0483c22" y="378.0"/>
      </g>
     </g>
     <g id="line2d_42">
      <g>
       <use style="stroke:#000000;stroke-width:0.5;" x="805.745454545" xlink:href="#m741efc42ff" y="43.2"/>
      </g>
     </g>
     <g id="text_26">
      <!-- 250 -->
      <g transform="translate(796.900142045 389.5984375)scale(0.1 -0.1)">
       <use xlink:href="#BitstreamVeraSans-Roman-32"/>
       <use x="63.623046875" xlink:href="#BitstreamVeraSans-Roman-35"/>
       <use x="127.24609375" xlink:href="#BitstreamVeraSans-Roman-30"/>
      </g>
     </g>
    </g>
    <g id="xtick_15">
     <g id="line2d_43">
      <g>
       <use style="stroke:#000000;stroke-width:0.5;" x="856.472727273" xlink:href="#m93b0483c22" y="378.0"/>
      </g>
     </g>
     <g id="line2d_44">
      <g>
       <use style="stroke:#000000;stroke-width:0.5;" x="856.472727273" xlink:href="#m741efc42ff" y="43.2"/>
      </g>
     </g>
     <g id="text_27">
      <!-- 300 -->
      <g transform="translate(847.642258523 389.5984375)scale(0.1 -0.1)">
       <use xlink:href="#BitstreamVeraSans-Roman-33"/>
       <use x="63.623046875" xlink:href="#BitstreamVeraSans-Roman-30"/>
       <use x="127.24609375" xlink:href="#BitstreamVeraSans-Roman-30"/>
      </g>
     </g>
    </g>
    <g id="xtick_16">
     <g id="line2d_45">
      <g>
       <use style="stroke:#000000;stroke-width:0.5;" x="907.2" xlink:href="#m93b0483c22" y="378.0"/>
      </g>
     </g>
     <g id="line2d_46">
      <g>
       <use style="stroke:#000000;stroke-width:0.5;" x="907.2" xlink:href="#m741efc42ff" y="43.2"/>
      </g>
     </g>
     <g id="text_28">
      <!-- 350 -->
      <g transform="translate(898.36953125 389.5984375)scale(0.1 -0.1)">
       <use xlink:href="#BitstreamVeraSans-Roman-33"/>
       <use x="63.623046875" xlink:href="#BitstreamVeraSans-Roman-35"/>
       <use x="127.24609375" xlink:href="#BitstreamVeraSans-Roman-30"/>
      </g>
     </g>
    </g>
    <g id="text_29">
     <!-- temperature (K) -->
     <g transform="translate(689.888920455 404.2765625)scale(0.1 -0.1)">
      <use xlink:href="#BitstreamVeraSans-Roman-74"/>
      <use x="39.208984375" xlink:href="#BitstreamVeraSans-Roman-65"/>
      <use x="100.732421875" xlink:href="#BitstreamVeraSans-Roman-6d"/>
      <use x="198.14453125" xlink:href="#BitstreamVeraSans-Roman-70"/>
      <use x="261.62109375" xlink:href="#BitstreamVeraSans-Roman-65"/>
      <use x="323.14453125" xlink:href="#BitstreamVeraSans-Roman-72"/>
      <use x="364.2578125" xlink:href="#BitstreamVeraSans-Roman-61"/>
      <use x="425.537109375" xlink:href="#BitstreamVeraSans-Roman-74"/>
      <use x="464.74609375" xlink:href="#BitstreamVeraSans-Roman-75"/>
      <use x="528.125" xlink:href="#BitstreamVeraSans-Roman-72"/>
      <use x="566.98828125" xlink:href="#BitstreamVeraSans-Roman-65"/>
      <use x="628.51171875" xlink:href="#BitstreamVeraSans-Roman-20"/>
      <use x="660.298828125" xlink:href="#BitstreamVeraSans-Roman-28"/>
      <use x="699.3125" xlink:href="#BitstreamVeraSans-Roman-4b"/>
      <use x="764.888671875" xlink:href="#BitstreamVeraSans-Roman-29"/>
     </g>
    </g>
   </g>
   <g id="matplotlib.axis_4">
    <g id="ytick_8">
     <g id="line2d_47">
      <g>
       <use style="stroke:#000000;stroke-width:0.5;" x="552.109090909" xlink:href="#m728421d6d4" y="378.0"/>
      </g>
     </g>
     <g id="line2d_48">
      <g>
       <use style="stroke:#000000;stroke-width:0.5;" x="907.2" xlink:href="#mcb0005524f" y="378.0"/>
      </g>
     </g>
     <g id="text_30">
      <!-- 0.00 -->
      <g transform="translate(527.166903409 380.759375)scale(0.1 -0.1)">
       <use xlink:href="#BitstreamVeraSans-Roman-30"/>
       <use x="63.623046875" xlink:href="#BitstreamVeraSans-Roman-2e"/>
       <use x="95.41015625" xlink:href="#BitstreamVeraSans-Roman-30"/>
       <use x="159.033203125" xlink:href="#BitstreamVeraSans-Roman-30"/>
      </g>
     </g>
    </g>
    <g id="ytick_9">
     <g id="line2d_49">
      <g>
       <use style="stroke:#000000;stroke-width:0.5;" x="552.109090909" xlink:href="#m728421d6d4" y="330.171428571"/>
      </g>
     </g>
     <g id="line2d_50">
      <g>
       <use style="stroke:#000000;stroke-width:0.5;" x="907.2" xlink:href="#mcb0005524f" y="330.171428571"/>
      </g>
     </g>
     <g id="text_31">
      <!-- 0.05 -->
      <g transform="translate(527.376278409 332.930803571)scale(0.1 -0.1)">
       <use xlink:href="#BitstreamVeraSans-Roman-30"/>
       <use x="63.623046875" xlink:href="#BitstreamVeraSans-Roman-2e"/>
       <use x="95.41015625" xlink:href="#BitstreamVeraSans-Roman-30"/>
       <use x="159.033203125" xlink:href="#BitstreamVeraSans-Roman-35"/>
      </g>
     </g>
    </g>
    <g id="ytick_10">
     <g id="line2d_51">
      <g>
       <use style="stroke:#000000;stroke-width:0.5;" x="552.109090909" xlink:href="#m728421d6d4" y="282.342857143"/>
      </g>
     </g>
     <g id="line2d_52">
      <g>
       <use style="stroke:#000000;stroke-width:0.5;" x="907.2" xlink:href="#mcb0005524f" y="282.342857143"/>
      </g>
     </g>
     <g id="text_32">
      <!-- 0.10 -->
      <g transform="translate(527.166903409 285.102232143)scale(0.1 -0.1)">
       <use xlink:href="#BitstreamVeraSans-Roman-30"/>
       <use x="63.623046875" xlink:href="#BitstreamVeraSans-Roman-2e"/>
       <use x="95.41015625" xlink:href="#BitstreamVeraSans-Roman-31"/>
       <use x="159.033203125" xlink:href="#BitstreamVeraSans-Roman-30"/>
      </g>
     </g>
    </g>
    <g id="ytick_11">
     <g id="line2d_53">
      <g>
       <use style="stroke:#000000;stroke-width:0.5;" x="552.109090909" xlink:href="#m728421d6d4" y="234.514285714"/>
      </g>
     </g>
     <g id="line2d_54">
      <g>
       <use style="stroke:#000000;stroke-width:0.5;" x="907.2" xlink:href="#mcb0005524f" y="234.514285714"/>
      </g>
     </g>
     <g id="text_33">
      <!-- 0.15 -->
      <g transform="translate(527.376278409 237.273660714)scale(0.1 -0.1)">
       <use xlink:href="#BitstreamVeraSans-Roman-30"/>
       <use x="63.623046875" xlink:href="#BitstreamVeraSans-Roman-2e"/>
       <use x="95.41015625" xlink:href="#BitstreamVeraSans-Roman-31"/>
       <use x="159.033203125" xlink:href="#BitstreamVeraSans-Roman-35"/>
      </g>
     </g>
    </g>
    <g id="ytick_12">
     <g id="line2d_55">
      <g>
       <use style="stroke:#000000;stroke-width:0.5;" x="552.109090909" xlink:href="#m728421d6d4" y="186.685714286"/>
      </g>
     </g>
     <g id="line2d_56">
      <g>
       <use style="stroke:#000000;stroke-width:0.5;" x="907.2" xlink:href="#mcb0005524f" y="186.685714286"/>
      </g>
     </g>
     <g id="text_34">
      <!-- 0.20 -->
      <g transform="translate(527.166903409 189.445089286)scale(0.1 -0.1)">
       <use xlink:href="#BitstreamVeraSans-Roman-30"/>
       <use x="63.623046875" xlink:href="#BitstreamVeraSans-Roman-2e"/>
       <use x="95.41015625" xlink:href="#BitstreamVeraSans-Roman-32"/>
       <use x="159.033203125" xlink:href="#BitstreamVeraSans-Roman-30"/>
      </g>
     </g>
    </g>
    <g id="ytick_13">
     <g id="line2d_57">
      <g>
       <use style="stroke:#000000;stroke-width:0.5;" x="552.109090909" xlink:href="#m728421d6d4" y="138.857142857"/>
      </g>
     </g>
     <g id="line2d_58">
      <g>
       <use style="stroke:#000000;stroke-width:0.5;" x="907.2" xlink:href="#mcb0005524f" y="138.857142857"/>
      </g>
     </g>
     <g id="text_35">
      <!-- 0.25 -->
      <g transform="translate(527.376278409 141.616517857)scale(0.1 -0.1)">
       <use xlink:href="#BitstreamVeraSans-Roman-30"/>
       <use x="63.623046875" xlink:href="#BitstreamVeraSans-Roman-2e"/>
       <use x="95.41015625" xlink:href="#BitstreamVeraSans-Roman-32"/>
       <use x="159.033203125" xlink:href="#BitstreamVeraSans-Roman-35"/>
      </g>
     </g>
    </g>
    <g id="ytick_14">
     <g id="line2d_59">
      <g>
       <use style="stroke:#000000;stroke-width:0.5;" x="552.109090909" xlink:href="#m728421d6d4" y="91.0285714286"/>
      </g>
     </g>
     <g id="line2d_60">
      <g>
       <use style="stroke:#000000;stroke-width:0.5;" x="907.2" xlink:href="#mcb0005524f" y="91.0285714286"/>
      </g>
     </g>
     <g id="text_36">
      <!-- 0.30 -->
      <g transform="translate(527.166903409 93.7879464286)scale(0.1 -0.1)">
       <use xlink:href="#BitstreamVeraSans-Roman-30"/>
       <use x="63.623046875" xlink:href="#BitstreamVeraSans-Roman-2e"/>
       <use x="95.41015625" xlink:href="#BitstreamVeraSans-Roman-33"/>
       <use x="159.033203125" xlink:href="#BitstreamVeraSans-Roman-30"/>
      </g>
     </g>
    </g>
    <g id="ytick_15">
     <g id="line2d_61">
      <g>
       <use style="stroke:#000000;stroke-width:0.5;" x="552.109090909" xlink:href="#m728421d6d4" y="43.2"/>
      </g>
     </g>
     <g id="line2d_62">
      <g>
       <use style="stroke:#000000;stroke-width:0.5;" x="907.2" xlink:href="#mcb0005524f" y="43.2"/>
      </g>
     </g>
     <g id="text_37">
      <!-- 0.35 -->
      <g transform="translate(527.376278409 45.959375)scale(0.1 -0.1)">
       <use xlink:href="#BitstreamVeraSans-Roman-30"/>
       <use x="63.623046875" xlink:href="#BitstreamVeraSans-Roman-2e"/>
       <use x="95.41015625" xlink:href="#BitstreamVeraSans-Roman-33"/>
       <use x="159.033203125" xlink:href="#BitstreamVeraSans-Roman-35"/>
      </g>
     </g>
    </g>
    <g id="text_38">
     <!-- magnetization (Am$^2$/kg) -->
     <g transform="translate(520.066903409 271.5)rotate(-90.0)scale(0.1 -0.1)">
      <use transform="translate(0.0 0.8578125)" xlink:href="#BitstreamVeraSans-Roman-6d"/>
      <use transform="translate(97.412109375 0.8578125)" xlink:href="#BitstreamVeraSans-Roman-61"/>
      <use transform="translate(158.69140625 0.8578125)" xlink:href="#BitstreamVeraSans-Roman-67"/>
      <use transform="translate(222.16796875 0.8578125)" xlink:href="#BitstreamVeraSans-Roman-6e"/>
      <use transform="translate(285.546875 0.8578125)" xlink:href="#BitstreamVeraSans-Roman-65"/>
      <use transform="translate(347.0703125 0.8578125)" xlink:href="#BitstreamVeraSans-Roman-74"/>
      <use transform="translate(386.279296875 0.8578125)" xlink:href="#BitstreamVeraSans-Roman-69"/>
      <use transform="translate(414.0625 0.8578125)" xlink:href="#BitstreamVeraSans-Roman-7a"/>
      <use transform="translate(466.552734375 0.8578125)" xlink:href="#BitstreamVeraSans-Roman-61"/>
      <use transform="translate(527.83203125 0.8578125)" xlink:href="#BitstreamVeraSans-Roman-74"/>
      <use transform="translate(567.041015625 0.8578125)" xlink:href="#BitstreamVeraSans-Roman-69"/>
      <use transform="translate(594.82421875 0.8578125)" xlink:href="#BitstreamVeraSans-Roman-6f"/>
      <use transform="translate(656.005859375 0.8578125)" xlink:href="#BitstreamVeraSans-Roman-6e"/>
      <use transform="translate(719.384765625 0.8578125)" xlink:href="#BitstreamVeraSans-Roman-20"/>
      <use transform="translate(751.171875 0.8578125)" xlink:href="#BitstreamVeraSans-Roman-28"/>
      <use transform="translate(790.185546875 0.8578125)" xlink:href="#BitstreamVeraSans-Roman-41"/>
      <use transform="translate(858.59375 0.8578125)" xlink:href="#BitstreamVeraSans-Roman-6d"/>
      <use transform="translate(956.005859375 43.3734375)scale(0.7)" xlink:href="#Cmr10-32"/>
      <use transform="translate(1023.01210938 0.8578125)" xlink:href="#BitstreamVeraSans-Roman-2f"/>
      <use transform="translate(1056.70351562 0.8578125)" xlink:href="#BitstreamVeraSans-Roman-6b"/>
      <use transform="translate(1114.61367187 0.8578125)" xlink:href="#BitstreamVeraSans-Roman-67"/>
      <use transform="translate(1178.09023437 0.8578125)" xlink:href="#BitstreamVeraSans-Roman-29"/>
     </g>
    </g>
   </g>
   <g id="text_39">
    <!-- RTSIRM experiment on MPMS on specimen PW10-7c -->
    <defs>
     <path d="
M44.3906 34.1875
Q47.5625 33.1094 50.5625 29.5938
Q53.5625 26.0781 56.5938 19.9219
L66.6094 0
L56 0
L46.6875 18.7031
Q43.0625 26.0312 39.6719 28.4219
Q36.2812 30.8125 30.4219 30.8125
L19.6719 30.8125
L19.6719 0
L9.8125 0
L9.8125 72.9062
L32.0781 72.9062
Q44.5781 72.9062 50.7344 67.6719
Q56.8906 62.4531 56.8906 51.9062
Q56.8906 45.0156 53.6875 40.4688
Q50.4844 35.9375 44.3906 34.1875
M19.6719 64.7969
L19.6719 38.9219
L32.0781 38.9219
Q39.2031 38.9219 42.8438 42.2188
Q46.4844 45.5156 46.4844 51.9062
Q46.4844 58.2969 42.8438 61.5469
Q39.2031 64.7969 32.0781 64.7969
z
" id="BitstreamVeraSans-Roman-52"/>
     <path d="
M-0.296875 72.9062
L61.375 72.9062
L61.375 64.5938
L35.5 64.5938
L35.5 0
L25.5938 0
L25.5938 64.5938
L-0.296875 64.5938
z
" id="BitstreamVeraSans-Roman-54"/>
     <path d="
M9.8125 72.9062
L19.6719 72.9062
L19.6719 0
L9.8125 0
z
" id="BitstreamVeraSans-Roman-49"/>
    </defs>
    <g transform="translate(573.672357955 38.2)scale(0.12 -0.12)">
     <use xlink:href="#BitstreamVeraSans-Roman-52"/>
     <use x="62.232421875" xlink:href="#BitstreamVeraSans-Roman-54"/>
     <use x="123.31640625" xlink:href="#BitstreamVeraSans-Roman-53"/>
     <use x="186.79296875" xlink:href="#BitstreamVeraSans-Roman-49"/>
     <use x="216.28515625" xlink:href="#BitstreamVeraSans-Roman-52"/>
     <use x="285.767578125" xlink:href="#BitstreamVeraSans-Roman-4d"/>
     <use x="372.046875" xlink:href="#BitstreamVeraSans-Roman-20"/>
     <use x="403.833984375" xlink:href="#BitstreamVeraSans-Roman-65"/>
     <use x="463.607421875" xlink:href="#BitstreamVeraSans-Roman-78"/>
     <use x="522.787109375" xlink:href="#BitstreamVeraSans-Roman-70"/>
     <use x="586.263671875" xlink:href="#BitstreamVeraSans-Roman-65"/>
     <use x="647.787109375" xlink:href="#BitstreamVeraSans-Roman-72"/>
     <use x="688.900390625" xlink:href="#BitstreamVeraSans-Roman-69"/>
     <use x="716.68359375" xlink:href="#BitstreamVeraSans-Roman-6d"/>
     <use x="814.095703125" xlink:href="#BitstreamVeraSans-Roman-65"/>
     <use x="875.619140625" xlink:href="#BitstreamVeraSans-Roman-6e"/>
     <use x="938.998046875" xlink:href="#BitstreamVeraSans-Roman-74"/>
     <use x="978.20703125" xlink:href="#BitstreamVeraSans-Roman-20"/>
     <use x="1009.99414062" xlink:href="#BitstreamVeraSans-Roman-6f"/>
     <use x="1071.17578125" xlink:href="#BitstreamVeraSans-Roman-6e"/>
     <use x="1134.5546875" xlink:href="#BitstreamVeraSans-Roman-20"/>
     <use x="1166.34179688" xlink:href="#BitstreamVeraSans-Roman-4d"/>
     <use x="1252.62109375" xlink:href="#BitstreamVeraSans-Roman-50"/>
     <use x="1312.92382812" xlink:href="#BitstreamVeraSans-Roman-4d"/>
     <use x="1399.203125" xlink:href="#BitstreamVeraSans-Roman-53"/>
     <use x="1462.6796875" xlink:href="#BitstreamVeraSans-Roman-20"/>
     <use x="1494.46679688" xlink:href="#BitstreamVeraSans-Roman-6f"/>
     <use x="1555.6484375" xlink:href="#BitstreamVeraSans-Roman-6e"/>
     <use x="1619.02734375" xlink:href="#BitstreamVeraSans-Roman-20"/>
     <use x="1650.81445312" xlink:href="#BitstreamVeraSans-Roman-73"/>
     <use x="1702.9140625" xlink:href="#BitstreamVeraSans-Roman-70"/>
     <use x="1766.390625" xlink:href="#BitstreamVeraSans-Roman-65"/>
     <use x="1827.9140625" xlink:href="#BitstreamVeraSans-Roman-63"/>
     <use x="1882.89453125" xlink:href="#BitstreamVeraSans-Roman-69"/>
     <use x="1910.67773438" xlink:href="#BitstreamVeraSans-Roman-6d"/>
     <use x="2008.08984375" xlink:href="#BitstreamVeraSans-Roman-65"/>
     <use x="2069.61328125" xlink:href="#BitstreamVeraSans-Roman-6e"/>
     <use x="2132.9921875" xlink:href="#BitstreamVeraSans-Roman-20"/>
     <use x="2164.77929688" xlink:href="#BitstreamVeraSans-Roman-50"/>
     <use x="2225.08203125" xlink:href="#BitstreamVeraSans-Roman-57"/>
     <use x="2323.95898438" xlink:href="#BitstreamVeraSans-Roman-31"/>
     <use x="2387.58203125" xlink:href="#BitstreamVeraSans-Roman-30"/>
     <use x="2451.20507812" xlink:href="#BitstreamVeraSans-Roman-2d"/>
     <use x="2487.2890625" xlink:href="#BitstreamVeraSans-Roman-37"/>
     <use x="2550.91210938" xlink:href="#BitstreamVeraSans-Roman-63"/>
    </g>
   </g>
   <g id="legend_2">
    <g id="patch_13">
     <path d="
M807.459 88.0275
L901.2 88.0275
L901.2 49.2
L807.459 49.2
z
" style="fill:#ffffff;stroke:#000000;stroke-linejoin:miter;"/>
    </g>
    <g id="PathCollection_7">
     <defs>
      <path d="
M0 2.23607
C0.593012 2.23607 1.16182 2.00046 1.58114 1.58114
C2.00046 1.16182 2.23607 0.593012 2.23607 0
C2.23607 -0.593012 2.00046 -1.16182 1.58114 -1.58114
C1.16182 -2.00046 0.593012 -2.23607 0 -2.23607
C-0.593012 -2.23607 -1.16182 -2.00046 -1.58114 -1.58114
C-2.00046 -1.16182 -2.23607 -0.593012 -2.23607 0
C-2.23607 0.593012 -2.00046 1.16182 -1.58114 1.58114
C-1.16182 2.00046 -0.593012 2.23607 0 2.23607
z
" id="C2_0_919e3f95db"/>
      <path d="
M0 2.23607
C0.593012 2.23607 1.16182 2.00046 1.58114 1.58114
C2.00046 1.16182 2.23607 0.593012 2.23607 0
C2.23607 -0.593012 2.00046 -1.16182 1.58114 -1.58114
C1.16182 -2.00046 0.593012 -2.23607 0 -2.23607
C-0.593012 -2.23607 -1.16182 -2.00046 -1.58114 -1.58114
C-2.00046 -1.16182 -2.23607 -0.593012 -2.23607 0
C-2.23607 0.593012 -2.00046 1.16182 -1.58114 1.58114
C-1.16182 2.00046 -0.593012 2.23607 0 2.23607
z
" id="C2_1_919e3f95db"/>
      <path d="
M0 2.23607
C0.593012 2.23607 1.16182 2.00046 1.58114 1.58114
C2.00046 1.16182 2.23607 0.593012 2.23607 0
C2.23607 -0.593012 2.00046 -1.16182 1.58114 -1.58114
C1.16182 -2.00046 0.593012 -2.23607 0 -2.23607
C-0.593012 -2.23607 -1.16182 -2.00046 -1.58114 -1.58114
C-2.00046 -1.16182 -2.23607 -0.593012 -2.23607 0
C-2.23607 0.593012 -2.00046 1.16182 -1.58114 1.58114
C-1.16182 2.00046 -0.593012 2.23607 0 2.23607
z
" id="C2_2_919e3f95db"/>
     </defs>
     <use style="fill:#0000ff;stroke:#000000;" x="815.859375" xlink:href="#C2_0_919e3f95db" y="59.968125"/>
     <use style="fill:#0000ff;stroke:#000000;" x="824.259375" xlink:href="#C2_1_919e3f95db" y="58.918125"/>
     <use style="fill:#0000ff;stroke:#000000;" x="832.659375" xlink:href="#C2_2_919e3f95db" y="60.493125"/>
    </g>
    <g id="text_40">
     <!-- cooling -->
     <defs>
      <path d="
M9.42188 75.9844
L18.4062 75.9844
L18.4062 0
L9.42188 0
z
" id="BitstreamVeraSans-Roman-6c"/>
     </defs>
     <g transform="translate(845.859375 63.118125)scale(0.12 -0.12)">
      <use xlink:href="#BitstreamVeraSans-Roman-63"/>
      <use x="54.98046875" xlink:href="#BitstreamVeraSans-Roman-6f"/>
      <use x="116.162109375" xlink:href="#BitstreamVeraSans-Roman-6f"/>
      <use x="177.34375" xlink:href="#BitstreamVeraSans-Roman-6c"/>
      <use x="205.126953125" xlink:href="#BitstreamVeraSans-Roman-69"/>
      <use x="232.91015625" xlink:href="#BitstreamVeraSans-Roman-6e"/>
      <use x="296.2890625" xlink:href="#BitstreamVeraSans-Roman-67"/>
     </g>
    </g>
    <g id="PathCollection_8">
     <defs>
      <path d="
M0 2.23607
C0.593012 2.23607 1.16182 2.00046 1.58114 1.58114
C2.00046 1.16182 2.23607 0.593012 2.23607 0
C2.23607 -0.593012 2.00046 -1.16182 1.58114 -1.58114
C1.16182 -2.00046 0.593012 -2.23607 0 -2.23607
C-0.593012 -2.23607 -1.16182 -2.00046 -1.58114 -1.58114
C-2.00046 -1.16182 -2.23607 -0.593012 -2.23607 0
C-2.23607 0.593012 -2.00046 1.16182 -1.58114 1.58114
C-1.16182 2.00046 -0.593012 2.23607 0 2.23607
z
" id="C3_0_919e3f95db"/>
      <path d="
M0 2.23607
C0.593012 2.23607 1.16182 2.00046 1.58114 1.58114
C2.00046 1.16182 2.23607 0.593012 2.23607 0
C2.23607 -0.593012 2.00046 -1.16182 1.58114 -1.58114
C1.16182 -2.00046 0.593012 -2.23607 0 -2.23607
C-0.593012 -2.23607 -1.16182 -2.00046 -1.58114 -1.58114
C-2.00046 -1.16182 -2.23607 -0.593012 -2.23607 0
C-2.23607 0.593012 -2.00046 1.16182 -1.58114 1.58114
C-1.16182 2.00046 -0.593012 2.23607 0 2.23607
z
" id="C3_1_919e3f95db"/>
      <path d="
M0 2.23607
C0.593012 2.23607 1.16182 2.00046 1.58114 1.58114
C2.00046 1.16182 2.23607 0.593012 2.23607 0
C2.23607 -0.593012 2.00046 -1.16182 1.58114 -1.58114
C1.16182 -2.00046 0.593012 -2.23607 0 -2.23607
C-0.593012 -2.23607 -1.16182 -2.00046 -1.58114 -1.58114
C-2.00046 -1.16182 -2.23607 -0.593012 -2.23607 0
C-2.23607 0.593012 -2.00046 1.16182 -1.58114 1.58114
C-1.16182 2.00046 -0.593012 2.23607 0 2.23607
z
" id="C3_2_919e3f95db"/>
     </defs>
     <use style="fill:#ff0000;stroke:#000000;" x="815.859375" xlink:href="#C3_0_919e3f95db" y="77.581875"/>
     <use style="fill:#ff0000;stroke:#000000;" x="824.259375" xlink:href="#C3_1_919e3f95db" y="76.531875"/>
     <use style="fill:#ff0000;stroke:#000000;" x="832.659375" xlink:href="#C3_2_919e3f95db" y="78.106875"/>
    </g>
    <g id="text_41">
     <!-- warming -->
     <defs>
      <path d="
M4.20312 54.6875
L13.1875 54.6875
L24.4219 12.0156
L35.5938 54.6875
L46.1875 54.6875
L57.4219 12.0156
L68.6094 54.6875
L77.5938 54.6875
L63.2812 0
L52.6875 0
L40.9219 44.8281
L29.1094 0
L18.5 0
z
" id="BitstreamVeraSans-Roman-77"/>
     </defs>
     <g transform="translate(845.859375 80.731875)scale(0.12 -0.12)">
      <use xlink:href="#BitstreamVeraSans-Roman-77"/>
      <use x="81.787109375" xlink:href="#BitstreamVeraSans-Roman-61"/>
      <use x="143.06640625" xlink:href="#BitstreamVeraSans-Roman-72"/>
      <use x="182.4296875" xlink:href="#BitstreamVeraSans-Roman-6d"/>
      <use x="279.841796875" xlink:href="#BitstreamVeraSans-Roman-69"/>
      <use x="307.625" xlink:href="#BitstreamVeraSans-Roman-6e"/>
      <use x="371.00390625" xlink:href="#BitstreamVeraSans-Roman-67"/>
     </g>
    </g>
   </g>
  </g>
 </g>
 <defs>
  <clipPath id="pa8fb990924">
   <rect height="334.8" width="355.090909091" x="126.0" y="43.2"/>
  </clipPath>
  <clipPath id="p20e0665c28">
   <rect height="334.8" width="355.090909091" x="552.109090909" y="43.2"/>
  </clipPath>
 </defs>
</svg>
